<svg xmlns="http://www.w3.org/2000/svg" viewBox="0 0 156 48" width="156" height="48"><defs><filter id="a"><feColorMatrix in="SourceGraphic" values="0 0 0 0 1.000000 0 0 0 0 1.000000 0 0 0 0 1.000000 0 0 0 1.000000 0"/></filter></defs><g transform="translate(-24 -342)" filter="url(#a)" fill="none" fill-rule="evenodd"><g transform="translate(24 343)" fill-rule="nonzero"><rect stroke="#10212E" x=".5" y=".193" width="155" height="45.6" rx="5"/><path d="M69.079 24.61c1.34 0 2.39.503 3.154 1.51.763 1.008 1.145 2.406 1.145 4.195v.175c0 1.734-.387 3.11-1.16 4.128-.774 1.017-1.81 1.526-3.108 1.526-1.533 0-2.707-.534-3.522-1.604v5.675h-1.233v-15.4h1.15l.062 1.573c.808-1.186 1.979-1.778 3.512-1.778zm11.757 0c1.34 0 2.392.503 3.155 1.51.763 1.008 1.144 2.406 1.144 4.195v.175c0 1.734-.386 3.11-1.16 4.128-.773 1.017-1.81 1.526-3.108 1.526-1.533 0-2.707-.534-3.522-1.604v5.675h-1.232v-15.4h1.15l.062 1.573c.808-1.186 1.978-1.778 3.511-1.778zm-49.9-9.419c.998.042 3.8.402 5.6 3.027-.143.093-3.345 1.951-3.306 5.821.039 4.623 4.063 6.16 4.11 6.18-.037.11-.644 2.195-2.122 4.35-1.278 1.862-2.6 3.714-4.687 3.753-2.054.039-2.712-1.213-5.056-1.213-2.346 0-3.08 1.174-5.02 1.252-2.015.075-3.547-2.013-4.835-3.867-2.632-3.793-4.642-10.724-1.94-15.401 1.338-2.323 3.736-3.793 6.334-3.832 1.979-.036 3.848 1.33 5.057 1.33 1.21 0 3.479-1.64 5.864-1.4zm66.941 5.574c1.001 0 1.897.192 2.688.575.79.384 1.404.919 1.839 1.604.435.686.653 1.45.653 2.293h-1.285c0-1.021-.352-1.842-1.057-2.462-.704-.62-1.65-.93-2.838-.93-1.153 0-2.072.255-2.756.765-.683.51-1.025 1.177-1.025 2 0 .76.307 1.38.922 1.86.615.48 1.599.903 2.952 1.27 1.354.367 2.38.747 3.077 1.141.697.394 1.222.865 1.574 1.414.353.548.529 1.196.529 1.943 0 1.179-.475 2.124-1.425 2.837-.95.713-2.2 1.07-3.755 1.07-1.063 0-2.039-.19-2.926-.566-.888-.377-1.561-.905-2.02-1.583-.46-.679-.69-1.457-.69-2.334h1.275c0 1.055.397 1.888 1.191 2.498.795.61 1.851.915 3.17.915 1.174 0 2.117-.257 2.828-.771.712-.514 1.067-1.196 1.067-2.046 0-.829-.293-1.485-.88-1.968-.587-.484-1.661-.943-3.222-1.378-1.56-.435-2.7-.91-3.418-1.424-1.023-.726-1.534-1.679-1.534-2.858 0-1.144.475-2.075 1.425-2.79.95-.717 2.163-1.075 3.641-1.075zm9.655 1.203v2.847h2.32v1.008h-2.32v7.412c0 .617.112 1.076.336 1.377.225.302.6.453 1.124.453.208 0 .542-.034 1.005-.103l.052 1.007c-.325.117-.767.175-1.326.175-.85 0-1.468-.245-1.854-.735-.387-.49-.58-1.211-.58-2.164v-7.422h-2.062v-1.008h2.062v-2.847h1.243zm9.199 2.642c1.491 0 2.7.519 3.625 1.557.926 1.038 1.388 2.414 1.388 4.128v.257c0 1.076-.209 2.044-.626 2.904-.418.86-1.007 1.523-1.767 1.99-.76.465-1.626.698-2.6.698-1.485 0-2.691-.519-3.62-1.557-.93-1.039-1.394-2.414-1.394-4.128v-.247c0-1.069.21-2.032.627-2.888.418-.857 1.008-1.524 1.772-2 .763-.476 1.628-.714 2.595-.714zm18.822 0c1.36 0 2.44.46 3.237 1.382.798.922 1.197 2.181 1.197 3.778v.69h-7.997v.236c0 1.26.364 2.311 1.092 3.15.729.84 1.646 1.26 2.75 1.26.664 0 1.249-.12 1.757-.36.507-.24.968-.624 1.383-1.151l.776.586c-.911 1.309-2.234 1.963-3.967 1.963-.953 0-1.815-.233-2.585-.699a4.778 4.778 0 01-1.797-1.948c-.428-.833-.642-1.766-.642-2.801v-.442c0-1.07.209-2.033.627-2.89.417-.856 1-1.53 1.745-2.02a4.33 4.33 0 012.424-.734zm-78.822-3.64l5.708 14.969h-1.326l-1.565-4.195h-6.847l-1.554 4.195h-1.336l5.708-14.969h1.212zm71.964 3.64c.346 0 .618.044.819.133l-.031 1.12a4.665 4.665 0 00-.84-.071c-.773 0-1.427.214-1.963.642-.535.429-.916 1.05-1.144 1.866v7.639h-1.233V24.815h1.212l.02 1.768c.657-1.315 1.71-1.973 3.16-1.973zM68.8 25.679c-.76 0-1.412.181-1.958.545-.545.363-.963.89-1.253 1.583v5.335c.297.638.721 1.124 1.274 1.46.552.336 1.205.504 1.958.504 1.043 0 1.856-.413 2.44-1.239.583-.826.875-2.023.875-3.593 0-1.419-.294-2.54-.88-3.362-.588-.822-1.406-1.233-2.456-1.233zm11.758 0c-.76 0-1.413.181-1.958.545-.546.363-.964.89-1.254 1.583v5.335c.297.638.722 1.124 1.274 1.46.553.336 1.206.504 1.958.504 1.043 0 1.856-.413 2.44-1.239.583-.826.875-2.023.875-3.593 0-1.419-.293-2.54-.88-3.362-.587-.822-1.406-1.233-2.455-1.233zm36.174-.02c-1.105 0-2.007.43-2.704 1.29-.698.86-1.046 1.985-1.046 3.377v.226c0 1.33.347 2.42 1.04 3.274.695.853 1.605 1.28 2.73 1.28 1.12 0 2.025-.427 2.72-1.28.694-.853 1.04-1.979 1.04-3.377v-.237c0-.85-.158-1.627-.476-2.333-.318-.706-.763-1.253-1.336-1.64-.573-.387-1.23-.58-1.968-.58zm-60.612-3.147l-3.024 8.153h6.05l-3.026-8.153zm79.434 3.146a3.11 3.11 0 00-2.357 1.018c-.638.679-1.027 1.59-1.165 2.735h6.723v-.134c-.035-1.07-.342-1.94-.922-2.611-.58-.672-1.34-1.008-2.279-1.008zm8.626-15.625c.784 0 1.4.266 1.85.796.448.53.673 1.252.673 2.167v.36h-4.178v.045c.026.583.188 1.045.488 1.388.3.343.697.514 1.189.514.374 0 .686-.068.938-.205.251-.137.438-.334.56-.593h.928a2.06 2.06 0 01-.852 1.194c-.428.29-.96.435-1.596.435-.805 0-1.443-.275-1.913-.823-.471-.548-.706-1.29-.706-2.222 0-.926.237-1.666.711-2.222s1.11-.834 1.908-.834zm-30.139 0c.827 0 1.48.272 1.96.815.48.543.72 1.288.72 2.236 0 .943-.24 1.688-.72 2.233-.48.544-1.133.817-1.96.817-.826 0-1.48-.273-1.959-.817-.48-.545-.72-1.29-.72-2.233 0-.948.24-1.693.72-2.236.48-.543 1.133-.815 1.96-.815zm-52.274 0c.826 0 1.48.272 1.96.815.479.543.719 1.288.719 2.236 0 .943-.24 1.688-.72 2.233-.48.544-1.133.817-1.96.817-.826 0-1.479-.273-1.959-.817-.48-.545-.72-1.29-.72-2.233 0-.948.24-1.693.72-2.236.48-.543 1.133-.815 1.96-.815zm26.921 0c.827 0 1.48.272 1.96.815.48.543.72 1.288.72 2.236 0 .943-.24 1.688-.72 2.233-.48.544-1.133.817-1.96.817-.826 0-1.48-.273-1.96-.817-.479-.545-.719-1.29-.719-2.233 0-.948.24-1.693.72-2.236.48-.543 1.133-.815 1.96-.815zm16.628-2.235v8.232h-.884v-.94h-.086a1.965 1.965 0 01-.766.768 2.192 2.192 0 01-1.094.276c-.744 0-1.337-.277-1.779-.831-.442-.554-.663-1.294-.663-2.22 0-.925.223-1.665.669-2.219.445-.554 1.036-.83 1.773-.83.406 0 .77.09 1.092.273.321.182.565.435.73.76h.08v-3.27h.928zm-9.616 2.235c.708 0 1.254.174 1.636.522.383.348.574.829.574 1.44v4.035h-.884v-.87h-.086a1.923 1.923 0 01-.744.722c-.309.168-.657.252-1.045.252-.565 0-1.033-.158-1.405-.473-.372-.315-.558-.743-.558-1.282 0-1.079.707-1.66 2.119-1.744l1.676-.104v-.535c0-.75-.438-1.126-1.315-1.126-.349 0-.638.064-.868.191a.871.871 0 00-.442.541h-.938c.061-.473.302-.853.723-1.14.42-.286.94-.429 1.557-.429zm35.48-1.42v1.524h1.294v.787h-1.294v3.335c0 .346.069.597.205.754.137.157.356.235.658.235.082 0 .153-.002.213-.005l.218-.017v.793a2.752 2.752 0 01-.544.055c-.597 0-1.025-.122-1.286-.367-.26-.244-.39-.646-.39-1.208v-3.575h-.939v-.787h.938V8.612h.927zm-52.807 1.42c.654 0 1.156.189 1.506.566.35.377.526.916.526 1.615v3.816h-.927v-3.586c0-.532-.112-.926-.337-1.18-.225-.256-.569-.383-1.032-.383-.464 0-.834.147-1.11.442-.277.296-.416.702-.416 1.22v3.487h-.927v-5.893h.884v.93h.086c.148-.325.364-.578.65-.76.286-.182.651-.274 1.097-.274zm57.194-2.235v3.269h.087c.147-.325.37-.578.67-.76.3-.182.674-.274 1.12-.274.614 0 1.101.19 1.463.572.36.38.541.917.541 1.61v3.815h-.927v-3.586c0-.521-.114-.912-.342-1.172-.228-.261-.562-.391-1-.391-.521 0-.92.152-1.197.456-.276.304-.415.706-.415 1.205v3.488h-.927V7.798h.927zm-13.964 2.235c.654 0 1.157.189 1.507.566.35.377.525.916.525 1.615v3.816h-.927v-3.586c0-.532-.112-.926-.337-1.18-.224-.256-.568-.383-1.032-.383-.463 0-.834.147-1.11.442-.277.296-.415.702-.415 1.22v3.487h-.927v-5.893h.884v.93h.086c.147-.325.364-.578.65-.76.285-.182.65-.274 1.096-.274zm-68.164-1.89c1.154 0 2.054.345 2.701 1.038.647.692.97 1.66.97 2.902 0 1.243-.322 2.211-.967 2.906-.645.694-1.546 1.04-2.704 1.04H50.77V8.143h2.668zm30.35-.345v8.232h-.927V7.798h.927zm-16.962 2.34l1.143 4.711h.086l1.3-4.712h.889l1.299 4.712h.086l1.143-4.712h.933l-.165.596-.407 1.473-.485 1.755-.407 1.473-.164.596h-.944l-1.299-4.559h-.086l-1.294 4.559h-.938l-1.628-5.893h.938zm30.156 3.153l-1.563.104c-.848.058-1.272.38-1.272.962 0 .299.111.532.334.7.223.168.503.251.841.251.478 0 .874-.14 1.189-.423.314-.283.471-.633.471-1.053v-.54zm-35.216-2.41c-.55 0-.974.192-1.272.576-.299.385-.448.927-.448 1.627 0 .696.15 1.237.448 1.623.298.386.722.58 1.272.58s.974-.194 1.272-.58c.298-.386.447-.927.447-1.623 0-.7-.149-1.242-.447-1.627-.298-.384-.722-.576-1.272-.576zm40.935 0c-.529 0-.944.196-1.245.587-.302.392-.453.93-.453 1.616 0 .688.15 1.228.45 1.618.3.39.716.584 1.248.584.528 0 .945-.196 1.25-.59.306-.393.458-.931.458-1.612 0-.675-.153-1.21-.46-1.607-.308-.398-.724-.596-1.248-.596zm11.34 0c-.55 0-.974.192-1.273.576-.298.385-.447.927-.447 1.627 0 .696.149 1.237.447 1.623.299.386.723.58 1.272.58.55 0 .974-.194 1.273-.58.298-.386.447-.927.447-1.623 0-.7-.15-1.242-.447-1.627-.299-.384-.723-.576-1.273-.576zm-25.354 0c-.55 0-.974.192-1.272.576-.298.385-.447.927-.447 1.627 0 .696.149 1.237.447 1.623.298.386.723.58 1.272.58.55 0 .974-.194 1.272-.58.299-.386.448-.927.448-1.623 0-.7-.15-1.242-.448-1.627-.298-.384-.722-.576-1.272-.576zM53.374 9.028H51.74v6.116h1.634c.87 0 1.544-.268 2.024-.803.48-.536.72-1.285.72-2.247 0-.965-.242-1.718-.726-2.257-.483-.54-1.156-.81-2.018-.81zm-22.407-1.23c.197 1.793-.527 3.588-1.595 4.881-1.07 1.292-2.823 2.298-4.543 2.163-.234-1.754.633-3.583 1.626-4.73 1.105-1.29 2.971-2.25 4.512-2.314zm113.201 3.066c-.463 0-.844.159-1.142.476-.299.317-.466.736-.502 1.257h3.202c-.01-.521-.158-.94-.442-1.257-.284-.317-.656-.476-1.116-.476z" fill="#10212E"/></g></g></svg>