<?xml version="1.0" encoding="UTF-8"?><svg id="Capa_2" xmlns="http://www.w3.org/2000/svg" xmlns:xlink="http://www.w3.org/1999/xlink" viewBox="0 0 19.58 19.58"><defs><style>.cls-1{clip-path:url(#clippath);}.cls-2{fill:none;}.cls-2,.cls-3,.cls-4,.cls-5,.cls-6{stroke-width:0px;}.cls-7{clip-path:url(#clippath-1);}.cls-8{clip-path:url(#clippath-2);}.cls-3{fill:#5dbaf9;}.cls-4{fill:#7a361d;}.cls-5{fill:#fff;}.cls-6{fill:#f1bd51;}</style><clipPath id="clippath"><circle class="cls-2" cx="9.79" cy="9.79" r="9.79"/></clipPath><clipPath id="clippath-1"><rect class="cls-2" x="-6.99" width="33.56" height="19.58"/></clipPath><clipPath id="clippath-2"><rect class="cls-2" x="-6.99" width="33.56" height="19.58"/></clipPath></defs><g id="_4"><g class="cls-1"><g id="ARGENTINA"><g class="cls-7"><rect class="cls-5" x="-6.99" y="6.53" width="33.56" height="6.53"/><rect class="cls-3" x="-6.99" width="33.56" height="6.53"/><rect class="cls-3" x="-6.99" y="13.05" width="33.56" height="6.52"/><g class="cls-8"><path class="cls-6" d="m9.65,9.79l.1,2.67s0,.05.03.05c.03,0,.03-.05.03-.05l.1-2.67h-.27Z"/><path class="cls-4" d="m9.79,12.51s-.04-.04-.04-.06l-.1-2.67h.02s.1,2.67.1,2.67c0,0,0,.04.03.04.02,0,.02-.04.02-.04l.1-2.67-.08,2.67s-.01.06-.04.06h0Z"/><polygon class="cls-4" points="9.72 9.79 9.79 11.62 9.85 9.79 9.72 9.79"/><path class="cls-6" d="m9.54,10.65c-.15.34-.03.61-.17.9-.16.29-.06.53-.07.67-.01.13-.12.17-.09.2.03.03.14-.03.19-.21.04-.18-.06-.28.12-.64.19-.36.04-.52.23-.84l-.2-.08Z"/><path class="cls-4" d="m9.23,12.44h-.04s0-.05.02-.07c.03-.03.07-.07.07-.15,0-.04,0-.08,0-.13-.02-.14-.04-.32.08-.54.07-.15.08-.29.08-.43,0-.15.01-.3.09-.47h.01c-.08.17-.08.33-.09.47,0,.15-.01.29-.09.44-.11.21-.09.4-.08.54,0,.05,0,.09,0,.13,0,.08-.05.13-.08.16-.02.02-.03.03-.02.04.07,0,.14-.07.18-.21.01-.06.01-.11,0-.17,0-.11,0-.24.11-.48.09-.18.1-.31.11-.43,0-.13.02-.25.11-.41-.08.17-.09.29-.1.41,0,.12-.02.26-.11.44-.12.24-.12.36-.11.47,0,.06,0,.11,0,.17-.03.13-.11.21-.16.22h0Z"/><path class="cls-4" d="m9.58,10.73c-.12.34,0,.56-.16.84.18-.2.06-.47.21-.81l-.06-.03Z"/><path class="cls-6" d="m9.92,9.79l-.1-2.67s0-.05-.03-.05c-.03,0-.03.05-.03.05l-.1,2.67h.27Z"/><path class="cls-4" d="m9.91,9.79l-.1-2.67s0-.04-.02-.04c-.03,0-.03.04-.03.04l-.1,2.67.08-2.67s0-.06.04-.06c.03,0,.04.04.04.06l.1,2.67h-.02Z"/><polygon class="cls-4" points="9.85 9.79 9.79 7.96 9.72 9.79 9.85 9.79"/><path class="cls-6" d="m10.04,8.92c.15-.33.02-.61.17-.9.16-.29.06-.54.07-.67.01-.13.12-.17.09-.2-.03-.03-.14.03-.19.21-.04.18.06.28-.12.64-.18.36-.04.52-.22.84l.2.08Z"/><path class="cls-4" d="m10.05,8.93h-.01c.07-.17.08-.32.09-.47,0-.15.01-.29.09-.44.11-.21.09-.39.07-.53,0-.05,0-.1,0-.13,0-.08.05-.13.07-.16.02-.02.03-.03.02-.04-.06,0-.14.07-.17.21-.02.06-.01.11,0,.17,0,.11,0,.24-.11.48-.09.18-.1.31-.11.43,0,.13-.02.25-.11.41.08-.17.09-.29.09-.41,0-.13.02-.25.11-.44.12-.23.12-.36.11-.47,0-.05,0-.11.01-.17.04-.14.12-.21.16-.22h0s.04,0,.04,0c.02.02,0,.04-.02.06-.02.03-.07.07-.07.15,0,.04,0,.08,0,.13.01.14.04.33-.08.54-.08.14-.08.29-.09.43,0,.15-.01.3-.09.47h0Z"/><path class="cls-4" d="m10,8.84c.12-.33,0-.56.16-.84-.18.2-.06.46-.22.81l.06.03Z"/><path class="cls-6" d="m9.79,9.65l-2.67.1s-.05,0-.05.03c0,.04.05.04.05.04l2.67.1v-.27Z"/><path class="cls-4" d="m9.79,9.91l-2.67-.08s-.06,0-.06-.04c0-.03.04-.04.06-.04l2.67-.1v.02s-2.67.1-2.67.1c0,0-.04,0-.04.02,0,.03.04.03.04.03l2.67.1h0Z"/><polygon class="cls-4" points="9.79 9.72 7.96 9.79 9.79 9.85 9.79 9.72"/><path class="cls-6" d="m8.93,9.54c-.33-.15-.61-.02-.9-.18-.3-.15-.54-.06-.67-.07-.13-.01-.17-.12-.2-.09-.03.03.03.14.21.19.18.05.28-.06.64.12.36.19.52.04.85.22l.08-.2Z"/><path class="cls-4" d="m8.85,9.72c-.17-.08-.29-.09-.41-.1-.13,0-.26-.02-.44-.11-.23-.12-.36-.12-.47-.11-.06,0-.11,0-.17-.01-.13-.03-.21-.11-.22-.16h0s0-.04,0-.04c.02-.02.04,0,.06.02.03.03.07.07.15.07.03,0,.08,0,.13,0,.14-.01.33-.04.55.08.15.08.28.08.43.09.15,0,.3.01.47.09v.02c-.18-.08-.32-.08-.47-.09-.15,0-.29,0-.44-.09-.21-.11-.4-.09-.53-.07-.05,0-.1,0-.13,0-.08,0-.13-.05-.16-.08-.02-.02-.03-.02-.04-.02,0,.07.07.14.21.17.06.01.11.01.17.01.11,0,.24-.01.47.11.18.09.31.1.43.11.13,0,.25.02.41.11h0Z"/><path class="cls-4" d="m8.84,9.58c-.33-.12-.55,0-.84-.15.2.18.47.06.81.22l.03-.06Z"/><path class="cls-6" d="m9.79,9.92l2.67-.1s.05,0,.05-.04c0-.03-.05-.03-.05-.03l-2.67-.1v.27Z"/><path class="cls-4" d="m9.79,9.93v-.02s2.67-.1,2.67-.1c0,0,.04,0,.04-.03,0-.02-.04-.02-.04-.02l-2.67-.1,2.67.08s.05,0,.05.04c0,.04-.04.04-.05.04l-2.67.1h0Z"/><polygon class="cls-4" points="9.79 9.85 11.62 9.79 9.79 9.72 9.79 9.85"/><path class="cls-6" d="m10.65,10.04c.34.15.61.02.91.18.29.15.53.06.67.07.13,0,.17.12.2.09.03-.03-.03-.14-.21-.19-.18-.04-.28.06-.64-.12-.36-.18-.53-.04-.84-.22l-.08.2Z"/><path class="cls-4" d="m12.42,10.39s-.03-.01-.04-.03c-.03-.03-.07-.07-.15-.07-.04,0-.08,0-.13,0-.14.01-.33.03-.54-.08-.15-.08-.29-.08-.44-.09-.15,0-.3-.01-.47-.09h0c.17.06.31.07.46.07.15,0,.29.01.44.09.21.11.39.09.53.08.05,0,.1-.01.13,0,.08,0,.13.05.16.07.03.02.03.02.04.02,0-.06-.07-.14-.2-.17-.06-.02-.11-.01-.17-.01-.11,0-.24.01-.48-.11-.18-.09-.31-.1-.43-.11-.13-.01-.25-.02-.41-.11.17.08.29.09.41.1.12,0,.25.02.44.11.23.12.36.11.47.11.05,0,.11,0,.17.01.14.04.21.12.22.16h0s-.01.04-.01.04c0,0,0,0-.01,0h0Z"/><path class="cls-4" d="m10.73,10c.34.12.56,0,.84.15-.2-.18-.47-.06-.81-.21l-.03.06Z"/><path class="cls-6" d="m9.69,9.69l-1.82,1.96s-.03.04,0,.06c.02.02.06-.01.06-.01l1.96-1.82-.19-.19Z"/><path class="cls-4" d="m7.88,11.73s-.03-.07-.01-.08l1.82-1.96h.01s-1.82,1.97-1.82,1.97c0,0-.03.03-.01.05.02.02.05-.01.05-.01l1.96-1.81-1.95,1.83s-.02.02-.05.02h0Z"/><polygon class="cls-4" points="9.74 9.74 8.49 11.08 9.84 9.83 9.74 9.74"/><path class="cls-6" d="m9,10.22c-.35.13-.45.42-.76.51-.32.1-.42.34-.52.43-.1.09-.21.04-.21.08,0,.04.12.08.28-.02.15-.09.15-.24.54-.37.39-.12.4-.34.76-.44l-.08-.2Z"/><path class="cls-4" d="m7.6,11.29s-.06,0-.08-.02l-.02-.03s.03-.03.05-.03c.04,0,.1,0,.16-.06.03-.02.05-.06.08-.1.09-.11.21-.26.44-.33.16-.05.26-.14.37-.24.11-.1.22-.21.4-.27h0c-.17.08-.28.18-.39.28-.11.1-.21.2-.37.25-.23.07-.35.22-.43.33-.03.04-.06.07-.09.1-.06.05-.12.06-.17.06-.03,0-.04,0-.04.01.05.04.15.05.27-.02.05-.03.09-.07.13-.11.07-.08.16-.17.42-.26.19-.06.29-.15.38-.23.1-.08.19-.16.38-.21-.18.06-.27.14-.36.22-.09.08-.19.17-.39.23-.25.08-.33.17-.41.25-.04.04-.07.08-.13.11-.07.04-.14.06-.2.06h0Z"/><path class="cls-4" d="m8.97,10.31c-.32.15-.39.4-.7.49.27-.02.37-.29.72-.42l-.03-.06Z"/><path class="cls-6" d="m9.88,9.88l1.82-1.96s.04-.04.01-.06c-.03-.02-.06.01-.06.01l-1.96,1.82.19.19Z"/><path class="cls-4" d="m9.89,9.89h0s1.82-1.97,1.82-1.97c0,0,.03-.03,0-.05-.02-.02-.05.01-.05.01l-1.96,1.82,1.95-1.83s.05-.03.07-.01c.02.02,0,.06-.01.07l-1.82,1.96h0Z"/><polygon class="cls-4" points="9.84 9.83 11.09 8.49 9.74 9.74 9.84 9.83"/><path class="cls-6" d="m10.58,9.36c.34-.13.45-.42.76-.51.31-.1.42-.34.52-.43.1-.09.21-.04.21-.08,0-.04-.12-.08-.28.02-.16.09-.16.24-.54.37-.38.12-.4.34-.75.44l.08.2Z"/><path class="cls-4" d="m10.58,9.36h0c.17-.08.28-.18.39-.28.11-.1.21-.2.38-.25.22-.07.34-.22.43-.32.03-.04.06-.08.09-.1.06-.05.12-.06.16-.06.03,0,.04,0,.04-.01-.05-.04-.15-.05-.27.02-.05.03-.09.07-.12.11-.08.08-.16.17-.42.26-.19.06-.29.14-.38.22-.1.08-.19.16-.37.21.17-.06.27-.14.36-.23.09-.08.2-.16.39-.23.25-.08.33-.17.4-.25.04-.04.08-.08.13-.11.12-.07.22-.07.27-.04l.02.04s-.03.03-.06.03c-.04,0-.1,0-.15.05-.03.02-.05.06-.09.1-.09.11-.21.26-.44.33-.16.05-.26.15-.37.25-.11.1-.22.21-.39.27h0Z"/><path class="cls-4" d="m10.61,9.26c.32-.15.39-.4.7-.48-.27.02-.37.29-.72.42l.02.06Z"/><path class="cls-6" d="m9.88,9.69l-1.96-1.82s-.04-.03-.06-.01c-.02.02,0,.06,0,.06l1.82,1.96.19-.19Z"/><path class="cls-4" d="m9.7,9.88l-1.83-1.95s-.03-.05,0-.07c.02-.02.05,0,.07,0l1.96,1.82h0s-1.96-1.8-1.96-1.8c0,0-.03-.03-.05-.01-.02.02,0,.05.01.05l1.82,1.96h0Z"/><polygon class="cls-4" points="9.84 9.74 8.49 8.49 9.74 9.83 9.84 9.74"/><path class="cls-6" d="m9.36,9c-.12-.35-.41-.45-.51-.76-.1-.32-.33-.42-.42-.52-.09-.1-.04-.21-.08-.21-.04,0-.08.12.01.28.1.16.25.15.37.54.12.38.34.4.44.75l.2-.08Z"/><path class="cls-4" d="m9.17,9.08c-.07-.17-.14-.26-.22-.36-.08-.09-.17-.2-.23-.39-.08-.25-.17-.34-.25-.41-.04-.04-.08-.07-.12-.13-.07-.13-.07-.23-.04-.27l.04-.03s.03.03.03.06c0,.04,0,.1.05.16.02.03.06.06.1.09.11.09.25.2.33.44.05.16.14.26.25.37.1.11.2.22.27.39h-.02c-.06-.16-.17-.28-.27-.38-.1-.11-.2-.21-.25-.38-.07-.23-.22-.34-.32-.43-.04-.03-.08-.06-.1-.09-.05-.06-.05-.12-.06-.17,0-.03,0-.04-.01-.04-.04.05-.05.15.02.27.03.05.07.09.11.12.08.08.17.16.26.42.06.19.14.29.22.38.08.1.16.19.21.37h0Z"/><path class="cls-4" d="m9.27,8.97c-.16-.32-.4-.39-.49-.7.02.27.29.37.42.73l.07-.02Z"/><path class="cls-6" d="m9.69,9.88l1.96,1.82s.04.04.06.01c.02-.02-.01-.06-.01-.06l-1.82-1.96-.19.19Z"/><path class="cls-4" d="m11.69,11.72s-.04-.01-.04-.01l-1.96-1.81h0s1.96,1.8,1.96,1.8c0,0,.03.03.05.01.02-.02,0-.05,0-.05l-1.82-1.96,1.83,1.95s.03.05.01.07c0,0-.01,0-.03,0h0Z"/><polygon class="cls-4" points="9.74 9.83 11.09 11.08 9.84 9.74 9.74 9.83"/><path class="cls-6" d="m10.22,10.58c.13.34.42.44.52.76.1.32.34.42.42.52.09.1.04.21.08.21.04,0,.08-.12-.02-.28-.09-.16-.24-.16-.37-.54-.13-.39-.35-.4-.44-.75l-.2.08Z"/><path class="cls-4" d="m11.24,12.08s-.03-.03-.03-.06c0-.04,0-.1-.05-.16-.03-.03-.06-.05-.1-.09-.11-.09-.26-.2-.33-.44-.05-.16-.14-.26-.25-.37-.1-.11-.2-.22-.27-.39h.02c.07.16.17.27.27.38.1.11.2.21.25.38.07.23.22.34.32.43.04.03.08.06.1.09.05.06.06.12.06.16,0,.03,0,.04.02.04.04-.05.05-.15-.02-.27-.03-.05-.07-.09-.11-.13-.08-.07-.17-.16-.26-.41-.06-.19-.14-.29-.23-.38-.08-.1-.16-.19-.21-.37.06.17.14.26.22.36.08.09.17.19.23.39.08.25.17.33.25.41.04.04.08.07.11.13.07.12.07.22.04.27l-.04.02h0Z"/><path class="cls-4" d="m10.31,10.61c.15.32.4.39.49.7-.02-.27-.29-.37-.42-.72l-.06.02Z"/><path class="cls-6" d="m9.66,9.74l-.93,2.51s-.02.05.01.06c.03.01.05-.03.05-.03l1.11-2.43-.25-.1Z"/><path class="cls-4" d="m8.77,12.31c-.05-.01-.05-.05-.04-.07l.93-2.5h.02s-.93,2.51-.93,2.51c0,0-.01.04,0,.05l.04-.03,1.11-2.43-1.1,2.44s0,.03-.04.04h0Z"/><polygon class="cls-4" points="9.73 9.76 9.09 11.48 9.85 9.81 9.73 9.76"/><path class="cls-6" d="m9.23,10.49c-.27.25-.25.55-.51.77-.25.21-.26.47-.32.59-.06.12-.18.11-.16.15.01.04.14.03.25-.12.11-.15.05-.29.36-.55.31-.26.23-.47.53-.69l-.15-.15Z"/><path class="cls-4" d="m8.28,12.03s0,0-.01,0l-.04-.02s.02-.04.04-.05c.04-.02.09-.04.12-.11.02-.03.03-.08.04-.13.04-.13.09-.31.28-.47.12-.11.18-.23.25-.37.06-.13.12-.27.26-.4h.01c-.13.14-.2.27-.26.41-.06.14-.12.27-.25.37-.18.15-.23.33-.27.46-.01.05-.03.09-.04.13-.04.07-.09.1-.13.12-.03.01-.04.02-.03.03.06.02.15-.01.24-.12.04-.05.05-.1.07-.15.04-.11.08-.22.29-.4.15-.13.21-.24.27-.36.06-.11.11-.22.26-.34-.14.12-.19.23-.25.34-.06.11-.12.23-.27.36-.2.17-.24.29-.28.39-.02.05-.04.1-.07.15-.07.1-.17.14-.22.14h0Z"/><path class="cls-4" d="m9.23,10.58c-.24.26-.21.51-.46.72.24-.12.23-.41.51-.67l-.04-.05Z"/><path class="cls-6" d="m9.91,9.84l.93-2.5s.02-.04-.02-.06c-.03-.01-.05.03-.05.03l-1.12,2.43.25.1Z"/><path class="cls-4" d="m9.92,9.84h-.02s.93-2.51.93-2.51c0,0,.02-.04,0-.05l-.04.03-1.12,2.43,1.1-2.43s.02-.03.04-.04l.05.02s0,.05,0,.05l-.93,2.5h0Z"/><polygon class="cls-4" points="9.85 9.81 10.49 8.09 9.73 9.76 9.85 9.81"/><path class="cls-6" d="m10.35,9.09c.27-.25.25-.56.51-.77.25-.21.26-.47.31-.59.07-.12.18-.11.17-.15-.02-.04-.14-.03-.25.12-.11.15-.05.29-.36.55s-.24.47-.53.69l.15.15Z"/><path class="cls-4" d="m10.36,9.09h-.01c.13-.14.2-.27.26-.41.06-.14.12-.26.25-.37.19-.15.24-.33.28-.46.02-.05.03-.09.04-.13.04-.07.1-.1.13-.12.02-.01.04-.02.04-.03-.07-.02-.16.01-.24.12-.04.05-.05.1-.08.15-.04.11-.08.23-.29.4-.15.13-.21.24-.27.35-.06.11-.11.22-.26.34.13-.12.19-.23.25-.34.05-.11.12-.23.27-.36.2-.17.24-.29.28-.39.02-.05.04-.1.08-.16.08-.11.17-.15.23-.14l.04.02s-.01.03-.04.05c-.04.02-.09.04-.12.11-.02.03-.03.07-.04.12-.04.13-.09.32-.28.47-.13.1-.18.23-.25.37-.06.14-.12.27-.26.4h0Z"/><path class="cls-4" d="m10.35,8.99c.24-.26.21-.52.46-.72-.24.12-.24.41-.51.67l.05.05Z"/><path class="cls-6" d="m9.84,9.66l-2.5-.93s-.04-.02-.06.01c0,.03.04.05.04.05l2.43,1.11.1-.25Z"/><path class="cls-4" d="m9.74,9.9l-2.43-1.1s-.05-.03-.04-.06c.02-.03.05-.02.07-.01l2.5.93v.02s-2.51-.93-2.51-.93c0,0-.04-.02-.05,0,0,.02.03.04.03.04l2.43,1.11h0Z"/><polygon class="cls-4" points="9.81 9.73 8.09 9.08 9.76 9.85 9.81 9.73"/><path class="cls-6" d="m9.09,9.22c-.25-.27-.55-.25-.77-.51-.21-.25-.47-.26-.59-.32-.12-.06-.11-.18-.15-.16-.04.01-.03.14.12.25.14.11.28.05.54.36.26.31.47.24.7.53l.15-.15Z"/><path class="cls-4" d="m8.94,9.37c-.13-.14-.23-.19-.35-.25-.12-.06-.23-.12-.36-.27-.17-.2-.29-.24-.39-.28-.05-.02-.1-.04-.16-.08-.11-.08-.15-.18-.14-.23l.03-.03s.04.01.05.04c.02.04.04.09.11.12.03.02.07.03.12.04.13.04.32.09.47.28.11.12.23.18.37.25.14.06.28.12.4.26h-.01c-.12-.12-.26-.19-.39-.25-.14-.06-.27-.12-.38-.25-.15-.19-.33-.24-.46-.27-.05-.01-.09-.03-.12-.04-.07-.04-.1-.09-.12-.13-.01-.03-.02-.04-.03-.03-.02.06.01.16.13.24.05.04.1.05.15.07.11.04.22.08.4.29.13.15.24.21.36.27.12.06.22.11.34.26h0Z"/><path class="cls-4" d="m8.99,9.23c-.26-.24-.52-.21-.72-.46.12.24.41.23.67.51l.05-.05Z"/><path class="cls-6" d="m9.74,9.91l2.5.93s.04.02.06-.01c.01-.03-.03-.05-.03-.05l-2.43-1.11-.1.25Z"/><path class="cls-4" d="m12.27,10.85s-.02,0-.03,0l-2.5-.93h0s2.51.91,2.51.91c0,0,.04.01.05,0,.01-.02-.03-.04-.03-.04l-2.43-1.11,2.44,1.1s.05.03.04.06c0,.02-.02.02-.04.02h0Z"/><polygon class="cls-4" points="9.76 9.85 11.48 10.49 9.81 9.73 9.76 9.85"/><path class="cls-6" d="m10.49,10.35c.25.27.56.25.77.51.21.25.47.26.59.32.12.06.11.18.16.16.04-.01.02-.14-.12-.25-.15-.11-.28-.05-.54-.36-.27-.31-.47-.24-.7-.53l-.15.15Z"/><path class="cls-4" d="m12,11.35s-.03-.02-.04-.04c-.02-.04-.04-.09-.11-.12-.03-.02-.08-.03-.13-.04-.13-.04-.32-.09-.47-.28-.1-.12-.24-.18-.37-.25-.13-.06-.28-.13-.4-.26h0c.12.12.26.18.4.25.14.06.26.12.37.25.15.19.33.24.46.27.05.01.09.03.12.04.07.04.1.09.12.13.01.03.02.04.03.03.02-.06-.01-.16-.12-.24-.05-.04-.1-.05-.15-.07-.1-.04-.22-.08-.4-.29-.12-.15-.24-.21-.36-.27-.11-.06-.22-.11-.33-.26.12.14.23.19.34.25.11.06.23.12.36.27.17.2.29.24.39.28.05.02.1.04.15.08.12.09.15.19.14.23l-.02.03s0,0,0,0h0Z"/><path class="cls-4" d="m10.59,10.34c.26.24.51.21.71.46-.12-.24-.41-.24-.66-.51l-.05.04Z"/><path class="cls-6" d="m9.74,9.66l-2.43,1.11s-.05.02-.04.05c.01.03.06.01.06.01l2.5-.93-.1-.25Z"/><path class="cls-4" d="m7.31,10.85s-.03,0-.04-.02c0-.03.02-.05.04-.06l2.43-1.11h0s-2.43,1.13-2.43,1.13c0,0-.04.02-.03.04,0,.02.05,0,.05,0l2.5-.93-2.5.94s-.02,0-.03,0h0Z"/><polygon class="cls-4" points="9.76 9.73 8.09 10.49 9.81 9.85 9.76 9.73"/><path class="cls-6" d="m8.9,9.88c-.37-.01-.57.21-.9.18-.33-.03-.51.15-.64.19-.13.04-.21-.05-.22,0-.02.04.08.12.26.09.18-.03.24-.16.64-.13.4.03.5-.16.87-.12v-.21Z"/><path class="cls-4" d="m7.32,10.36c-.11,0-.17-.04-.2-.07v-.04s.03-.01.05,0c.04.01.09.03.16,0,.04-.01.08-.03.12-.06.12-.07.29-.16.53-.14.16.02.3-.03.44-.09.14-.05.28-.1.47-.1v.02c-.18,0-.33.05-.46.09-.14.05-.27.1-.44.09-.23-.02-.4.07-.52.14-.04.02-.08.04-.12.06-.08.02-.14,0-.17,0-.03-.01-.04-.01-.04,0,.03.06.12.1.26.08.06,0,.11-.03.16-.05.1-.05.21-.1.48-.08.2.02.32-.02.44-.06.12-.04.24-.08.42-.05-.19,0-.3.03-.42.07-.12.04-.24.08-.45.06-.26-.02-.38.03-.47.08-.05.02-.1.05-.16.06-.03,0-.05,0-.07,0h0Z"/><path class="cls-4" d="m8.83,9.96c-.36.02-.51.22-.84.18.26.09.45-.12.83-.11v-.07Z"/><path class="cls-6" d="m9.84,9.91l2.43-1.11s.05-.02.03-.05c-.02-.03-.06-.01-.06-.01l-2.5.93.1.25Z"/><path class="cls-4" d="m9.84,9.92h0s2.43-1.13,2.43-1.13c0,0,.04-.02.03-.04-.01-.02-.05,0-.05,0l-2.51.93,2.5-.94s.06-.01.07.01c.01.03-.02.05-.04.06l-2.43,1.11h0Z"/><polygon class="cls-4" points="9.81 9.85 11.48 9.08 9.76 9.73 9.81 9.85"/><path class="cls-6" d="m10.68,9.69c.37.01.57-.21.9-.18.33.03.52-.15.64-.19.13-.04.21.05.23,0,.02-.04-.08-.12-.27-.09-.18.03-.23.17-.64.13-.4-.03-.5.16-.86.12v.21Z"/><path class="cls-4" d="m10.71,9.7h-.03v-.02c.18,0,.32-.05.46-.1.14-.05.28-.1.44-.09.24.02.4-.07.52-.14.04-.03.08-.05.12-.06.08-.03.13,0,.18,0,.03.01.04.01.04,0-.03-.06-.12-.1-.25-.08-.06,0-.11.03-.16.05-.11.05-.22.1-.48.08-.2-.02-.32.02-.44.06-.12.04-.24.08-.42.05.18,0,.3-.03.42-.07.12-.04.24-.08.45-.06.26.02.38-.03.47-.08.05-.03.1-.05.16-.06.14-.02.24.02.27.07v.04s-.03.01-.06,0c-.04-.01-.09-.03-.16,0-.03.01-.07.03-.12.06-.12.07-.29.16-.53.14-.16-.02-.29.04-.43.09-.13.05-.26.1-.44.1h0Z"/><path class="cls-4" d="m10.75,9.62c.35-.02.51-.22.83-.18-.25-.09-.45.12-.83.11v.07Z"/><path class="cls-6" d="m9.91,9.74l-1.11-2.43s-.02-.05-.05-.03c-.03.01-.01.06-.01.06l.93,2.5.25-.1Z"/><path class="cls-4" d="m9.67,9.84l-.94-2.5s-.01-.03,0-.05l.04-.02s.04.04.04.04l1.11,2.43h-.01s-1.13-2.46-1.13-2.46h-.02s0,.05,0,.05l.93,2.5h0Z"/><polygon class="cls-4" points="9.85 9.76 9.09 8.09 9.73 9.81 9.85 9.76"/><path class="cls-6" d="m9.69,8.89c.01-.37-.21-.57-.19-.9.03-.33-.15-.52-.2-.64-.04-.13.05-.2.01-.22-.04-.02-.12.08-.09.26.03.18.17.24.13.64-.03.4.16.5.12.86h.21Z"/><path class="cls-4" d="m9.7,8.89h-.02c0-.18-.05-.32-.1-.46-.05-.14-.1-.27-.09-.44.02-.24-.07-.4-.13-.52-.03-.05-.05-.09-.06-.12-.02-.08,0-.14.01-.18,0-.03.01-.04,0-.04-.06.03-.1.12-.08.25.01.06.03.11.05.16.05.1.1.21.08.48-.02.2.03.32.06.44.04.12.08.24.05.42,0-.18-.03-.3-.07-.42-.04-.12-.08-.24-.06-.45.02-.26-.03-.38-.08-.47-.02-.05-.05-.1-.05-.16-.02-.14.02-.23.06-.27h.04s.01.03,0,.06c-.02.04-.03.09-.01.16.01.03.04.07.06.12.06.12.16.29.14.53-.01.16.03.29.09.43.05.14.1.28.1.47h0Z"/><path class="cls-4" d="m9.62,8.83c-.02-.36-.22-.51-.18-.84-.09.25.12.45.11.83h.07Z"/><path class="cls-6" d="m9.66,9.84l1.12,2.43s.02.05.05.03c.03-.01.02-.06.02-.06l-.93-2.51-.25.1Z"/><path class="cls-4" d="m10.83,12.31s-.06-.04-.06-.04l-1.11-2.43h.02s1.12,2.42,1.12,2.42c0,0,.02.04.04.03.02,0,0-.05,0-.05l-.93-2.5.95,2.5s.02.06-.02.07h0Z"/><polygon class="cls-4" points="9.73 9.81 10.49 11.48 9.85 9.76 9.73 9.81"/><path class="cls-6" d="m9.89,10.68c-.02.37.21.57.18.9-.03.33.15.51.19.65.04.13-.05.2,0,.22.04.02.12-.08.09-.27-.03-.18-.17-.24-.13-.64.03-.4-.16-.5-.12-.86h-.21Z"/><path class="cls-4" d="m10.25,12.46s-.01-.04,0-.06c.01-.04.03-.09,0-.17-.01-.04-.03-.07-.06-.12-.06-.12-.16-.29-.14-.53.02-.16-.03-.29-.08-.43-.05-.14-.11-.28-.1-.47h.02c0,.18.05.33.1.46.05.14.1.27.09.44-.02.24.07.4.13.52.03.04.05.08.06.12.03.08,0,.13,0,.18,0,.03,0,.04,0,.04.06-.03.1-.12.08-.26,0-.06-.03-.11-.05-.16-.04-.1-.1-.21-.08-.48.01-.2-.03-.32-.07-.44-.04-.12-.08-.24-.05-.42,0,.18.03.3.07.42.04.12.08.25.06.45-.02.26.03.38.08.48.03.05.05.1.06.16.02.14-.02.23-.06.27h-.04Z"/><path class="cls-4" d="m9.96,10.74c.02.35.22.51.18.83.09-.26-.12-.45-.11-.83h-.07Z"/><path class="cls-6" d="m9.79,8.7c.6,0,1.09.49,1.09,1.09s-.48,1.09-1.09,1.09-1.09-.49-1.09-1.09.49-1.09,1.09-1.09h0Z"/><path class="cls-4" d="m9.79,10.88c-.61,0-1.1-.49-1.1-1.1s.49-1.09,1.1-1.09,1.1.49,1.1,1.09-.49,1.1-1.1,1.1h0Zm0-2.17c-.6,0-1.08.48-1.08,1.08s.49,1.08,1.08,1.08,1.08-.48,1.08-1.08-.48-1.08-1.08-1.08h0Z"/><path class="cls-4" d="m10.48,9.55c-.2-.17-.44-.19-.57-.06-.1.13-.09.28.03.44-.01,0-.03,0-.04.01-.08-.16-.1-.33-.04-.47.19-.15.44-.17.62.08h0Z"/><path class="cls-4" d="m10.18,9.5c-.11,0-.13.03-.19.07-.05.04-.08.03-.09.04,0,0,0,.03.02.02.02,0,.05-.02.1-.07.05-.04.1-.04.15-.04.15,0,.23.12.25.12.02,0-.09-.14-.25-.14h0Z"/><path class="cls-4" d="m10.36,9.65c-.1-.12-.31-.13-.39,0h.03c.08-.13.29-.08.3-.02v.02h.06Z"/><path class="cls-4" d="m10.16,9.56s.08.04.08.08-.04.08-.08.08-.08-.03-.08-.08.04-.08.08-.08h0Z"/><path class="cls-4" d="m9.97,9.65c.08.07.27.08.39,0h-.06c-.08.08-.22.07-.3,0v-.02l-.03.02Z"/><path class="cls-4" d="m10.38,9.69c-.14.11-.29.1-.37.05-.08-.05-.08-.07-.07-.07.02,0,.03.02.1.05.07.03.17.03.33-.03h0Z"/><path class="cls-4" d="m9.96,9.94s.04.04.03.06c0,.03-.04.04-.06.03-.02,0-.03-.02-.04-.04,0,.02-.04.07-.11.07h-.02l.02.03s.06,0,.1-.03c.03.03.07.04.11.02.03-.03.05-.07.02-.11,0-.02-.03-.03-.05-.03h0Z"/><path class="cls-4" d="m10.06,10.29c-.07-.05-.11-.12-.19-.12-.02,0-.05,0-.08.03h-.02l.02.02s.08-.04.14,0c.06.03.09.07.13.08h0Z"/><path class="cls-4" d="m10.04,10.29c-.17-.05-.2-.02-.25-.02h-.02l.02.04c.06,0,.1-.05.25-.02h0Z"/><path class="cls-4" d="m10.06,10.29c-.18-.02-.12.09-.27.09h-.02l.02.03c.18,0,.1-.1.27-.12h0Z"/><path class="cls-4" d="m9.94,10.56c0-.08-.07-.15-.15-.15s-.15.07-.15.15c.02-.08.1-.13.19-.11.06.01.1.06.12.11h0Z"/><path class="cls-4" d="m9.1,9.55c.19-.17.44-.19.57-.06.1.13.09.28-.03.44,0,0,.03,0,.03.01.08-.16.1-.33.04-.47-.19-.15-.44-.17-.62.08h0Z"/><path class="cls-4" d="m9.4,9.5c.11,0,.13.03.18.07.05.04.07.03.08.04,0,0,0,.03-.02.02-.02,0-.05-.02-.1-.07-.05-.04-.1-.04-.15-.04-.15,0-.23.12-.25.12-.02,0,.08-.14.25-.14h0Z"/><path class="cls-4" d="m9.21,9.65c.11-.12.31-.13.39,0h-.04c-.08-.13-.28-.08-.3-.02v.02h-.06Z"/><path class="cls-4" d="m9.42,9.56s-.08.04-.08.08.03.08.08.08c.04,0,.07-.03.07-.08s-.03-.08-.07-.08h0Z"/><path class="cls-4" d="m9.61,9.65c-.09.07-.27.08-.39,0h.06c.08.08.21.07.3,0v-.02l.04.02Z"/><path class="cls-4" d="m9.2,9.69c.14.11.29.1.37.05.08-.05.08-.07.07-.07-.02,0-.03.02-.1.05-.07.03-.17.03-.34-.03h0Z"/><path class="cls-4" d="m9.61,9.94s-.04.04-.03.06c0,.03.04.04.06.03.02,0,.03-.02.03-.04,0,.02.04.07.11.07h.02l-.02.03s-.07,0-.1-.03c-.02.03-.07.04-.1.02-.04-.03-.04-.07-.02-.11.02-.02.03-.03.05-.03h0Z"/><path class="cls-4" d="m9.51,10.29c.08-.05.11-.12.19-.12.02,0,.05,0,.08.03h.02l-.02.02s-.08-.04-.14,0-.09.07-.13.08h0Z"/><path class="cls-4" d="m9.54,10.29c.17-.05.2-.02.25-.02h.02l-.02.04c-.07,0-.1-.05-.25-.02h0Z"/><path class="cls-4" d="m9.51,10.29c.19-.02.12.09.28.09h.02l-.02.03c-.18,0-.1-.1-.28-.12h0Z"/><path class="cls-4" d="m9.64,10.56c0-.08.07-.15.15-.15s.15.07.15.15c-.02-.08-.1-.13-.19-.11-.05.01-.1.06-.12.11h0Z"/></g></g></g></g></g></svg>