<?xml version="1.0" encoding="UTF-8"?><svg id="Capa_2" xmlns="http://www.w3.org/2000/svg" xmlns:xlink="http://www.w3.org/1999/xlink" viewBox="0 0 19.58 19.58"><defs><style>.cls-1{clip-path:url(#clippath);}.cls-2{fill:none;}.cls-2,.cls-3,.cls-4,.cls-5,.cls-6,.cls-7{stroke-width:0px;}.cls-8{clip-path:url(#clippath-1);}.cls-9{clip-path:url(#clippath-2);}.cls-3{fill-rule:evenodd;}.cls-3,.cls-5{fill:#3c9242;}.cls-4{fill:#2d146e;}.cls-6{fill:#fff;}.cls-7{fill:#ffd400;}</style><clipPath id="clippath"><circle class="cls-2" cx="9.79" cy="9.79" r="9.79"/></clipPath><clipPath id="clippath-1"><rect class="cls-2" x="-6.99" y="0" width="33.56" height="19.58"/></clipPath><clipPath id="clippath-2"><rect class="cls-2" x="-6.99" y="0" width="33.56" height="19.58"/></clipPath></defs><g id="_4"><g class="cls-1"><g id="BRAZIL"><g class="cls-8"><rect class="cls-5" x="-6.99" y="0" width="33.56" height="19.58"/><polygon class="cls-7" points="-1.82 9.79 9.79 17.2 21.4 9.79 9.79 2.38 -1.82 9.79"/><g class="cls-9"><path class="cls-4" d="m14.68,9.79c0,2.7-2.19,4.89-4.89,4.89s-4.89-2.19-4.89-4.89,2.19-4.9,4.89-4.9,4.89,2.2,4.89,4.9"/><path class="cls-6" d="m6.99,7.69c-.57,0-1.13.04-1.68.12-.11.24-.19.49-.26.75.63-.11,1.28-.17,1.94-.17,2.87,0,5.49,1.08,7.47,2.86.08-.25.14-.51.17-.77-2.07-1.74-4.73-2.79-7.64-2.79"/><path class="cls-3" d="m5.61,8.36c.11-.01.2-.13.18-.26-.01-.13-.12-.22-.23-.21-.12.01-.2.13-.18.26.01.13.12.22.23.21m0-.09c.06,0,.11-.08.1-.16,0-.08-.07-.14-.14-.13-.07,0-.12.08-.11.16.01.08.07.14.14.13"/><path class="cls-3" d="m6,8.32h.08s-.01-.18-.01-.18h.19c.08-.02.14-.09.13-.17,0-.08-.08-.14-.16-.14l-.27.02.03.47Zm.07-.27h.18s.05-.04.05-.08c0-.03-.03-.06-.06-.05h-.18s0,.13,0,.13Z"/><path class="cls-5" d="m6.39,8.29c0-.07-.01-.21-.11-.21h-.13c.14,0,.16.15.16.21"/><path class="cls-3" d="m6.59,8.28h.22c.11,0,.2-.1.2-.21v-.07c0-.11-.1-.2-.21-.2h-.22s0,.47,0,.47Zm.08-.09h.13c.07,0,.13-.06.12-.13v-.04c0-.07-.06-.12-.12-.12h-.13s0,.3,0,.3Z"/><polygon class="cls-5" points="7.17 8.27 7.59 8.29 7.6 8.2 7.26 8.19 7.26 8.07 7.53 8.08 7.53 8 7.27 7.99 7.27 7.9 7.59 7.91 7.59 7.82 7.19 7.81 7.17 8.27"/><polygon class="cls-5" points="7.77 8.3 7.85 8.3 7.88 7.99 7.94 8.31 8.01 8.32 8.13 8.01 8.11 8.33 8.18 8.33 8.23 7.87 8.11 7.86 7.99 8.17 7.92 7.84 7.81 7.83 7.77 8.3"/><polygon class="cls-5" points="8.73 8.41 9.08 8.46 9.09 8.39 8.83 8.34 8.84 8.24 9.06 8.27 9.07 8.19 8.86 8.16 8.87 8.08 9.13 8.13 9.14 8.05 8.81 7.99 8.73 8.41"/><path class="cls-3" d="m9.62,8.58l.08.02.05-.17.18.04c.08.02.16-.03.18-.1.02-.08-.03-.16-.11-.18l-.26-.07-.12.45Zm.15-.23l.17.05s.06-.01.07-.04c0-.03-.01-.06-.04-.07l-.17-.04-.03.12Z"/><path class="cls-3" d="m10.19,8.73l.08.03.05-.16.17.06c.08.02.16-.02.19-.09.03-.08-.02-.16-.09-.18l-.26-.08-.14.44Zm.16-.22l.17.05s.06,0,.07-.04c.01-.03,0-.06-.04-.07l-.17-.05-.04.11Z"/><path class="cls-5" d="m10.57,8.85c.02-.06.06-.2-.03-.23l-.12-.04c.14.04.09.18.07.25"/><path class="cls-3" d="m10.95,8.99c.11.04.23-.02.28-.14.05-.12,0-.25-.11-.29-.11-.04-.24.02-.28.14-.05.12,0,.25.12.29m.03-.08c.07.03.14-.02.17-.09.03-.08,0-.16-.06-.18-.06-.02-.14.02-.17.09-.03.08,0,.16.06.18"/><path class="cls-3" d="m11.5,9.21c.11.05.24-.01.29-.13.05-.12,0-.25-.1-.3-.11-.05-.23.01-.28.13-.05.12,0,.25.1.3m.04-.08c.06.03.14-.01.17-.09.03-.07,0-.16-.05-.18-.06-.03-.14.01-.17.09-.03.07-.01.16.05.18"/><polygon class="cls-5" points="11.62 9.01 11.79 9.08 11.75 9.14 11.6 9.07 11.62 9.01"/><polygon class="cls-5" points="11.72 9.05 11.79 9.08 11.69 9.29 11.63 9.27 11.72 9.05"/><path class="cls-3" d="m11.85,9.37l.08.04.08-.16.17.09c.07.04.16,0,.2-.07.04-.07,0-.16-.06-.2l-.24-.12-.21.41Zm.19-.19l.16.08s.06,0,.08-.03c.01-.03,0-.07-.03-.08l-.16-.08-.05.11Z"/><path class="cls-5" d="m12.2,9.54c.03-.06.09-.19,0-.24l-.12-.06c.13.07.07.2.04.26"/><polygon class="cls-5" points="12.38 9.64 12.74 9.84 12.78 9.77 12.49 9.6 12.55 9.49 12.78 9.63 12.82 9.55 12.59 9.43 12.63 9.34 12.91 9.5 12.96 9.43 12.6 9.23 12.38 9.64"/><path class="cls-5" d="m13.06,9.86s0,.08.05.12c.06.04.09.03.11,0,.05-.08-.24-.2-.15-.34.08-.12.21-.03.26,0,.05.03.13.12.07.21l-.09-.06s0-.08-.05-.11c-.04-.03-.08-.04-.1,0-.04.06.25.18.15.33-.06.1-.18.06-.25,0-.07-.04-.16-.14-.1-.24l.09.06Z"/><path class="cls-5" d="m13.56,10.19s0,.08.05.12c.05.04.1.04.11.02.05-.08-.24-.21-.13-.34.08-.12.21-.02.26.02.05.04.12.12.05.22l-.08-.06s0-.08-.05-.11c-.04-.03-.07-.04-.1,0-.05.06.23.2.14.33-.07.1-.19.05-.25,0-.06-.04-.16-.15-.09-.24l.09.06Z"/><path class="cls-3" d="m14.03,10.73c.09.07.23.05.31-.05.08-.1.07-.24-.02-.31-.09-.07-.23-.05-.31.05-.08.1-.07.24.02.31m.05-.07c.05.04.14.03.19-.04.05-.06.04-.15,0-.19-.05-.04-.13-.03-.19.04-.05.06-.05.15,0,.19"/><polygon class="cls-6" points="5.79 8.7 5.73 8.9 5.83 8.93 5.79 8.7"/><polygon class="cls-6" points="5.79 8.7 5.86 8.9 5.76 8.93 5.79 8.7"/><polygon class="cls-6" points="5.99 8.84 5.78 8.84 5.78 8.95 5.99 8.84"/><polygon class="cls-6" points="5.99 8.84 5.83 8.97 5.76 8.88 5.99 8.84"/><polygon class="cls-6" points="5.59 8.84 5.76 8.97 5.83 8.88 5.59 8.84"/><polygon class="cls-6" points="5.59 8.84 5.8 8.84 5.8 8.95 5.59 8.84"/><polygon class="cls-6" points="5.92 9.08 5.85 8.88 5.75 8.91 5.92 9.08"/><polygon class="cls-6" points="5.92 9.08 5.75 8.95 5.81 8.87 5.92 9.08"/><polygon class="cls-6" points="5.67 9.08 5.84 8.95 5.78 8.87 5.67 9.08"/><polygon class="cls-6" points="5.67 9.08 5.74 8.88 5.84 8.91 5.67 9.08"/><polygon class="cls-6" points="6.23 10.76 6.16 10.95 6.26 10.99 6.23 10.76"/><polygon class="cls-6" points="6.23 10.76 6.29 10.95 6.19 10.99 6.23 10.76"/><polygon class="cls-6" points="6.42 10.9 6.22 10.9 6.22 11.01 6.42 10.9"/><polygon class="cls-6" points="6.42 10.9 6.26 11.02 6.19 10.94 6.42 10.9"/><polygon class="cls-6" points="6.03 10.9 6.19 11.02 6.26 10.94 6.03 10.9"/><polygon class="cls-6" points="6.03 10.9 6.24 10.9 6.24 11.01 6.03 10.9"/><polygon class="cls-6" points="6.35 11.14 6.29 10.94 6.18 10.97 6.35 11.14"/><polygon class="cls-6" points="6.35 11.14 6.18 11.01 6.24 10.93 6.35 11.14"/><polygon class="cls-6" points="6.1 11.14 6.27 11.01 6.21 10.93 6.1 11.14"/><polygon class="cls-6" points="6.1 11.14 6.17 10.94 6.27 10.97 6.1 11.14"/><polygon class="cls-6" points="5.63 11.26 5.59 11.4 5.65 11.42 5.63 11.26"/><polygon class="cls-6" points="5.63 11.26 5.67 11.4 5.6 11.42 5.63 11.26"/><polygon class="cls-6" points="5.76 11.36 5.62 11.36 5.62 11.43 5.76 11.36"/><polygon class="cls-6" points="5.76 11.36 5.65 11.44 5.61 11.39 5.76 11.36"/><polygon class="cls-6" points="5.5 11.36 5.61 11.44 5.65 11.39 5.5 11.36"/><polygon class="cls-6" points="5.5 11.36 5.63 11.36 5.63 11.43 5.5 11.36"/><polygon class="cls-6" points="5.71 11.52 5.67 11.39 5.6 11.41 5.71 11.52"/><polygon class="cls-6" points="5.71 11.52 5.6 11.44 5.64 11.38 5.71 11.52"/><polygon class="cls-6" points="5.55 11.52 5.66 11.44 5.62 11.38 5.55 11.52"/><polygon class="cls-6" points="5.55 11.52 5.59 11.39 5.65 11.41 5.55 11.52"/><polygon class="cls-6" points="6.71 10.57 6.67 10.66 6.72 10.68 6.71 10.57"/><polygon class="cls-6" points="6.71 10.57 6.74 10.66 6.69 10.68 6.71 10.57"/><polygon class="cls-6" points="6.8 10.64 6.7 10.64 6.7 10.69 6.8 10.64"/><polygon class="cls-6" points="6.8 10.64 6.72 10.69 6.69 10.65 6.8 10.64"/><polygon class="cls-6" points="6.61 10.64 6.69 10.69 6.72 10.65 6.61 10.64"/><polygon class="cls-6" points="6.61 10.64 6.71 10.64 6.71 10.69 6.61 10.64"/><polygon class="cls-6" points="6.76 10.75 6.73 10.65 6.69 10.67 6.76 10.75"/><polygon class="cls-6" points="6.76 10.75 6.68 10.69 6.71 10.65 6.76 10.75"/><polygon class="cls-6" points="6.65 10.75 6.73 10.69 6.7 10.65 6.65 10.75"/><polygon class="cls-6" points="6.65 10.75 6.68 10.65 6.72 10.67 6.65 10.75"/><polygon class="cls-6" points="7.25 11.28 7.19 11.44 7.27 11.47 7.25 11.28"/><polygon class="cls-6" points="7.25 11.28 7.3 11.44 7.22 11.47 7.25 11.28"/><polygon class="cls-6" points="7.41 11.4 7.24 11.4 7.24 11.48 7.41 11.4"/><polygon class="cls-6" points="7.41 11.4 7.27 11.5 7.22 11.43 7.41 11.4"/><polygon class="cls-6" points="7.08 11.4 7.22 11.5 7.27 11.43 7.08 11.4"/><polygon class="cls-6" points="7.08 11.4 7.25 11.4 7.25 11.48 7.08 11.4"/><polygon class="cls-6" points="7.35 11.59 7.29 11.43 7.21 11.45 7.35 11.59"/><polygon class="cls-6" points="7.35 11.59 7.21 11.49 7.26 11.42 7.35 11.59"/><polygon class="cls-6" points="7.15 11.59 7.28 11.49 7.23 11.42 7.15 11.59"/><polygon class="cls-6" points="7.15 11.59 7.2 11.43 7.28 11.45 7.15 11.59"/><polygon class="cls-6" points="7.1 11.76 7.04 11.93 7.13 11.96 7.1 11.76"/><polygon class="cls-6" points="7.1 11.76 7.15 11.93 7.07 11.96 7.1 11.76"/><polygon class="cls-6" points="7.26 11.89 7.09 11.89 7.09 11.97 7.26 11.89"/><polygon class="cls-6" points="7.26 11.89 7.12 11.99 7.07 11.92 7.26 11.89"/><polygon class="cls-6" points="6.93 11.89 7.08 11.99 7.13 11.92 6.93 11.89"/><polygon class="cls-6" points="6.93 11.89 7.11 11.89 7.11 11.97 6.93 11.89"/><polygon class="cls-6" points="7.2 12.08 7.15 11.91 7.07 11.94 7.2 12.08"/><polygon class="cls-6" points="7.2 12.08 7.06 11.98 7.11 11.91 7.2 12.08"/><polygon class="cls-6" points="7 12.08 7.14 11.98 7.09 11.91 7 12.08"/><polygon class="cls-6" points="7 12.08 7.05 11.91 7.13 11.94 7 12.08"/><polygon class="cls-6" points="11.31 8.06 11.24 8.26 11.34 8.29 11.31 8.06"/><polygon class="cls-6" points="11.31 8.06 11.37 8.26 11.27 8.29 11.31 8.06"/><polygon class="cls-6" points="11.5 8.2 11.3 8.2 11.3 8.31 11.5 8.2"/><polygon class="cls-6" points="11.5 8.2 11.33 8.33 11.27 8.24 11.5 8.2"/><polygon class="cls-6" points="11.11 8.2 11.28 8.33 11.34 8.24 11.11 8.2"/><polygon class="cls-6" points="11.11 8.2 11.32 8.2 11.32 8.31 11.11 8.2"/><polygon class="cls-6" points="11.43 8.44 11.36 8.24 11.27 8.27 11.43 8.44"/><polygon class="cls-6" points="11.43 8.44 11.26 8.32 11.32 8.23 11.43 8.44"/><polygon class="cls-6" points="11.18 8.44 11.35 8.32 11.29 8.23 11.18 8.44"/><polygon class="cls-6" points="11.18 8.44 11.25 8.24 11.35 8.27 11.18 8.44"/><polygon class="cls-6" points="13.22 11.3 13.15 11.5 13.25 11.53 13.22 11.3"/><polygon class="cls-6" points="13.22 11.3 13.28 11.5 13.18 11.53 13.22 11.3"/><polygon class="cls-6" points="13.42 11.44 13.21 11.44 13.21 11.54 13.42 11.44"/><polygon class="cls-6" points="13.42 11.44 13.25 11.56 13.18 11.48 13.42 11.44"/><polygon class="cls-6" points="13.02 11.44 13.19 11.56 13.25 11.48 13.02 11.44"/><polygon class="cls-6" points="13.02 11.44 13.23 11.44 13.23 11.54 13.02 11.44"/><polygon class="cls-6" points="13.34 11.68 13.28 11.48 13.18 11.51 13.34 11.68"/><polygon class="cls-6" points="13.34 11.68 13.17 11.55 13.24 11.47 13.34 11.68"/><polygon class="cls-6" points="13.09 11.68 13.26 11.55 13.2 11.47 13.09 11.68"/><polygon class="cls-6" points="13.09 11.68 13.16 11.48 13.26 11.51 13.09 11.68"/><polygon class="cls-6" points="13.9 11.41 13.85 11.54 13.92 11.57 13.9 11.41"/><polygon class="cls-6" points="13.9 11.41 13.94 11.54 13.87 11.57 13.9 11.41"/><polygon class="cls-6" points="14.03 11.51 13.89 11.51 13.89 11.58 14.03 11.51"/><polygon class="cls-6" points="14.03 11.51 13.92 11.59 13.88 11.53 14.03 11.51"/><polygon class="cls-6" points="13.76 11.51 13.88 11.59 13.92 11.53 13.76 11.51"/><polygon class="cls-6" points="13.76 11.51 13.91 11.51 13.91 11.58 13.76 11.51"/><polygon class="cls-6" points="13.98 11.66 13.94 11.53 13.87 11.55 13.98 11.66"/><polygon class="cls-6" points="13.98 11.66 13.87 11.58 13.91 11.52 13.98 11.66"/><polygon class="cls-6" points="13.82 11.66 13.93 11.58 13.89 11.52 13.82 11.66"/><polygon class="cls-6" points="13.82 11.66 13.86 11.53 13.92 11.55 13.82 11.66"/><polygon class="cls-6" points="13.42 11.76 13.37 11.93 13.45 11.96 13.42 11.76"/><polygon class="cls-6" points="13.42 11.76 13.47 11.93 13.39 11.96 13.42 11.76"/><polygon class="cls-6" points="13.58 11.89 13.41 11.89 13.41 11.97 13.58 11.89"/><polygon class="cls-6" points="13.58 11.89 13.45 11.99 13.39 11.92 13.58 11.89"/><polygon class="cls-6" points="13.25 11.89 13.4 11.99 13.45 11.92 13.25 11.89"/><polygon class="cls-6" points="13.25 11.89 13.43 11.89 13.43 11.97 13.25 11.89"/><polygon class="cls-6" points="13.52 12.08 13.47 11.91 13.38 11.94 13.52 12.08"/><polygon class="cls-6" points="13.52 12.08 13.38 11.98 13.43 11.91 13.52 12.08"/><polygon class="cls-6" points="13.32 12.08 13.46 11.98 13.41 11.91 13.32 12.08"/><polygon class="cls-6" points="13.32 12.08 13.37 11.91 13.45 11.94 13.32 12.08"/><polygon class="cls-6" points="12.24 12.79 12.18 12.95 12.27 12.98 12.24 12.79"/><polygon class="cls-6" points="12.24 12.79 12.29 12.95 12.21 12.98 12.24 12.79"/><polygon class="cls-6" points="12.41 12.91 12.23 12.91 12.23 13 12.41 12.91"/><polygon class="cls-6" points="12.41 12.91 12.26 13.01 12.21 12.94 12.41 12.91"/><polygon class="cls-6" points="12.08 12.91 12.22 13.01 12.26 12.94 12.08 12.91"/><polygon class="cls-6" points="12.08 12.91 12.25 12.91 12.25 13 12.08 12.91"/><polygon class="cls-6" points="12.34 13.11 12.29 12.94 12.2 12.97 12.34 13.11"/><polygon class="cls-6" points="12.34 13.11 12.2 13 12.25 12.93 12.34 13.11"/><polygon class="cls-6" points="12.14 13.11 12.28 13 12.23 12.93 12.14 13.11"/><polygon class="cls-6" points="12.14 13.11 12.19 12.94 12.27 12.97 12.14 13.11"/><polygon class="cls-6" points="12.23 13.32 12.19 13.45 12.26 13.47 12.23 13.32"/><polygon class="cls-6" points="12.23 13.32 12.27 13.45 12.21 13.47 12.23 13.32"/><polygon class="cls-6" points="12.36 13.41 12.23 13.41 12.23 13.48 12.36 13.41"/><polygon class="cls-6" points="12.36 13.41 12.25 13.49 12.21 13.44 12.36 13.41"/><polygon class="cls-6" points="12.1 13.41 12.21 13.49 12.25 13.44 12.1 13.41"/><polygon class="cls-6" points="12.1 13.41 12.24 13.41 12.24 13.48 12.1 13.41"/><polygon class="cls-6" points="12.31 13.57 12.27 13.44 12.2 13.46 12.31 13.57"/><polygon class="cls-6" points="12.31 13.57 12.2 13.49 12.24 13.43 12.31 13.57"/><polygon class="cls-6" points="12.15 13.57 12.26 13.49 12.22 13.43 12.15 13.57"/><polygon class="cls-6" points="12.15 13.57 12.19 13.44 12.26 13.46 12.15 13.57"/><polygon class="cls-6" points="12.73 12.44 12.68 12.57 12.75 12.59 12.73 12.44"/><polygon class="cls-6" points="12.73 12.44 12.77 12.57 12.7 12.59 12.73 12.44"/><polygon class="cls-6" points="12.86 12.53 12.72 12.53 12.72 12.6 12.86 12.53"/><polygon class="cls-6" points="12.86 12.53 12.75 12.62 12.7 12.56 12.86 12.53"/><polygon class="cls-6" points="12.59 12.53 12.71 12.62 12.75 12.56 12.59 12.53"/><polygon class="cls-6" points="12.59 12.53 12.74 12.53 12.74 12.6 12.59 12.53"/><polygon class="cls-6" points="12.81 12.69 12.76 12.56 12.7 12.58 12.81 12.69"/><polygon class="cls-6" points="12.81 12.69 12.69 12.61 12.74 12.55 12.81 12.69"/><polygon class="cls-6" points="12.64 12.69 12.76 12.61 12.72 12.55 12.64 12.69"/><polygon class="cls-6" points="12.64 12.69 12.69 12.56 12.75 12.58 12.64 12.69"/><polygon class="cls-6" points="13.12 12.16 13.07 12.32 13.15 12.35 13.12 12.16"/><polygon class="cls-6" points="13.12 12.16 13.17 12.32 13.09 12.35 13.12 12.16"/><polygon class="cls-6" points="13.28 12.28 13.11 12.28 13.11 12.36 13.28 12.28"/><polygon class="cls-6" points="13.28 12.28 13.15 12.38 13.09 12.31 13.28 12.28"/><polygon class="cls-6" points="12.95 12.28 13.09 12.38 13.15 12.31 12.95 12.28"/><polygon class="cls-6" points="12.95 12.28 13.13 12.28 13.13 12.36 12.95 12.28"/><polygon class="cls-6" points="13.22 12.47 13.17 12.31 13.08 12.33 13.22 12.47"/><polygon class="cls-6" points="13.22 12.47 13.08 12.37 13.13 12.3 13.22 12.47"/><polygon class="cls-6" points="13.01 12.47 13.16 12.37 13.1 12.3 13.01 12.47"/><polygon class="cls-6" points="13.01 12.47 13.07 12.31 13.15 12.33 13.01 12.47"/><polygon class="cls-6" points="12.22 12.34 12.18 12.48 12.24 12.5 12.22 12.34"/><polygon class="cls-6" points="12.22 12.34 12.26 12.48 12.19 12.5 12.22 12.34"/><polygon class="cls-6" points="12.35 12.44 12.21 12.44 12.21 12.51 12.35 12.44"/><polygon class="cls-6" points="12.35 12.44 12.24 12.52 12.2 12.47 12.35 12.44"/><polygon class="cls-6" points="12.09 12.44 12.2 12.52 12.24 12.47 12.09 12.44"/><polygon class="cls-6" points="12.09 12.44 12.23 12.44 12.23 12.51 12.09 12.44"/><polygon class="cls-6" points="12.3 12.6 12.26 12.46 12.19 12.48 12.3 12.6"/><polygon class="cls-6" points="12.3 12.6 12.19 12.51 12.23 12.46 12.3 12.6"/><polygon class="cls-6" points="12.14 12.6 12.25 12.51 12.21 12.46 12.14 12.6"/><polygon class="cls-6" points="12.14 12.6 12.18 12.46 12.25 12.48 12.14 12.6"/><polygon class="cls-6" points="7.92 9.81 7.87 9.98 7.95 10 7.92 9.81"/><polygon class="cls-6" points="7.92 9.81 7.98 9.98 7.9 10 7.92 9.81"/><polygon class="cls-6" points="8.09 9.93 7.92 9.93 7.92 10.02 8.09 9.93"/><polygon class="cls-6" points="8.09 9.93 7.95 10.04 7.9 9.97 8.09 9.93"/><polygon class="cls-6" points="7.76 9.93 7.9 10.04 7.95 9.97 7.76 9.93"/><polygon class="cls-6" points="7.76 9.93 7.93 9.93 7.93 10.02 7.76 9.93"/><polygon class="cls-6" points="8.03 10.13 7.98 9.96 7.89 9.99 8.03 10.13"/><polygon class="cls-6" points="8.03 10.13 7.88 10.03 7.93 9.95 8.03 10.13"/><polygon class="cls-6" points="7.82 10.13 7.96 10.03 7.91 9.95 7.82 10.13"/><polygon class="cls-6" points="7.82 10.13 7.88 9.96 7.96 9.99 7.82 10.13"/><polygon class="cls-6" points="11.12 9.4 11.08 9.53 11.14 9.55 11.12 9.4"/><polygon class="cls-6" points="11.12 9.4 11.17 9.53 11.1 9.55 11.12 9.4"/><polygon class="cls-6" points="11.25 9.5 11.11 9.5 11.11 9.57 11.25 9.5"/><polygon class="cls-6" points="11.25 9.5 11.14 9.58 11.1 9.52 11.25 9.5"/><polygon class="cls-6" points="10.99 9.5 11.1 9.58 11.14 9.52 10.99 9.5"/><polygon class="cls-6" points="10.99 9.5 11.13 9.5 11.13 9.57 10.99 9.5"/><polygon class="cls-6" points="11.2 9.65 11.16 9.52 11.09 9.54 11.2 9.65"/><polygon class="cls-6" points="11.2 9.65 11.09 9.57 11.13 9.51 11.2 9.65"/><polygon class="cls-6" points="11.04 9.65 11.15 9.57 11.11 9.51 11.04 9.65"/><polygon class="cls-6" points="11.04 9.65 11.08 9.52 11.15 9.54 11.04 9.65"/><polygon class="cls-6" points="9.79 11.77 9.72 11.97 9.82 12.01 9.79 11.77"/><polygon class="cls-6" points="9.79 11.77 9.85 11.97 9.75 12.01 9.79 11.77"/><polygon class="cls-6" points="9.99 11.92 9.78 11.92 9.78 12.02 9.99 11.92"/><polygon class="cls-6" points="9.99 11.92 9.82 12.04 9.76 11.96 9.99 11.92"/><polygon class="cls-6" points="9.59 11.92 9.76 12.04 9.82 11.96 9.59 11.92"/><polygon class="cls-6" points="9.59 11.92 9.8 11.92 9.8 12.02 9.59 11.92"/><polygon class="cls-6" points="9.91 12.15 9.85 11.96 9.75 11.99 9.91 12.15"/><polygon class="cls-6" points="9.91 12.15 9.74 12.03 9.8 11.95 9.91 12.15"/><polygon class="cls-6" points="9.67 12.15 9.83 12.03 9.77 11.95 9.67 12.15"/><polygon class="cls-6" points="9.67 12.15 9.73 11.96 9.83 11.99 9.67 12.15"/><polygon class="cls-6" points="10.36 10.84 10.3 11 10.39 11.03 10.36 10.84"/><polygon class="cls-6" points="10.36 10.84 10.41 11 10.33 11.03 10.36 10.84"/><polygon class="cls-6" points="10.52 10.96 10.34 10.96 10.34 11.04 10.52 10.96"/><polygon class="cls-6" points="10.52 10.96 10.38 11.06 10.33 10.99 10.52 10.96"/><polygon class="cls-6" points="10.19 10.96 10.33 11.06 10.38 10.99 10.19 10.96"/><polygon class="cls-6" points="10.19 10.96 10.36 10.96 10.36 11.04 10.19 10.96"/><polygon class="cls-6" points="10.46 11.15 10.4 10.99 10.32 11.02 10.46 11.15"/><polygon class="cls-6" points="10.46 11.15 10.32 11.05 10.37 10.98 10.46 11.15"/><polygon class="cls-6" points="10.25 11.15 10.39 11.05 10.34 10.98 10.25 11.15"/><polygon class="cls-6" points="10.25 11.15 10.31 10.99 10.39 11.02 10.25 11.15"/><polygon class="cls-6" points="9.79 10.4 9.73 10.56 9.82 10.59 9.79 10.4"/><polygon class="cls-6" points="9.79 10.4 9.84 10.56 9.76 10.59 9.79 10.4"/><polygon class="cls-6" points="9.95 10.52 9.78 10.52 9.78 10.61 9.95 10.52"/><polygon class="cls-6" points="9.95 10.52 9.81 10.62 9.76 10.55 9.95 10.52"/><polygon class="cls-6" points="9.62 10.52 9.77 10.62 9.81 10.55 9.62 10.52"/><polygon class="cls-6" points="9.62 10.52 9.8 10.52 9.8 10.61 9.62 10.52"/><polygon class="cls-6" points="9.89 10.71 9.84 10.55 9.75 10.57 9.89 10.71"/><polygon class="cls-6" points="9.89 10.71 9.75 10.61 9.8 10.54 9.89 10.71"/><polygon class="cls-6" points="9.69 10.71 9.83 10.61 9.78 10.54 9.69 10.71"/><polygon class="cls-6" points="9.69 10.71 9.74 10.55 9.82 10.57 9.69 10.71"/><polygon class="cls-6" points="9.29 10.87 9.25 11.01 9.32 11.03 9.29 10.87"/><polygon class="cls-6" points="9.29 10.87 9.34 11.01 9.27 11.03 9.29 10.87"/><polygon class="cls-6" points="9.43 10.97 9.29 10.97 9.29 11.04 9.43 10.97"/><polygon class="cls-6" points="9.43 10.97 9.32 11.05 9.27 10.99 9.43 10.97"/><polygon class="cls-6" points="9.17 10.97 9.28 11.05 9.32 10.99 9.17 10.97"/><polygon class="cls-6" points="9.17 10.97 9.3 10.97 9.3 11.04 9.17 10.97"/><polygon class="cls-6" points="9.38 11.13 9.34 10.99 9.27 11.01 9.38 11.13"/><polygon class="cls-6" points="9.38 11.13 9.27 11.04 9.31 10.99 9.38 11.13"/><polygon class="cls-6" points="9.22 11.13 9.33 11.04 9.29 10.99 9.22 11.13"/><polygon class="cls-6" points="9.22 11.13 9.26 10.99 9.32 11.01 9.22 11.13"/><polygon class="cls-6" points="9.54 11.25 9.51 11.35 9.56 11.36 9.54 11.25"/><polygon class="cls-6" points="9.54 11.25 9.57 11.35 9.53 11.36 9.54 11.25"/><polygon class="cls-6" points="9.64 11.32 9.54 11.32 9.54 11.37 9.64 11.32"/><polygon class="cls-6" points="9.64 11.32 9.56 11.38 9.53 11.34 9.64 11.32"/><polygon class="cls-6" points="9.45 11.32 9.53 11.38 9.56 11.34 9.45 11.32"/><polygon class="cls-6" points="9.45 11.32 9.55 11.32 9.55 11.37 9.45 11.32"/><polygon class="cls-6" points="9.6 11.43 9.57 11.34 9.52 11.35 9.6 11.43"/><polygon class="cls-6" points="9.6 11.43 9.52 11.37 9.55 11.33 9.6 11.43"/><polygon class="cls-6" points="9.48 11.43 9.56 11.37 9.53 11.33 9.48 11.43"/><polygon class="cls-6" points="9.48 11.43 9.52 11.34 9.56 11.35 9.48 11.43"/><polygon class="cls-6" points="11.25 12.91 11.2 13.07 11.28 13.1 11.25 12.91"/><polygon class="cls-6" points="11.25 12.91 11.31 13.07 11.22 13.1 11.25 12.91"/><polygon class="cls-6" points="11.42 13.03 11.25 13.03 11.25 13.12 11.42 13.03"/><polygon class="cls-6" points="11.42 13.03 11.28 13.13 11.23 13.06 11.42 13.03"/><polygon class="cls-6" points="11.09 13.03 11.23 13.13 11.28 13.06 11.09 13.03"/><polygon class="cls-6" points="11.09 13.03 11.26 13.03 11.26 13.12 11.09 13.03"/><polygon class="cls-6" points="11.36 13.23 11.3 13.06 11.22 13.09 11.36 13.23"/><polygon class="cls-6" points="11.36 13.23 11.22 13.12 11.27 13.05 11.36 13.23"/><polygon class="cls-6" points="11.15 13.23 11.29 13.12 11.24 13.05 11.15 13.23"/><polygon class="cls-6" points="11.15 13.23 11.2 13.06 11.29 13.09 11.15 13.23"/><polygon class="cls-6" points="11.67 12.51 11.63 12.64 11.69 12.67 11.67 12.51"/><polygon class="cls-6" points="11.67 12.51 11.72 12.64 11.65 12.67 11.67 12.51"/><polygon class="cls-6" points="11.81 12.61 11.67 12.61 11.67 12.68 11.81 12.61"/><polygon class="cls-6" points="11.81 12.61 11.69 12.69 11.65 12.63 11.81 12.61"/><polygon class="cls-6" points="11.54 12.61 11.65 12.69 11.69 12.63 11.54 12.61"/><polygon class="cls-6" points="11.54 12.61 11.68 12.61 11.68 12.68 11.54 12.61"/><polygon class="cls-6" points="11.75 12.76 11.71 12.63 11.65 12.65 11.75 12.76"/><polygon class="cls-6" points="11.75 12.76 11.64 12.68 11.68 12.62 11.75 12.76"/><polygon class="cls-6" points="11.59 12.76 11.7 12.68 11.66 12.62 11.59 12.76"/><polygon class="cls-6" points="11.59 12.76 11.64 12.63 11.7 12.65 11.59 12.76"/><polygon class="cls-6" points="10.87 12.39 10.83 12.52 10.89 12.55 10.87 12.39"/><polygon class="cls-6" points="10.87 12.39 10.91 12.52 10.85 12.55 10.87 12.39"/><polygon class="cls-6" points="11 12.49 10.86 12.49 10.86 12.56 11 12.49"/><polygon class="cls-6" points="11 12.49 10.89 12.57 10.85 12.51 11 12.49"/><polygon class="cls-6" points="10.73 12.49 10.85 12.57 10.89 12.51 10.73 12.49"/><polygon class="cls-6" points="10.73 12.49 10.88 12.49 10.88 12.56 10.73 12.49"/><polygon class="cls-6" points="10.95 12.64 10.91 12.51 10.84 12.53 10.95 12.64"/><polygon class="cls-6" points="10.95 12.64 10.83 12.56 10.88 12.51 10.95 12.64"/><polygon class="cls-6" points="10.78 12.64 10.9 12.56 10.86 12.51 10.78 12.64"/><polygon class="cls-6" points="10.78 12.64 10.83 12.51 10.9 12.53 10.78 12.64"/><polygon class="cls-6" points="7.82 12.17 7.76 12.37 7.86 12.41 7.82 12.17"/><polygon class="cls-6" points="7.82 12.17 7.89 12.37 7.79 12.41 7.82 12.17"/><polygon class="cls-6" points="8.03 12.32 7.82 12.32 7.82 12.43 8.03 12.32"/><polygon class="cls-6" points="8.03 12.32 7.85 12.44 7.79 12.36 8.03 12.32"/><polygon class="cls-6" points="7.62 12.32 7.8 12.44 7.85 12.36 7.62 12.32"/><polygon class="cls-6" points="7.62 12.32 7.83 12.32 7.83 12.43 7.62 12.32"/><polygon class="cls-6" points="7.95 12.55 7.88 12.36 7.79 12.39 7.95 12.55"/><polygon class="cls-6" points="7.95 12.55 7.78 12.43 7.84 12.35 7.95 12.55"/><polygon class="cls-6" points="7.7 12.55 7.87 12.43 7.81 12.35 7.7 12.55"/><polygon class="cls-6" points="7.7 12.55 7.77 12.36 7.87 12.39 7.7 12.55"/><polygon class="cls-6" points="9.79 13.55 9.77 13.61 9.8 13.62 9.79 13.55"/><polygon class="cls-6" points="9.79 13.55 9.81 13.61 9.78 13.62 9.79 13.55"/><polygon class="cls-6" points="9.86 13.6 9.78 13.6 9.78 13.63 9.86 13.6"/><polygon class="cls-6" points="9.86 13.6 9.8 13.64 9.78 13.61 9.86 13.6"/><polygon class="cls-6" points="9.72 13.6 9.78 13.64 9.8 13.61 9.72 13.6"/><polygon class="cls-6" points="9.72 13.6 9.79 13.6 9.79 13.63 9.72 13.6"/><polygon class="cls-6" points="9.83 13.67 9.81 13.61 9.78 13.62 9.83 13.67"/><polygon class="cls-6" points="9.83 13.67 9.77 13.63 9.79 13.61 9.83 13.67"/><polygon class="cls-6" points="9.75 13.67 9.8 13.63 9.78 13.61 9.75 13.67"/><polygon class="cls-6" points="9.75 13.67 9.77 13.61 9.8 13.62 9.75 13.67"/></g></g></g></g></g></svg>