<?xml version="1.0" encoding="UTF-8"?><svg id="Capa_2" xmlns="http://www.w3.org/2000/svg" xmlns:xlink="http://www.w3.org/1999/xlink" viewBox="0 0 19.58 19.58"><defs><style>.cls-1{clip-path:url(#clippath);}.cls-2{fill:none;}.cls-2,.cls-3,.cls-4,.cls-5{stroke-width:0px;}.cls-6{clip-path:url(#clippath-1);}.cls-3{fill:#2530a9;}.cls-4{fill:#e50027;}.cls-5{fill:#fff;}</style><clipPath id="clippath"><circle class="cls-2" cx="9.79" cy="9.79" r="9.79"/></clipPath><clipPath id="clippath-1"><rect class="cls-2" y="0" width="33.56" height="19.58"/></clipPath></defs><g id="_4"><g class="cls-1"><g id="CHILE"><g class="cls-6"><rect class="cls-5" y="0" width="33.56" height="19.58"/><rect class="cls-3" y="0" width="9.79" height="19.58"/><rect class="cls-4" y="9.79" width="33.56" height="9.79"/><polygon class="cls-5" points="4.9 2.44 4.14 4.77 5.3 5.15 4.9 2.44"/><polygon class="cls-5" points="4.9 2.44 5.65 4.77 4.49 5.15 4.9 2.44"/><polygon class="cls-5" points="7.22 4.14 4.78 4.14 4.78 5.36 7.22 4.14"/><polygon class="cls-5" points="7.22 4.14 5.24 5.58 4.53 4.58 7.22 4.14"/><polygon class="cls-5" points="2.57 4.14 4.55 5.58 5.27 4.58 2.57 4.14"/><polygon class="cls-5" points="2.57 4.14 5.02 4.14 5.02 5.36 2.57 4.14"/><polygon class="cls-5" points="6.33 6.87 5.58 4.55 4.42 4.92 6.33 6.87"/><polygon class="cls-5" points="6.33 6.87 4.35 5.43 5.08 4.45 6.33 6.87"/><polygon class="cls-5" points="3.46 6.87 5.44 5.43 4.72 4.45 3.46 6.87"/><polygon class="cls-5" points="3.46 6.87 4.21 4.55 5.38 4.92 3.46 6.87"/></g></g></g></g></svg>