<?xml version="1.0" encoding="UTF-8"?><svg id="Capa_2" xmlns="http://www.w3.org/2000/svg" xmlns:xlink="http://www.w3.org/1999/xlink" viewBox="0 0 19.58 19.58"><defs><style>.cls-1{clip-path:url(#clippath);}.cls-2{fill:none;}.cls-2,.cls-3,.cls-4,.cls-5{stroke-width:0px;}.cls-6{clip-path:url(#clippath-1);}.cls-3{fill:#2a3560;}.cls-4{fill:#e50027;}.cls-5{fill:#fff;}</style><clipPath id="clippath"><circle class="cls-2" cx="9.79" cy="9.79" r="9.79"/></clipPath><clipPath id="clippath-1"><rect class="cls-2" x="-5.02" y="0" width="33.56" height="19.58"/></clipPath></defs><g id="_4"><g class="cls-1"><g id="USA"><g class="cls-6"><rect class="cls-4" x="-5.02" y="18.07" width="33.56" height="1.51"/><rect class="cls-5" x="-5.02" y="16.57" width="33.56" height="1.51"/><rect class="cls-4" x="-5.02" y="15.06" width="33.56" height="1.5"/><rect class="cls-5" x="-5.02" y="13.55" width="33.56" height="1.51"/><rect class="cls-4" x="-5.02" y="12.05" width="33.56" height="1.51"/><rect class="cls-5" x="-5.02" y="10.54" width="33.56" height="1.5"/><rect class="cls-4" x="-5.02" y="9.04" width="33.56" height="1.51"/><rect class="cls-5" x="-5.02" y="7.53" width="33.56" height="1.5"/><rect class="cls-4" x="-5.02" y="6.02" width="33.56" height="1.51"/><rect class="cls-5" x="-5.02" y="4.52" width="33.56" height="1.51"/><rect class="cls-4" x="-5.02" y="3.01" width="33.56" height="1.51"/><rect class="cls-5" x="-5.02" y="1.51" width="33.56" height="1.51"/><rect class="cls-4" x="-5.02" y="0" width="33.56" height="1.51"/><rect class="cls-3" x="-5.02" y="0" width="15.33" height="10.54"/><polygon class="cls-5" points=".05 2.09 .18 2.49 .6 2.49 .26 2.73 .39 3.13 .05 2.89 -.28 3.13 -.15 2.73 -.5 2.49 -.08 2.49 .05 2.09"/><polygon class="cls-5" points=".05 3.85 .18 4.25 .6 4.25 .26 4.49 .39 4.89 .05 4.65 -.28 4.89 -.15 4.49 -.5 4.25 -.08 4.25 .05 3.85"/><polygon class="cls-5" points=".05 5.61 .18 6.01 .6 6.01 .26 6.25 .39 6.65 .05 6.41 -.28 6.65 -.15 6.25 -.5 6.01 -.08 6.01 .05 5.61"/><polygon class="cls-5" points=".05 7.37 .18 7.77 .6 7.77 .26 8.01 .39 8.41 .05 8.16 -.28 8.41 -.15 8.01 -.5 7.77 -.08 7.77 .05 7.37"/><polygon class="cls-5" points="1.3 1.16 1.43 1.56 1.84 1.56 1.5 1.81 1.64 2.21 1.3 1.96 .96 2.21 1.08 1.81 .75 1.56 1.17 1.56 1.3 1.16"/><polygon class="cls-5" points="1.3 2.92 1.43 3.32 1.84 3.32 1.5 3.56 1.64 3.96 1.3 3.72 .96 3.96 1.08 3.56 .75 3.32 1.17 3.32 1.3 2.92"/><polygon class="cls-5" points="1.3 4.68 1.43 5.08 1.84 5.08 1.5 5.33 1.64 5.72 1.3 5.48 .96 5.72 1.08 5.33 .75 5.08 1.17 5.08 1.3 4.68"/><polygon class="cls-5" points="1.3 6.44 1.43 6.84 1.84 6.84 1.5 7.09 1.64 7.48 1.3 7.24 .96 7.48 1.08 7.09 .75 6.84 1.17 6.84 1.3 6.44"/><polygon class="cls-5" points="1.3 8.2 1.43 8.6 1.84 8.6 1.5 8.84 1.64 9.24 1.3 9 .96 9.24 1.08 8.84 .75 8.6 1.17 8.6 1.3 8.2"/><polygon class="cls-5" points="2.52 2.09 2.65 2.49 3.07 2.49 2.73 2.73 2.86 3.13 2.52 2.89 2.18 3.13 2.31 2.73 1.97 2.49 2.39 2.49 2.52 2.09"/><polygon class="cls-5" points="2.52 3.85 2.65 4.25 3.07 4.25 2.73 4.49 2.86 4.89 2.52 4.65 2.18 4.89 2.31 4.49 1.97 4.25 2.39 4.25 2.52 3.85"/><polygon class="cls-5" points="2.52 5.61 2.65 6.01 3.07 6.01 2.73 6.25 2.86 6.65 2.52 6.41 2.18 6.65 2.31 6.25 1.97 6.01 2.39 6.01 2.52 5.61"/><polygon class="cls-5" points="2.52 7.37 2.65 7.77 3.07 7.77 2.73 8.01 2.86 8.41 2.52 8.16 2.18 8.41 2.31 8.01 1.97 7.77 2.39 7.77 2.52 7.37"/><polygon class="cls-5" points="3.76 1.16 3.89 1.56 4.31 1.56 3.97 1.81 4.1 2.21 3.76 1.96 3.42 2.21 3.55 1.81 3.21 1.56 3.63 1.56 3.76 1.16"/><polygon class="cls-5" points="3.76 2.92 3.89 3.32 4.31 3.32 3.97 3.56 4.1 3.96 3.76 3.72 3.42 3.96 3.55 3.56 3.21 3.32 3.63 3.32 3.76 2.92"/><polygon class="cls-5" points="3.76 4.68 3.89 5.08 4.31 5.08 3.97 5.33 4.1 5.72 3.76 5.48 3.42 5.72 3.55 5.33 3.21 5.08 3.63 5.08 3.76 4.68"/><polygon class="cls-5" points="3.76 6.44 3.89 6.84 4.31 6.84 3.97 7.09 4.1 7.48 3.76 7.24 3.42 7.48 3.55 7.09 3.21 6.84 3.63 6.84 3.76 6.44"/><polygon class="cls-5" points="3.76 8.2 3.89 8.6 4.31 8.6 3.97 8.84 4.1 9.24 3.76 9 3.42 9.24 3.55 8.84 3.21 8.6 3.63 8.6 3.76 8.2"/><polygon class="cls-5" points="4.99 2.09 5.12 2.49 5.54 2.49 5.2 2.73 5.33 3.13 4.99 2.89 4.65 3.13 4.78 2.73 4.44 2.49 4.86 2.49 4.99 2.09"/><polygon class="cls-5" points="4.99 3.85 5.12 4.25 5.54 4.25 5.2 4.49 5.33 4.89 4.99 4.65 4.65 4.89 4.78 4.49 4.44 4.25 4.86 4.25 4.99 3.85"/><polygon class="cls-5" points="4.99 5.61 5.12 6.01 5.54 6.01 5.2 6.25 5.33 6.65 4.99 6.41 4.65 6.65 4.78 6.25 4.44 6.01 4.86 6.01 4.99 5.61"/><polygon class="cls-5" points="4.99 7.37 5.12 7.77 5.54 7.77 5.2 8.01 5.33 8.41 4.99 8.16 4.65 8.41 4.78 8.01 4.44 7.77 4.86 7.77 4.99 7.37"/><polygon class="cls-5" points="6.23 1.16 6.36 1.56 6.78 1.56 6.44 1.81 6.57 2.21 6.23 1.96 5.89 2.21 6.02 1.81 5.68 1.56 6.1 1.56 6.23 1.16"/><polygon class="cls-5" points="6.23 2.92 6.36 3.32 6.78 3.32 6.44 3.56 6.57 3.96 6.23 3.72 5.89 3.96 6.02 3.56 5.68 3.32 6.1 3.32 6.23 2.92"/><polygon class="cls-5" points="6.23 4.68 6.36 5.08 6.78 5.08 6.44 5.33 6.57 5.72 6.23 5.48 5.89 5.72 6.02 5.33 5.68 5.08 6.1 5.08 6.23 4.68"/><polygon class="cls-5" points="6.23 6.44 6.36 6.84 6.78 6.84 6.44 7.09 6.57 7.48 6.23 7.24 5.89 7.48 6.02 7.09 5.68 6.84 6.1 6.84 6.23 6.44"/><polygon class="cls-5" points="6.23 8.2 6.36 8.6 6.78 8.6 6.44 8.84 6.57 9.24 6.23 9 5.89 9.24 6.02 8.84 5.68 8.6 6.1 8.6 6.23 8.2"/><polygon class="cls-5" points="7.46 2.09 7.58 2.49 8 2.49 7.67 2.73 7.79 3.13 7.46 2.89 7.11 3.13 7.24 2.73 6.91 2.49 7.32 2.49 7.46 2.09"/><polygon class="cls-5" points="7.46 3.85 7.58 4.25 8 4.25 7.67 4.49 7.79 4.89 7.46 4.65 7.11 4.89 7.24 4.49 6.91 4.25 7.32 4.25 7.46 3.85"/><polygon class="cls-5" points="7.46 5.61 7.58 6.01 8 6.01 7.67 6.25 7.79 6.65 7.46 6.41 7.11 6.65 7.24 6.25 6.91 6.01 7.32 6.01 7.46 5.61"/><polygon class="cls-5" points="7.46 7.37 7.58 7.77 8 7.77 7.67 8.01 7.79 8.41 7.46 8.16 7.11 8.41 7.24 8.01 6.91 7.77 7.32 7.77 7.46 7.37"/><polygon class="cls-5" points="8.69 1.16 8.83 1.56 9.24 1.56 8.9 1.81 9.04 2.21 8.69 1.96 8.36 2.21 8.48 1.81 8.15 1.56 8.56 1.56 8.69 1.16"/><polygon class="cls-5" points="8.69 2.92 8.83 3.32 9.24 3.32 8.9 3.56 9.04 3.96 8.69 3.72 8.36 3.96 8.48 3.56 8.15 3.32 8.56 3.32 8.69 2.92"/><polygon class="cls-5" points="8.69 4.68 8.83 5.08 9.24 5.08 8.9 5.33 9.04 5.72 8.69 5.48 8.36 5.72 8.48 5.33 8.15 5.08 8.56 5.08 8.69 4.68"/><polygon class="cls-5" points="8.69 6.44 8.83 6.84 9.24 6.84 8.9 7.09 9.04 7.48 8.69 7.24 8.36 7.48 8.48 7.09 8.15 6.84 8.56 6.84 8.69 6.44"/><polygon class="cls-5" points="8.69 8.2 8.83 8.6 9.24 8.6 8.9 8.84 9.04 9.24 8.69 9 8.36 9.24 8.48 8.84 8.15 8.6 8.56 8.6 8.69 8.2"/></g></g></g></g></svg>