<svg xmlns="http://www.w3.org/2000/svg" viewBox="0 0 156 48" width="156" height="48"><defs><filter id="a"><feColorMatrix in="SourceGraphic" values="0 0 0 0 1.000000 0 0 0 0 1.000000 0 0 0 0 1.000000 0 0 0 1.000000 0"/></filter></defs><g transform="translate(-196 -342)" filter="url(#a)" fill="none" fill-rule="evenodd"><g transform="translate(196 343)" fill-rule="nonzero"><rect stroke="#10212E" x=".5" y=".193" width="155" height="45.6" rx="5"/><path d="M81.057 25.148c1.259 0 2.206.471 2.9 1.193v-.88h2.253v9.336c0 3.669-2.19 5.418-5.063 5.418-2.626 0-4.101-1.562-4.834-3.06l2.066-.834c.285.67 1.11 1.85 2.751 1.85 1.7 0 2.826-1.074 2.826-2.867v-1.025c-.602.674-1.416 1.263-2.948 1.263-2.478 0-5.111-2.074-5.111-5.202 0-2.745 2.272-5.192 5.16-5.192zm55.27.248l3.135 6.706 3.135-6.706h2.614l-.002.004-.005.009-.003.006-.042.092-.124.266-.072.154-6.68 14.288h-2.614l2.486-5.318-4.442-9.501h2.613zM20.185 28.174l3.335 3.313-14.066 7.66a2.33 2.33 0 01-.307.142l11.038-11.115zM7.815 16.134L19.688 27.66 7.872 39.289c-.345-.212-.53-.674-.533-1.27l-.106-20.47-.001-.169c-.003-.652.24-1.05.583-1.246zM123.172 26.85c2.725-4.1 9.928-2.762 9.57 2.925v5.514h-2.29V34.05c-.526.629-1.17 1.114-1.988 1.337-1.45.397-3.22.24-4.296-.919-.69-.744-.911-1.965-.782-2.956.24-1.834 1.747-2.953 3.508-3.13 1.127-.115 2.361.105 3.505.407-.25-2.498-4.053-3.035-5.385-.703zm-78.775-7.011c3.728 0 5.772 2.144 5.772 2.144l-1.592 1.553s-1.52-1.548-4.098-1.548c-3.342 0-6.009 2.498-6.009 5.742 0 3.33 2.797 5.706 6.001 5.706 2.505 0 5.16-1.282 5.427-4.287h-5.436v-2.144h7.665c.017.066.123.51.138 1.246l.002.175c0 4.27-3.275 7.158-7.75 7.158-5.085 0-8.54-3.897-8.54-7.892 0-4.078 3.673-7.853 8.42-7.853zM58.5 25.396c2.525 0 5.265 1.739 5.265 5.112 0 2.943-2.355 5.076-5.23 5.076-3.174 0-5.31-2.376-5.31-5.135 0-2.72 2.202-5.053 5.275-5.053zm11.498 0c2.527 0 5.265 1.739 5.265 5.112 0 2.943-2.354 5.076-5.228 5.076-3.176 0-5.312-2.376-5.312-5.135 0-2.72 2.202-5.053 5.275-5.053zm26.428 0l.238.007c1.972.098 3.456 1.413 4.107 2.975l.363.83-7.006 2.831c.42.76 1.095 1.542 2.563 1.542 1.308 0 2.092-.692 2.56-1.4l1.806 1.17c-.81 1.056-2.166 2.233-4.377 2.233-2.649 0-5.128-1.9-5.128-5.106 0-3.029 2.225-5.082 4.874-5.082zm15.102-5.557c2.715 0 4.937 2.123 4.937 4.72 0 2.597-2.222 4.72-4.937 4.72h-3.286v5.379h-2.317v-14.82zm-21.892 0v14.819H87.72v-14.82h1.916zm30.662 0v14.819h-1.916v-14.82h1.916zM58.53 27.398c-1.698 0-3.002 1.317-3.002 3.082 0 1.802 1.32 3.105 2.995 3.105 1.524 0 2.95-1.22 2.95-3.091 0-1.911-1.432-3.096-2.943-3.096zm11.5 0c-1.7 0-3.004 1.317-3.004 3.082 0 1.802 1.321 3.105 2.996 3.105 1.524 0 2.95-1.22 2.95-3.091 0-1.911-1.432-3.096-2.943-3.096zm11.237-.213c-1.516 0-3.005 1.19-3.005 3.186 0 1.919 1.433 3.128 2.974 3.128 1.45 0 2.902-1.119 2.902-3.148 0-1.997-1.454-3.166-2.871-3.166zm47.282 3.215c-3.933-.592-3.274 3.712-.628 2.99 1.252-.341 2.24-1.258 2.532-2.533-.64-.208-1.23-.376-1.904-.457zM24.37 24.47l5.132 2.42c1.264.597.617 1.343 0 1.635l-5.128 2.428-3.729-3.221 3.725-3.262zm72.146 2.883c-1.512 0-2.948 1.517-2.745 2.992l4.677-1.905c-.29-.592-.978-1.087-1.932-1.087zM8.19 16.133c.18.023.359.072.517.153L23.52 23.9l-3.513 3.35zm103.338 5.92h-3.286v5.012h3.286c1.437 0 2.621-1.131 2.621-2.506 0-1.374-1.184-2.506-2.621-2.506zM39.939 7.798c1.596 0 2.536.833 2.694.985l.024.023-.75.732s-.715-.729-1.929-.729c-1.573 0-2.827 1.175-2.827 2.702 0 1.568 1.315 2.686 2.824 2.686 1.178 0 2.427-.603 2.554-2.018H39.97V11.17h3.608c.013.057.065.292.065.669 0 2.01-1.541 3.368-3.646 3.368-2.394 0-4.02-1.833-4.02-3.713 0-1.92 1.729-3.696 3.962-3.696zm30.534 0c2.16 0 3.832 1.777 3.832 3.696 0 1.865-1.548 3.685-3.832 3.713-2.286-.028-3.834-1.848-3.834-3.713 0-1.92 1.672-3.696 3.834-3.696zm-12.457 0v6.483h-.958V7.798h.958zm-3.833 0v.97h-1.836v5.513h-1.119V8.767h-1.836v-.97h4.791zm-5.75 0v.97H45.6v1.787h2.493v.97H45.6v1.788h2.834v.968H44.6V7.798h3.833zm15.332 0v.97h-1.837v5.513H60.81V8.767h-1.836v-.97h4.79zm12.601 0l3.542 4.72v-4.72h1.104v6.483H79.91l-3.544-4.723v4.723h-1.103V7.798h1.103zM70.473 8.81c-1.505.019-2.698 1.187-2.698 2.701 0 1.556 1.253 2.668 2.698 2.685 1.445-.017 2.697-1.13 2.697-2.685 0-1.514-1.194-2.682-2.697-2.701z" fill="#10212E"/></g></g></svg>