<?xml version="1.0" encoding="UTF-8"?><svg id="Capa_2" xmlns="http://www.w3.org/2000/svg" xmlns:xlink="http://www.w3.org/1999/xlink" viewBox="0 0 19.58 19.58"><defs><style>.cls-1{clip-path:url(#clippath);}.cls-2{fill:none;}.cls-2,.cls-3,.cls-4,.cls-5,.cls-6,.cls-7,.cls-8,.cls-9,.cls-10,.cls-11,.cls-12,.cls-13,.cls-14,.cls-15,.cls-16{stroke-width:0px;}.cls-17{clip-path:url(#clippath-1);}.cls-18{clip-path:url(#clippath-2);}.cls-4{fill:#f8e629;}.cls-5{fill:#60350e;}.cls-6{fill:#5dbaf9;}.cls-7{fill:#3e9a13;}.cls-8{fill:#1f1f1f;}.cls-9{fill:#cacaca;}.cls-10{fill:#c0003b;}.cls-11{fill:#ba0027;}.cls-12{fill:#fdffcb;}.cls-13{fill:#7dcbc9;}.cls-14{fill:#fff;}.cls-15{fill:#f0f2be;}.cls-16{fill:#f5cd28;}</style><clipPath id="clippath"><circle class="cls-2" cx="9.79" cy="9.79" r="9.79"/></clipPath><clipPath id="clippath-1"><rect class="cls-2" x="-6.99" y="0" width="33.56" height="19.58"/></clipPath><clipPath id="clippath-2"><rect class="cls-2" x="-6.99" y="0" width="33.56" height="19.58"/></clipPath></defs><g id="_4"><g class="cls-1"><g id="GUATEMALA"><g class="cls-17"><rect class="cls-6" x="-6.99" y="0" width="11.19" height="19.58"/><rect class="cls-14" x="4.19" y="0" width="11.19" height="19.58"/><rect class="cls-6" x="15.38" y="0" width="11.19" height="19.58"/><g class="cls-18"><path class="cls-7" d="m10.14,13.26c-.04-.05-.09-.08-.14-.11-.33-.17-.66-.25-1.02-.31-.09-.01-.17-.1-.26-.14-.21-.1-.45-.14-.65-.24-.01,0-.06-.04-.09-.07-.08-.09-.23-.12-.32-.21-.35-.34-.73-.64-.93-1.09-.24-.54-.53-1.1-.49-1.71.02-.39-.03-.78.06-1.15.14-.55.32-1.09.66-1.54l-.06.04c-.33.45-.51,1-.66,1.54-.1.37-.04.76-.06,1.15-.04.61.25,1.17.49,1.71.2.44.57.75.93,1.09.09.09.24.11.32.21.02.03.08.06.09.07.21.1.44.14.65.24.09.04.17.12.26.14.37.06.7.14,1.03.31.05.03.11.06.14.11l.06-.04h0Z"/><path class="cls-3" d="m10.08,13.3h0c-.04-.06-.09-.09-.14-.12-.35-.18-.7-.25-1.03-.31-.05,0-.11-.04-.17-.08-.03-.02-.06-.04-.09-.06-.1-.05-.21-.08-.31-.11-.11-.04-.23-.08-.34-.13-.01,0-.07-.04-.09-.07-.04-.05-.11-.08-.17-.12-.05-.03-.11-.05-.15-.09l-.16-.15c-.29-.28-.6-.56-.77-.94l-.09-.21c-.22-.48-.44-.97-.4-1.51,0-.14,0-.27,0-.41,0-.25,0-.5.06-.74.13-.5.31-1.07.66-1.55l.06-.04c-.34.48-.52,1.06-.65,1.55-.06.24-.06.49-.06.74,0,.14,0,.28,0,.41-.04.54.19,1.03.4,1.51l.09.2c.17.38.46.66.78.95l.14.13s.1.07.15.1c.06.03.12.06.17.12.02.03.07.06.09.06.1.05.22.09.33.12.11.03.21.07.32.12.04.02.07.04.1.06.06.04.11.07.16.08.38.06.7.14,1.03.31.05.03.11.06.14.11l-.06.05h0Zm-3.13-6.61l-.05.04c-.35.47-.53,1.04-.65,1.54-.06.24-.06.49-.06.74,0,.14,0,.27,0,.41-.04.54.18,1.03.4,1.51l.09.2c.16.38.46.65.77.94l.15.15s.1.07.15.09c.06.03.13.06.17.12.02.03.07.06.09.06.11.05.22.09.34.12.11.03.21.07.31.12.03.01.06.04.1.06.05.03.11.07.16.08.32.05.68.13,1.03.31.05.03.1.06.14.11l.05-.03s-.09-.07-.14-.1c-.32-.17-.64-.25-1.02-.31-.05,0-.11-.04-.16-.08-.03-.02-.06-.04-.1-.06-.1-.05-.21-.08-.32-.12-.11-.03-.23-.07-.33-.12-.01,0-.07-.04-.09-.07-.05-.05-.11-.08-.17-.11-.06-.03-.11-.06-.16-.1l-.14-.13c-.3-.28-.62-.57-.78-.95l-.09-.2c-.22-.48-.44-.97-.4-1.51,0-.14,0-.27,0-.41,0-.25,0-.5.06-.74.13-.5.31-1.07.66-1.54h0Z"/><path class="cls-11" d="m10.1,13.29c-.05-.04-.11-.07-.16-.09-.35-.18-.7-.25-1.02-.31-.06,0-.11-.05-.17-.08-.03-.02-.06-.04-.09-.05-.1-.05-.2-.08-.31-.11-.12-.04-.23-.07-.34-.13,0,0-.07-.04-.09-.07-.04-.05-.11-.08-.17-.11-.05-.03-.11-.06-.15-.1l-.16-.15c-.29-.28-.61-.56-.77-.94l-.09-.21c-.21-.48-.44-.97-.4-1.51,0-.14,0-.27,0-.41,0-.25,0-.5.06-.74.13-.5.3-1.07.66-1.55l.02.02c-.35.47-.53,1.04-.66,1.54-.06.24-.06.49-.05.74,0,.14,0,.27,0,.41-.03.53.19,1.02.4,1.5l.09.2c.16.37.46.65.77.93l.16.15s.09.07.15.09c.06.03.13.07.17.12.02.02.07.06.09.06.11.05.22.09.34.13.1.03.21.07.31.12.03.01.06.03.1.06.05.04.11.07.16.08.33.05.68.13,1.03.31.05.03.11.06.14.12h0Z"/><path class="cls-7" d="m8.87,12.85c-.36.02-1.05.47-1.11.58.77,0,1.22-.37,1.11-.58h0Z"/><path class="cls-7" d="m8.48,12.66c-.36.02-1.05.47-1.11.58.77,0,1.22-.37,1.11-.58h0Z"/><path class="cls-7" d="m9.05,12.85c-.02-.37-.46-1.08-.56-1.15,0,.79.36,1.26.56,1.15h0Z"/><path class="cls-7" d="m8.76,12.71c-.05-.37-.55-1.03-.66-1.09.06.79.47,1.22.66,1.09h0Z"/><path class="cls-7" d="m8.14,12.45c.04-.33-.24-1.03-.32-1.11-.12.7.13,1.17.32,1.11h0Z"/><path class="cls-7" d="m7.92,12.43c-.33-.14-1.14-.03-1.24.04.69.34,1.26.19,1.24-.04h0Z"/><path class="cls-7" d="m7.61,12.24c-.29-.23-1.1-.33-1.21-.3.58.51,1.17.52,1.21.3h0Z"/><path class="cls-7" d="m7.67,12.11c.1-.32-.06-1.06-.13-1.15-.25.67-.07,1.18.13,1.15h0Z"/><path class="cls-7" d="m7.36,11.85c.09-.29-.06-.95-.12-1.03-.22.6-.07,1.06.12,1.03h0Z"/><path class="cls-7" d="m7.27,11.94c-.17-.33-.86-.78-.98-.79.32.72.84.98.98.79h0Z"/><path class="cls-7" d="m7.04,11.48c.13-.27.1-.95.05-1.04-.31.55-.24,1.03-.05,1.04h0Z"/><path class="cls-7" d="m6.77,11.05c.15-.3.12-1.05.06-1.15-.35.61-.27,1.14-.06,1.15h0Z"/><path class="cls-7" d="m6.7,11.15c-.21-.2-.86-.35-.96-.33.44.46.9.51.96.33h0Z"/><path class="cls-7" d="m6.54,10.61c.17-.28.2-1.04.16-1.14-.4.58-.36,1.12-.16,1.14h0Z"/><path class="cls-7" d="m6.3,9.72c.23-.19.49-.82.48-.92-.51.36-.64.83-.48.92h0Z"/><path class="cls-7" d="m6.25,9.96c-.14-.27-.7-.63-.79-.64.26.58.68.79.79.64h0Z"/><path class="cls-7" d="m6.2,9.44c-.04-.3-.44-.84-.53-.89.05.64.38.99.53.89h0Z"/><path class="cls-7" d="m6.25,8.6c.26-.04.73-.41.77-.49-.56.05-.86.35-.77.49h0Z"/><path class="cls-7" d="m6.35,8c.04-.3-.22-.93-.29-1-.12.63.11,1.06.29,1h0Z"/><path class="cls-7" d="m6.33,8.28c.31-.07.85-.58.88-.69-.67.12-1.01.52-.88.69h0Z"/><path class="cls-7" d="m6.39,7.92c.3-.13.74-.73.76-.83-.64.23-.91.69-.76.83h0Z"/><path class="cls-7" d="m6.5,7.32c.13-.27.1-.95.06-1.04-.31.55-.24,1.03-.06,1.04h0Z"/><path class="cls-7" d="m6.76,6.93c.11-.22.08-.77.04-.84-.25.45-.2.84-.04.84h0Z"/><path class="cls-7" d="m6.84,7.16c.31-.1.79-.66.83-.76-.66.18-.97.61-.83.76h0Z"/><path class="cls-7" d="m6.96,6.74c.19-.15.39-.66.39-.74-.42.3-.52.67-.39.74h0Z"/><path class="cls-7" d="m8.18,12.55c-.36.02-1.04.47-1.11.58.77,0,1.22-.37,1.11-.58h0Z"/><path class="cls-7" d="m6.22,9.31s.25-.25.34-.82c-.48.41-.51.75-.34.82h0Z"/><path class="cls-7" d="m6.57,10.8c-.17-.33-.86-.78-.98-.79.32.72.84.98.98.79h0Z"/><path class="cls-7" d="m6.25,8.53c-.05-.34-.39-.81-.53-.89.05.64.38.99.53.89h0Z"/><path class="cls-7" d="m8.14,12.45c-.2.07-.45-.4-.32-1.1.12.59.26,1.07.32,1.1h0Z"/><path class="cls-3" d="m8.1,12.46s-.1-.03-.14-.08c-.13-.16-.23-.54-.14-1.03.13.62.28,1.07.33,1.1h.02s-.05.01-.05.01h0Zm-.29-1.11c-.08.49.02.86.15,1.02.05.05.09.08.14.08h0s.04,0,.04,0c-.06-.03-.21-.53-.32-1.09h0Z"/><path class="cls-7" d="m8.86,12.85c.11.21-.34.58-1.11.58.61-.25,1.08-.5,1.11-.58h0Z"/><path class="cls-3" d="m7.77,13.43h-.02s0,0,0,0h.01s0,0,.01,0c.61-.27,1.05-.51,1.07-.57.04.05.03.12,0,.18-.12.19-.5.4-1.08.4h0Zm1.09-.58c-.02.08-.5.33-1.07.57.56,0,.94-.21,1.05-.4.04-.06.04-.12.02-.17h0Z"/><path class="cls-7" d="m8.47,12.66c.11.21-.34.58-1.11.58.61-.25,1.08-.5,1.11-.58h0Z"/><path class="cls-3" d="m7.38,13.24h-.02s0,0,0,0h.01s0,0,0,0c.61-.26,1.05-.5,1.08-.57.04.05.03.12,0,.18-.12.19-.5.4-1.08.4h0Zm1.08-.58c-.02.08-.5.33-1.07.57.56,0,.94-.21,1.05-.39.04-.06.04-.12.02-.17h0Z"/><path class="cls-7" d="m9.05,12.85c-.2.11-.56-.35-.56-1.14.24.62.49,1.11.56,1.14h0Z"/><path class="cls-3" d="m8.98,12.87c-.05,0-.12-.03-.18-.09-.15-.15-.32-.52-.32-1.07.26.64.5,1.11.56,1.14-.02.02-.04.03-.07.03h0Zm-.5-1.16c0,.54.18.91.33,1.06.09.08.17.11.23.07-.08-.02-.33-.54-.56-1.13h0Z"/><path class="cls-7" d="m8.75,12.71c-.19.13-.59-.3-.65-1.09.29.6.58,1.06.65,1.09h0Z"/><path class="cls-3" d="m8.68,12.74c-.21,0-.53-.4-.58-1.12.31.62.59,1.06.66,1.08-.02.03-.05.04-.08.04h0Zm-.58-1.11c.07.77.47,1.2.65,1.08-.08-.01-.38-.5-.65-1.08h0Z"/><path class="cls-7" d="m7.92,12.42c.01.23-.54.38-1.23.04.65.04,1.18.02,1.23-.04h0Z"/><path class="cls-3" d="m7.47,12.67c-.17,0-.44-.04-.78-.2.23,0,.44,0,.62,0h0c.34,0,.58-.02.62-.06.01.05,0,.09-.04.12-.07.08-.23.12-.42.12h0Zm-.78-.2c.34.15.61.19.78.19.19,0,.34-.04.41-.12.03-.03.05-.07.04-.11-.03.04-.26.06-.62.06h0c-.18,0-.39,0-.62-.02h0Z"/><path class="cls-7" d="m7.6,12.24c-.05.23-.62.22-1.21-.29.62.21,1.14.33,1.21.29h0Z"/><path class="cls-3" d="m7.33,12.39c-.28,0-.63-.17-.94-.44.58.19,1.02.29,1.16.29h0s.04,0,.04,0c0,.1-.11.16-.27.16h0Zm-.94-.44c.32.26.67.43.94.43.14,0,.24-.05.26-.13,0,0-.02.01-.04.01h0c-.17,0-.66-.13-1.16-.3h0Z"/><path class="cls-7" d="m7.67,12.11c-.2.03-.38-.48-.13-1.14.02.6.08,1.1.13,1.14h0Z"/><path class="cls-3" d="m7.65,12.11c-.05,0-.1-.03-.13-.09-.12-.17-.16-.57.01-1.06.03.63.09,1.1.14,1.14h-.02Zm-.12-1.15c-.17.49-.12.89,0,1.06.04.05.08.08.13.08h0s.02,0,.02,0c-.06-.04-.12-.56-.14-1.13h0Z"/><path class="cls-7" d="m7.35,11.85c-.18.03-.33-.43-.12-1.03.01.55.07.99.12,1.03h0Z"/><path class="cls-3" d="m7.34,11.86s-.08-.03-.12-.08c-.1-.15-.15-.52.01-.96.02.57.08.99.13,1.03h-.02Zm-.11-1.04c-.15.44-.11.81,0,.95.03.05.07.07.11.07h0s.02,0,.02,0c-.05-.04-.11-.5-.12-1.02h0Z"/><path class="cls-7" d="m7.26,11.94c-.13.19-.65-.07-.97-.79.47.46.89.8.97.79h0Z"/><path class="cls-3" d="m7.13,12.01c-.23,0-.6-.3-.85-.86.49.46.9.79.97.79-.02.05-.07.07-.13.07h0Zm-.85-.85c.32.68.84.97.97.78-.08.02-.53-.35-.97-.78h0Z"/><path class="cls-7" d="m7.03,11.48c-.19,0-.26-.48.06-1.03-.07.54-.1.98-.06,1.03h0Z"/><path class="cls-3" d="m7.04,11.48h0s-.09-.03-.11-.08c-.09-.17-.07-.55.17-.96-.07.56-.09.99-.05,1.03h0Zm.04-1.04c-.22.41-.25.79-.16.95.03.04.06.07.1.08-.03-.08,0-.53.06-1.03h0Z"/><path class="cls-7" d="m6.77,11.05c-.2,0-.28-.53.06-1.15-.09.6-.11,1.09-.06,1.15h0Z"/><path class="cls-3" d="m6.78,11.05h-.01s-.09-.03-.12-.09c-.1-.19-.07-.61.19-1.06-.08.62-.1,1.09-.05,1.15h0Zm.05-1.15c-.24.46-.28.88-.17,1.06.03.05.06.08.11.08-.04-.09-.01-.59.06-1.14h0Z"/><path class="cls-7" d="m6.69,11.15c-.05.18-.52.13-.95-.32.48.21.9.35.95.32h0Z"/><path class="cls-3" d="m6.5,11.26c-.17,0-.47-.11-.77-.42.47.2.84.32.94.32h0c-.13,0-.49-.12-.93-.32.43.43.83.48.93.36-.02.04-.08.06-.16.06h0Z"/><path class="cls-7" d="m6.54,10.61c-.2-.03-.24-.56.16-1.14-.13.59-.2,1.08-.16,1.14h0Z"/><path class="cls-3" d="m6.54,10.61h0s-.09-.04-.12-.1c-.09-.19-.02-.62.28-1.05-.13.62-.19,1.09-.16,1.14h0Zm.15-1.15c-.29.43-.36.85-.27,1.04.02.05.06.09.1.09-.03-.09.04-.59.17-1.13h0Z"/><path class="cls-7" d="m6.3,9.72c-.16-.08-.04-.55.48-.91-.29.46-.49.85-.48.91h0Z"/><path class="cls-3" d="m6.31,9.72h0s-.06-.07-.07-.13c-.02-.19.17-.53.54-.8-.29.47-.48.86-.47.92h0Zm.46-.92c-.37.27-.55.6-.53.79,0,.05.02.09.06.11,0-.09.22-.49.48-.91h0Z"/><path class="cls-7" d="m6.25,9.96c-.11.15-.53-.06-.79-.64.38.37.73.64.79.64h0Z"/><path class="cls-3" d="m6.14,10.01c-.19,0-.49-.24-.69-.69.4.38.73.63.79.63-.02.04-.06.06-.1.06h0Zm-.69-.69c.26.55.68.78.79.63-.07,0-.42-.28-.79-.63h0Z"/><path class="cls-7" d="m6.2,9.43c-.15.11-.48-.24-.53-.88.24.49.47.86.53.88h0Z"/><path class="cls-3" d="m6.14,9.46c-.17,0-.43-.34-.47-.9.25.5.48.86.53.88-.02.02-.04.03-.06.03h0Zm-.47-.9c.06.62.38.97.53.87-.06-.01-.3-.41-.53-.87h0Z"/><path class="cls-7" d="m6.25,8.6c-.09-.14.21-.44.77-.49-.52.27-.74.37-.77.49h0Z"/><path class="cls-3" d="m6.25,8.62h0s-.02-.09,0-.14c.08-.16.37-.33.77-.36l-.13.08c-.42.22-.6.31-.63.42h0Zm.76-.51c-.4.04-.68.21-.76.37-.02.04-.03.08,0,.12.04-.11.22-.2.63-.41l.13-.07h0Z"/><path class="cls-7" d="m6.34,8c-.18.06-.4-.36-.29-.99.1.53.24.96.29.99h0Z"/><path class="cls-3" d="m6.31,8.01s-.09-.03-.13-.08c-.12-.14-.21-.49-.13-.93.12.55.24.96.29.99h-.04Zm-.26-1c-.07.44.01.77.13.92.04.05.08.07.12.07h0s.03,0,.03,0c-.06-.03-.19-.47-.29-.98h0Z"/><path class="cls-7" d="m6.33,8.28c-.13-.16.21-.56.88-.68-.5.31-.87.61-.88.68h0Z"/><path class="cls-3" d="m6.33,8.29h0c-.04-.05-.04-.11-.01-.17.07-.2.41-.44.9-.52-.5.33-.87.62-.88.69h0Zm.88-.7c-.48.09-.81.34-.89.53-.02.06-.02.11,0,.15.04-.09.43-.39.88-.67h0Z"/><path class="cls-7" d="m6.39,7.92c-.15-.14.12-.59.76-.83-.44.4-.76.76-.76.83h0Z"/><path class="cls-3" d="m6.4,7.93h0s-.05-.1-.04-.17c.04-.21.33-.51.8-.68-.44.41-.75.77-.75.83h0Zm.75-.84c-.46.18-.75.48-.79.68-.01.06,0,.11.03.15.02-.1.36-.46.76-.82h0Z"/><path class="cls-7" d="m6.5,7.32c-.18,0-.26-.48.06-1.03-.07.54-.09.98-.06,1.03h0Z"/><path class="cls-3" d="m6.51,7.32h-.01s-.08-.03-.11-.08c-.09-.17-.07-.55.17-.96-.07.56-.09.99-.05,1.03h0Zm.04-1.04c-.22.41-.25.79-.16.95.02.04.06.07.1.07-.04-.08,0-.53.06-1.03h0Z"/><path class="cls-7" d="m6.75,6.92c-.15,0-.21-.39.05-.83-.06.43-.08.8-.05.83h0Z"/><path class="cls-3" d="m6.76,6.93h-.01s-.07-.02-.09-.07c-.08-.13-.05-.44.13-.78-.06.45-.07.8-.04.84h0Zm.03-.84c-.18.33-.2.64-.13.77.02.04.05.06.08.06-.03-.07,0-.44.05-.83h0Z"/><path class="cls-7" d="m6.84,7.16c-.14-.15.16-.58.82-.76-.47.36-.82.69-.82.76h0Z"/><path class="cls-3" d="m6.84,7.17h0s-.04-.1-.03-.17c.06-.2.37-.48.85-.61-.48.38-.81.7-.82.76h0Zm.82-.77c-.47.13-.78.4-.84.61-.02.06,0,.11.02.14.03-.09.39-.42.82-.75h0Z"/><path class="cls-7" d="m6.95,6.74c-.13-.07-.03-.44.39-.74-.24.37-.4.69-.39.74h0Z"/><path class="cls-3" d="m6.96,6.74h0s-.05-.06-.06-.11c0-.16.14-.43.44-.64-.23.38-.39.69-.38.74h0Zm.38-.75c-.29.22-.44.49-.43.64,0,.04.02.07.05.09,0-.08.17-.4.39-.73h0Z"/><path class="cls-7" d="m8.17,12.55c.11.2-.34.58-1.1.57.6-.25,1.08-.5,1.1-.57h0Z"/><path class="cls-3" d="m7.08,13.13h-.02s0,0,0,0h.02s0,0,0,0c.61-.26,1.05-.5,1.07-.57.04.05.04.12,0,.18-.12.19-.5.4-1.07.4h0Zm1.08-.58c-.02.08-.5.33-1.07.56.54,0,.93-.2,1.05-.39.04-.06.04-.12.02-.17h0Z"/><path class="cls-7" d="m6.21,9.31c-.17-.07-.14-.41.34-.82-.25.48-.36.76-.34.82h0Z"/><path class="cls-3" d="m6.22,9.32h0c-.05-.02-.09-.07-.1-.13-.02-.14.08-.4.43-.7-.23.45-.35.76-.33.82h0Zm.33-.83c-.34.31-.45.56-.42.7,0,.05.04.1.08.12,0-.08.12-.37.34-.81h0Z"/><path class="cls-7" d="m6.56,10.81c-.14.19-.65-.08-.97-.79.47.46.9.8.97.79h0Z"/><path class="cls-3" d="m6.43,10.87c-.23,0-.6-.3-.85-.86.49.47.9.79.98.79-.02.05-.07.07-.13.07h0Zm-.85-.86c.32.68.84.97.97.78-.08.02-.52-.35-.97-.78h0Z"/><path class="cls-7" d="m6.27,8.61c-.2.13-.5-.32-.55-.95.24.49.49.93.55.95h0Z"/><path class="cls-3" d="m6.19,8.64c-.19,0-.43-.4-.47-.97.26.51.5.92.55.94-.02.02-.05.03-.08.03h0Zm-.47-.97c.06.63.36,1.06.55.94-.06,0-.32-.48-.55-.94h0Z"/><path class="cls-3" d="m6.22,9.32h0c-.05-.02-.09-.07-.1-.13-.02-.14.08-.4.43-.7.02.07-.1.62-.32.83h0Zm.33-.83c-.33.3-.44.55-.41.69,0,.06.04.1.08.12.22-.21.34-.74.33-.81h0Z"/><path class="cls-3" d="m7.78,13.43h-.02c.04-.09.73-.57,1.11-.59.04.06.03.12-.01.19-.12.2-.53.41-1.08.41h0Zm1.08-.58c-.38.02-1.06.52-1.1.58h.01c.54,0,.95-.21,1.06-.41.04-.06.05-.12.02-.17h0Z"/><path class="cls-3" d="m7.39,13.24h-.02c.04-.09.73-.57,1.11-.59.04.06.03.12,0,.19-.12.2-.53.4-1.08.4h0Zm1.08-.58c-.38.02-1.06.52-1.1.58h.01c.54-.01.95-.21,1.07-.41.04-.06.04-.12.02-.17h0Z"/><path class="cls-3" d="m8.99,12.87h0c-.06,0-.12-.03-.18-.09-.15-.15-.33-.53-.32-1.08.09.04.56.75.58,1.15-.02.02-.05.02-.07.02h0Zm-.5-1.16c0,.54.18.91.33,1.06.06.06.12.09.17.09h0s.04,0,.06-.01c-.02-.4-.5-1.1-.56-1.13h0Z"/><path class="cls-3" d="m8.68,12.74h0c-.21,0-.53-.42-.59-1.12.09.03.62.7.67,1.09-.03.02-.05.03-.08.03h0Zm-.58-1.11c.06.68.38,1.1.58,1.1h0s.05,0,.07-.02c-.06-.39-.6-1.05-.66-1.08h0Z"/><path class="cls-3" d="m8.11,12.46c-.05,0-.1-.03-.15-.09-.13-.16-.23-.54-.14-1.03.06.04.38.75.34,1.11h0s-.04.01-.04.01h0Zm-.29-1.11c-.07.48.02.86.16,1.02.04.05.09.08.13.08h0s.04,0,.04,0c.04-.35-.28-1.05-.33-1.09h0Z"/><path class="cls-3" d="m7.46,12.67h0c-.17,0-.44-.04-.78-.2.04-.04.43-.12.79-.12.2,0,.35.02.46.07,0,.05,0,.09-.04.13-.08.08-.23.13-.43.13h0Zm.01-.31c-.35,0-.74.08-.79.1.34.15.61.19.77.19h0c.19,0,.34-.05.42-.12.03-.03.04-.07.04-.11-.1-.04-.25-.06-.45-.06h0Z"/><path class="cls-3" d="m7.34,12.39h0c-.28,0-.63-.16-.95-.44.01-.01.03-.02.07-.02.22,0,.89.09,1.15.3-.02.1-.12.16-.27.16h0Zm-.88-.44s-.05,0-.06,0c.31.26.66.42.94.42h0c.15,0,.25-.05.26-.14-.26-.2-.92-.29-1.14-.29h0Z"/><path class="cls-3" d="m7.66,12.12c-.05,0-.1-.03-.13-.09-.12-.17-.16-.58.01-1.08.06.06.25.82.14,1.16h-.02Zm-.12-1.15c-.17.49-.12.89,0,1.06.04.05.08.08.12.08h0s.02,0,.02,0c.1-.34-.1-1.09-.14-1.14h0Z"/><path class="cls-3" d="m7.34,11.86s-.09-.03-.12-.08c-.11-.15-.15-.52.01-.97.06.06.22.74.13,1.04h-.02Zm-.11-1.04c-.15.44-.11.8,0,.95.03.05.07.07.11.07h0s.02,0,.02,0c.09-.3-.09-.98-.12-1.02h0Z"/><path class="cls-3" d="m7.15,12.01h0c-.23,0-.61-.3-.86-.86.09,0,.81.44.99.79-.03.05-.08.07-.13.07h0Zm-.85-.86c.25.54.62.84.85.84h0c.05,0,.1-.02.12-.06-.18-.34-.9-.77-.97-.78h0Z"/><path class="cls-3" d="m7.04,11.48h0s-.09-.03-.11-.08c-.1-.17-.07-.56.16-.97.05.06.1.76-.04,1.05h0Zm.05-1.04c-.22.41-.25.79-.15.95.03.05.06.07.1.08.14-.29.09-.97.05-1.03h0Z"/><path class="cls-3" d="m6.78,11.06h0c-.05,0-.09-.03-.13-.09-.11-.19-.08-.62.18-1.07.05.07.11.84-.05,1.16h0Zm.05-1.16c-.24.45-.27.88-.17,1.06.03.05.06.08.11.08.16-.32.09-1.09.06-1.14h0Z"/><path class="cls-3" d="m6.51,11.26h0c-.18,0-.48-.11-.78-.43.14-.01.75.11.97.31-.02.07-.09.11-.19.11h0Zm-.75-.42c.28.3.59.41.75.41.1,0,.16-.04.18-.09-.21-.2-.81-.32-.93-.32h0Z"/><path class="cls-3" d="m6.54,10.61h0c-.05,0-.09-.04-.12-.1-.09-.2-.02-.62.27-1.05.04.07.04.85-.15,1.15h0Zm.15-1.15c-.28.43-.35.85-.26,1.04.03.05.06.09.1.09.18-.31.18-1.06.16-1.13h0Z"/><path class="cls-3" d="m6.31,9.72h0s-.06-.07-.07-.13c-.02-.19.17-.53.54-.8.02.06-.21.72-.47.93h0Zm.47-.92c-.36.27-.54.6-.53.8,0,.05.02.09.06.11.25-.2.47-.85.47-.91h0Z"/><path class="cls-3" d="m6.15,10.01h0c-.19,0-.49-.24-.69-.69h0c.08,0,.66.36.8.64-.02.04-.06.06-.11.06h0Zm-.69-.69c.21.43.51.67.69.67h0s.08-.01.1-.04c-.15-.29-.73-.63-.79-.63h0Z"/><path class="cls-3" d="m6.15,9.47h0c-.17,0-.43-.35-.48-.91.07.03.51.57.55.88-.02.02-.04.03-.07.03h0Zm-.47-.9c.05.55.31.89.47.89h0s.04,0,.06-.02c-.05-.31-.48-.85-.53-.87h0Z"/><path class="cls-3" d="m6.25,8.61h0s-.02-.09,0-.14c.08-.16.37-.33.78-.37-.02.07-.49.47-.77.51h0Zm.77-.5c-.4.05-.68.22-.76.37-.02.05-.02.09,0,.12.28-.04.74-.44.76-.49h0Z"/><path class="cls-3" d="m6.32,8.02s-.09-.03-.13-.08c-.12-.15-.21-.49-.13-.93.06.04.34.68.31,1h0s-.04.01-.04.01h0Zm-.26-1c-.06.43.02.77.14.92.04.05.08.07.12.07h0s.03,0,.03,0c.03-.32-.25-.95-.3-.98h0Z"/><path class="cls-3" d="m6.33,8.29h0s-.04-.1-.01-.17c.08-.2.41-.45.9-.53-.02.08-.55.62-.88.7h0Zm.88-.69c-.48.09-.81.34-.88.53-.02.06-.02.11,0,.15.33-.08.86-.62.88-.68h0Z"/><path class="cls-3" d="m6.4,7.93h0s-.05-.1-.04-.16c.04-.21.33-.51.8-.68,0,.08-.44.71-.75.84h0Zm.75-.84c-.46.18-.74.48-.78.68,0,.06,0,.11.03.14.31-.14.74-.77.75-.83h0Z"/><path class="cls-3" d="m6.51,7.33h0s-.08-.03-.12-.08c-.09-.17-.07-.56.17-.97.05.06.09.76-.05,1.04h0Zm.05-1.04c-.22.41-.25.79-.15.95.03.04.06.07.1.07.14-.29.08-.98.06-1.03h0Z"/><path class="cls-3" d="m6.76,6.94h0s-.07-.02-.09-.07c-.08-.14-.06-.45.13-.79.04.05.08.62-.04.85h0Zm.04-.84c-.18.33-.2.64-.12.77.02.04.04.06.08.06.11-.23.06-.79.05-.83h0Z"/><path class="cls-3" d="m6.84,7.17h0s-.04-.1-.03-.17c.06-.2.37-.48.86-.61,0,.07-.49.67-.83.78h0Zm.82-.77c-.47.14-.78.41-.84.61-.02.06-.01.11.02.15.33-.11.8-.7.82-.76h0Z"/><path class="cls-3" d="m6.96,6.75h0s-.05-.06-.06-.11c0-.16.14-.43.45-.65.02.06-.18.6-.38.76h0Zm.38-.75c-.29.22-.44.49-.43.64,0,.04.02.07.04.09.2-.16.38-.69.38-.73h0Z"/><path class="cls-3" d="m7.09,13.14h-.02c.04-.09.73-.57,1.11-.59.04.06.03.12-.01.19-.12.19-.5.4-1.08.4h0Zm1.09-.58c-.38.02-1.06.52-1.1.58h.01c.54-.01.95-.21,1.07-.41.04-.06.05-.12.02-.17h0Z"/><path class="cls-3" d="m6.44,10.87h0c-.23,0-.61-.3-.86-.86.09,0,.81.44.99.79-.03.05-.08.07-.13.07h0Zm-.85-.85c.25.54.62.84.85.84h0c.05,0,.1-.02.12-.06-.18-.34-.9-.78-.97-.78h0Z"/><path class="cls-3" d="m6.19,8.63h0c-.16,0-.42-.3-.47-.97.18.08.49.54.54.95-.02.02-.05.03-.07.03h0Zm-.47-.97c.06.65.32.95.47.95h0s.04,0,.06-.02c-.06-.39-.36-.85-.53-.93h0Z"/><path class="cls-7" d="m9.43,13.26c.03-.05.09-.08.14-.11.33-.17.66-.25,1.03-.31.08-.01.17-.1.26-.14.21-.1.45-.14.65-.24.01,0,.07-.04.09-.07.08-.09.23-.12.32-.21.35-.34.73-.64.93-1.09.24-.54.53-1.1.49-1.71-.03-.39.03-.78-.06-1.15-.14-.55-.32-1.09-.66-1.54l.06.04c.34.45.51,1,.66,1.54.1.37.04.76.06,1.15.04.61-.25,1.17-.49,1.71-.2.44-.57.75-.93,1.09-.09.09-.24.11-.32.21-.02.03-.08.06-.09.07-.21.1-.44.14-.65.24-.09.04-.17.12-.26.14-.37.06-.7.14-1.02.31-.05.03-.11.06-.14.11l-.06-.04h0Z"/><path class="cls-3" d="m9.49,13.3l-.06-.04c.03-.06.08-.09.14-.12.33-.17.65-.25,1.03-.31.05,0,.11-.04.16-.08.03-.02.07-.04.1-.06.1-.05.21-.08.32-.12.11-.04.23-.07.33-.12.02,0,.06-.04.09-.06.05-.05.11-.08.17-.12.06-.03.11-.06.15-.1l.15-.14c.3-.28.61-.56.77-.94l.09-.2c.22-.48.44-.97.4-1.51,0-.14,0-.27,0-.41,0-.24,0-.5-.05-.74-.13-.5-.31-1.07-.66-1.54l.06.03c.35.47.52,1.02.66,1.55.06.24.06.49.06.74,0,.14,0,.27,0,.41.04.54-.19,1.03-.4,1.51l-.09.21c-.17.38-.47.66-.77.94l-.16.15s-.1.07-.15.09c-.06.03-.12.06-.17.12-.03.03-.08.06-.09.07-.11.05-.22.09-.34.13-.11.03-.21.06-.31.11-.03.02-.06.04-.1.06-.05.04-.11.07-.16.08-.33.05-.67.12-1.02.31-.05.03-.11.06-.14.11h0Zm3.12-6.6c.36.47.54,1.04.67,1.54.06.24.06.5.05.74,0,.14,0,.27,0,.41.03.54-.19,1.04-.4,1.51l-.09.2c-.17.38-.47.67-.78.95l-.15.14s-.1.07-.16.1c-.06.03-.12.06-.16.11-.03.03-.08.06-.09.07-.11.05-.22.09-.33.13-.11.03-.21.07-.32.12-.03.02-.07.04-.1.06-.05.03-.11.07-.16.08-.38.06-.7.14-1.03.31-.05.03-.1.06-.13.11l.05.03c.04-.05.09-.08.14-.11.35-.18.7-.26,1.03-.31.05,0,.11-.04.16-.08.03-.02.06-.04.09-.06.1-.05.21-.08.31-.12.11-.04.23-.07.34-.12.01,0,.06-.04.09-.06.05-.05.11-.09.17-.12.05-.03.11-.05.15-.09l.16-.15c.31-.29.6-.56.77-.94l.09-.2c.21-.48.43-.97.4-1.51,0-.14,0-.27,0-.41,0-.25,0-.5-.06-.74-.14-.52-.31-1.08-.65-1.54l-.06-.03h0Z"/><path class="cls-11" d="m9.5,13.3c.01-.07.07-.11.12-.13.35-.18.7-.26,1.03-.31.05,0,.1-.04.16-.08.03-.02.06-.04.1-.06.1-.05.21-.08.32-.12.11-.04.23-.07.33-.13.01,0,.06-.04.09-.06.04-.05.11-.09.18-.12.05-.03.11-.05.15-.09l.16-.15c.31-.29.6-.56.77-.93l.09-.2c.21-.48.44-.97.4-1.5,0-.14,0-.28,0-.41,0-.25,0-.5-.06-.74-.14-.52-.31-1.07-.65-1.54l.02-.02c.35.47.52,1.02.66,1.55.06.24.06.5.06.74,0,.13,0,.27,0,.41.04.54-.19,1.03-.4,1.51l-.09.21c-.17.38-.48.67-.77.94l-.16.15s-.1.07-.15.1c-.07.03-.13.06-.17.11-.03.03-.08.06-.09.07-.11.05-.23.09-.34.13-.1.03-.21.07-.31.11-.03.02-.06.03-.09.05-.06.04-.11.07-.17.08-.33.05-.67.13-1.02.31-.05.03-.1.06-.14.11h0Z"/><path class="cls-7" d="m10.7,12.85c.36.02,1.05.47,1.11.58-.77,0-1.22-.37-1.11-.58h0Z"/><path class="cls-7" d="m11.1,12.66c.36.02,1.04.47,1.11.58-.77,0-1.22-.37-1.11-.58h0Z"/><path class="cls-7" d="m10.52,12.85c.02-.37.46-1.08.56-1.15,0,.79-.36,1.26-.56,1.15h0Z"/><path class="cls-7" d="m10.82,12.71c.05-.37.55-1.03.65-1.09-.06.79-.47,1.22-.65,1.09h0Z"/><path class="cls-7" d="m11.43,12.45c-.04-.33.24-1.03.32-1.11.12.7-.13,1.17-.32,1.11h0Z"/><path class="cls-7" d="m11.65,12.43c.33-.14,1.14-.03,1.24.04-.69.34-1.25.19-1.24-.04h0Z"/><path class="cls-7" d="m11.97,12.24c.29-.23,1.1-.33,1.21-.3-.58.51-1.17.52-1.21.3h0Z"/><path class="cls-7" d="m11.91,12.11c-.1-.32.06-1.06.13-1.15.24.67.07,1.18-.13,1.15h0Z"/><path class="cls-7" d="m12.22,11.85c-.09-.29.06-.95.12-1.03.22.6.06,1.06-.12,1.03h0Z"/><path class="cls-7" d="m12.3,11.94c.17-.33.86-.78.98-.79-.32.72-.84.98-.98.79h0Z"/><path class="cls-7" d="m12.54,11.48c-.13-.27-.1-.95-.05-1.04.31.55.24,1.03.05,1.04h0Z"/><path class="cls-7" d="m12.8,11.05c-.15-.3-.11-1.05-.06-1.15.35.61.27,1.14.06,1.15h0Z"/><path class="cls-7" d="m12.88,11.15c.22-.2.86-.35.96-.33-.44.46-.9.51-.96.33h0Z"/><path class="cls-7" d="m13.04,10.61c-.18-.28-.2-1.04-.16-1.14.4.58.37,1.12.16,1.14h0Z"/><path class="cls-7" d="m13.27,9.72c-.23-.19-.48-.82-.48-.92.51.36.64.83.48.92h0Z"/><path class="cls-7" d="m13.33,9.96c.14-.27.7-.63.79-.64-.26.58-.68.79-.79.64h0Z"/><path class="cls-7" d="m13.37,9.44c.04-.3.45-.84.53-.89-.05.64-.38.99-.53.89h0Z"/><path class="cls-7" d="m13.32,8.6c-.26-.04-.73-.41-.77-.49.56.05.86.35.77.49h0Z"/><path class="cls-7" d="m13.23,8c-.04-.3.22-.93.29-1,.12.63-.12,1.06-.29,1h0Z"/><path class="cls-7" d="m13.25,8.28c-.31-.07-.85-.58-.89-.69.68.12,1.02.52.89.69h0Z"/><path class="cls-7" d="m13.18,7.92c-.3-.13-.74-.73-.76-.83.64.23.91.69.76.83h0Z"/><path class="cls-7" d="m13.07,7.32c-.13-.27-.1-.95-.05-1.04.31.55.24,1.03.05,1.04h0Z"/><path class="cls-7" d="m12.82,6.93c-.11-.22-.08-.77-.05-.84.26.45.2.84.05.84h0Z"/><path class="cls-7" d="m12.74,7.16c-.31-.1-.8-.66-.83-.76.66.18.97.61.83.76h0Z"/><path class="cls-7" d="m12.62,6.74c-.19-.15-.39-.66-.39-.74.41.3.52.67.39.74h0Z"/><path class="cls-7" d="m11.39,12.55c.36.02,1.05.47,1.11.58-.77,0-1.22-.37-1.11-.58h0Z"/><path class="cls-7" d="m13.36,9.31s-.24-.25-.34-.82c.48.41.51.75.34.82h0Z"/><path class="cls-7" d="m13.01,10.8c.17-.33.86-.78.98-.79-.32.72-.84.98-.98.79h0Z"/><path class="cls-7" d="m13.33,8.53c.05-.34.39-.81.53-.89-.05.64-.38.99-.53.89h0Z"/><path class="cls-7" d="m11.44,12.45c.19.07.44-.4.32-1.1-.12.59-.26,1.07-.32,1.1h0Z"/><path class="cls-3" d="m11.48,12.46h-.04c.05-.05.2-.5.32-1.11.1.49,0,.87-.13,1.03-.04.05-.09.08-.14.08h0Zm.28-1.11c-.1.57-.25,1.07-.31,1.1h.04s.09-.03.14-.08c.13-.16.23-.54.14-1.02h0Z"/><path class="cls-7" d="m10.72,12.85c-.11.21.34.58,1.11.58-.61-.25-1.08-.5-1.11-.58h0Z"/><path class="cls-3" d="m11.8,13.43c-.57,0-.96-.21-1.08-.4-.04-.07-.05-.13-.02-.18.04.07.49.31,1.12.57h-.02Zm-1.09-.58s-.01.11.03.17c.11.19.49.4,1.06.4h0s.02,0,.02,0c-.58-.23-1.08-.49-1.11-.57h0Z"/><path class="cls-7" d="m11.1,12.66c-.11.21.34.58,1.11.58-.6-.25-1.08-.5-1.11-.58h0Z"/><path class="cls-3" d="m12.19,13.24c-.57,0-.96-.21-1.07-.4-.04-.07-.05-.13-.02-.18.04.07.49.31,1.11.57h-.02Zm-1.09-.58s0,.11.03.17c.12.19.5.39,1.06.39h0s.02,0,.02,0c-.58-.23-1.08-.49-1.11-.57h0Z"/><path class="cls-7" d="m10.53,12.85c.2.11.56-.35.56-1.14-.24.62-.49,1.11-.56,1.14h0Z"/><path class="cls-3" d="m10.59,12.87s-.05,0-.07-.02c.07-.04.3-.5.55-1.15.02.55-.16.92-.31,1.07-.06.06-.12.09-.18.09h0Zm-.06-.02c.07,0,.15,0,.23-.08.15-.15.32-.52.31-1.06-.22.6-.47,1.12-.55,1.15h0Z"/><path class="cls-7" d="m10.83,12.71c.19.13.59-.3.65-1.09-.29.6-.58,1.06-.65,1.09h0Z"/><path class="cls-3" d="m10.9,12.74h0s-.05,0-.08-.02c.07-.03.35-.47.65-1.09-.04.72-.37,1.12-.57,1.12h0Zm.57-1.12c-.27.58-.56,1.07-.64,1.09.02,0,.05.01.07.01.2,0,.52-.42.57-1.1h0Z"/><path class="cls-7" d="m11.65,12.42c-.02.23.54.38,1.24.04-.65.04-1.18.02-1.24-.04h0Z"/><path class="cls-3" d="m12.11,12.67c-.19,0-.35-.04-.42-.13-.03-.04-.05-.08-.04-.12.07.05.6.07,1.24.03-.34.18-.61.21-.78.21h0Zm-.47-.24s.02.07.05.11c.07.08.22.12.41.12.17,0,.44-.03.77-.2-.65.07-1.18.03-1.24-.03h0Z"/><path class="cls-7" d="m11.98,12.24c.05.23.62.22,1.21-.29-.62.21-1.14.33-1.21.29h0Z"/><path class="cls-3" d="m12.25,12.39c-.15,0-.26-.06-.27-.15.01,0,.02,0,.05,0,.14,0,.59-.1,1.16-.3-.31.28-.66.45-.94.45h0Zm-.27-.14c.02.08.12.13.27.13.27,0,.62-.16.93-.44-.57.21-1.13.35-1.2.3h0Z"/><path class="cls-7" d="m11.91,12.11c.2.03.37-.48.13-1.14-.02.6-.08,1.1-.13,1.14h0Z"/><path class="cls-3" d="m11.92,12.11h-.02c.05-.05.11-.5.13-1.15.19.49.14.9.02,1.06-.04.05-.09.08-.13.08h0Zm.11-1.15c0,.59-.07,1.09-.12,1.14h.02s.09-.04.12-.09c.12-.17.16-.57-.02-1.06h0Z"/><path class="cls-7" d="m12.22,11.85c.18.03.33-.43.12-1.03-.01.55-.07.99-.12,1.03h0Z"/><path class="cls-3" d="m12.24,11.86h-.02s.1-.47.12-1.04c.17.44.13.81.02.96-.04.05-.08.08-.12.08h0Zm.1-1.03c0,.52-.06.98-.11,1.03h.01s.08-.03.11-.08c.1-.15.14-.51-.02-.95h0Z"/><path class="cls-7" d="m12.31,11.94c.14.19.65-.07.97-.79-.48.46-.9.8-.97.79h0Z"/><path class="cls-3" d="m12.44,12.01c-.06,0-.11-.02-.14-.06.08,0,.49-.33.97-.8-.23.56-.61.86-.84.86h0Zm.84-.86c-.43.44-.88.8-.96.8.03.03.07.05.13.05.22,0,.59-.3.84-.85h0Z"/><path class="cls-7" d="m12.54,11.48c.19,0,.26-.48-.06-1.03.07.54.09.98.06,1.03h0Z"/><path class="cls-3" d="m12.53,11.48h0c.04-.05.02-.48-.05-1.04.24.41.27.79.17.96-.03.05-.07.08-.11.08h0Zm-.05-1.04c.08.5.11.94.07,1.03.04,0,.07-.03.1-.08.09-.16.07-.54-.16-.95h0Z"/><path class="cls-7" d="m12.81,11.05c.21,0,.29-.53-.07-1.15.09.6.11,1.09.07,1.15h0Z"/><path class="cls-3" d="m12.8,11.05h0c.04-.06.02-.53-.07-1.15.27.45.3.88.2,1.06-.03.06-.08.09-.12.09h-.01Zm-.05-1.15c.09.55.11,1.05.07,1.14.04,0,.08-.03.11-.08.1-.18.07-.6-.18-1.05h0Z"/><path class="cls-7" d="m12.89,11.15c.05.18.52.13.95-.32-.49.21-.9.35-.95.32h0Z"/><path class="cls-3" d="m13.07,11.26c-.1,0-.17-.04-.19-.1.12,0,.49-.13.95-.33-.29.32-.59.43-.77.43h0Zm.77-.43c-.41.19-.82.33-.93.33,0,.14.46.16.93-.33h0Z"/><path class="cls-7" d="m13.04,10.61c.2-.03.24-.56-.16-1.14.13.59.2,1.08.16,1.14h0Z"/><path class="cls-3" d="m13.03,10.61h0c.03-.06-.02-.54-.16-1.14.3.43.37.85.28,1.04-.03.06-.07.1-.12.1h0Zm-.16-1.14c.13.53.2,1.04.17,1.13.04,0,.08-.04.1-.09.09-.19.02-.61-.27-1.04h0Z"/><path class="cls-7" d="m13.28,9.72c.17-.08.04-.55-.48-.91.29.46.49.85.48.91h0Z"/><path class="cls-3" d="m13.27,9.72h0c.02-.07-.18-.45-.48-.92.38.26.57.6.55.79,0,.06-.03.1-.07.12h0Zm-.47-.92c.27.41.48.81.48.9.04-.02.05-.06.06-.11.01-.19-.17-.52-.54-.79h0Z"/><path class="cls-7" d="m13.33,9.96c.11.15.53-.06.79-.64-.39.37-.73.64-.79.64h0Z"/><path class="cls-3" d="m13.44,10.01s-.08-.01-.11-.05c.07,0,.39-.27.79-.65-.19.45-.5.69-.68.69h0Zm.68-.69c-.36.36-.71.65-.78.65.03.02.06.04.1.04.18,0,.48-.24.68-.69h0Z"/><path class="cls-7" d="m13.38,9.43c.15.11.48-.24.53-.88-.24.49-.47.86-.53.88h0Z"/><path class="cls-3" d="m13.44,9.46h0s-.04,0-.07-.02c.06-.03.28-.38.53-.89-.04.58-.3.91-.46.91h0Zm.46-.9c-.22.47-.46.86-.52.89.02,0,.04,0,.06,0,.16,0,.42-.34.46-.9h0Z"/><path class="cls-7" d="m13.33,8.6c.1-.14-.21-.44-.76-.49.52.27.73.37.76.49h0Z"/><path class="cls-3" d="m13.32,8.62h0c-.03-.12-.21-.21-.63-.43l-.14-.07c.41.02.7.2.77.35.03.05.03.1,0,.13h0Zm-.76-.5l.14.06c.41.21.59.3.63.41.02-.03.02-.07,0-.12-.07-.15-.36-.32-.76-.36h0Z"/><path class="cls-7" d="m13.23,8c.17.06.4-.36.29-.99-.11.53-.23.96-.29.99h0Z"/><path class="cls-3" d="m13.27,8.01h-.04s.17-.43.29-1c.09.44,0,.78-.12.93-.04.05-.09.07-.13.07h0Zm.25-1c-.1.52-.22.96-.28.99h.03s.08-.03.12-.08c.12-.14.2-.48.13-.92h0Z"/><path class="cls-7" d="m13.25,8.28c.13-.16-.21-.56-.88-.68.5.31.87.61.88.68h0Z"/><path class="cls-3" d="m13.25,8.29h0c0-.07-.38-.37-.88-.69.49.08.82.32.9.52.02.07.02.12-.01.16h0Zm-.88-.69c.45.27.85.58.88.66.03-.04.03-.09,0-.14-.08-.19-.41-.43-.89-.52h0Z"/><path class="cls-7" d="m13.18,7.92c.15-.14-.12-.59-.76-.83.44.4.76.76.76.83h0Z"/><path class="cls-3" d="m13.18,7.93h0c0-.08-.31-.43-.76-.84.47.16.76.46.8.67.01.07,0,.12-.04.16h0Zm-.76-.84c.4.35.74.72.76.82.03-.03.04-.08.03-.15-.04-.2-.33-.5-.79-.67h0Z"/><path class="cls-7" d="m13.08,7.32c.19,0,.26-.48-.06-1.03.08.54.1.98.06,1.03h0Z"/><path class="cls-3" d="m13.07,7.32h0c.04-.05.02-.48-.06-1.04.24.41.27.79.18.96-.03.05-.07.08-.11.08h0Zm-.05-1.04c.08.5.11.94.07,1.03.04,0,.07-.03.1-.08.09-.17.07-.54-.17-.95h0Z"/><path class="cls-7" d="m12.83,6.92c.15,0,.21-.39-.05-.83.07.43.08.8.05.83h0Z"/><path class="cls-3" d="m12.82,6.93h0s.02-.39-.05-.84c.2.33.22.64.15.77-.02.04-.05.06-.09.07h0Zm-.04-.84c.07.39.09.76.06.83.03,0,.06-.03.08-.06.07-.13.05-.44-.14-.77h0Z"/><path class="cls-7" d="m12.74,7.16c.14-.15-.16-.58-.83-.76.47.36.82.69.83.76h0Z"/><path class="cls-3" d="m12.73,7.17h0c0-.08-.34-.39-.82-.76.49.12.8.39.85.6.02.06.01.12-.02.16h0Zm-.82-.76c.43.31.8.65.83.74.03-.04.03-.08.02-.14-.06-.2-.37-.47-.85-.6h0Z"/><path class="cls-7" d="m12.62,6.74c.13-.07.03-.44-.38-.74.23.37.4.69.38.74h0Z"/><path class="cls-3" d="m12.62,6.74h0c0-.06-.14-.37-.38-.74.31.21.46.48.45.63,0,.05-.02.09-.06.1h0Zm-.38-.74c.22.33.39.65.39.72.02-.02.04-.05.04-.09.01-.15-.14-.42-.44-.63h0Z"/><path class="cls-7" d="m11.41,12.55c-.11.2.34.58,1.11.57-.61-.25-1.08-.5-1.11-.57h0Z"/><path class="cls-3" d="m12.49,13.13c-.57,0-.96-.21-1.07-.4-.04-.06-.05-.13-.02-.18.03.07.48.31,1.11.57h-.02Zm-1.09-.58s0,.11.03.17c.12.2.52.39,1.06.39h0s.02,0,.02,0c-.58-.22-1.08-.48-1.11-.56h0Z"/><path class="cls-7" d="m13.36,9.31c.17-.07.14-.41-.34-.82.25.48.36.76.34.82h0Z"/><path class="cls-3" d="m13.35,9.32h0c.02-.07-.11-.38-.34-.83.36.3.46.56.44.69,0,.06-.04.11-.09.13h-.01Zm-.34-.82c.24.43.36.73.35.81.04-.02.07-.06.08-.12.02-.14-.08-.39-.43-.69h0Z"/><path class="cls-7" d="m13.02,10.81c.14.19.65-.08.97-.79-.47.46-.9.8-.97.79h0Z"/><path class="cls-3" d="m13.15,10.87c-.06,0-.11-.02-.14-.06.08,0,.49-.33.97-.8-.24.56-.61.86-.84.86h0Zm.84-.86c-.44.44-.88.8-.97.8.03.03.07.05.13.05.22,0,.59-.3.84-.85h0Z"/><path class="cls-7" d="m13.31,8.61c.2.13.49-.32.54-.95-.24.49-.48.93-.54.95h0Z"/><path class="cls-3" d="m13.38,8.64h0s-.05,0-.08-.02c.06-.02.29-.43.54-.95-.03.58-.27.97-.46.97h0Zm.46-.97c-.21.46-.47.93-.54.95.02,0,.05.01.07.01.19,0,.42-.41.46-.96h0Z"/><path class="cls-3" d="m13.35,9.32h0c-.23-.22-.35-.76-.34-.83.37.3.46.55.44.7-.01.06-.05.11-.1.13h0Zm-.34-.82c0,.06.12.59.34.8.04-.02.08-.06.09-.12.02-.14-.08-.39-.43-.69h0Z"/><path class="cls-3" d="m11.8,13.43c-.55,0-.96-.2-1.08-.41-.04-.07-.05-.13-.02-.18.38.01,1.08.5,1.13.58h-.03Zm-1.09-.58s0,.1.03.16c.12.2.52.4,1.06.4h0s.02,0,.02,0c-.04-.05-.72-.54-1.11-.56h0Z"/><path class="cls-3" d="m12.19,13.24c-.57,0-.96-.21-1.08-.4-.04-.07-.04-.13-.02-.18.38.01,1.08.5,1.12.58h-.03Zm-1.09-.58s-.01.1.03.17c.12.2.52.4,1.06.4h0s.02,0,.02,0c-.04-.05-.72-.54-1.11-.56h0Z"/><path class="cls-3" d="m10.59,12.87s-.05,0-.07-.02c.02-.39.48-1.11.56-1.16.02.56-.16.93-.31,1.08-.06.06-.12.09-.18.09h0Zm.49-1.17c-.05.04-.53.75-.55,1.15.05.01.14,0,.23-.08.15-.15.32-.52.32-1.06h0Z"/><path class="cls-3" d="m10.9,12.74s-.06,0-.08-.02c.05-.39.58-1.06.66-1.1-.04.7-.37,1.13-.58,1.13h0Zm.57-1.12s-.59.69-.64,1.09c.02,0,.04.02.07.02.2,0,.52-.42.57-1.11h0Z"/><path class="cls-3" d="m11.47,12.46h-.04c-.05-.37.28-1.08.32-1.12.1.49,0,.88-.13,1.04-.05.05-.1.09-.14.09h0Zm.28-1.12s-.35.75-.31,1.1h.03s.09-.03.13-.08c.13-.16.23-.54.14-1.02h0Z"/><path class="cls-3" d="m12.12,12.67c-.19,0-.35-.05-.43-.13-.04-.04-.05-.08-.05-.12.11-.05.26-.07.46-.07.36,0,.75.08.79.11-.34.18-.61.22-.78.22h0Zm-.01-.31c-.2,0-.35.02-.45.07,0,.03.02.07.05.1.07.08.23.12.41.12.17,0,.44-.03.77-.2-.04-.02-.43-.09-.79-.09h0Z"/><path class="cls-3" d="m12.23,12.39c-.15,0-.26-.06-.27-.15.3-.25,1.14-.33,1.22-.3-.31.29-.66.45-.95.45h0Zm.88-.44c-.22,0-.88.09-1.15.3.02.08.12.13.27.13.28,0,.62-.16.93-.43,0,0-.02,0-.05,0h0Z"/><path class="cls-3" d="m11.92,12.12h-.02c-.11-.34.08-1.1.13-1.16.19.5.14.91.03,1.08-.04.06-.09.09-.14.09h0Zm.11-1.15s-.22.8-.12,1.14h0s.09-.03.12-.08c.12-.17.16-.57-.01-1.06h0Z"/><path class="cls-3" d="m12.23,11.86h-.02c-.1-.31.07-.99.12-1.05.17.45.13.82.02.97-.04.05-.08.08-.12.08h0Zm.1-1.04s-.2.72-.11,1.03h0s.07-.03.11-.07c.11-.15.15-.51-.01-.96h0Z"/><path class="cls-3" d="m12.43,12.01c-.06,0-.11-.02-.14-.06.18-.36.9-.79.98-.81-.24.57-.62.87-.85.87h0Zm.84-.86c-.06.02-.79.45-.96.8.03.03.07.05.12.05.23,0,.6-.3.84-.85h0Z"/><path class="cls-3" d="m12.53,11.48h0c-.14-.29-.09-.99-.05-1.05.24.41.27.8.18.97-.03.05-.07.08-.11.08h0Zm-.06-1.04s-.08.74.07,1.03c.04,0,.07-.03.1-.08.09-.17.07-.55-.16-.95h0Z"/><path class="cls-3" d="m12.8,11.06h0c-.16-.33-.1-1.1-.06-1.16.27.46.3.88.2,1.07-.04.06-.08.09-.13.09h0Zm-.06-1.16c-.02.06-.09.82.07,1.14.04,0,.08-.03.11-.08.1-.18.07-.61-.18-1.06h0Z"/><path class="cls-3" d="m13.06,11.26c-.11,0-.18-.04-.2-.1.22-.21.83-.33.95-.33,0,0,0,0,0,0-.16.02-.72.14-.93.33.05.13.39.15.82-.21-.24.23-.48.31-.63.31h0Z"/><path class="cls-3" d="m13.03,10.61h0c-.19-.31-.19-1.08-.16-1.15.31.43.38.86.29,1.05-.03.06-.07.1-.12.1h0Zm-.16-1.15c-.02.07-.01.83.17,1.13.04,0,.08-.04.11-.09.09-.19.02-.61-.27-1.04h0Z"/><path class="cls-3" d="m13.27,9.72h0c-.25-.2-.48-.85-.48-.92.39.26.57.6.56.8,0,.06-.03.11-.07.13h0Zm-.48-.92c0,.06.24.7.48.9.04-.02.05-.06.06-.11.01-.19-.17-.52-.54-.79h0Z"/><path class="cls-3" d="m13.42,10.01s-.09-.02-.11-.05c.14-.29.73-.65.8-.65-.19.46-.5.7-.69.7h0Zm.68-.7s-.63.36-.78.65c.02.02.06.04.1.04.18,0,.48-.24.68-.68h0Z"/><path class="cls-3" d="m13.43,9.47s-.04,0-.06-.02c.04-.33.48-.87.53-.9-.04.57-.3.92-.47.92h0Zm.46-.91s-.47.57-.52.89c.02,0,.03,0,.05,0,.17,0,.42-.34.46-.9h0Z"/><path class="cls-3" d="m13.33,8.61h0c-.28-.04-.75-.44-.78-.5.42.02.7.2.78.36.03.05.03.1,0,.14h0Zm-.78-.49s.49.44.77.48c.02-.03.02-.07,0-.12-.07-.15-.36-.33-.76-.36h0Z"/><path class="cls-3" d="m13.26,8.02h-.04c-.04-.33.24-.97.29-1.01.09.45,0,.79-.12.94-.04.05-.09.08-.13.08h0Zm.25-1.01s-.31.68-.28.99h.03s.08-.03.12-.07c.12-.14.21-.48.12-.92h0Z"/><path class="cls-3" d="m13.25,8.29h0c-.34-.08-.87-.62-.89-.69.5.08.84.32.91.52.03.06.02.12,0,.16h0Zm-.89-.69s.55.59.89.67c.03-.04.03-.09,0-.15-.08-.19-.41-.44-.89-.52h0Z"/><path class="cls-3" d="m13.18,7.93h0c-.31-.14-.75-.76-.77-.84.48.17.77.47.81.68.02.07,0,.12-.04.16h0Zm-.77-.84c.02.05.45.68.76.82.03-.03.04-.08.03-.14-.04-.21-.33-.5-.79-.67h0Z"/><path class="cls-3" d="m13.07,7.33h0c-.14-.29-.09-.98-.06-1.05.25.41.28.8.18.97-.03.05-.07.08-.11.08h0Zm-.06-1.04s-.07.73.07,1.03c.04,0,.07-.03.1-.07.09-.17.07-.55-.17-.95h0Z"/><path class="cls-3" d="m12.81,6.94h0c-.12-.24-.07-.8-.05-.85.2.33.22.65.15.79-.02.04-.06.07-.09.07h0Zm-.05-.84s-.05.6.06.83c.03,0,.06-.02.08-.06.07-.13.05-.44-.13-.77h0Z"/><path class="cls-3" d="m12.73,7.17h0c-.33-.11-.81-.71-.83-.77.49.12.81.4.86.6.02.07.01.12-.02.16h0Zm-.83-.76s.5.63.83.75c.03-.04.04-.08.02-.15-.06-.2-.37-.47-.84-.6h0Z"/><path class="cls-3" d="m12.62,6.75h0c-.2-.16-.39-.69-.39-.75.32.21.47.49.46.65,0,.05-.03.09-.06.11h0Zm-.39-.75s.19.56.39.73c.03-.02.04-.05.05-.09.01-.15-.13-.42-.44-.64h0Z"/><path class="cls-3" d="m12.49,13.14c-.57,0-.96-.21-1.08-.4-.04-.07-.05-.13-.02-.19.39.02,1.08.51,1.12.58h-.03Zm-1.09-.58s-.01.1.02.17c.12.2.53.4,1.07.4h0s.02,0,.02,0c-.05-.06-.73-.55-1.11-.56h0Z"/><path class="cls-3" d="m13.14,10.87c-.06,0-.11-.02-.14-.06.18-.36.9-.79.98-.81-.24.57-.62.87-.85.87h0Zm.84-.86c-.06.02-.79.45-.96.8.03.03.07.05.12.05.23,0,.6-.3.84-.85h0Z"/><path class="cls-3" d="m13.39,8.63s-.05,0-.07-.02c.05-.41.36-.87.53-.96-.04.68-.3.98-.46.98h0Zm.46-.97c-.15.09-.46.56-.52.95.01,0,.04.01.06.01.15,0,.41-.31.46-.96h0Z"/><path class="cls-16" d="m10.96,12.29c.35.48.63.69.97.75.17.03.49-.15.06-.39-.14.14-.69-.4-.79-.62l-.24.25h0Z"/><path class="cls-3" d="m11.97,13.05h-.04c-.35-.07-.63-.29-.98-.76l.24-.26c.12.23.67.74.79.62.22.11.24.21.23.27-.02.09-.14.14-.24.14h0Zm-.78-1.01l-.23.25c.34.46.62.67.97.74h.04c.09,0,.21-.05.22-.12.02-.05,0-.14-.21-.25,0,.01-.03.02-.05.02-.2,0-.65-.46-.73-.64h0Z"/><path class="cls-9" d="m10.96,12.29c-.8-1.04-1.29-2.04-3.08-3.06,1.58.53,2.1,1.33,3.33,2.82l-.25.24h0Z"/><path class="cls-3" d="m10.96,12.29s0,0,0,0c-.15-.19-.28-.38-.42-.56-.62-.85-1.2-1.66-2.66-2.49,1.42.46,1.97,1.14,2.97,2.36l.37.45-.25.25s0,0,0,0h0Zm-3.08-3.06c1.47.82,2.05,1.63,2.67,2.48.13.18.27.37.41.56l.25-.23-.37-.43c-1-1.23-1.55-1.9-2.96-2.38h0Z"/><path class="cls-13" d="m10.98,12.03s0,0,0,0l-.19-.24c-.68-.85-1.38-1.73-2.19-2.18.83.42,1.53,1.31,2.21,2.16l.19.24s0,.02,0,.02c0,0,0,0,0,0h0Z"/><path class="cls-16" d="m12.04,13c-.05-.27.04-.51.04-.51.03-.11-.04-.25-.15-.32,0,0-.36-.12-.36-.12-.17-.05-.31.04-.4.11-.15.09-.18.08-.24.06-.21,0-.14.17-.05.2.18.06.33-.07.33-.07.12-.11.36-.23.36-.23.22.02.36.08.4.16.03.12-.06.51-.09.57-.04.09-.05.18-.02.19.11.06.14.04.17.03.04-.03,0-.08.02-.07h0Z"/><path class="cls-3" d="m11.98,13.08s-.07-.01-.12-.04c-.03-.04-.01-.13.02-.2.03-.06.11-.45.09-.56-.05-.09-.19-.14-.39-.16,0,0-.23.12-.36.23,0,0-.18.13-.33.07-.05-.01-.09-.08-.09-.13,0-.03.03-.08.14-.08.07.03.1.03.24-.06.14-.11.28-.15.4-.11.11.04.36.12.36.12.11.07.18.21.15.32,0,0-.08.25-.04.51,0,.02,0,.05-.02.07-.01,0-.03.01-.05.01h0Zm-.41-.98c.21.02.36.08.41.17.03.12-.07.52-.09.57-.03.07-.04.15-.03.17.09.06.14.05.16.04.02-.02.02-.04.01-.05-.04-.28.04-.52.04-.52.02-.1-.04-.24-.14-.3,0,0-.36-.12-.36-.12-.12-.04-.25,0-.39.11-.15.09-.18.08-.25.06-.07,0-.12.03-.12.07,0,.05.03.1.08.11.15.06.32-.07.32-.07.12-.11.36-.23.36-.23h0Z"/><path class="cls-3" d="m11.35,12.68c-.05-.09-.02-.17.01-.24.02-.05.04-.09.03-.12h.02s0,.08-.03.13c-.03.07-.06.15-.03.24h0Z"/><path class="cls-3" d="m11.46,12.76c-.05-.09-.02-.16.01-.22.02-.04.04-.08.03-.11h.02s0,.08-.03.12c-.03.06-.06.13-.03.22h0Z"/><path class="cls-3" d="m11.58,12.84c-.05-.09-.02-.16,0-.22.02-.04.04-.08.03-.11h.01s0,.08-.03.12c-.03.06-.06.12-.02.21h0Z"/><path class="cls-3" d="m11.72,12.92c-.05-.09-.02-.15,0-.2.02-.03.03-.07.02-.1h.01s0,.07-.02.11c-.03.05-.05.1-.02.2h0Z"/><path class="cls-3" d="m10.98,12.39s-.07,0-.11-.02c.07.02.15.01.24-.02,0,0,.04-.03.08-.05.09-.07.22-.17.32-.19v.02c-.1.03-.23.12-.32.19-.05.04-.07.06-.08.06-.04.02-.09.03-.14.03h0Z"/><path class="cls-16" d="m11.88,12.22s-.05-.02-.05-.05.03-.04.05-.04c.03,0,.05.03.05.06,0,.02-.02.03-.05.03h0Z"/><path class="cls-3" d="m11.88,12.22s-.06-.02-.06-.05c0-.06.12-.05.12.01,0,.02-.02.04-.06.04h0Z"/><path class="cls-16" d="m11.77,12.18s-.06-.02-.06-.04c0-.02.03-.04.06-.04.03,0,.06.02.06.04,0,.02-.03.04-.06.04h0Z"/><path class="cls-3" d="m11.77,12.18s-.06-.02-.06-.05c0-.06.13-.05.13,0,0,.03-.03.05-.07.05h0Z"/><path class="cls-16" d="m11.66,12.16s-.05-.02-.05-.05c0-.03.02-.05.05-.05.03,0,.06.02.06.05,0,.03-.03.05-.06.05h0Z"/><path class="cls-3" d="m11.66,12.17s-.06-.02-.06-.06c0-.07.13-.07.13,0,0,.03-.03.06-.07.06h0Z"/><path class="cls-3" d="m12.14,13.01c-.04-.08-.03-.13,0-.17.01-.04.03-.07-.01-.12h.01s.03.09.01.13c-.01.04-.03.09,0,.16h0Z"/><path class="cls-5" d="m8.61,7.41l3.11,3.06c.04.11-.08.13-.07.16.08.14.06.29.08.32.13.18.29.17.3.17.16-.03.19.18.23.19.08.09-.02.16.07.24-.02,0,.45.46.54.58.02.05.37.41.37.41-.05.13-.61.5-.61.51-.41-.49-.95-1.49-1-1.5-.3-.34-.58-.8-.53-.94-.04-.23-.3-.44-.38-.43.05-.15-.02-.26-.02-.27l-1.65-1.63c0-.11.08-.09.11-.1,0,0-.62-.69-.63-.69,0-.07.05-.1.08-.09h0Z"/><path class="cls-3" d="m12.65,13.1l-.03-.04c-.24-.29-.53-.76-.74-1.11-.12-.2-.23-.38-.25-.39-.3-.34-.6-.81-.54-.95-.04-.21-.28-.41-.36-.41.02-.13-.02-.23-.03-.27l-1.65-1.64c0-.11.07-.12.1-.12-.24-.25-.6-.65-.62-.67,0-.04,0-.07.02-.09.02-.02.04-.03.06-.03l3.12,3.07c.03.09-.02.12-.05.15.04.12.04.21.05.28,0,.03,0,.05,0,.06.11.15.24.17.28.17h.04c.09,0,.14.08.17.14.01.02.03.05.04.05.04.05.04.09.04.13,0,.04,0,.08.04.11,0,.02.1.11.19.21.13.14.3.31.35.38.02.04.23.26.37.41-.03.1-.28.28-.5.44-.05.04-.1.07-.1.07v.04h0Zm-1.01-1.55s.08.1.26.39c.21.34.49.8.73,1.09.01-.01.04-.03.1-.07.16-.12.46-.33.5-.43-.03-.02-.35-.34-.37-.4-.05-.06-.22-.24-.35-.37-.2-.21-.2-.21-.2-.22-.04-.03-.04-.07-.04-.12,0-.04,0-.07-.03-.11-.01,0-.03-.02-.04-.06-.03-.05-.07-.13-.15-.13h-.04s-.18,0-.3-.17c0-.02,0-.04,0-.07,0-.06-.01-.16-.07-.26h0s.03-.04.03-.04c.03-.02.07-.06.05-.12l-3.1-3.06s-.03.01-.05.03c0,.01-.02.03-.02.06h0s.07.06.63.68c-.06.02-.11.02-.11.11l1.65,1.62c.02.05.06.16.02.29.09-.02.34.2.37.42-.04.12.21.56.53.93h0Z"/><path class="cls-8" d="m11.81,11.61c.15-.05.33-.18.33-.18l.93,1.07-.41.36-.85-1.25h0Z"/><path class="cls-9" d="m7.82,7.03c.06.06.08.01.1,0l.04-.06c.03-.08.09-.1.12-.09l3.63,3.6c.04.11-.08.15-.07.18l-2.48-2.46s-.85-.9-1.1-1.15l-.14.14s-.08.05-.13,0l-1.24-1.39,1.25,1.22.02.02h0Z"/><path class="cls-3" d="m11.64,10.66l-2.48-2.46s-.85-.9-1.1-1.15l-.13.14c-.04.05-.09.05-.15,0l-1.24-1.4,1.27,1.21s.06.05.07.05l.04-.02h0s.04-.07.04-.07c.03-.06.07-.09.11-.09l3.66,3.6c.03.09-.02.13-.05.16v.03h-.04Zm-3.58-3.63c.26.25,1.11,1.15,1.11,1.15l2.47,2.45s.01-.01.02-.02c.03-.03.07-.07.05-.13l-3.63-3.59s-.08.03-.1.09l-.05.06s-.03.03-.05.03c0,0-.04-.01-.06-.03l-1.27-1.25,1.26,1.38s.08.04.12,0l.14-.14h0Z"/><path class="cls-3" d="m11.57,11.61c-.06,0-.12-.03-.15-.07-.05-.06-.06-.15-.01-.24h.02c-.04.09-.03.17.01.23.05.06.14.08.24.06-.04.02-.07.02-.1.02h0Z"/><path class="cls-2" d="m11.54,11.45c.02.08-.06.1-.06.1l.06-.1Z"/><path class="cls-3" d="m12.78,12.16l-.77-.87c-.06,0-.38-.25-.49-.46-.01,0-.03-.03-.05-.06-.09-.11-.28-.33-.58-.54v-.02c.31.21.5.44.59.55.02.03.04.05.05.06.11.21.42.45.48.45l.76.88h0Z"/><path class="cls-9" d="m11.73,10.49c-.06.07-.45.23-.5.52.2.31.42.55.45.6.33-.16.51-.28.56-.33-.02-.05-.09-.11-.09-.11-.05-.08-.13-.04-.13-.04-.17-.08-.25-.24-.22-.35.04-.15.01-.11.02-.13-.02-.08-.09-.17-.09-.17h0Z"/><path class="cls-3" d="m11.67,11.62h0s-.04-.07-.09-.12c-.09-.11-.23-.28-.36-.48.04-.23.27-.38.41-.46.04-.03.08-.05.1-.07.02,0,.09.08.11.17,0,.01.01.02-.02.14-.03.11.04.26.21.34,0,0,.08-.04.14.04h0s.07.05.08.11c-.08.07-.27.19-.57.34h0Zm.06-1.12s-.04.04-.09.07c-.13.09-.36.23-.4.44.12.2.26.36.36.47.04.05.07.09.09.11.39-.19.53-.31.55-.32-.02-.04-.08-.09-.08-.09-.04-.06-.12-.04-.12-.04-.19-.08-.27-.25-.23-.37.03-.09.02-.11.02-.11-.02-.09-.09-.17-.09-.17h0Z"/><path class="cls-9" d="m11.63,10.76c-.05.12-.03.28.08.37l-.08-.37h0Z"/><path class="cls-3" d="m11.72,11.13c-.12-.07-.15-.23-.09-.37h.02c-.05.14-.02.29.07.37h0Z"/><path class="cls-3" d="m11.67,11.38s-.06-.03-.06-.07c0-.08.13-.08.13,0,0,.04-.03.07-.07.07h0Zm0-.12s-.05.03-.05.06c0,.06.11.06.11,0,0-.03-.03-.06-.06-.06h0Z"/><path class="cls-3" d="m11.49,11.13s-.07-.03-.07-.07c0-.08.13-.07.13,0,0,.04-.03.07-.07.07h0Zm0-.12s-.05.02-.05.05c0,.06.11.06.11,0,0-.03-.02-.05-.05-.05h0Z"/><path class="cls-5" d="m11.05,7.36l-3.11,3.06c-.04.11.08.14.08.16-.09.14-.06.29-.08.33-.13.18-.29.17-.3.17-.16-.03-.21.2-.25.21-.06.06,0,.19-.07.25.01,0-.49.5-.54.56-.02.05-.35.4-.35.4.05.13.61.5.61.51.41-.49.95-1.49,1-1.5.3-.34.58-.8.53-.94.04-.23.29-.44.38-.43-.05-.15.02-.26.02-.28l2.22-2.23c0-.11-.04-.08-.12-.09,0,0,.06-.1.07-.1,0-.07-.05-.1-.08-.09h0Z"/><path class="cls-3" d="m7,13.04v-.03s-.05-.04-.09-.07c-.23-.16-.47-.35-.51-.43.09-.11.33-.37.35-.41.08-.08.53-.53.54-.56.04-.03.04-.08.04-.13,0-.05,0-.09.03-.12.01,0,.03-.03.05-.06.04-.06.09-.16.19-.16h.05s.17,0,.28-.16c0,0,0-.03,0-.06,0-.07.01-.16.07-.27-.05-.04-.11-.08-.08-.16l3.11-3.07s.06,0,.08.03c.02.02.03.05.02.08-.01.01-.04.06-.07.1h-.02c.06-.11.08-.11.08-.11,0-.02-.02-.04-.03-.05-.01-.02-.03-.02-.04-.02l-3.11,3.06c-.02.06.02.09.05.12l.03.04c-.06.1-.07.2-.07.26,0,.03,0,.05,0,.07-.12.16-.26.18-.3.18h-.05c-.08,0-.13.08-.17.14-.02.04-.04.06-.05.06-.02.02-.02.06-.02.11,0,.05,0,.11-.05.14,0,.01-.52.54-.54.56-.02.05-.31.36-.35.4.04.08.34.3.5.41.05.04.08.06.1.07.24-.29.52-.75.73-1.09.19-.31.25-.4.28-.41.28-.33.57-.79.52-.92.04-.23.28-.44.38-.44-.05-.11,0-.22.01-.26l2.23-2.25c0-.07-.02-.07-.05-.07h-.04s.04-.02.04-.02c.05,0,.07.02.07.1l-2.22,2.24s-.06.14-.02.26c-.09.02-.33.21-.37.43.05.13-.24.61-.53.94-.03.01-.14.2-.26.4-.21.34-.49.81-.74,1.09l-.03.03h0Z"/><path class="cls-8" d="m7.85,11.57c-.14-.05-.33-.19-.33-.19l-.93,1.09.41.35.85-1.25h0Z"/><path class="cls-9" d="m11.83,6.98c-.06.06-.08.01-.1,0l-.05-.06c-.03-.08-.09-.1-.12-.09l-3.63,3.59c-.04.11.08.15.07.18l2.48-2.46s.86-.91,1.1-1.15l.14.14s.08.05.13,0l1.23-1.4-1.25,1.23-.02.02h0Z"/><path class="cls-3" d="m8,10.63v-.03s-.01-.02-.02-.03c-.03-.03-.08-.08-.05-.15l3.64-3.6c.06,0,.11.02.14.09l.08.08s.03,0,.05-.03l1.27-1.25-1.22,1.41c-.06.05-.11.05-.15,0l-.14-.14c-.23.24-1.08,1.15-1.08,1.15l-2.5,2.48h0Zm3.58-3.79l-3.64,3.59c-.02.06.02.1.05.13,0,0,.02.01.02.02l2.47-2.45s.86-.91,1.1-1.15l.16.14s.07.04.12,0l1.23-1.4-1.23,1.24s-.06.05-.08.05h0l-.04-.02-.05-.07c-.02-.06-.06-.09-.1-.09h0Z"/><path class="cls-3" d="m8.06,11.57s-.05,0-.08,0h0c.11,0,.19-.02.24-.08.04-.06.05-.14.01-.22h.02c.04.08.03.17-.02.24-.04.05-.11.08-.18.08h0Z"/><path class="cls-2" d="m8.12,11.4c-.02.08.06.1.06.1l-.06-.1Z"/><path class="cls-3" d="m6.89,12.12l.73-.9c.07,0,.38-.25.49-.45.02-.02.04-.04.06-.07.1-.12.28-.33.57-.54v.02c-.27.2-.45.42-.55.53-.03.03-.05.06-.06.07-.11.2-.42.45-.49.46l-.74.88h0Z"/><path class="cls-9" d="m7.92,10.44c.06.07.45.23.5.52-.19.31-.42.54-.45.59-.32-.16-.5-.28-.56-.32.01-.05.09-.1.09-.1.04-.08.13-.04.13-.04.17-.08.25-.24.22-.36-.04-.15-.01-.11-.02-.13.02-.08.09-.17.09-.17h0Z"/><path class="cls-3" d="m7.99,11.57h0c-.3-.15-.49-.27-.56-.33,0-.07.08-.12.08-.12.05-.09.14-.04.14-.04.16-.08.23-.23.2-.34-.03-.11-.02-.12-.02-.13.02-.09.09-.17.09-.17.03.02.07.04.12.07.14.09.37.24.41.46-.13.21-.27.38-.36.49-.04.05-.08.09-.08.11h0Zm-.4-.48s-.05.01-.07.04c0,0-.07.05-.08.1.01,0,.16.12.55.31.01-.02.04-.06.08-.11.09-.11.23-.28.36-.48-.04-.2-.26-.35-.4-.43-.05-.03-.08-.05-.1-.07,0,.01-.06.09-.07.16,0,.01,0,.03.02.12.03.12-.04.29-.22.37-.01,0-.03,0-.05,0h0Z"/><path class="cls-9" d="m8.02,10.71c.05.12.03.28-.08.37l.08-.37h0Z"/><path class="cls-3" d="m7.95,11.09c.08-.1.11-.25.06-.38h.02c.05.13.02.29-.08.38h0Z"/><path class="cls-3" d="m7.98,11.34s-.07-.03-.07-.07c0-.08.14-.08.14,0,0,.04-.03.07-.07.07h0Zm0-.12s-.05.03-.05.06c0,.06.11.06.11,0,0-.03-.02-.06-.05-.06h0Z"/><path class="cls-3" d="m8.16,11.09s-.07-.03-.07-.07c0-.08.13-.08.13,0,0,.04-.03.07-.07.07h0Zm0-.13s-.05.02-.05.05c0,.06.11.07.11,0,0-.03-.02-.05-.05-.05h0Z"/><path class="cls-9" d="m10.68,7.67c0-.06.06-.1.12-.1l.23.25s0,.04-.03.08c-.04.05-.09.03-.09.03l-.24-.25h0Z"/><path class="cls-3" d="m10.95,7.94h-.04s-.24-.26-.24-.26c0-.07.06-.12.13-.12l.24.25s0,.05-.03.1c-.02.03-.04.03-.06.03h0Zm-.15-.36c-.05,0-.11.05-.11.1l.26.24s.03,0,.04-.02c.03-.04.03-.08.03-.08l-.23-.24h0Z"/><path class="cls-10" d="m9.5,5.98s.13-.14.14-.14c0-.3.14-.26.14-.26.19-.03.36-.02.35.26-.03.15-.01.22.09.32.82.53.9.8.96.85-.6.17-1.2.21-1.54-.46-.07-.22.08-.5.08-.5,0-.02,0-.06,0-.06-.06.02-.22,0-.22,0h0Z"/><path class="cls-3" d="m10.53,7.11c-.41,0-.71-.18-.9-.57-.07-.22.07-.5.07-.51,0-.02,0-.06,0-.06-.03.03-.21.01-.21.01.01-.05.12-.15.14-.16,0-.24.08-.26.12-.26.17-.02.25-.01.31.05.04.05.06.12.06.22-.04.15-.01.22.09.31.69.45.86.71.93.81.01.02.02.03.03.04-.26.08-.46.12-.65.12h0Zm-.82-1.14s0,.06,0,.08c0,0-.14.28-.07.5.19.38.48.56.89.56.18,0,.38-.03.64-.11-.01,0-.02-.01-.04-.03-.06-.1-.24-.36-.92-.81-.11-.1-.13-.17-.09-.32,0-.1-.02-.16-.05-.21-.06-.06-.16-.06-.29-.04-.06,0-.13.02-.13.26-.02,0-.12.1-.14.14,0,0,.05,0,.1,0,.05,0,.09,0,.11,0h0Z"/><path class="cls-16" d="m8.89,12.16c-.35.48-.63.69-.98.75-.28.14-.54-.2-.06-.43.14.14.69-.37.79-.58l.24.25h0Z"/><path class="cls-3" d="m7.78,12.95c-.1,0-.18-.05-.2-.14-.03-.12.07-.24.27-.34.02.02.04.02.07.02.19,0,.63-.41.72-.6l.25.25c-.34.48-.62.7-.98.77-.04.02-.09.03-.13.03h0Zm.07-.46c-.18.09-.28.21-.25.32.03.11.18.16.31.09.35-.07.63-.29.97-.75l-.24-.25c-.09.22-.65.72-.79.59h0Z"/><path class="cls-9" d="m8.89,12.16c.8-1.04,1.29-2.04,3.08-3.06-1.58.53-2.1,1.33-3.33,2.82l.25.24h0Z"/><path class="cls-3" d="m8.89,12.16s0,0,0,0l-.25-.24.36-.45c1-1.23,1.55-1.9,2.97-2.38-1.46.84-2.04,1.65-2.65,2.5-.14.19-.27.38-.42.57,0,0,0,0,0,0h0Zm3.08-3.07c-1.41.49-1.96,1.16-2.96,2.39l-.37.44.24.22c.14-.19.28-.37.41-.56.62-.86,1.2-1.66,2.67-2.5h0Z"/><path class="cls-13" d="m8.86,11.9s0,0,0,0c0,0,0-.01,0-.02l.19-.24c.68-.85,1.38-1.74,2.19-2.18-.79.47-1.49,1.35-2.17,2.2l-.19.24s0,0-.01,0h0Z"/><path class="cls-16" d="m7.81,12.87c.05-.28-.04-.51-.04-.51-.03-.11.04-.25.14-.31,0,0,.36-.12.36-.12.17-.05.31.04.4.1.15.09.18.09.24.06.21,0,.14.17.05.2-.18.07-.33-.07-.33-.07-.13-.11-.36-.23-.36-.23-.22.02-.35.08-.4.17-.03.12.06.51.09.57.04.08.05.18.02.19-.11.06-.14.04-.17.03-.04-.03,0-.08-.02-.06h0Z"/><path class="cls-3" d="m7.87,12.95s-.04,0-.05-.01c-.03-.02-.02-.05-.02-.07.04-.27-.04-.51-.04-.52-.03-.11.04-.25.15-.32,0,0,.2-.06.36-.12.13-.04.26,0,.41.1.14.08.17.08.23.06.13,0,.14.05.15.08,0,.05-.04.11-.09.13-.15.06-.33-.07-.33-.07-.12-.11-.36-.23-.36-.23-.2.02-.35.08-.39.16-.03.11.06.5.09.56.03.07.05.15.03.19-.07.04-.11.06-.14.06h0Zm.5-1.04s-.06,0-.1.02c0,0-.35.11-.36.12-.1.07-.17.2-.14.31,0,0,.08.25.04.52,0,.03,0,.04.02.06.02.01.07.02.16-.03.02-.03,0-.11-.03-.18-.03-.06-.12-.45-.09-.57.05-.09.19-.16.4-.17,0,0,.24.12.37.23,0,0,.17.12.32.07.05-.01.09-.07.08-.11,0-.04-.05-.07-.13-.07-.06.03-.1.03-.24-.06-.11-.08-.2-.12-.3-.12h0Z"/><path class="cls-3" d="m8.51,12.55c.02-.1-.01-.17-.04-.24-.02-.05-.04-.09-.03-.13h.01s0,.08.03.13c.03.07.07.15.03.25h0Z"/><path class="cls-3" d="m8.4,12.64c.02-.1-.01-.16-.04-.22-.02-.04-.04-.08-.03-.12h.02s0,.08.03.12c.03.06.07.13.03.23h0Z"/><path class="cls-3" d="m8.28,12.72c.03-.1,0-.16-.03-.22-.02-.04-.04-.08-.03-.12h.01s0,.08.02.12c.03.06.06.13.02.23h0Z"/><path class="cls-3" d="m8.14,12.8c.02-.09,0-.15-.03-.2-.02-.04-.04-.07-.03-.11h.01s0,.07.03.1c.03.05.05.11.01.2h0Z"/><path class="cls-3" d="m8.86,12.26s-.08,0-.13-.02c-.01,0-.04-.02-.08-.05-.09-.06-.22-.17-.33-.19h0c.1.02.24.12.33.18.03.02.07.05.07.05.11.04.19.03.24,0-.03.02-.06.03-.11.03h0Z"/><path class="cls-16" d="m7.96,12.09s.06-.02.06-.05-.03-.05-.06-.05c-.03,0-.05.03-.05.06,0,.03.03.04.05.04h0Z"/><path class="cls-3" d="m7.96,12.1s-.06-.03-.06-.04c0-.06.12-.07.12-.01,0,.03-.03.05-.06.05h0Z"/><path class="cls-16" d="m8.08,12.04s.06-.02.06-.04c0-.02-.02-.04-.06-.04-.04,0-.06.02-.06.04,0,.02.03.04.06.04h0Z"/><path class="cls-3" d="m8.08,12.05s-.07-.02-.07-.05c0-.05.14-.05.14,0,0,.03-.03.05-.07.05h0Z"/><path class="cls-16" d="m8.18,12.03s.06-.02.06-.05c0-.03-.02-.05-.06-.05s-.06.02-.06.05c0,.03.02.05.06.05h0Z"/><path class="cls-3" d="m8.18,12.04s-.06-.03-.06-.06c0-.06.13-.06.13,0,0,.03-.03.06-.06.06h0Z"/><path class="cls-3" d="m7.72,12.89c.02-.08,0-.12-.02-.16-.02-.04-.03-.08.02-.14h.01c-.04.06-.03.09-.01.13.02.04.04.09,0,.17h0Z"/><path class="cls-4" d="m10.94,6.83c1.01,1.31,1.38,2.91-1.88,7.29,1.65-2.36,3.33-5.09,1.75-7.2l.13-.09h0Z"/><path class="cls-3" d="m9.06,14.12s0,0,0,0c0,0,0,0,0,0,1.67-2.39,3.32-5.11,1.75-7.2l.12-.09c.92,1.19,1.53,2.72-1.87,7.29,0,0,0,0,0,0h0Zm1.88-7.29l-.12.09c1.52,2.02,0,4.66-1.61,7,3.24-4.41,2.63-5.92,1.73-7.09h0Z"/><path class="cls-4" d="m10.95,7.01c.76.86,1.14,2.15.04,3.2.53-.89.86-1.81-.15-3.15l.11-.05h0Z"/><path class="cls-3" d="m10.99,10.21h0s0,0,0,0c.49-.83.89-1.76-.15-3.15l.11-.05c.75.85,1.15,2.13.04,3.2h0Zm-.04-3.2l-.11.05c1.04,1.37.66,2.29.17,3.12,1.08-1.06.68-2.33-.06-3.17h0Z"/><path class="cls-4" d="m10.98,6.94c.95,1.08,1.65,2.64.29,3.95.75-1.27,1.02-1.98-.42-3.89l.13-.06h0Z"/><path class="cls-3" d="m11.27,10.9h0s0,0,0,0c.74-1.26,1.04-1.95-.42-3.89l.14-.07c.61.69,1.86,2.46.29,3.96,0,0,0,0,0,0h0Zm-.29-3.96l-.13.06c1.46,1.92,1.18,2.62.44,3.87,1.53-1.5.3-3.25-.3-3.93h0Z"/><path class="cls-4" d="m11.05,6.74c1.2,1.24,1.85,3.28-.76,7.03,1.01-1.97,2.54-4.95.63-6.95l.13-.07h0Z"/><path class="cls-3" d="m10.29,13.77h0s0,0,0,0l.02-.03c1-1.96,2.51-4.92.61-6.92l.13-.08c1.62,1.68,1.38,3.98-.75,7.03h0Zm.76-7.03l-.12.07c1.89,1.99.39,4.94-.61,6.91,2.1-3.03,2.34-5.31.73-6.98h0Z"/><path class="cls-7" d="m11.05,6.94c.95,1.08,1.65,2.64.28,3.95.76-1.27,1.02-1.98-.42-3.89l.14-.06h0Z"/><path class="cls-3" d="m11.33,10.9h0c.3-.51.53-.93.6-1.37-.07.44-.29.85-.58,1.35,1.54-1.5.3-3.25-.3-3.93l-.13.06c.42.55.69,1.01.85,1.41-.16-.39-.44-.85-.86-1.41l.14-.07c.61.69,1.86,2.45.29,3.96,0,0,0,0,0,0h0Z"/><path class="cls-7" d="m11,7.01c.76.86.99,2.41-.1,3.45.61-1.02,1.14-1.87-.01-3.41l.11-.05h0Z"/><path class="cls-3" d="m10.91,10.47h0s0,0,0,0l.03-.04c.59-.99,1.1-1.85-.04-3.36l.11-.05c.79.89.97,2.43-.1,3.46h0Zm.09-3.45l-.1.05c1.14,1.51.63,2.37.04,3.36v.02c1.04-1.02.85-2.54.07-3.43h0Z"/><path class="cls-7" d="m11.08,6.7c1.2,1.24,1.87,3.26-.74,7,1.06-2.09,2.74-4.73.63-6.96l.11-.05h0Z"/><path class="cls-3" d="m10.34,13.71h0s0,0,0,0c.09-.17.18-.34.27-.52,1.02-1.96,2.29-4.39.36-6.43l.11-.05c1.62,1.67,1.38,3.97-.74,7.01,0,0,0,0,0,0h0Zm.74-7l-.1.05c1.94,2.03.66,4.47-.36,6.43-.08.16-.17.32-.25.48,2.09-3.02,2.32-5.29.71-6.95h0Z"/><path class="cls-7" d="m11.1,6.78c1.01,1.31,1.54,2.95-1.88,7.29,1.62-2.32,3.4-5.01,1.75-7.2l.12-.09h0Z"/><path class="cls-3" d="m9.23,14.07h0s0,0,0,0c1.45-2.08,3.45-4.93,1.75-7.19l.13-.09c.98,1.25,1.63,2.85-1.87,7.29t0,0h0Zm1.88-7.29l-.12.09c1.68,2.22-.22,5.02-1.67,7.09,3.41-4.36,2.76-5.94,1.8-7.18h0Z"/><path class="cls-4" d="m9.64,5.84c0-.3.14-.26.14-.26.19-.03.36-.02.35.26-.03.16-.01.23.09.31.82.53.81.74.87.79-.16.05-.24.12-.39.14-.05,0-.09,0-.14,0-.03,0-.07.02-.1.02.22.01-.51-.89-.79-.92.04-.12.06-.16.06-.16,0-.02,0-.05,0-.05l-.07-.14h0Z"/><path class="cls-7" d="m10.98,7.16c-.17-.24-.48-.74-.48-.74v-.03c.48.4.54.38.5.75l-.02.02h0Z"/><path class="cls-3" d="m10.97,7.16h0c-.17-.24-.48-.74-.48-.74l.03.02c.07.14.31.51.45.71v-.02c.05-.31.02-.34-.3-.59l-.03-.03.04.02c.31.25.35.29.31.6h-.01s0,.01,0,.02h0s0,0,0,0h0Z"/><path class="cls-7" d="m10.31,6.22c.49.21.69.32.97.7-.85-.37-.73-.37-1-.66l.04-.05h0Z"/><path class="cls-3" d="m11.28,6.92h0c-.69-.3-.74-.36-.88-.52-.03-.04-.07-.08-.12-.14l.04-.05c.49.2.69.31.97.7,0,0,0,0,0,0,0,0,0,0,0,0h0Zm-.97-.71l-.03.05s.09.09.12.13c.14.16.19.22.87.51-.28-.38-.48-.49-.96-.69h0Z"/><path class="cls-7" d="m10.82,7.17c-.23-.24-.37-.79-.37-.79l.02-.03c.35.42.46.58.35.82h0Z"/><path class="cls-3" d="m10.82,7.17h0c-.23-.24-.37-.79-.37-.8,0,0,.02.02.02.03.03.15.15.56.34.76.06-.14.05-.25-.03-.4.09.15.1.26.04.4,0,0,0,0,0,0h0Z"/><path class="cls-7" d="m10.67,7.18c-.17-.21-.24-.67-.24-.67v-.02c.17.23.35.47.24.69h0Z"/><path class="cls-3" d="m10.67,7.19s0,0,0,0c-.17-.21-.24-.67-.24-.67,0,0,.02.02.02.03,0,.11.08.46.22.64.06-.13.03-.27-.04-.41.08.14.12.28.05.41h0Z"/><path class="cls-7" d="m10.52,7.17c-.13-.19-.15-.59-.15-.59v-.02c.18.28.25.45.15.61h0Z"/><path class="cls-3" d="m10.52,7.17h0c-.13-.19-.16-.59-.16-.6,0,0,0,.01.01.02,0,.1.04.4.14.57.05-.1.05-.2,0-.33.06.14.07.24,0,.34h0Z"/><path class="cls-7" d="m10.4,7.14c-.1-.18-.09-.54-.09-.54h.01c.12.25.16.41.08.54h0Z"/><path class="cls-3" d="m10.4,7.14h0c-.1-.18-.1-.55-.1-.55,0,0,0,.01.01.02,0,.09,0,.37.09.52.05-.09.04-.2,0-.33.05.13.05.24,0,.34h0Z"/><path class="cls-7" d="m10.28,7.12c-.08-.17-.04-.5-.04-.5h0c.07.09.17.3.03.5h0Z"/><path class="cls-3" d="m10.28,7.12s0,0,0,0c-.08-.17-.04-.5-.04-.5,0,0,0,0,0,.01,0,.07-.02.33.04.48.08-.12.08-.25.04-.36.05.11.05.25-.04.37h0Z"/><path class="cls-7" d="m10.79,6.71c-.19-.09-.39-.37-.39-.37h0c.28.13.4.25.38.37h0Z"/><path class="cls-3" d="m10.79,6.71h0c-.19-.08-.39-.37-.39-.37,0,0,.02,0,.02.01.05.07.21.28.37.35.01-.08-.03-.15-.15-.24.12.08.17.16.16.24,0,0,0,0,0,0h0Z"/><path class="cls-7" d="m10.66,6.71c-.19-.12-.29-.4-.29-.4v-.02c.25.18.35.29.29.41h0Z"/><path class="cls-3" d="m10.66,6.71h0c-.18-.12-.29-.4-.29-.4,0,0,.01,0,.02.01.02.07.12.28.27.38.04-.08,0-.15-.09-.25.1.09.14.17.1.26,0,0,0,0,0,0h0Z"/><path class="cls-7" d="m10.54,6.71c-.14-.1-.19-.33-.19-.33h.01c.17.14.24.24.18.33h0Z"/><path class="cls-3" d="m10.54,6.72h0c-.14-.1-.19-.34-.19-.34,0,0,0,0,.02,0,.01.06.07.23.18.32.03-.06.02-.12-.06-.21.08.08.11.15.06.22h0Z"/><path class="cls-7" d="m10.42,6.71c-.11-.1-.12-.3-.12-.3h.01c.13.13.18.22.11.3h0Z"/><path class="cls-3" d="m10.42,6.71s0,0,0,0c-.1-.1-.13-.3-.13-.3,0,0,0,0,.01.01,0,.05.03.2.12.28.04-.05.03-.11-.03-.2.06.08.08.14.03.2h0s0,0,0,0h0Z"/><path class="cls-7" d="m10.33,6.69c-.08-.09-.08-.27-.08-.27h.01c.1.13.13.21.07.27h0Z"/><path class="cls-3" d="m10.33,6.7h0c-.08-.09-.08-.27-.08-.28,0,0,0,0,0,0,0,.05,0,.18.07.26.04-.04.04-.1,0-.18.05.07.06.13,0,.19h0Z"/><path class="cls-7" d="m10.23,6.68c-.06-.09-.03-.25-.03-.25h.01c.07.12.09.19.02.25h0Z"/><path class="cls-3" d="m10.23,6.69h0c-.06-.09-.03-.25-.03-.25,0,0,0,0,0,.01,0,.04-.02.16.03.23.04-.04.05-.09.02-.16.04.07.04.13-.02.17,0,0,0,0,0,0h0Z"/><path class="cls-7" d="m10.57,6.58c-.22-.1-.39-.36-.39-.36v-.02c.29.15.42.25.39.38h0Z"/><path class="cls-3" d="m10.57,6.58h0c-.22-.1-.39-.36-.39-.36,0,0,.02,0,.02.01.04.07.19.26.37.34.01-.08-.04-.15-.16-.24.12.08.19.16.17.25h0s0,0,0,0h0Z"/><path class="cls-7" d="m10.43,6.59c-.19-.12-.29-.4-.29-.4h.01c.23.16.33.28.28.4h0Z"/><path class="cls-3" d="m10.43,6.59s0,0,0,0c-.19-.12-.29-.4-.29-.4,0,0,.01,0,.02.01.02.07.12.28.27.38.04-.08,0-.16-.09-.25.1.09.14.17.1.26,0,0,0,0,0,0h0Z"/><path class="cls-7" d="m10.3,6.6c-.14-.11-.19-.34-.19-.34h.01c.18.14.23.24.18.34h0Z"/><path class="cls-3" d="m10.3,6.6h0c-.14-.11-.19-.34-.19-.34,0,0,0,0,.01.01,0,.06.06.23.17.32.04-.06.02-.12-.04-.2.07.08.08.15.04.21h0Z"/><path class="cls-7" d="m10.2,6.59c-.1-.1-.13-.3-.13-.3h.01c.13.13.18.22.12.3h0Z"/><path class="cls-3" d="m10.2,6.6s0,0,0,0c-.11-.1-.13-.3-.13-.3,0,0,0,0,.01.01,0,.05.04.2.12.29.04-.05.02-.12-.03-.19.06.08.08.14.03.2,0,0,0,0,0,0h0Z"/><path class="cls-7" d="m10.1,6.57c-.08-.09-.07-.27-.07-.27h.01c.1.12.13.21.06.27h0Z"/><path class="cls-3" d="m10.1,6.58h0c-.08-.09-.08-.27-.08-.28,0,0,0,0,0,0,0,.04,0,.18.07.26.05-.04.04-.1,0-.19.05.08.06.14,0,.19h0Z"/><path class="cls-7" d="m10,6.56c-.06-.09-.04-.25-.04-.25h.01c.07.12.09.19.02.25h0Z"/><path class="cls-3" d="m10,6.57h0c-.06-.09-.04-.25-.04-.25,0,0,0,0,0,.01,0,.04-.02.16.03.23.04-.04.05-.08.02-.16.04.07.04.13-.01.17h0Z"/><path class="cls-7" d="m10.51,6.41c-.21-.1-.39-.37-.39-.37h0c.28.13.41.24.38.37h0Z"/><path class="cls-3" d="m10.51,6.41h0c-.21-.09-.39-.36-.4-.37,0,0,.02,0,.03,0,.04.07.2.27.37.35.01-.07-.03-.14-.14-.23.12.08.16.16.15.23,0,0,0,0,0,0h0Z"/><path class="cls-7" d="m10.38,6.42c-.16-.1-.29-.4-.29-.4v-.02c.25.18.35.29.29.41h0Z"/><path class="cls-3" d="m10.38,6.42h0c-.16-.1-.29-.4-.29-.4,0,0,.01,0,.02.01.03.07.14.29.28.38.04-.08,0-.16-.09-.25.1.09.13.17.1.25,0,0,0,0,0,0h0Z"/><path class="cls-7" d="m10.26,6.42c-.13-.1-.2-.33-.2-.33h.01c.17.14.25.24.19.33h0Z"/><path class="cls-3" d="m10.26,6.43h0c-.13-.1-.2-.34-.2-.34,0,0,.01,0,.02.01.01.06.08.23.19.32,0,0,0,0,0,0,0,0,0,0,0,0h0Zm0,0c.04-.06.01-.13-.06-.21.08.08.1.14.06.21h0Z"/><path class="cls-7" d="m10.14,6.42c-.1-.1-.12-.3-.12-.3h0c.13.13.18.22.12.3h0Z"/><path class="cls-3" d="m10.14,6.42h0c-.11-.1-.13-.3-.13-.3,0,0,0,0,.01,0,0,.05.03.2.12.28.04-.05.03-.11-.03-.2.06.08.08.15.03.21h0s0,0,0,0Z"/><path class="cls-7" d="m10.05,6.4c-.08-.09-.07-.27-.07-.27h.01c.1.12.13.21.06.27h0Z"/><path class="cls-3" d="m10.05,6.4h0c-.08-.09-.08-.27-.08-.27,0,0,0,0,.01.01,0,.05,0,.18.07.26.04-.04.04-.09,0-.17.05.07.05.13,0,.18h0Z"/><path class="cls-7" d="m9.95,6.4c-.06-.09-.03-.26-.03-.26h0c.07.12.09.2.02.26h0Z"/><path class="cls-3" d="m9.95,6.4h0c-.06-.09-.03-.25-.03-.26,0,0,0,0,0,.01,0,.04-.02.17.03.24.04-.04.05-.08.03-.15.03.07.02.12-.02.16h0Z"/><path class="cls-7" d="m9.92,6.51c-.06-.09-.03-.25-.03-.25h0c.08.13.1.19.03.25h0Z"/><path class="cls-3" d="m9.92,6.51h0c-.06-.09-.04-.25-.04-.25,0,0,0,0,0,0,0,.04-.02.17.03.24.05-.04.06-.08.02-.16.04.07.04.12-.02.16h0Z"/><path class="cls-7" d="m9.88,6.34c-.06-.09-.03-.25-.03-.25h0c.07.12.1.19.03.25h0Z"/><path class="cls-3" d="m9.88,6.34s0,0,0,0c-.06-.09-.03-.25-.03-.25,0,0,0,0,0,0,0,.04-.02.17.03.24,0,0,0,0,0,0h0Zm.01,0s.04-.09,0-.16c.04.07.04.12,0,.16h0Z"/><path class="cls-7" d="m9.85,6.48c-.07-.09-.04-.25-.04-.25h.01c.07.12.09.19.03.25h0Z"/><path class="cls-3" d="m9.86,6.48h0c-.07-.09-.04-.25-.04-.26,0,0,0,0,0,.01,0,.04-.02.16.03.24.04-.04.04-.09.02-.16.04.07.03.12-.02.16,0,0,0,0,0,0h0Z"/><path class="cls-7" d="m9.8,6.43c-.06-.09-.03-.25-.03-.25h0c.07.12.09.2.03.25h0Z"/><path class="cls-3" d="m9.8,6.44h0c-.06-.09-.04-.25-.04-.26,0,0,0,0,0,.01,0,.04-.02.16.03.24.04-.04.04-.09.02-.16.04.07.03.12-.02.17h0Z"/><path class="cls-7" d="m9.68,6.39c-.04-.1.03-.25.03-.25h.01c.04.13.04.21-.04.25h0Z"/><path class="cls-3" d="m9.68,6.4h0s0,0,0,0h0c-.04-.1.03-.25.03-.25,0,0,0,0,0,.01-.02.04-.06.15-.03.24.05-.02.07-.07.06-.15.02.08,0,.13-.06.16h0Z"/><path class="cls-7" d="m9.73,6.41c-.04-.1.03-.25.03-.25h.01c.04.14.04.21-.04.25h0Z"/><path class="cls-3" d="m9.73,6.41s0,0,0,0c-.04-.1.03-.25.03-.25,0,0,0,0,0,.01-.02.04-.06.15-.03.23.05-.02.07-.07.05-.15.02.08,0,.13-.06.16h0Z"/><path class="cls-7" d="m9.64,6.37c-.04-.1.03-.25.03-.25h0c.04.14.04.21-.04.25h0Z"/><path class="cls-3" d="m9.64,6.37h0c-.04-.1.02-.25.03-.25,0,0,0,0,0,.01-.02.04-.06.15-.03.23.05-.03.07-.07.05-.15.02.08,0,.13-.05.16h0Z"/><path class="cls-7" d="m9.88,6.34c-.06-.09-.03-.25-.03-.25h0c.07.12.1.19.03.25h0Z"/><path class="cls-3" d="m9.88,6.34s0,0,0,0c-.06-.09-.03-.25-.03-.25,0,0,0,0,0,0,0,.04-.02.17.03.24,0,0,0,0,0,0h0Zm.01,0s.04-.09,0-.16c.04.07.04.12,0,.16h0Z"/><path class="cls-7" d="m9.83,6.29c-.06-.09-.04-.25-.04-.25h.01c.07.12.1.19.03.25h0Z"/><path class="cls-3" d="m9.83,6.29s0,0,0,0c-.06-.09-.04-.25-.04-.25,0,0,0,0,0,0,0,.04-.02.17.04.24,0,0,0,0,0,0h0Zm0,0s.04-.09,0-.16c.04.07.04.12,0,.16h0Z"/><path class="cls-7" d="m9.7,6.25c-.04-.1.03-.25.03-.25h.01c.04.14.04.21-.04.25h0Z"/><path class="cls-3" d="m9.7,6.25s0,0,0,0c-.04-.1.03-.25.03-.25,0,0,0,0,0,.01-.02.04-.06.16-.03.24,0,0,0,0,0,0h0Z"/><path class="cls-7" d="m9.75,6.27c-.04-.1.03-.25.03-.25h0c.04.14.04.21-.03.25h0Z"/><path class="cls-3" d="m9.75,6.27s0,0,0,0c-.04-.1.03-.25.03-.25,0,0,0,0,0,.01-.02.04-.06.16-.03.24,0,0,0,0,0,0t0,0h0Z"/><path class="cls-7" d="m10.51,6.39c.47.4.65.33.61.69l-.02.02c-.17-.24-.61-.68-.61-.68v-.03h.01Z"/><path class="cls-3" d="m11.12,7.09s0,0-.01-.01c.03-.24-.04-.28-.23-.4-.1-.06-.22-.14-.37-.27t0,0s0,0,0,0c.15.13.27.21.37.27.2.13.27.17.24.42h0Zm-.3-.32c-.17-.17-.32-.33-.33-.34h0s.16.16.33.34h0Z"/><path class="cls-15" d="m9.3,9.66c-.44-.2-.77-.25-.85.25,0,.4.11.61.54.47.22-.2.31-.72.31-.72h0Z"/><path class="cls-3" d="m8.76,10.42h0c-.22,0-.31-.16-.31-.52.07-.42.29-.51.85-.25,0,0-.09.53-.31.72-.09.03-.17.05-.23.05h0Zm.05-.91c-.2,0-.31.13-.36.39,0,.36.09.51.31.51h0c.06,0,.14-.01.22-.04.22-.2.31-.71.31-.71-.21-.1-.36-.14-.48-.14h0Z"/><path class="cls-12" d="m8.7,10.41s2.38.08,2.43-.1c.3-.5.27-1.04.1-1.38-.31-.78-.66-1.28-.66-1.28.14-.04.25-.39.15-.57-.86.08-1.97-.06-1.97-.06h-.04c-.24-.04-.31.08-.31.08-.2.26-.28.59.02,1.17.63,1.06.55,1.12.66,1.31.12.72-.13.75-.37.83h0Z"/><path class="cls-3" d="m9.78,10.44c-.51,0-.98-.01-1.07-.02l.04-.02c.22-.07.43-.14.32-.8-.03-.06-.05-.1-.07-.16-.05-.15-.14-.39-.59-1.15-.33-.63-.19-.96-.03-1.17,0,0,.07-.12.31-.08.04,0,.71.08,1.4.08.22,0,.43,0,.6-.02.07.11.04.28,0,.41-.04.09-.09.15-.14.17h0s.36.5.67,1.27c.15.3.21.85-.11,1.39-.02.08-.47.12-1.35.12h0Zm-1.01-.02c.16,0,.57,0,1.01,0,1.08,0,1.32-.06,1.34-.11.32-.54.25-1.08.11-1.38-.31-.77-.66-1.27-.67-1.27.05-.02.11-.08.14-.17.05-.12.07-.29,0-.4-.17.02-.38.03-.6.03-.69,0-1.36-.09-1.37-.09-.07,0-.09,0-.12,0-.17,0-.22.09-.22.09-.17.23-.3.54.02,1.16.45.75.53,1,.59,1.15.02.06.04.1.07.16.12.67-.1.74-.32.82l-.05.02h.05Z"/><path class="cls-3" d="m8.65,7.67s.03-.02.06-.08c.05-.09.05-.11.07-.18.02-.08.01-.14,0-.19-.02-.08-.09-.13-.14-.16-.02,0-.04-.02-.06-.02,0,0,0,0,0,0s0,0,0,0c.02,0,.04,0,.06.02.05.03.12.08.14.16.01.06.02.12,0,.17-.02.1-.02.12-.07.2-.03.05-.05.07-.07.07h0Z"/><path class="cls-3" d="m8.92,10.28s-.03,0-.05,0c.08-.07.09-.18.11-.28.02-.11,0-.18-.03-.25l-.02-.05s-.02-.06-.04-.08c-.03-.05-.07-.08-.16-.08h0s0,0,0,0h0c.09,0,.13.04.16.09.02.03.03.06.04.09l.02.05c.04.07.05.14.03.23-.02.12-.03.23-.12.3.03,0,.05,0,.07,0,.02,0,.03,0,.05,0-.01,0-.03,0-.04,0h-.03Z"/><path class="cls-3" d="m8.83,10.29s-.06,0-.09-.02c-.05-.02-.08-.06-.11-.14-.03-.1-.03-.17,0-.23.01-.03.02-.05.05-.08.01-.02.03-.02.05-.03.04-.01.18-.01.25-.01,0,0,0,0,0,0,0,0,0,0,0,0h0c-.07,0-.21,0-.25.01-.02,0-.04,0-.05.02-.02.03-.03.05-.04.07-.03.07-.03.14,0,.23.02.07.06.12.1.13.06.02.11.02.15.01-.02,0-.04.01-.06.01h0Z"/><path class="cls-3" d="m8.94,10.02s-.05,0-.07,0c-.03,0-.07,0-.1,0,0-.06.02-.16-.05-.19,0,0,0,0,0,0,0,0,0,0,0,0,.06.03.06.14.05.19.03,0,.06,0,.1,0,.04,0,.08.01.12,0-.02,0-.03,0-.05,0h0Z"/><path class="cls-2" d="m8.68,9.57h.17s-.17,0-.17,0Z"/><path class="cls-2" d="m8.71,9.6h.17s-.17,0-.17,0Z"/><path class="cls-2" d="m8.74,9.62h.17s-.17,0-.17,0Z"/><path class="cls-2" d="m8.76,9.67h.16s-.16,0-.16,0Z"/><path class="cls-2" d="m8.77,9.7h.16s-.16,0-.16,0Z"/><path class="cls-2" d="m8.78,9.73h.17s-.17,0-.17,0Z"/><path class="cls-2" d="m8.8,9.76h.17s-.17,0-.17,0Z"/><path class="cls-3" d="m8.63,7.66c-.08,0-.15-.02-.18-.09-.01-.03-.02-.06-.03-.09,0-.09.02-.17.06-.26.09-.08.2-.04.3,0-.11-.04-.22-.07-.3,0-.04.08-.06.17-.06.25,0,.03.01.06.03.09.03.07.1.08.16.09h0Z"/><path class="cls-3" d="m8.7,7.48s-.07,0-.1-.02c.03-.05.04-.12.03-.2,0-.02-.02-.03-.03-.05-.02-.02-.03,0-.05,0h-.01,0s.04-.02.06,0c.02.02.04.03.04.05.01.08,0,.15-.04.2.05.02.1.02.16.02-.02,0-.04,0-.07,0h0Z"/><path class="cls-3" d="m8.66,7.67s0,0,0,0c0,0,0,0,0,0,.93-.09,1.88,0,1.89,0,0,0-.42-.03-.96-.03-.29,0-.61.01-.93.04h0Z"/><path class="cls-10" d="m9.31,8.39h-.15s0,0,0,0c.01,0,.02,0,.01-.03l-.06-.16s-.02-.02-.04-.02h0s.09-.01.09-.01h0s-.03.01-.01.04l.06.16s.01.02.03.02c.04,0,.04-.03.04-.07h0l.02.08h0Z"/><path class="cls-10" d="m9.43,8.38h-.1s0,0,0,0c0,0,.02,0,.01-.03l-.06-.16s-.02-.02-.04-.02h0s.09-.01.09-.01h0s-.02,0-.02.03l.06.16s.02.02.04.02h0Z"/><path class="cls-10" d="m9.44,8.37s.02,0,.01-.02l-.06-.16s-.02-.02-.03-.02h0s.08-.01.08-.01c.02,0,.07,0,.09.05.01.04-.01.05-.02.05h0s.06.02.07.06c.01.03,0,.06-.05.07h-.09s0,0,0,0h0Z"/><path class="cls-10" d="m9.54,8.15h.15s.03.06.03.06h0s-.04-.05-.08-.05c-.02,0-.02,0-.01.02l.03.07s.04,0,.02-.05h0l.04.11h0s-.04-.05-.06-.05l.03.08s0,.02.03.02c.03,0,.05-.01.05-.06h0s.01.07.01.07h-.15s0,0,0,0c.01,0,.02,0,.01-.02l-.07-.16s-.02-.02-.03-.02h0Z"/><path class="cls-10" d="m10,8.35h-.05s-.1-.1-.1-.1h0l.03.06s.02.03.04.03h0s-.09.01-.09.01h0s.02-.01.01-.04l-.06-.15s-.02-.03-.04-.03h0s.09-.01.09-.01c.02,0,.08,0,.1.05.01.04,0,.05-.02.06l.09.09s0,0,.01,0h0Z"/><path class="cls-10" d="m10.14,8.34h-.1s0,0,0,0c.02,0,.03,0,.02-.03l-.07-.17s-.04,0-.03.06h0l-.03-.06h.16s.03.06.03.06h0c-.03-.05-.05-.05-.07-.05l.07.18s.02.03.04.03h0Z"/><path class="cls-10" d="m10.37,8.33h-.09s0,0,0,0c.02,0,.02,0,.02-.01,0,0-.02-.03-.03-.04h-.06s0,.04,0,.04c0,.01.02.01.03.01h0s-.05,0-.05,0h0s.01-.02.01-.05v-.18s0,0,0,0l.13.17s.03.05.04.04h0Z"/><path class="cls-10" d="m10.39,8.32s.02-.01.02-.02l-.06-.17s-.02-.02-.03-.02h0s.08-.01.08-.01c.07,0,.12.06.14.11.02.06.01.11-.05.12h-.09s0,0,0,0h0Z"/><path class="cls-10" d="m9.73,8.78h-.1s0,0,0,0c.03,0,.03-.02.02-.04l-.05-.13s0-.02-.02-.02c0,0,0,0-.02.01h0s.05-.05.05-.05h0l.07.19s.01.03.04.03h0Z"/><path class="cls-10" d="m9.72,8.62s.04,0,.07.01c.02,0,.04.03.05.06.02.05,0,.08-.04.09-.02,0-.04,0-.05-.03,0,0,0-.02,0-.02.02,0,.04.02.06.02,0,0,.02,0,.01-.04,0-.02-.03-.03-.04-.04-.02,0-.04,0-.06,0l-.02-.11h.09s0,.04,0,.04h-.07s0,.03,0,.03h0Z"/><path class="cls-10" d="m9.96,8.76s.02-.01,0-.02l-.06-.16s-.02-.02-.03-.02h0s.08-.01.08-.01c.07,0,.12.05.14.1.03.06.02.12-.05.12h-.08s0,0,0,0h0Z"/><path class="cls-10" d="m10.08,8.53h.15s.03.06.03.06h0s-.04-.05-.08-.05c-.02,0-.02,0-.01.02l.03.08s.03-.01.02-.05h0s.04.11.04.11h0s-.04-.05-.06-.05l.03.08s.01.02.03.01c.03,0,.05,0,.05-.06h0l.02.07h-.16s0,0,0,0c.01,0,.02,0,.01-.02l-.06-.16s-.02-.02-.03-.02h0Z"/><path class="cls-10" d="m9.27,9.11s-.04-.06-.08-.06c-.01,0-.02,0-.01.03,0,.02.01.02.04.04l.05.02s.04.02.05.06c.01.03,0,.07-.04.07-.03,0-.04,0-.05,0,0,0,0,0,0,.01h0l-.03-.08h0s.05.07.08.07c.03,0,.02-.04.02-.04,0-.02-.03-.03-.05-.04h-.02c-.05-.03-.07-.06-.07-.08,0-.02-.02-.07.03-.07.02,0,.04,0,.04,0,0,0,0,0,0,0h0s.03.07.03.07h0Z"/><path class="cls-10" d="m9.28,9.04h.15s.02.06.02.06h0s-.05-.05-.08-.05c-.01,0-.02,0-.01.02l.03.08s.04-.01.03-.05h0l.05.11h0s-.04-.05-.06-.05l.04.08s.01.02.03.02c.03,0,.05-.01.05-.06h0s.02.07.02.07h-.16s0,0,0,0c.02,0,.03,0,.02-.03l-.06-.16s-.02-.02-.03-.02h0Z"/><path class="cls-10" d="m9.88,9.22h-.1s0,0,0,0c.02,0,.03,0,.02-.03l-.07-.17s-.04,0-.03.06h0l-.02-.07h.16s.03.06.03.06h0c-.03-.05-.06-.05-.07-.05l.07.17s.02.03.04.03h0Z"/><path class="cls-10" d="m10.03,9.21h-.09s0,0,0,0c.01,0,.03,0,.02-.02l-.06-.16s-.02-.02-.04-.02h0s.1-.01.1-.01h0s-.02,0-.02.03l.07.16s.02.02.03.02h0Z"/><path class="cls-10" d="m9.95,8.99h.16s.03.06.03.06h0s-.04-.05-.08-.05c-.02,0-.02,0-.02.02l.03.08s.04-.01.03-.05h0l.04.11h0s-.04-.05-.06-.05l.03.08s.02.02.03.02c.03,0,.05-.01.04-.06h0s.02.07.02.07h-.16s0,0,0,0c.02,0,.03,0,.01-.02l-.06-.16s-.02-.02-.03-.02h0Z"/><path class="cls-10" d="m10.47,9.19h-.09s0,0,0,0c.02,0,.02,0,.02-.03l-.07-.17v.2s0,0,0,0l-.14-.19.06.15s.02.03.04.03h0s-.06.01-.06.01h0s.02-.02.01-.04l-.06-.16s-.01-.02-.03-.02h0s.07-.01.07-.01l.11.15v-.16s.06,0,.06,0h0s-.03.01-.01.04l.06.15s.02.03.04.03h0Z"/><path class="cls-10" d="m10.48,8.96h-.08s0,.01,0,.01c.01,0,.02,0,.04.02l.06.16h0v.02h0s0,0,0,0h0s0,0-.01,0h0s.09,0,.09,0c.02,0,.04,0,.05-.02,0-.01,0-.03,0-.05-.01-.04-.05-.05-.07-.06,0,0,.02,0,.02-.02,0,0,0-.02,0-.03-.02-.05-.07-.05-.09-.05h0Zm0,.01h.01s0,0,0,0h0s0,0,0,0h0s.01.02.02.03c0,0,0,.01,0,.02h0s0,0,0,0h0s0,0,0,0h0s0,0,0,0h0s-.01,0-.02,0l-.02-.06h0s0-.01,0-.01h0Zm.03.1h0s0,0,.02,0c.01,0,.02.02.03.04,0,0,0,.02,0,.03h0s0,0,0,0h0s0,0,0,0h0s0,0,0,0h0s0,0,0,0h0s0,0,0,0c0,0,0,0,0,0l-.03-.07Z"/><path class="cls-10" d="m10.67,8.95h-.09s0,.01,0,.01c0,0,.01,0,.02,0h0s0,0,0,0c0,0,0,0,0,.02l.05.15s0,.01,0,.02h0s0,0,0,0h0s0,0-.01,0h0s.09,0,.09,0h0s-.02-.01-.02-.02c0,0,0-.01-.01-.02l-.02-.06h0l.1.1h.05s0,0,0,0h0s0,0,0,0c0,0,0,0,0,0l-.09-.09s0,0,.02,0c0,0,0,0,0,0,0,0,0,0,0,0h0s0-.02,0-.04c0,0,0-.01,0-.02-.02-.04-.07-.04-.09-.04h0Zm0,.02h0s0,0,.02,0h0s0,0,0,0h0s0,0,0,0c0,0,0,.01.01.02,0,0,0,.02,0,.02h0s0,0,0,0c0,0,0,0,0,0h0s0,0,0,0h0s0,0,0,0c0,0-.01,0-.02,0l-.03-.07h0s0-.01,0-.01h0Z"/><path class="cls-10" d="m10.8,8.95h.16s.02.08.02.08h0s-.04-.06-.08-.06c-.02,0-.02,0-.02.01l.02.08s.04,0,.03-.04h0l.03.11h0s-.03-.05-.06-.05l.02.08s0,.02.03.02c.03,0,.05,0,.05-.05h0v.07s-.16-.01-.16-.01h0s.02,0,.02-.03l-.04-.16s-.02-.02-.03-.02h0Z"/><path class="cls-10" d="m9.78,9.68s.02-.01.02-.02l-.04-.16s-.02-.02-.03-.02h0s.08-.01.08-.01c.08,0,.11.05.13.1.01.06,0,.11-.07.12h-.09s0,0,0,0h0Z"/><path class="cls-10" d="m9.93,9.45h.16s.01.05.01.05h0s-.04-.05-.08-.05c-.01,0-.02,0-.01.02v.08s.05-.01.05-.05h0l.03.11h0s-.03-.05-.06-.05l.02.08s0,.02.03.02c.03,0,.05-.01.06-.06h0v.07s-.15,0-.15,0h0s.02-.01.02-.03l-.04-.16s-.02-.02-.03-.02h0Z"/><path class="cls-10" d="m10.35,9.65h-.1s0,0,0,0c.03,0,.03-.02.02-.04l-.03-.13s0-.02-.02-.02c0,0-.01,0-.02,0h0s.06-.05.06-.05h0s.04.19.04.19c0,.02,0,.03.03.03h0Z"/><path class="cls-10" d="m10.46,9.46s-.01.04-.03.05c.03.02.05.04.05.07,0,.04,0,.07-.05.07-.03,0-.06-.02-.07-.05,0-.04,0-.05.03-.06-.02-.01-.05-.03-.05-.06,0-.03,0-.06.05-.06.04,0,.06.03.06.04h0Z"/><path class="cls-10" d="m10.63,9.63h-.11s0,0,0,0c.03-.06.05-.1.04-.14,0,0-.01-.04-.04-.04,0,0-.02,0-.03.03h0s0-.07.04-.07c.02,0,.05,0,.06.06,0,0,0,.03-.02.07l-.03.05h.04s.03,0,.03-.03h0v.07h0Z"/><path class="cls-10" d="m10.77,9.63h-.1s0,0,0,0c.03,0,.03-.01.03-.03l-.03-.13s0-.02-.02-.02c0,0,0,0-.02,0h0s.06-.05.06-.05h0l.04.19s0,.03.04.03h0Z"/><path class="cls-7" d="m9.95,6.21c-.05-.06-.03-.18-.03-.18h0c.05.08.07.13.02.17h0Z"/><path class="cls-2" d="m9.95,6.21c-.05-.06-.03-.18-.03-.18h0c.05.08.07.13.02.17h0Z"/><path class="cls-7" d="m9.91,6.18c-.04-.06-.02-.17-.02-.17h0c.05.08.07.13.02.17h0Z"/><path class="cls-2" d="m9.91,6.18c-.04-.06-.02-.17-.02-.17h0c.05.08.07.13.02.17h0Z"/><path class="cls-7" d="m9.83,6.16c-.03-.07.02-.18.02-.18h0c.03.1.03.15-.02.17h0Z"/><path class="cls-2" d="m9.83,6.16c-.03-.07.02-.18.02-.18h0c.03.1.03.15-.02.17h0Z"/><path class="cls-7" d="m9.86,6.17c-.03-.07.02-.18.02-.18h0c.02.1.03.15-.03.17h0Z"/><path class="cls-2" d="m9.86,6.17c-.03-.07.02-.18.02-.18h0c.02.1.03.15-.03.17h0Z"/><path class="cls-7" d="m9.99,6.18c.04-.06.02-.17.02-.17h0c-.05.08-.07.13-.02.17h0Z"/><path class="cls-3" d="m9.99,6.17c-.05-.03-.04-.08.01-.17,0,0,0,0,0,0-.05.08-.07.13-.02.16h0Z"/><path class="cls-7" d="m10.08,6.16c.03-.07-.02-.18-.02-.18h0c-.03.1-.03.15.03.17h0Z"/><path class="cls-3" d="m10.07,6.15c-.06-.02-.06-.07-.03-.18,0,0,0,0,0,0-.03.09-.03.14.02.17h0Z"/><path class="cls-7" d="m10.04,6.17c.03-.07-.02-.18-.02-.18h0c-.02.1-.03.15.03.17h0Z"/><path class="cls-3" d="m10.04,6.16c-.06-.02-.06-.07-.03-.17,0,0,0,0,0,0-.03.09-.03.14.02.17h0Z"/><path class="cls-7" d="m10.11,6.1c.01-.05-.04-.11-.04-.11h0c0,.07,0,.09.05.11h0Z"/><path class="cls-2" d="m10.11,6.1c.01-.05-.04-.11-.04-.11h0c0,.07,0,.09.05.11Z"/><path class="cls-7" d="m10.17,6.03c0-.05-.06-.1-.06-.1h0c.01.07.02.1.07.1h0Z"/><path class="cls-3" d="m10.17,6.04s0,0,0,0h0s-.06-.03-.07-.1c0,0,0,0,0,0,.01.06.02.1.06.1,0-.04-.05-.09-.06-.1.02.01.07.05.07.1,0,0,0,0,0,0h0Z"/><path class="cls-7" d="m10.15,6.05c0-.06-.06-.11-.06-.11h0c.01.07.02.11.07.11h0Z"/><path class="cls-3" d="m10.15,6.05s0,0,0,0h0s-.06-.03-.07-.1c0,0,0,0,0,0,.01.07.03.1.06.1,0-.05-.05-.09-.06-.1.02.01.06.05.06.1,0,0,0,0,0,0h0Z"/><path class="cls-7" d="m10.2,6c-.05,0-.1-.06-.1-.06h0c.07,0,.1.02.1.06h0Z"/><path class="cls-2" d="m10.2,6c-.05,0-.1-.06-.1-.06h0c.07,0,.1.02.1.06h0Z"/><path class="cls-7" d="m10.2,5.97c-.01-.05-.08-.09-.08-.09h0c.02.07.04.1.08.09h0Z"/><path class="cls-3" d="m10.2,5.97s0,0,0,0h0s-.07-.03-.09-.09c0,0,0,0,0,0,.02.07.04.09.08.08-.02-.05-.07-.08-.08-.08.02,0,.07.04.08.09,0,0,0,0,0,0h0Z"/><path class="cls-7" d="m10.22,5.91s-.1-.07-.1-.07h0c.04.06.06.09.1.07h0Z"/><path class="cls-2" d="m10.22,5.91s-.1-.07-.1-.07h0c.04.06.06.09.1.07h0Z"/><path class="cls-7" d="m10.21,5.94s-.1-.07-.1-.07h0c.04.06.06.09.1.07h0Z"/><path class="cls-2" d="m10.21,5.94s-.1-.07-.1-.07h0c.04.06.06.09.1.07h0Z"/><path class="cls-7" d="m10.21,5.85s-.12-.01-.12-.01h0c.06-.03.1-.03.12,0h0Z"/><path class="cls-2" d="m10.21,5.85s-.12-.01-.12-.01h0c.06-.03.1-.03.12,0h0Z"/><path class="cls-7" d="m10.25,5.83s-.11-.05-.11-.05h0c.05.05.08.08.11.05h0Z"/><path class="cls-2" d="m10.25,5.83s-.11-.05-.11-.05h0c.05.05.08.08.11.05h0Z"/><path class="cls-7" d="m10.22,5.79s-.11-.05-.11-.05h0c.05.06.08.08.11.05h0Z"/><path class="cls-3" d="m10.18,5.8s-.05-.02-.08-.06h0s.07.07.11.04c-.03-.04-.1-.05-.11-.05.02,0,.08,0,.11.04,0,0,0,0,0,0,0,0,0,0,0,0h0s-.02.01-.03.01h0Z"/><path class="cls-7" d="m10.23,5.74s-.12-.01-.12-.01h0c.06.04.09.05.12.02h0Z"/><path class="cls-3" d="m10.19,5.76s-.04-.01-.08-.04c0,0,.08-.02.12,0,0,0,0,0,0,0h0s-.11-.02-.12-.02c.06.04.09.04.12.01,0,.02-.02.03-.04.03h0Z"/><path class="cls-7" d="m10.2,5.66s-.12.02-.12.02h0c.07.02.1.02.12-.02h0Z"/><path class="cls-3" d="m10.14,5.71s-.04,0-.06,0c0,0,0,0,0,0,.06.01.1.01.11-.03-.04-.01-.1.02-.11.02.02-.02.07-.04.11-.03,0,0,0,0,0,0,0,0,0,0,0,0,0,0,0,0,0,0,0,.03-.03.04-.05.04h0Z"/><path class="cls-7" d="m10.17,5.65s-.12.02-.12.02h0c.07.02.1.02.12-.02h0Z"/><path class="cls-2" d="m10.17,5.65s-.12.02-.12.02h0c.07.02.1.02.12-.02h0Z"/><path class="cls-7" d="m10.12,5.6c-.05,0-.11.06-.11.06h0c.07,0,.1,0,.11-.05h0Z"/><path class="cls-2" d="m10.12,5.6c-.05,0-.11.06-.11.06h0c.07,0,.1,0,.11-.05h0Z"/><path class="cls-7" d="m10.15,5.61c-.05,0-.11.06-.11.06h0c.07,0,.1,0,.11-.05h0Z"/><path class="cls-3" d="m10.05,5.68h0c.07-.01.1-.02.1-.06-.04,0-.09.04-.1.05.01-.02.05-.06.1-.06,0,0,0,0,0,0t0,0h0s-.04.06-.1.06h0Z"/><path class="cls-7" d="m10.08,5.54c0,.05-.07.1-.07.1h0c.02-.07.03-.1.07-.1h0Z"/><path class="cls-2" d="m10.08,5.54c0,.05-.07.1-.07.1h0c.02-.07.03-.1.07-.1h0Z"/><path class="cls-7" d="m10.08,5.57c0,.05-.07.1-.07.1h0c.02-.07.03-.1.07-.1h0Z"/><path class="cls-2" d="m10.08,5.57c0,.05-.07.1-.07.1h0c.02-.07.03-.1.07-.1h0Z"/><path class="cls-7" d="m10.05,5.54c-.05,0-.09.07-.09.07h0c.06-.01.1-.03.09-.07h0Z"/><path class="cls-2" d="m10.05,5.54c-.05,0-.09.07-.09.07h0c.06-.01.1-.03.09-.07h0Z"/><path class="cls-7" d="m9.99,5.5s-.07.1-.07.1h0c.05-.03.09-.05.07-.09h0Z"/><path class="cls-2" d="m9.99,5.5s-.07.1-.07.1h0c.05-.03.09-.05.07-.09h0Z"/><path class="cls-7" d="m10.01,5.51s-.08.11-.08.11v.02s.11-.05.08-.12h0Z"/><path class="cls-2" d="m10.01,5.51s-.08.11-.08.11v.02s.11-.05.08-.12h0Z"/><path class="cls-7" d="m9.7,5.51c0,.05.05.11.05.11h0c0-.07-.01-.11-.06-.11h0Z"/><path class="cls-3" d="m9.76,5.62h0c0-.07-.01-.1-.05-.11,0,.04.04.09.05.11-.02-.01-.06-.06-.06-.11,0,0,0,0,0,0h0s0,0,0,0h0s.06.04.06.11h0Z"/><path class="cls-7" d="m9.64,5.57c0,.05.07.1.07.1h0c-.02-.07-.03-.1-.07-.1h0Z"/><path class="cls-2" d="m9.64,5.57c0,.05.07.1.07.1h0c-.02-.07-.03-.1-.07-.1h0Z"/><path class="cls-7" d="m9.66,5.55c0,.05.07.1.07.1h0c-.02-.07-.03-.1-.07-.1h0Z"/><path class="cls-2" d="m9.66,5.55c0,.05.07.1.07.1h0c-.02-.07-.03-.1-.07-.1h0Z"/><path class="cls-7" d="m9.79,5.48s.04.12.04.12h0c-.05-.05-.07-.08-.05-.11h0Z"/><path class="cls-2" d="m9.79,5.48s.04.12.04.12h0c-.05-.05-.07-.08-.05-.11h0Z"/><path class="cls-7" d="m9.77,5.49s.05.11.05.11h0s-.07-.08-.04-.11h0Z"/><path class="cls-2" d="m9.77,5.49s.05.11.05.11h0s-.07-.08-.04-.11h0Z"/><path class="cls-7" d="m9.83,5.46s0,.12,0,.12h0c.03-.06.04-.1,0-.12h0Z"/><path class="cls-3" d="m9.83,5.58s0,0,0,0c.03-.06.04-.09,0-.12-.02.04,0,.1,0,.11,0-.02-.02-.08,0-.12,0,0,0,0,0,0,0,0,0,0,0,0,0,0,0,0,0,0,.04.02.03.06,0,.12h0Z"/><path class="cls-7" d="m9.75,5.51s.02.12.02.12h0c.01-.06.01-.1-.03-.12h0Z"/><path class="cls-3" d="m9.78,5.63s0,0,0,0c.01-.06.01-.1-.02-.11,0,.04.02.1.02.11-.02-.02-.04-.07-.03-.12,0,0,0,0,0,0,0,0,0,0,0,0h0s.05.05.03.12h0Z"/><path class="cls-7" d="m9.85,5.48s.03.12.03.12h0c-.04-.06-.06-.09-.03-.12h0Z"/><path class="cls-2" d="m9.85,5.48s.03.12.03.12h0c-.04-.06-.06-.09-.03-.12h0Z"/><path class="cls-7" d="m9.92,5.48s0,.12,0,.12h0c-.02-.07-.03-.1,0-.12h0Z"/><path class="cls-2" d="m9.92,5.48s0,.12,0,.12h0c-.02-.07-.03-.1,0-.12h0Z"/><path class="cls-7" d="m9.9,5.47s0,.12,0,.12h0c-.02-.06-.03-.1,0-.12h0Z"/><path class="cls-2" d="m9.9,5.47s0,.12,0,.12h0c-.02-.06-.03-.1,0-.12h0Z"/><path class="cls-7" d="m9.58,5.76s.12.03.12.03h0c-.05-.05-.09-.06-.12-.03h0Z"/><path class="cls-2" d="m9.58,5.76s.12.03.12.03h0c-.05-.05-.09-.06-.12-.03h0Z"/><path class="cls-7" d="m9.63,5.85c.06.02.12-.02.12-.02h0c-.07-.02-.1-.02-.12.02h0Z"/><path class="cls-2" d="m9.63,5.85c.06.02.12-.02.12-.02h0c-.07-.02-.1-.02-.12.02h0Z"/><path class="cls-7" d="m9.6,5.82s.12,0,.12,0h0c-.06-.03-.1-.04-.12,0h0Z"/><path class="cls-2" d="m9.6,5.82s.12,0,.12,0h0c-.06-.03-.1-.04-.12,0h0Z"/><path class="cls-7" d="m9.6,5.7c.05-.02.12.02.12.02h0c-.07.02-.1.02-.12-.02h0Z"/><path class="cls-2" d="m9.6,5.7c.05-.02.12.02.12.02h0c-.07.02-.1.02-.12-.02h0Z"/><path class="cls-7" d="m9.61,5.63s.09.08.09.08h0c-.03-.07-.06-.09-.1-.08h0Z"/><path class="cls-2" d="m9.61,5.63s.09.08.09.08h0c-.03-.07-.06-.09-.1-.08h0Z"/><path class="cls-7" d="m9.62,5.66s.1.08.1.08h0c-.04-.07-.06-.09-.1-.08h0Z"/><path class="cls-3" d="m9.71,5.74h0c-.03-.06-.05-.08-.09-.07.02.04.07.06.09.07-.03,0-.08-.03-.1-.07t0,0h0s0,0,0,0c.04-.02.06,0,.1.07t0,0h0Z"/><path class="cls-7" d="m9.61,5.74s.11.04.11.04h0c-.05-.05-.08-.07-.11-.04h0Z"/><path class="cls-3" d="m9.7,5.78s-.07,0-.09-.03c0,0,0,0,0,0,0,0,0,0,0,0,.03.03.11.03.11.03-.05-.04-.08-.06-.11-.03.03-.03.06-.02.11.03,0,0-.01,0-.03,0h0Z"/><path class="cls-7" d="m9.67,5.63c.05,0,.1.06.1.06h0c-.07,0-.1-.01-.1-.06h0Z"/><path class="cls-2" d="m9.67,5.63c.05,0,.1.06.1.06h0c-.07,0-.1-.01-.1-.06h0Z"/><path class="cls-7" d="m9.7,6.04c.05,0,.1-.07.1-.07h0c-.07,0-.1.02-.1.06h0Z"/><path class="cls-2" d="m9.7,6.04c.05,0,.1-.07.1-.07h0c-.07,0-.1.02-.1.06h0Z"/><path class="cls-7" d="m9.73,6.05c.05,0,.1-.06.1-.06h0c-.07,0-.1.01-.1.06h0Z"/><path class="cls-3" d="m9.73,6.05s0,0,0,0c0,0,0,0,0,0,0-.04.03-.06.1-.07,0,0,0,0,0,0-.06,0-.09.02-.1.06.04,0,.09-.05.1-.06,0,.02-.05.07-.1.07h0Z"/><path class="cls-7" d="m9.76,6.1s.08-.09.08-.09h0c-.06.02-.09.05-.08.09h0Z"/><path class="cls-2" d="m9.76,6.1s.08-.09.08-.09h0c-.06.02-.09.05-.08.09h0Z"/><path class="cls-7" d="m9.74,6.09s.08-.09.08-.09h0c-.06.02-.09.04-.08.09h0Z"/><path class="cls-3" d="m9.74,6.09s0,0,0,0c0,0,0,0,0,0,.05-.01.08-.09.08-.09-.07.03-.09.05-.08.08-.02-.04.02-.07.08-.09,0,.01-.03.08-.08.1h0Z"/><path class="cls-7" d="m9.68,6.01c.05,0,.11-.05.11-.05h0c-.07,0-.11,0-.11.04h0Z"/><path class="cls-2" d="m9.68,6.01c.05,0,.11-.05.11-.05h0c-.07,0-.11,0-.11.04h0Z"/><path class="cls-7" d="m9.68,5.94s.12-.02.12-.02h0c-.07-.02-.1-.02-.12.02h0Z"/><path class="cls-2" d="m9.68,5.94s.12-.02.12-.02h0c-.07-.02-.1-.02-.12.02h0Z"/><path class="cls-7" d="m9.69,5.96c.05,0,.11-.05.11-.05h0c-.07,0-.11,0-.11.05h0Z"/><path class="cls-3" d="m9.69,5.97s0,0,0,0c0,0,0,0,0,0h0s.04-.05.11-.06c0,0,0,0,0,0-.06,0-.1,0-.1.05.04,0,.1-.04.1-.05,0,.02-.06.06-.1.06h0Z"/><path class="cls-7" d="m9.64,5.91s.11-.05.11-.05h0c-.04.06-.08.08-.11.05h0Z"/><path class="cls-2" d="m9.64,5.91s.11-.05.11-.05h0c-.04.06-.08.08-.11.05h0Z"/><path class="cls-7" d="m10.21,5.68c-.02.06-.09.09-.09.09h0c.03-.07.05-.09.09-.09h0Z"/><path class="cls-2" d="m10.21,5.68c-.02.06-.09.09-.09.09h0c.03-.07.05-.09.09-.09h0Z"/><path class="cls-7" d="m9.64,5.89s.12-.02.12-.02h0c-.07-.03-.1-.03-.12.01h0Z"/><path class="cls-3" d="m9.67,5.89s-.02,0-.03,0c0,0,0,0,0,0,0,0,0,0,0,0h0s.05-.04.12-.02c0,0,0,0,0,0-.07-.02-.1-.01-.11.02.04.01.1-.01.11-.02-.01.01-.05.03-.08.03h0Z"/><path class="cls-7" d="m10.1,6.03s-.06-.1-.06-.1h0c.06.03.08.06.06.1h0Z"/><path class="cls-2" d="m10.1,6.03s-.06-.1-.06-.1h0c.06.03.08.06.06.1h0Z"/><path class="cls-7" d="m10.05,6.05s-.04-.12-.04-.12h0s.06.08.04.11h0Z"/><path class="cls-2" d="m10.05,6.05s-.04-.12-.04-.12h0s.06.08.04.11h0Z"/><path class="cls-7" d="m10.12,5.97c-.01-.05-.08-.09-.08-.09h0c.02.07.04.1.08.09h0Z"/><path class="cls-2" d="m10.12,5.97c-.01-.05-.08-.09-.08-.09h0c.02.07.04.1.08.09h0Z"/><path class="cls-7" d="m10.13,5.94s-.11-.05-.11-.05h0c.07,0,.1,0,.11.05h0Z"/><path class="cls-2" d="m10.13,5.94s-.11-.05-.11-.05h0c.07,0,.1,0,.11.05h0Z"/><path class="cls-7" d="m10.04,5.59c-.05,0-.09.08-.09.08h0c.06-.01.1-.03.1-.07h0Z"/><path class="cls-3" d="m9.95,5.67h0c.06-.02.1-.04.09-.08-.05,0-.09.07-.09.07,0-.02.04-.07.09-.08,0,0,0,0,0,0,0,0,0,0,0,0,0,.04-.03.06-.09.08h0Z"/><path class="cls-7" d="m9.96,5.56c0,.05-.05.11-.05.11h0c0-.07,0-.11.05-.11h0Z"/><path class="cls-2" d="m9.96,5.56c0,.05-.05.11-.05.11h0c0-.07,0-.11.05-.11h0Z"/><path class="cls-7" d="m9.95,5.48c.02.05-.02.12-.02.12h0c-.02-.07-.02-.1.02-.12h0Z"/><path class="cls-2" d="m9.95,5.48c.02.05-.02.12-.02.12h0c-.02-.07-.02-.1.02-.12h0Z"/><path class="cls-7" d="m9.75,5.55s.07.1.07.1h0c-.06-.03-.08-.05-.07-.1h0Z"/><path class="cls-2" d="m9.75,5.55s.07.1.07.1h0c-.06-.03-.08-.05-.07-.1h0Z"/><path class="cls-7" d="m9.7,5.92c.01-.05.08-.09.08-.09h0c-.02.07-.04.1-.08.1h0Z"/><path class="cls-2" d="m9.7,5.92c.01-.05.08-.09.08-.09h0c-.02.07-.04.1-.08.1h0Z"/><path class="cls-7" d="m9.79,6.05c.01-.05.08-.09.08-.09h0c-.02.07-.04.1-.09.09h0Z"/><path class="cls-2" d="m9.79,6.05c.01-.05.08-.09.08-.09h0c-.02.07-.04.1-.09.09h0Z"/><path class="cls-7" d="m9.95,6.15c.04-.06.02-.17.02-.17h0c-.05.08-.07.13-.02.17h0Z"/><path class="cls-3" d="m9.95,6.14c-.05-.04-.04-.09.02-.17,0,0,0,0,0,0-.05.08-.07.13-.02.17h0Z"/><path class="cls-7" d="m10.18,5.83c-.05.02-.12-.01-.12-.01h0c.06-.03.1-.03.12,0h0Z"/><path class="cls-2" d="m10.18,5.83c-.05.02-.12-.01-.12-.01h0c.06-.03.1-.03.12,0h0Z"/><path class="cls-7" d="m10.17,5.7s-.11.06-.11.06h0c.04-.06.07-.09.11-.06h0Z"/><path class="cls-2" d="m10.17,5.7s-.11.06-.11.06h0c.04-.06.07-.09.11-.06h0Z"/><path class="cls-7" d="m9.72,5.63c.02.05.11.05.11.05h0c-.05-.06-.08-.08-.11-.05h0Z"/><path class="cls-3" d="m9.8,5.68s-.08,0-.09-.05c0,0,0,0,0,0h0c.01.05.11.05.11.05-.05-.05-.07-.07-.11-.05.03-.03.06,0,.11.04,0,0-.02,0-.03,0h0Z"/><path class="cls-7" d="m9.79,5.6c0,.06.1.07.1.07h0c-.04-.06-.07-.09-.11-.07h0Z"/><path class="cls-3" d="m9.88,5.67s-.09-.02-.1-.06c0,0,0,0,0,0h0s0,0,0,0h0s.07,0,.1.06c0,0,0,0,0,0-.04-.06-.06-.08-.1-.06,0,.05.09.06.1.06h0Z"/><path class="cls-7" d="m9.69,5.72s.12.02.12.02h0c-.06-.04-.09-.06-.12-.03h0Z"/><path class="cls-2" d="m9.69,5.72s.12.02.12.02h0c-.06-.04-.09-.06-.12-.03h0Z"/><path class="cls-7" d="m9.69,5.78s.12-.02.12-.02h0c-.07-.03-.1-.03-.12.01h0Z"/><path class="cls-3" d="m9.73,5.8s-.03,0-.04-.01h0s0,0,0,0c.04.03.11-.02.11-.02-.06-.02-.1-.02-.11.02.01-.04.05-.04.12-.03,0,.01-.05.05-.09.05h0Z"/><path class="cls-7" d="m9.72,5.84c.05.02.11-.05.11-.05h0c-.07,0-.1,0-.11.05h0Z"/><path class="cls-3" d="m9.74,5.85s-.02,0-.02,0h0s0,0,0,0c.05.02.1-.05.1-.05-.06,0-.1.01-.1.05,0-.05.04-.05.1-.06,0,.01-.04.07-.09.07h0Z"/><path class="cls-7" d="m9.77,5.97c.05,0,.05-.11.05-.11h0c-.05.04-.07.07-.05.11h0Z"/><path class="cls-3" d="m9.77,5.97h0s0,0,0,0c.05,0,.05-.1.05-.11-.05.04-.07.07-.05.1-.03-.04,0-.07.04-.11.01.01,0,.11-.04.12h0Z"/><path class="cls-7" d="m9.79,6c.05-.01.06-.11.06-.11h0c-.05.04-.07.07-.05.11h0Z"/><path class="cls-2" d="m9.79,6c.05-.01.06-.11.06-.11h0c-.05.04-.07.07-.05.11h0Z"/><path class="cls-7" d="m9.83,6c.05,0,.07-.1.07-.1h0c-.06.03-.08.06-.07.1h0Z"/><path class="cls-3" d="m9.83,6.01s0,0,0,0c0,0,0,0,0,0,.05,0,.06-.1.06-.1-.06.04-.08.06-.06.1-.02-.04,0-.07.06-.1,0,0,0,.11-.06.11h0Z"/><path class="cls-7" d="m9.86,6.03c.05,0,.07-.1.07-.1h0c-.06.03-.08.06-.07.1h0Z"/><path class="cls-3" d="m9.86,6.03s0,0,0,0c0,0,0,0,0,0-.03-.04,0-.07.06-.11,0,0,0,0,0,0-.06.04-.08.06-.06.1.04,0,.06-.08.06-.1,0,.03-.02.1-.06.1h0Z"/><path class="cls-7" d="m9.91,6.05c.05-.02.03-.12.03-.12h0c-.04.05-.06.09-.03.12h0Z"/><path class="cls-2" d="m9.91,6.05c.05-.02.03-.12.03-.12h0c-.04.05-.06.09-.03.12h0Z"/><path class="cls-7" d="m9.94,6.05s.03-.12.03-.12h0c-.04.05-.06.09-.03.12h0Z"/><path class="cls-2" d="m9.94,6.05s.03-.12.03-.12h0c-.04.05-.06.09-.03.12h0Z"/><path class="cls-7" d="m9.99,6.03s0-.12,0-.12h0c-.03.06-.03.1,0,.12h0Z"/><path class="cls-2" d="m9.99,6.03s0-.12,0-.12h0c-.03.06-.03.1,0,.12h0Z"/><path class="cls-7" d="m10.03,5.96s-.04-.12-.04-.12h0c0,.07,0,.11.04.12h0Z"/><path class="cls-2" d="m10.03,5.96s-.04-.12-.04-.12h0c0,.07,0,.11.04.12h0Z"/><path class="cls-7" d="m10.12,5.88c-.02-.05-.12-.04-.12-.04h0c.05.05.09.07.12.04h0Z"/><path class="cls-2" d="m10.12,5.88c-.02-.05-.12-.04-.12-.04h0c.05.05.09.07.12.04h0Z"/><path class="cls-7" d="m10.14,5.78s-.12,0-.12,0h0c.06.03.1.04.12,0h0Z"/><path class="cls-2" d="m10.14,5.78s-.12,0-.12,0h0c.06.03.1.04.12,0h0Z"/><path class="cls-7" d="m10.11,5.7s-.12,0-.12,0h0c.06.03.1.04.12,0h0Z"/><path class="cls-3" d="m10.07,5.74s-.05,0-.08-.02c0-.01.09-.06.12-.01h0s0,0,0,0c-.03-.04-.12,0-.12,0,.07.03.1.03.12,0-.01.02-.02.03-.04.03h0Z"/><path class="cls-7" d="m10.06,5.67s-.11.05-.11.05h0c.07,0,.1,0,.11-.04h0Z"/><path class="cls-2" d="m10.06,5.67s-.11.05-.11.05h0c.07,0,.1,0,.11-.04h0Z"/><path class="cls-7" d="m10,5.64c-.05,0-.08.09-.08.09h0c.06-.02.09-.04.08-.08h0Z"/><path class="cls-2" d="m10,5.64c-.05,0-.08.09-.08.09h0c.06-.02.09-.04.08-.08h0Z"/><path class="cls-7" d="m9.85,5.56s.05.11.05.11h0c0-.07-.02-.11-.06-.11h0Z"/><path class="cls-3" d="m9.91,5.67s-.09-.06-.07-.11c0,0,0,0,0,0,0,0,0,0,0,0-.02.05.05.11.05.11,0-.07-.01-.1-.05-.1.05,0,.05.03.06.11h0Z"/><path class="cls-7" d="m9.75,5.68c.02.05.11.05.11.05h0c-.05-.05-.08-.08-.11-.05h0Z"/><path class="cls-3" d="m9.83,5.72s-.08,0-.09-.05t0,0s0,0,0,0c.02.05.11.05.11.05-.04-.05-.08-.07-.11-.05.03-.03.06,0,.11.04,0,0-.02,0-.03,0h0Z"/><path class="cls-7" d="m9.77,5.73s.12,0,.12,0h0c-.06-.04-.1-.04-.12,0h0Z"/><path class="cls-2" d="m9.77,5.73s.12,0,.12,0h0c-.06-.04-.1-.04-.12,0h0Z"/><path class="cls-7" d="m9.78,5.78s.12-.02.12-.02h0c-.06-.03-.1-.03-.12.01h0Z"/><path class="cls-2" d="m9.78,5.78s.12-.02.12-.02h0c-.06-.03-.1-.03-.12.01h0Z"/><path class="cls-7" d="m9.81,5.88c.05.02.1-.06.1-.06h0c-.07,0-.1.02-.1.06h0Z"/><path class="cls-2" d="m9.81,5.88c.05.02.1-.06.1-.06h0c-.07,0-.1.02-.1.06h0Z"/><path class="cls-7" d="m9.84,5.93c.05,0,.08-.1.08-.1h0c-.06.03-.09.05-.07.09h0Z"/><path class="cls-2" d="m9.84,5.93c.05,0,.08-.1.08-.1h0c-.06.03-.09.05-.07.09h0Z"/><path class="cls-7" d="m9.89,5.94c.05-.02.05-.11.05-.11h0s-.07.08-.04.11h0Z"/><path class="cls-2" d="m9.89,5.94c.05-.02.05-.11.05-.11h0s-.07.08-.04.11h0Z"/><path class="cls-7" d="m9.99,5.92s-.02-.12-.02-.12h0c-.01.07-.01.11.03.12h0Z"/><path class="cls-2" d="m9.99,5.92s-.02-.12-.02-.12h0c-.01.07-.01.11.03.12h0Z"/><path class="cls-7" d="m10.08,5.85c-.01-.05-.11-.05-.11-.05h0c.04.06.07.08.11.05h0Z"/><path class="cls-3" d="m10.05,5.86s-.05-.02-.08-.06c0-.01.1-.01.12.04,0,0,0,0,0,0,0,0,0,0,0,0-.01-.05-.11-.05-.11-.05.05.06.07.07.1.05,0,.01-.02.01-.03.01h0Z"/><path class="cls-7" d="m10.04,5.8s-.12-.02-.12-.02h0c.06.04.09.05.12.02h0Z"/><path class="cls-3" d="m10,5.83s-.05-.01-.08-.04c0,0,0,0,0,0,.05.04.09.05.11.02h0s-.1-.02-.11-.02c.02-.01.09-.03.12.01,0,0,0,0,0,0t0,0s-.02.02-.04.02h0Z"/><path class="cls-7" d="m10.08,5.74s-.12,0-.12,0h0c.06.03.1.04.12,0h0Z"/><path class="cls-3" d="m10.03,5.78s-.04,0-.07-.02c0-.02.09-.06.13-.02h0s0,0,0,0c-.03-.04-.12,0-.12,0,.06.02.09.03.12,0,0,.03-.03.03-.05.03h0Z"/><path class="cls-7" d="m9.82,5.64c-.01.05.07.1.07.1h0c-.01-.07-.03-.11-.07-.1h0Z"/><path class="cls-2" d="m9.82,5.64c-.01.05.07.1.07.1h0c-.01-.07-.03-.11-.07-.1h0Z"/><path class="cls-7" d="m9.92,5.64s-.02.12-.02.12h0c.04-.06.05-.09.02-.12h0Z"/><path class="cls-3" d="m9.91,5.76s-.04-.1,0-.13c0,0,0,0,0,0,0,0,0,0,0,0-.04.02-.02.12-.02.12.03-.06.05-.09.02-.12.04.03.03.06-.01.12h0Z"/><path class="cls-7" d="m10.02,5.71s-.11.05-.11.05h0c.07,0,.1,0,.11-.05h0Z"/><path class="cls-3" d="m9.92,5.78h0c.06-.01.1-.02.1-.06-.04-.02-.09.04-.1.05.01-.02.06-.08.1-.06,0,0,0,0,0,0,0,0,0,0,0,0,0,.04-.03.06-.1.06h0Z"/><path class="cls-7" d="m9.94,5.87s-.03-.12-.03-.12h0c0,.07,0,.11.04.12h0Z"/><path class="cls-3" d="m9.94,5.87h0s0,0,0,0h0c-.05,0-.05-.05-.04-.11,0,0,0,0,0,0,0,.07,0,.1.03.11.03-.04-.03-.1-.03-.11.02.02.07.08.04.12,0,0,0,0,0,0h0Z"/><path class="cls-7" d="m9.76,5.9c.05,0,.07-.1.07-.1h0c-.05.03-.08.06-.07.09h0Z"/><path class="cls-2" d="m9.76,5.9c.05,0,.07-.1.07-.1h0c-.05.03-.08.06-.07.09h0Z"/><path class="cls-7" d="m9.95,5.94s0-.12,0-.12h0c-.02.06-.03.1,0,.12h0Z"/><path class="cls-2" d="m9.95,5.94s0-.12,0-.12h0c-.02.06-.03.1,0,.12h0Z"/><path class="cls-4" d="m9.87,5.86s.06-.03.06-.06c0-.03-.03-.06-.06-.06-.03,0-.06.03-.06.06,0,.04.03.06.06.06h0Z"/><path class="cls-3" d="m9.87,5.86s-.07-.03-.07-.07c0-.07.13-.07.13,0,0,.04-.03.07-.07.07h0Zm0-.12s-.05.03-.05.05c0,.06.1.06.1,0,0-.03-.02-.05-.05-.05h0Z"/><path class="cls-3" d="m9.87,5.81s.02,0,.02-.01c0,0,0-.01-.02-.01s-.01,0-.01.01c0,0,0,.01.01.01h0Z"/><path class="cls-12" d="m9.84,9.64s0,.02.02.02c.03,0,.04-.02.03-.09,0-.02-.03-.08-.06-.08-.02,0-.01,0-.01.02l.03.14h0Z"/><path class="cls-12" d="m9.5,8.34s.01.02.02.01c.03,0,.02-.03.01-.04-.02-.04-.04-.04-.05-.04h0s.03.07.03.07h0Z"/><path class="cls-12" d="m9.46,8.25s.03-.02.02-.05c0-.02-.02-.03-.04-.03-.01,0,0,0,0,.01l.02.06h0Z"/><polygon class="cls-12" points="10.25 8.25 10.21 8.18 10.21 8.25 10.25 8.25"/><path class="cls-12" d="m9.84,8.23s.04,0,.03-.05c-.01-.03-.03-.04-.04-.04-.01,0-.01,0,0,.01l.03.07h0Z"/><path class="cls-12" d="m10.44,9.63s.01-.03,0-.04c0-.02-.02-.03-.04-.04,0,.01,0,.02,0,.04,0,.02.01.04.03.04h0Z"/><path class="cls-12" d="m10.42,9.5s0-.02,0-.03c0-.01,0-.04-.03-.03,0,0-.02.01-.01.02,0,.03.04.04.04.04h0Z"/><path class="cls-12" d="m10.44,8.29s0,.01.02.01c.03,0,.04-.02.02-.09,0-.03-.04-.08-.07-.08-.02,0,0,0,0,0l.05.14h0Z"/><path class="cls-12" d="m10.01,8.72s0,.01.02.01c.02,0,.04-.02,0-.08,0-.02-.04-.08-.07-.08-.01,0,0,0,0,.01l.05.13h0Z"/><path class="cls-10" d="m9.6,9.15l.03.06s0,.02.01.02c0,0,0,0,0,0,0,0,0,0,.02,0h0s-.1.02-.1.02h0s.01,0,.02-.01c0,0,0,0,0,0,0,0,0,0,0-.02l-.06-.15s0-.02,0-.02c0,0,0,0,0,0,0,0,0,0-.02,0h0s.08-.01.08-.01c.03,0,.05,0,.06.01.02,0,.03.02.04.04,0,.01,0,.03,0,.04,0,.01,0,.02-.02.03,0,0-.02,0-.04,0h0Zm-.05-.11l.04.1h0s.02,0,.02-.01c0,0,0-.02,0-.04,0-.02-.02-.03-.02-.04,0,0-.02,0-.03,0h0Z"/></g></g></g></g></g></svg>