<?xml version="1.0" encoding="UTF-8"?><svg id="Capa_2" xmlns="http://www.w3.org/2000/svg" xmlns:xlink="http://www.w3.org/1999/xlink" viewBox="0 0 19.58 19.58"><defs><style>.cls-1{fill:#1a4104;}.cls-1,.cls-2,.cls-3,.cls-4,.cls-5,.cls-6,.cls-7,.cls-8,.cls-9,.cls-10,.cls-11,.cls-12,.cls-13,.cls-14,.cls-15{stroke-width:0px;}.cls-16{clip-path:url(#clippath);}.cls-2{fill:none;}.cls-3{fill:#f5cd28;}.cls-4{fill:#c0003b;}.cls-5{fill:#ce2b37;}.cls-6{fill:#e50027;}.cls-7{fill:#999396;}.cls-17{clip-path:url(#clippath-1);}.cls-18{clip-path:url(#clippath-4);}.cls-19{clip-path:url(#clippath-3);}.cls-20{clip-path:url(#clippath-2);}.cls-21{clip-path:url(#clippath-7);}.cls-22{clip-path:url(#clippath-8);}.cls-23{clip-path:url(#clippath-6);}.cls-24{clip-path:url(#clippath-5);}.cls-25{clip-path:url(#clippath-9);}.cls-8{fill:#1a4204;}.cls-9{fill:#000;}.cls-10{fill:#272015;}.cls-26{clip-path:url(#clippath-14);}.cls-27{clip-path:url(#clippath-13);}.cls-28{clip-path:url(#clippath-12);}.cls-29{clip-path:url(#clippath-10);}.cls-30{clip-path:url(#clippath-15);}.cls-31{clip-path:url(#clippath-16);}.cls-32{clip-path:url(#clippath-11);}.cls-11{fill:#223e84;}.cls-12{fill:#009246;}.cls-13{fill:#fff;}.cls-14{fill:#347c63;}.cls-15{fill:#f1f2f1;}</style><clipPath id="clippath"><circle class="cls-2" cx="9.79" cy="9.79" r="9.79"/></clipPath><clipPath id="clippath-1"><rect class="cls-2" x="-6.99" y="0" width="33.56" height="19.58"/></clipPath><clipPath id="clippath-2"><rect class="cls-2" x="-6.99" y="0" width="33.56" height="19.58"/></clipPath><clipPath id="clippath-3"><rect class="cls-2" x="-6.99" y="0" width="33.56" height="19.58"/></clipPath><clipPath id="clippath-4"><rect class="cls-2" x="11.26" y="7.34" width=".77" height=".86"/></clipPath><clipPath id="clippath-5"><rect class="cls-2" x="11.02" y="7.19" width=".87" height=".55"/></clipPath><clipPath id="clippath-6"><rect class="cls-2" x="10.11" y="7" width="1.53" height=".64"/></clipPath><clipPath id="clippath-7"><rect class="cls-2" x="7.55" y="7.33" width=".77" height=".86"/></clipPath><clipPath id="clippath-8"><rect class="cls-2" x="7.7" y="7.19" width=".87" height=".55"/></clipPath><clipPath id="clippath-9"><rect class="cls-2" x="7.94" y="6.99" width="1.53" height=".64"/></clipPath><clipPath id="clippath-10"><rect class="cls-2" x="9.07" y="6.75" width="1.44" height=".5"/></clipPath><clipPath id="clippath-11"><rect class="cls-2" x="11.25" y="11.46" width=".84" height=".45"/></clipPath><clipPath id="clippath-12"><rect class="cls-2" x="10.8" y="11.33" width=".92" height=".35"/></clipPath><clipPath id="clippath-13"><rect class="cls-2" x="7.5" y="11.46" width=".84" height=".45"/></clipPath><clipPath id="clippath-14"><rect class="cls-2" x="7.87" y="11.33" width=".92" height=".35"/></clipPath><clipPath id="clippath-15"><rect class="cls-2" x="8.26" y="10.97" width="3.05" height=".61"/></clipPath><clipPath id="clippath-16"><rect class="cls-2" x="-6.99" y="0" width="33.56" height="19.58"/></clipPath></defs><g id="_4"><g class="cls-16"><g id="DOMINICAN_REPUBLIC"><g class="cls-17"><g class="cls-20"><rect class="cls-13" x="-6.99" y="0" width="33.56" height="19.58"/><rect class="cls-11" x="-6.99" y="0" width="14.38" height="7.52"/><rect class="cls-6" x="-6.99" y="12.02" width="14.38" height="7.55"/><rect class="cls-11" x="12.18" y="12.02" width="14.39" height="7.55"/><rect class="cls-6" x="12.18" y="0" width="14.39" height="7.52"/><g class="cls-19"><path class="cls-9" d="M12.09,8.33c0-.16-.1-.21-.1-.21.02-.03.13.03.14.21h-.04Z"/><path class="cls-9" d="M12.04,8.34c0-.16-.1-.21-.1-.21.02-.03.13.03.13.21h-.03Z"/><path class="cls-9" d="M11.99,8.35c0-.16-.1-.21-.1-.21.02-.03.13.03.13.21h-.03Z"/><path class="cls-9" d="M11.94,8.36c0-.16-.1-.21-.11-.21.02-.03.13.03.14.21h-.03Z"/><path class="cls-9" d="M11.88,8.39c0-.16-.1-.21-.1-.21.02-.03.13.03.14.21h-.04Z"/><path class="cls-9" d="M11.83,8.41c0-.16-.1-.21-.1-.21.02-.03.13.03.13.21h-.03Z"/><g class="cls-18"><path class="cls-11" d="M12.03,8.11c-.19-.51-.27-.59-.3-.62-.04-.04-.38-.15-.38-.15l-.09.21s.29.14.35.28c.06.13.11.37.11.37,0,0,.13-.05.17-.07.05-.02.14,0,.14-.02h0Z"/></g><path class="cls-9" d="M11.71,8.22v-.02s-.05-.24-.11-.37c-.06-.12-.34-.26-.34-.27l.09-.23c.08,0,.37.1.4.14.04.05.12.14.3.63,0,.03-.02.03-.06.03-.03,0-.06,0-.09,0-.04.02-.17.07-.17.07h-.02ZM11.28,7.56s.29.13.35.26c.05.11.09.29.11.35.04-.02.12-.05.16-.06.03,0,.07,0,.1-.01-.15-.47-.23-.56-.26-.6-.02-.03-.21-.1-.37-.15l-.08.2h0Z"/><g class="cls-24"><path class="cls-11" d="M11.89,7.75c-.3-.13-.4-.06-.5-.09-.11-.03-.34-.09-.36-.14-.02-.05.2-.32.2-.32l.16.16c.1.1.34,0,.42.19l.09.2Z"/></g><path class="cls-9" d="M11.89,7.77s0,0,0,0c-.17-.07-.27-.08-.35-.08h-.04c-.06,0-.08,0-.11,0-.24-.06-.36-.11-.37-.15-.03-.06.13-.26.2-.34l.18.16s.1.05.16.06c.1.01.21.03.26.14l.09.2s0,.01,0,.02c0,0-.01,0-.02,0h0ZM11.53,7.64c.08,0,.17,0,.32.06l-.07-.15c-.05-.09-.13-.1-.23-.12-.07,0-.14-.02-.19-.07l-.15-.16c-.07.12-.17.27-.16.3,0,.02.06.06.34.13.02,0,.05,0,.07,0h.07Z"/><path class="cls-9" d="M11.53,7.66c-.06,0-.15-.04-.27-.1-.05-.02-.1-.05-.12-.05-.07-.02-.1.01-.1.02-.03-.02.01-.08.11-.05.03,0,.08.03.13.05.08.04.26.12.28.09l.03.02s-.03.02-.05.02h0Z"/><g class="cls-23"><path class="cls-11" d="M10.2,7.01s.45-.04.83.03c.39.07.61.21.62.29,0,.17-.08.31-.09.3-.01,0,0-.08-.1-.11-.09-.03-.54-.17-.65-.17-.12,0-.46,0-.51,0-.05,0-.18-.03-.18-.09s.08-.25.08-.26h0Z"/></g><path class="cls-9" d="M11.55,7.65l-.02-.03s-.02-.06-.07-.08l-.1-.03c-.16-.05-.47-.14-.56-.15h-.07c-.07,0-.15,0-.23,0-.07,0-.13,0-.17,0h-.04s-.2-.02-.2-.11c0-.07.08-.26.08-.27.09-.01.2-.02.35-.02.19,0,.36.01.5.04.39.07.63.21.63.31,0,.15-.06.28-.08.31h-.03ZM10.74,7.34h.07c.1,0,.4.1.57.15l.09.03c.07.02.09.06.1.09.03-.04.07-.14.07-.27,0-.07-.21-.21-.6-.28-.14-.03-.31-.04-.5-.04-.14,0-.26,0-.31.01-.01,0-.09.19-.09.24,0,.04.1.07.16.08.08,0,.14,0,.21,0,.08,0,.17,0,.24,0h0Z"/><path class="cls-9" d="M10.4,7.31s-.01,0-.02,0c-.04,0-.07-.01-.09-.03-.03-.01-.05-.02-.09-.02-.05,0-.05.03-.05.03-.04,0-.02-.06.05-.07.04,0,.07,0,.1.03.03,0,.05.02.08.02h.05s0-.02,0-.02h.03s.01,0,.01,0l-.02.04s-.03.01-.04.01h0Z"/><path class="cls-9" d="M7.49,8.32h-.04c.01-.18.12-.24.12-.24.01.03-.08.08-.08.24h0Z"/><path class="cls-9" d="M7.54,8.33h-.04c.01-.18.12-.24.12-.24,0,.03-.08.08-.09.24h0Z"/><path class="cls-9" d="M7.59,8.34h-.03c0-.18.12-.24.12-.24.01.03-.08.08-.09.24h0Z"/><path class="cls-9" d="M7.65,8.36h-.04c0-.18.12-.24.12-.24.01.03-.08.08-.08.24h0Z"/><path class="cls-9" d="M7.7,8.38h-.04c.01-.18.12-.24.12-.24.01.03-.08.08-.08.24h0Z"/><path class="cls-9" d="M7.75,8.41h-.04c.01-.18.12-.24.12-.24,0,.03-.08.08-.09.24h0Z"/><g class="cls-21"><path class="cls-11" d="M7.55,8.1c.19-.51.27-.58.3-.62.03-.04.38-.15.38-.15l.09.21s-.29.14-.35.27c-.06.13-.11.37-.11.37,0,0-.13-.05-.17-.07-.04-.02-.14,0-.14-.02h0Z"/></g><path class="cls-9" d="M7.87,8.21h-.02s-.13-.06-.17-.08c-.02,0-.06,0-.09,0-.04,0-.06,0-.06-.02.19-.5.27-.58.3-.63.04-.05.33-.14.38-.16l.12.22s-.29.16-.35.29c-.06.13-.1.36-.1.37v.02h0ZM7.65,8.1s.03,0,.04,0c.03.01.12.05.16.06,0-.06.05-.25.1-.36.06-.13.35-.27.36-.28l-.1-.19c-.14.06-.33.13-.35.15-.04.05-.12.13-.3.62.04,0,.06-.01.09-.01h0Z"/><g class="cls-22"><path class="cls-11" d="M7.7,7.74c.3-.12.4-.06.51-.09.11-.03.33-.09.36-.14.02-.05-.2-.32-.2-.32l-.15.16c-.1.1-.34,0-.42.19l-.09.2Z"/></g><path class="cls-9" d="M7.7,7.76s-.01,0-.02,0c0,0,0-.01,0-.02l.09-.2c.05-.12.17-.13.26-.14.07,0,.13-.02.17-.06l.15-.16c.1.09.26.29.23.35-.02.05-.13.09-.38.16-.03,0-.05,0-.07,0h-.08c-.08,0-.18,0-.35.08h0ZM8.35,7.2l-.12.16s-.12.06-.19.07c-.09.01-.18.02-.23.12l-.07.15c.14-.06.24-.06.31-.06h.04c.05,0,.08,0,.1,0,.27-.07.34-.11.34-.13,0-.03-.09-.18-.19-.3h0Z"/><path class="cls-9" d="M8.05,7.65s-.04,0-.05-.02l.03-.02s.19-.05.28-.09c.06-.03.11-.05.13-.06.09-.03.13.02.13.03-.02.01-.04,0-.08,0-.02,0-.03,0-.05,0-.02,0-.07.03-.12.05-.12.06-.21.1-.27.1h0Z"/><g class="cls-25"><path class="cls-11" d="M9.39,7s-.45-.04-.83.03c-.39.07-.61.21-.62.29,0,.17.08.31.09.3,0,0,0-.08.09-.1.09-.03.54-.17.66-.17.12,0,.46.01.51,0,.05,0,.18-.03.18-.09s-.08-.25-.08-.26h0Z"/></g><path class="cls-9" d="M8.03,7.64h-.02s-.09-.17-.09-.32c0-.1.24-.24.63-.31.14-.03.31-.04.5-.04.14,0,.26,0,.31.01.04.02.12.21.12.28,0,.09-.19.11-.19.11h-.04s-.11,0-.17,0c-.08,0-.17,0-.24,0h-.06c-.09,0-.41.1-.57.15l-.08.02c-.06.02-.07.06-.08.08l-.02.03h0ZM9.05,7.01c-.19,0-.35.01-.49.04-.39.07-.6.21-.6.28,0,.13.04.23.07.27,0-.03.03-.07.1-.09l.08-.02c.17-.05.48-.15.57-.15h.07c.06,0,.15,0,.24,0,.06,0,.13,0,.17,0,.11,0,.2-.04.2-.08,0-.05-.07-.24-.08-.25-.05,0-.17,0-.32,0h0Z"/><path class="cls-9" d="M9.19,7.31c-.06,0-.06-.04-.07-.05l.03-.02h0s0,.04.04.04c.03,0,.06-.01.08-.02.03-.01.06-.03.1-.02.08,0,.09.06.09.06-.03,0-.04-.02-.09-.03-.03,0-.06,0-.08.02-.03.01-.05.02-.09.03,0,0,0,0-.01,0h0Z"/><g class="cls-29"><path class="cls-11" d="M9.78,6.75c-.53,0-.68.08-.7.17-.02.08.06.33.06.33,0,0,.09-.17.64-.16.55,0,.66.15.66.15,0,0,.07-.24.06-.32,0-.08-.23-.17-.74-.17h0Z"/></g><path class="cls-9" d="M9.14,7.29v-.03s-.1-.25-.07-.34c.02-.08.12-.18.71-.19.46,0,.74.07.75.18,0,.08-.06.32-.06.33h0s-.15-.13-.68-.14h0c-.54,0-.63.15-.63.16l-.02.03h0ZM9.75,7.07c.52,0,.67.12.7.16,0-.04.05-.24.04-.3,0-.06-.2-.16-.71-.16-.45,0-.67.06-.7.16-.01.06.03.21.05.29.05-.05.2-.15.61-.15h0Z"/><polygon class="cls-3" points="10.52 7.28 10.54 7.06 10.56 7.06 10.54 7.25 10.62 7.26 10.62 7.29 10.52 7.28"/><rect class="cls-3" x="10.56" y="7.17" width=".22" height=".02" transform="translate(2.67 17.25) rotate(-85.46)"/><polygon class="cls-3" points="10.85 7.3 10.89 7.08 11.01 7.1 11 7.13 10.91 7.11 10.9 7.18 10.99 7.19 10.98 7.22 10.89 7.21 10.88 7.28 10.98 7.3 10.98 7.32 10.85 7.3"/><polygon class="cls-3" points="11.2 7.38 11.27 7.2 11.22 7.18 11.22 7.16 11.35 7.2 11.34 7.22 11.28 7.21 11.22 7.39 11.2 7.38"/><path class="cls-3" d="M10.73,7.27h.04s.01,0,.02,0c0,0,.01,0,.02,0,0,0,0,0,0-.01,0,0,0-.01,0-.02,0,0,0-.01,0-.02,0,0,0-.01,0-.02,0,0-.02,0-.03,0h-.04s-.01.07-.01.07ZM10.74,7.17h.04s.02,0,.02,0c0,0,0,0,.01,0s0-.01,0-.02c0,0,0-.01,0-.02,0,0,0-.01-.01-.01,0,0,0,0-.03,0h-.03s0,.06,0,.06ZM10.71,7.29l.02-.22h.06s.02.01.03.02c0,0,.01,0,.02.02v.03s0,.02,0,.03c0,0,0,.02-.02.02,0,0,.01.01.02.02,0,0,0,.02,0,.03,0,.01,0,.02,0,.03,0,0,0,.01-.01.02,0,0-.01,0-.02,0,0,0-.02,0-.03,0h-.06Z"/><path class="cls-3" d="M11.06,7.21h.05s.01.02.02.01c0,0,.02,0,.02,0,0,0,0-.01,0-.02,0-.01,0-.02,0-.03,0,0,0-.01-.02-.02h-.05s-.02.06-.02.06ZM11.01,7.33l.06-.21.07.02s.03,0,.03.01c0,0,0,.01,0,.02,0,.01,0,.02,0,.03,0,.02,0,.03-.02.03,0,0-.02.01-.04.01,0,0,0,.01,0,.01,0,0,0,.02,0,.03v.07s-.01,0-.01,0v-.05s-.01-.03-.02-.03c0,0,0-.01,0-.01,0,0,0,0,0-.01,0,0,0,0-.01,0h-.03s-.03.09-.03.09h-.02Z"/><path class="cls-3" d="M11.46,7.46h.03s.02.02.03.02c0,0,.01,0,.02,0,0,0,.02-.01.02-.02,0-.01,0-.03.02-.04,0-.02,0-.04,0-.05,0-.01,0-.02,0-.03,0,0-.01,0-.03-.01h-.03s-.06.15-.06.15ZM11.42,7.48l.08-.21.05.02s.02,0,.03.01c0,0,.01.01.02.02,0,.01,0,.03,0,.04,0,.02,0,.04-.01.05,0,.01-.02.03-.02.04,0,.01-.01.02-.02.03s-.02.01-.02.01c0,0-.02,0-.02,0,0,0-.02,0-.03,0l-.06-.02Z"/><path class="cls-3" d="M11.34,7.34l.05.02v-.06s0-.04.01-.05c0,.01-.02.03-.02.04l-.04.05ZM11.26,7.41l.13-.19h.03s-.02.24-.02.24h-.02s0-.08,0-.08l-.06-.02-.04.06h-.02Z"/><polygon class="cls-3" points="9.72 7.04 9.72 6.85 9.66 6.85 9.66 6.82 9.81 6.82 9.81 6.85 9.75 6.85 9.75 7.04 9.72 7.04"/><polygon class="cls-3" points="10.03 7.04 10.04 6.82 10.06 6.82 10.05 7.04 10.03 7.04"/><path class="cls-3" d="M9.35,6.96h.05s.03-.02.03-.02c0,0,0-.02,0-.03,0,0,0-.02-.01-.02,0,0,0,0-.01,0,0,0-.02,0-.03,0h-.05s.01.09.01.09ZM9.35,7.07l-.04-.22h.07s.02-.02.03-.01c0,0,.02,0,.02,0,0,0,.02.01.02.02,0,0,.01.02.02.03,0,.02,0,.04,0,.05,0,.01-.03.02-.05.03h-.05s.02.1.02.1h-.03Z"/><path class="cls-3" d="M9.53,6.95h.06s-.03-.06-.03-.06c0-.02-.01-.03-.02-.04,0,.02,0,.03,0,.04v.06ZM9.49,7.04l.05-.22h.03s.09.21.09.21h-.03s-.03-.06-.03-.06h-.08s-.02.07-.02.07h-.02Z"/><path class="cls-3" d="M9.85,6.92h.05s.02,0,.03,0c0,0,.01,0,.01-.01,0,0,0-.01,0-.02,0-.01,0-.02,0-.02,0,0-.02-.01-.03-.01h-.06v.07ZM9.83,7.04v-.22h.08s.03,0,.04,0c0,0,.01,0,.02.02,0,.01,0,.02,0,.03,0,.01,0,.03-.01.04,0,.01-.02.02-.04.02,0,0,.02,0,.02.01,0,0,.01.02.02.03l.03.06h-.03l-.02-.05s-.02-.02-.02-.03c0,0,0-.01-.01-.02,0,0,0,0-.01,0h-.04v.1h-.02Z"/><path class="cls-3" d="M10.17,6.97h.06s0-.05,0-.05c0-.02,0-.03,0-.05,0,.01-.01.03-.02.04l-.03.06ZM10.1,7.05l.11-.21h.03s.04.24.04.24h-.03s0-.07,0-.07h-.08s-.03.05-.03.05h-.03Z"/><polygon class="cls-3" points="8.46 7.35 8.43 7.13 8.45 7.13 8.48 7.35 8.46 7.35"/><path class="cls-3" d="M8.72,7.23h.02s0,.02.01.02c0,0,0,.01.02.01,0,0,.02,0,.03,0,0,0,.02,0,.03,0,0,0,.01,0,.01-.01,0,0,0-.01,0-.02,0,0,0-.01,0-.02,0,0-.01,0-.02-.01,0,0-.01,0-.03,0-.02,0-.03,0-.04-.01,0,0-.02-.01-.02-.02,0,0,0-.02-.01-.03,0-.01,0-.02,0-.03,0-.01.02-.02.02-.02.01,0,.02,0,.03-.01.01,0,.03,0,.04,0,.01,0,.02.01.03.02,0,0,.01.02.02.03h-.03s0-.02-.02-.03c0,0-.02-.01-.04,0-.02,0-.03,0-.03.01,0,0,0,.01,0,.02,0,0,0,.01,0,.02,0,0,.02,0,.04.01.02,0,.04,0,.04.01.01,0,.02.01.03.02,0,0,0,.02,0,.03,0,.01,0,.02,0,.04,0,.01,0,.02-.02.03,0,0-.02.01-.04.01-.02,0-.03,0-.04,0,0,0-.02-.01-.03-.02,0,0-.01-.02-.01-.04h0Z"/><path class="cls-3" d="M8.5,7.22s0-.07.01-.09c.02-.02.03-.04.06-.04.02,0,.04,0,.05,0,.02,0,.03.02.04.04,0,.01.02.03.02.06,0,.02,0,.04,0,.06,0,.02-.01.03-.03.04-.01.01-.03.02-.04.02-.02,0-.04,0-.05,0-.01,0-.02-.02-.04-.04-.01-.01-.02-.03-.02-.05h0ZM8.53,7.22s0,.05.02.06c.02.01.03.02.05.02.02,0,.04-.01.04-.03s0-.04,0-.07c0-.02,0-.03-.02-.05,0-.01-.01-.02-.03-.03,0,0-.02,0-.03,0-.02,0-.04.01-.04.03,0,.01,0,.04,0,.07h0Z"/><path class="cls-3" d="M8.3,7.38h.04s.02-.02.03-.02c0,0,.01-.01.01-.02,0,0,0-.02,0-.03,0-.01,0-.03,0-.04,0-.02-.02-.04-.03-.05-.01-.01-.02-.02-.03-.02,0,0-.02,0-.03,0h-.04s.05.17.05.17ZM8.28,7.41l-.07-.21.06-.02s.03,0,.03,0c.01,0,.02,0,.03,0,.02,0,.03.02.03.03.01.01.02.03.03.05,0,.02,0,.03,0,.04,0,.01,0,.03,0,.04,0,0,0,.02,0,.02,0,0,0,.01-.02.02,0,0-.02,0-.03.01l-.06.02Z"/><path class="cls-13" d="M8.25,7.79l.29.27v2.2c0,.17.18.37.37.37h.47c.28,0,.42.23.42.23,0,0,.14-.23.42-.23h.51c.15,0,.34-.18.34-.37v-2.2l.28-.27h-3.1Z"/><path class="cls-9" d="M9.8,10.88v-.02s-.15-.22-.42-.22h-.47c-.19,0-.39-.2-.39-.38v-2.2l-.28-.26,3.12-.03-.27.3v2.19c0,.09-.04.19-.11.27-.07.08-.16.12-.24.12h-.51c-.27,0-.4.21-.4.21l-.02.02h0ZM11.34,7.77l-3.09.03.29.25v2.21c0,.17.19.35.37.35h.47c.24,0,.38.16.42.22.04-.06.18-.22.41-.22h.52c.07,0,.15-.04.21-.11.07-.07.11-.16.11-.24v-2.2l.29-.29h0Z"/><polygon class="cls-6" points="10.03 7.79 10.03 9.07 11.07 9.07 11.07 8.06 11.35 7.79 10.03 7.79"/><path class="cls-9" d="M11.07,9.08h-1.04v-1.29s1.32-.01,1.32-.01l-.28.29v1.01h0ZM11.34,7.78l-1.31.02v1.27s1.02,0,1.02,0v-1l.29-.28h0Z"/><polygon class="cls-11" points="8.25 7.79 9.56 7.79 9.56 9.07 8.53 9.07 8.53 8.06 8.25 7.79"/><path class="cls-9" d="M9.57,9.08h-1.04l-.02-1.02-.28-.27,1.32-.02v1.3h.01ZM9.55,7.79h-1.3s.29.27.29.27v1.01s1.02,0,1.02,0v-1.27h0Z"/><path class="cls-6" d="M8.53,9.53h1.03v1.14l-.09-.05h-.56c-.19,0-.37-.18-.37-.37v-.73Z"/><path class="cls-9" d="M9.57,10.69l-.11-.05h-.56c-.2,0-.39-.19-.39-.38v-.73h1.04s.01,1.16.01,1.16h0ZM9.55,9.53h-1.02s0,.73,0,.73c0,.18.19.36.37.36h.56l.08.04v-1.13h0Z"/><path class="cls-11" d="M11.07,9.53h-1.03v1.14l.09-.05h.57c.19,0,.38-.18.38-.37v-.73Z"/><path class="cls-9" d="M10.02,10.69v-1.16h1.04s0,.73,0,.73c0,.19-.19.38-.38.38h-.57l-.1.05h0ZM11.06,9.53h-1.02s.01,1.13.01,1.13l.07-.04h.57c.18,0,.37-.18.37-.36v-.73h0Z"/><path class="cls-9" d="M9.8,10.88v-.02s-.15-.22-.42-.22h-.47c-.19,0-.39-.2-.39-.38v-2.2l-.28-.26,3.12-.03-.27.3v2.19c0,.09-.04.19-.11.27-.07.08-.16.12-.24.12h-.51c-.27,0-.4.21-.4.21l-.02.02h0ZM11.34,7.77l-3.09.03.29.25v2.21c0,.17.19.35.37.35h.47c.24,0,.38.16.42.22.04-.06.18-.22.41-.22h.52c.07,0,.15-.04.21-.11.07-.07.11-.16.11-.24v-2.2l.29-.29h0Z"/><polygon class="cls-3" points="9.75 8.52 9.75 8.89 9.84 8.89 9.84 8.52 9.94 8.52 9.94 8.43 9.84 8.43 9.84 8.33 9.75 8.33 9.75 8.43 9.66 8.43 9.66 8.52 9.75 8.52"/><path class="cls-9" d="M9.86,8.9h-.11l-.02-.38-.08.02-.02-.11.11-.02-.02-.08.11-.02.02.11.08-.02.02.11-.11.02.02.37h0ZM9.75,8.5l.02.38h.06v-.37l.11-.02-.02-.07-.08.02-.02-.11-.08.02.02.08-.11.02.02.07.08-.02h0Z"/><polygon class="cls-10" points="9.83 8.99 9.08 8 9.13 7.97 9.88 8.96 9.83 8.99 9.83 8.99"/><polygon class="cls-3" points="9.08 8.01 9 7.84 9.15 7.96 9.08 8.01"/><path class="cls-6" d="M9.5,8.72s-.09.38-.09.38c0,0,.3.04.29.03,0-.01-.04-.25-.06-.27-.02-.02-.13-.12-.14-.14h0Z"/><path class="cls-13" d="M9.25,8.47l-.05.5s.34.3.33.26c0-.04-.03-.5-.03-.5l-.25-.25Z"/><path class="cls-11" d="M8.97,8.17l-.02.55s.3.24.3.22.03-.44.03-.44l-.31-.32Z"/><polygon class="cls-9" points="8.97 8.63 8.95 8.16 8.98 8.17 8.97 8.63 8.97 8.63"/><polygon class="cls-10" points="9.79 9.03 8.91 8.15 8.95 8.1 9.83 8.98 9.79 9.03 9.79 9.03"/><polygon class="cls-3" points="8.91 8.15 8.8 7.99 8.97 8.1 8.91 8.15"/><path class="cls-13" d="M8.81,8.33v1.38c0,.27.28.47.47.46.19-.02.47-.09.47-.09v-1.01l-.94-.73Z"/><path class="cls-9" d="M9.26,10.18c-.18,0-.47-.19-.47-.47v-1.38l.97.72v1.02s-.29.09-.48.11h-.02ZM8.8,8.35l.03,1.36c0,.26.26.44.43.44v.02l.02-.02c.18-.01.46-.09.47-.09v-.99s-.95-.72-.95-.72h0Z"/><path class="cls-6" d="M8.81,9.43v.28c0,.27.28.47.47.46.19-.02.47-.09.47-.09-.19-.09-.66.18-.66-.55-.09,0-.18,0-.28-.09h0Z"/><path class="cls-11" d="M9.11,8.55l-.02.79c-.1-.01-.18-.05-.28-.09v-.92l.29.21Z"/><path class="cls-6" d="M9.36,8.78v.61s.07-.01.18.03c.11.04.21.09.21.09v-.44l-.39-.29Z"/><path class="cls-11" d="M9.73,9.71s-.21-.1-.26-.11c-.05,0-.12,0-.12,0,0,0,0,.09,0,.15,0,.05.09.08.12.08.03,0,.27-.03.27-.03v-.1Z"/><path class="cls-9" d="M9.26,10.18c-.18,0-.47-.19-.47-.47v-1.38l.97.72v1.02s-.29.09-.48.11h-.02ZM8.8,8.35l.03,1.36c0,.26.26.44.43.44v.02l.02-.02c.18-.01.46-.09.47-.09v-.99s-.95-.72-.95-.72h0Z"/><polygon class="cls-10" points="9.75 9.09 8.76 8.31 8.81 8.26 9.78 9.04 9.75 9.09 9.75 9.09"/><polygon class="cls-3" points="8.76 8.32 8.64 8.17 8.82 8.26 8.76 8.32"/><polygon class="cls-10" points="9.78 8.98 9.73 8.94 10.48 7.95 10.53 7.99 9.78 8.98 9.78 8.98"/><polygon class="cls-3" points="10.53 7.99 10.61 7.82 10.46 7.95 10.53 7.99"/><path class="cls-6" d="M10.11,8.71s.09.38.09.38c0,0-.3.04-.29.03,0-.02.04-.25.06-.27.02-.02.13-.11.14-.14h0Z"/><path class="cls-13" d="M10.36,8.45l.05.5s-.34.29-.33.26c0-.04.03-.5.03-.5l.25-.25Z"/><path class="cls-11" d="M10.64,8.15l.02.55s-.3.24-.3.22c0-.02-.03-.44-.03-.44l.31-.32Z"/><polygon class="cls-9" points="10.68 8.61 10.63 8.15 10.67 8.15 10.68 8.61 10.68 8.61"/><polygon class="cls-10" points="9.82 9.01 9.77 8.96 10.65 8.08 10.7 8.13 9.82 9.01 9.82 9.01"/><polygon class="cls-3" points="10.7 8.13 10.81 7.98 10.64 8.08 10.7 8.13"/><path class="cls-13" d="M10.8,8.32v1.37c0,.28-.28.47-.47.46-.19-.01-.47-.09-.47-.09v-1.01l.94-.73Z"/><path class="cls-9" d="M10.35,10.17h-.02c-.19-.01-.47-.09-.47-.09v-1.02s.94-.75.94-.75l.03,1.39c0,.29-.28.47-.47.47h0ZM9.88,10.06s.28.06.45.08l.02.02v-.02c.17,0,.43-.18.43-.44v-1.37l-.91.75v.99h.02Z"/><path class="cls-6" d="M10.8,9.42v.27c0,.28-.28.47-.47.46-.19-.01-.47-.09-.47-.09.19-.09.66.18.66-.55.09,0,.19,0,.28-.09h0Z"/><path class="cls-11" d="M10.51,8.53v.79c.11-.01.2-.05.29-.09v-.92l-.29.21Z"/><path class="cls-6" d="M10.25,8.76v.61s-.07,0-.18.03c-.11.04-.22.09-.22.09v-.44l.4-.29Z"/><path class="cls-11" d="M9.88,9.69s.21-.1.26-.11c.05,0,.12,0,.12,0,0,0,0,.09,0,.15,0,.05-.09.08-.12.08-.03,0-.27-.03-.27-.03v-.1Z"/><path class="cls-9" d="M10.35,10.17h-.02c-.19-.01-.47-.09-.47-.09v-1.02s.94-.75.94-.75l.03,1.39c0,.29-.28.47-.47.47h0ZM9.88,10.06s.28.06.45.08l.02.02v-.02c.17,0,.43-.18.43-.44v-1.37l-.91.75v.99h.02Z"/><polygon class="cls-10" points="9.87 9.08 9.83 9.03 10.81 8.25 10.84 8.3 9.87 9.08 9.87 9.08"/><polygon class="cls-3" points="10.85 8.3 10.97 8.16 10.79 8.24 10.85 8.3"/><path class="cls-6" d="M9.96,10.02s.1.13.12.1c.02-.02-.05-.21-.08-.31-.03-.1-.08-.21-.09-.36,0-.15-.1.02-.1.02l.14.55Z"/><path class="cls-9" d="M10.07,10.15s-.06-.04-.12-.1l-.15-.57s.05-.1.09-.1c.04,0,.04.06.04.08,0,.1.03.19.05.26,0,.03.02.06.03.09.01.03.02.07.03.11.04.14.06.2.04.22h-.02ZM9.9,9.41s-.04.04-.06.07l.14.54c.06.07.08.09.09.09,0-.02-.02-.12-.05-.18,0-.04-.02-.08-.03-.11,0-.03-.02-.06-.03-.09-.03-.08-.05-.17-.06-.28,0-.04,0-.05,0-.05h0Z"/><path class="cls-6" d="M9.88,10.32h.18s-.06-.23-.08-.37c-.02-.14-.17-.56-.17-.56l.06.92Z"/><path class="cls-9" d="M10.08,10.35h-.2s-.08-.95-.08-.95c.04.01.19.41.2.55.02.14.07.37.07.37v.02h0ZM9.81,9.41l.09.92h.14c-.02-.07-.06-.25-.07-.37-.02-.13-.17-.55-.17-.55h0Z"/><path class="cls-13" d="M9.75,9.36s-.25.4-.25.6.12.33.16.39c.04.06.14.27.14.27,0,0,.12-.23.13-.32.01-.09-.05-.47-.03-.62.02-.15.13-.49.13-.49l-.28.16Z"/><path class="cls-9" d="M9.8,10.67v-.03s-.12-.21-.15-.27l-.03-.03c-.05-.07-.14-.19-.14-.37,0-.17.16-.45.25-.6l.29-.18s-.09.37-.1.51c0,.08,0,.23.02.36,0,.11.02.21.01.25-.01.09-.13.32-.14.32l-.02.03h0ZM10.01,9.19l-.26.18c-.15.26-.24.47-.24.59,0,.17.08.27.13.35l.03.04c.03.05.1.18.13.24.04-.06.11-.21.12-.28,0-.04,0-.14-.01-.25-.01-.13-.03-.29-.02-.37.02-.15.13-.48.13-.5h0Z"/><path class="cls-11" d="M9.75,9.36s-.25.4-.25.6.12.33.16.39c0-.13-.02-.25-.01-.42.02-.44.3-.69.3-.69l-.2.11Z"/><path class="cls-6" d="M9.85,9.24c0,.07-.1.3-.1.5,0,.1.05.34.05.54,0,.2,0,.35,0,.35,0,0,.12-.23.13-.32.01-.09-.05-.47-.03-.62.02-.15.13-.49.13-.49l-.18.04Z"/><path class="cls-9" d="M9.8,10.67v-.03s-.12-.21-.15-.27l-.03-.03c-.05-.07-.14-.19-.14-.37,0-.17.16-.45.25-.6l.29-.18s-.09.37-.1.51c0,.08,0,.23.02.36,0,.11.02.21.01.25-.01.09-.13.32-.14.32l-.02.03h0ZM10.01,9.19l-.26.18c-.15.26-.24.47-.24.59,0,.17.08.27.13.35l.03.04c.03.05.1.18.13.24.04-.06.11-.21.12-.28,0-.04,0-.14-.01-.25-.01-.13-.03-.29-.02-.37.02-.15.13-.48.13-.5h0Z"/><path class="cls-6" d="M9.71,9.27c-.06.05-.02.16-.02.16,0,0,.05-.05.12-.04.08,0,.13.12.13.12,0,0,.05-.04.06-.11,0-.08-.16-.17-.29-.13h0Z"/><path class="cls-9" d="M9.94,9.54v-.02s-.06-.11-.12-.11h0c-.07,0-.11.04-.11.04-.03,0-.08-.13,0-.19.12-.04.24,0,.29.07.02.02.03.05.03.07,0,.08-.06.12-.06.12h-.02ZM9.81,9.37c.08,0,.12.08.14.11.01-.02.03-.04.04-.09,0-.02,0-.03-.02-.04-.04-.05-.16-.09-.25-.06-.03.03-.02.09,0,.12,0-.01.05-.04.1-.04h0Z"/><path class="cls-9" d="M9.54,8.96l.16.42s.07-.03.12-.05c.05-.02.1,0,.1,0,0,0,.08-.04.12-.06.04-.01.12-.01.12-.01v-.02s-.56-.33-.61-.31v.03Z"/><path class="cls-9" d="M9.69,9.4l-.17-.44.02-.05h0c.09,0,.58.28.63.31h.02s-.02.04-.02.04c-.01,0-.09,0-.12.02-.04.01-.11.05-.11.05h-.05s-.04,0-.05,0c-.05.01-.12.05-.12.05h-.02ZM9.55,8.95l.16.41s.07-.03.11-.04c.03-.01.1,0,.11,0,0,0,.07-.04.11-.05.04-.01.12-.01.12-.01-.21-.11-.55-.29-.61-.29h0Z"/><path class="cls-13" d="M9.55,8.92l.16.42s.07-.03.12-.05c.05-.02.1,0,.1,0,0,0,.08-.04.12-.06.04-.01.12-.01.12-.01l-.16-.46s-.06,0-.12.03c-.04.01-.1.07-.1.07-.03,0-.08,0-.13,0-.05.02-.09.04-.11.06h0Z"/><path class="cls-9" d="M9.7,9.36l-.17-.44s.09-.07.12-.08c.03,0,.05-.01.09-.01h.04s.06-.05.1-.07c.05-.02.12-.03.12-.03l.18.47s-.09.02-.13.04c-.04.01-.11.05-.11.05h-.05s-.04,0-.05,0c-.05.02-.12.04-.12.04h-.01ZM9.99,8.77s-.05.01-.09.03c-.04.01-.1.07-.1.07h-.06s-.05,0-.07.01c-.05.02-.09.04-.1.06l.16.39s.07-.03.11-.04c.03-.01.1,0,.11,0,0,0,.07-.04.11-.06.04-.02.12-.02.12-.02l-.18-.43h0Z"/><polygon class="cls-7" points="9.95 9.29 9.78 8.85 9.8 8.85 9.95 9.29 9.95 9.29"/><path class="cls-7" d="M9.58,8.96l-.02-.02c.06-.05.16-.07.24-.06-.08.01-.17.04-.22.08h0Z"/><path class="cls-7" d="M9.6,9.01v-.02s.14-.08.22-.06c-.07.01-.17.04-.22.08h0Z"/><path class="cls-7" d="M9.61,9.07v-.02s.14-.07.22-.06c-.08.01-.17.04-.22.08h0Z"/><path class="cls-7" d="M9.63,9.12h-.02c.06-.06.16-.09.24-.08-.08.01-.17.04-.22.08h0Z"/><path class="cls-7" d="M9.66,9.18v-.02s.14-.07.22-.06c-.08.01-.17.04-.22.08h0Z"/><path class="cls-7" d="M9.68,9.24l-.02-.02c.06-.05.16-.07.23-.06-.08.01-.17.04-.22.08h0Z"/><path class="cls-7" d="M9.7,9.29v-.02s.14-.07.22-.06c-.07.01-.17.04-.22.08h0Z"/><path class="cls-7" d="M9.81,8.9h-.02c.05-.07.13-.1.22-.1-.07.02-.16.05-.2.1h0Z"/><path class="cls-7" d="M9.83,8.96h-.01c.05-.07.14-.1.22-.1-.08.02-.16.05-.2.1h0Z"/><path class="cls-7" d="M9.84,9.01h-.02c.05-.07.13-.11.22-.11-.08.02-.16.05-.2.11h0Z"/><path class="cls-7" d="M9.87,9.07h-.01c.05-.07.14-.1.22-.1-.07.02-.15.05-.2.1h0Z"/><path class="cls-7" d="M9.88,9.12h-.02c.05-.07.14-.1.22-.1-.08.02-.16.06-.2.1h0Z"/><path class="cls-7" d="M9.91,9.18h-.02c.05-.07.14-.1.22-.11-.07.02-.16.06-.2.11h0Z"/><path class="cls-7" d="M9.93,9.23l-.02-.02c.05-.05.14-.09.22-.09-.08.02-.16.05-.2.1h0Z"/><path class="cls-9" d="M9.7,9.36l-.17-.44s.09-.07.12-.08c.03,0,.05-.01.09-.01h.04s.06-.05.1-.07c.05-.02.12-.03.12-.03l.18.47s-.09.02-.13.04c-.04.01-.11.05-.11.05h-.05s-.04,0-.05,0c-.05.02-.12.04-.12.04h-.01ZM9.99,8.77s-.05.01-.09.03c-.04.01-.1.07-.1.07h-.06s-.05,0-.07.01c-.05.02-.09.04-.1.06l.16.39s.07-.03.11-.04c.03-.01.1,0,.11,0,0,0,.07-.04.11-.06.04-.02.12-.02.12-.02l-.18-.43h0Z"/><path class="cls-14" d="M9.25,11.83s.26-.15.38-.26c.12-.11.23-.25.37-.38.13-.13.2-.1.27-.25.07-.15.03-.22.03-.37.05,0,.06.05.09.1,0,.03.07-.18.07-.12,0,.07,0,.23,0,.22.02-.04.12-.25.12-.25,0,0-.04.3-.03.26.01-.03.12-.19.12-.19v.19s.08-.13.1-.23c.02,0,.07.13.09.1.02-.03.04-.23.08-.21.03.02.05.12.05.12,0,0-.02-.63,0-.62.03,0,.11.03.11.03v-.24s.09.28.1.32c.01.03,0-.23-.04-.29-.02-.07-.04-.2-.04-.2,0,0,.12.16.13.2,0-.03-.09-.32-.11-.32s-.12.12-.1.11c.03-.01.08-.25.11-.25.04,0,.1.17.09.15l-.07-.37.09.16s.02-.1,0-.16c-.02-.05-.03-.14-.03-.14,0,0,.07.09.05.07,0-.02,0-.2,0-.2,0,0,.05.1.06.12,0,.02.05.08.05.08v-.08l.06.05s-.13-.27-.18-.28c-.05-.01-.13.09-.13.09,0,0,.1-.17.13-.17h.05l-.04-.19s.22.31.21.26c0-.04-.1-.25-.11-.33,0-.08-.04-.21-.04-.21,0,0,.08.11.1.14.02.03.09.16.09.14,0-.02,0-.27,0-.27l.11.24.1-.28.06.27s.04-.13.05-.19c0-.05.05-.05.05-.05,0,0-.01.23-.01.25s-.03.14-.03.14c0,0,.1-.21.12-.25.02-.04.11-.08.11-.08,0,0-.04.1-.05.13-.01.03-.13.29-.11.29.02,0,.11-.13.17-.13.06,0,.16.14.13.15-.02.01-.11-.04-.14-.04-.03,0-.3.29-.26.28.04-.01.2-.18.2-.18,0,0-.05.13-.03.12.02-.01.19-.11.19-.11,0,0-.25.22-.21.22.04,0,.17-.07.17-.07l-.17.21s.14-.09.18-.09c.05,0,.14.04.14.04,0,0-.17.01-.19.02-.02,0-.19.25-.14.23.05-.02.13-.12.13-.12l-.05.14.24-.14-.33.34s.22-.17.26-.16c.03.01.19.19.19.19,0,0-.2-.1-.22-.1s-.33.38-.28.36c.04-.02.2-.11.25-.11s.12.2.1.2-.12-.06-.14-.06c-.02,0-.28.15-.28.15,0,0,.19-.03.25-.05.06,0,.17,0,.21-.02.04-.02.17-.07.17-.07,0,0-.13.08-.2.14-.07.05-.19.07-.19.07l.21.02s-.29.09-.37.12c-.06.03-.11.06-.16.08.04,0,.2,0,.24,0,.05,0,.26.03.26.03,0,0-.28.04-.31.04s-.08.03-.08.03l.3.03-.2.03s.14.05.18.06c.03.01.13.08.13.08,0,0-.26-.05-.32-.05s-.14.01-.14.01c0,0,.09,0,.15.03.04.02.05.04.05.04h-.14s.1.06.14.08c.03.01.07.04.07.04l-.22-.02.19.14s-.2-.05-.24-.05h-.03s.1.08.13.11c.02.04.04.08.04.08,0,0-.09-.02-.14-.04-.05-.02-.12-.04-.12-.04l.1.11-.17-.03.09.13-.17-.06s.08.05.08.08c0,.03-.03.19-.05.16-.03-.02-.03-.11-.06-.14-.02-.03-.05-.05-.05-.05,0,0-.07-.03-.12-.03.01.02.13.1.15.12l-.21-.02s.2.1.17.1c-.04,0-1.11-.09-1.18-.09-.07,0-.39.37-.46.4-.07.03-.22.22-.29.23-.07.01-.16.05-.16.05l-.12-.07Z"/><path class="cls-1" d="M9.37,11.91l-.13-.07s.26-.19.38-.29c.07-.06.13-.13.2-.21.05-.06.11-.12.17-.18.06-.05.1-.08.13-.1.05-.03.09-.06.13-.14.04-.11.04-.17.03-.25,0-.03,0-.07,0-.11.07-.01.09.03.11.08,0-.01.02-.04.02-.05.02-.06.03-.07.04-.07.01.12.01.23.02.24,0-.04.09-.25.09-.25h0s0,.02,0,.03c0,.07,0,.15,0,.2.02-.06.08-.14.09-.16l.03.17s.06-.13.07-.2c.04-.01.05.01.07.04,0,.02.02.04.03.05,0,0,0-.05.01-.08.02-.08.04-.13.07-.13.05.03.07.12.08.13-.04-.22-.05-.6-.02-.63l.13.03-.02-.22s.08.13.11.23c-.01-.07-.03-.17-.04-.2-.02-.07-.05-.2-.05-.2.03-.01.11.1.15.16-.04-.07-.1-.25-.11-.26,0,0-.04.04-.06.07-.02-.04-.01-.06,0-.09.04-.11.06-.16.08-.16.05,0,.1.15.1.16h0c-.05-.04-.09-.12-.11-.12,0,0-.04.09-.05.14h0s.03-.03.04-.03c.05,0,.13.33.13.33-.03-.02-.09-.09-.13-.14.01.04.03.1.04.13.02.04.05.29.03.31-.04-.04-.13-.33-.13-.33l.04.24-.14-.02s0,.33.01.61c-.04-.04-.06-.09-.08-.11,0,0-.02.07-.03.11,0,.05-.02.08-.03.09-.04.01-.05,0-.07-.05,0-.02-.02-.04-.03-.04,0,.09-.08.22-.09.22h0v-.03l-.03-.17c0,.07-.08.17-.09.19-.03,0-.04,0-.01-.17-.03.07-.06.14-.07.16-.03,0-.04,0-.04-.16-.02.06-.03.08-.05.08-.05-.08-.06-.1-.09-.11.02.03.02.06.02.09,0,.09.01.15-.04.27-.04.1-.09.12-.14.16-.04.02-.08.05-.13.1-.06.06-.12.12-.17.17-.07.08-.14.15-.21.21-.12.11-.36.25-.38.27l.12.03s.09-.04.15-.05c.04,0,.11-.07.16-.13.05-.04.09-.09.12-.1.03-.01.1-.09.18-.16.15-.15.25-.24.29-.24.04,0,.41.03.74.06.18.01.33.03.4.03-.04-.01-.09-.04-.14-.07h.19s-.03-.02-.05-.04c-.05-.04-.07-.06-.08-.07.07-.02.13,0,.14,0,0,0,.04.03.06.06.01.02.02.05.03.08,0,.02.02.06.03.06,0-.01.03-.12.03-.15,0-.01-.03-.04-.07-.06h0s.04,0,.06,0l.12.02-.11-.11h.19s-.12-.07-.12-.07c.02-.03.1-.01.14,0,.03.01.07.02.1.03,0-.01-.02-.03-.02-.04-.02-.02-.09-.08-.12-.11l-.04-.03h.08s.22.04.24.04l-.2-.11h.19s-.02-.02-.03-.02c-.04-.01-.13-.08-.14-.09h.12s-.01-.02-.03-.03c-.05-.03-.14-.03-.14-.03,0-.03.09-.05.14-.05.04,0,.16.02.24.04-.03-.01-.05-.03-.07-.03-.03-.01-.18-.06-.18-.06h0s.01,0,.02,0h0l.17-.06h-.3s.04-.07.08-.07c.02,0,.13-.02.22-.03-.06,0-.14-.01-.17-.01-.02,0-.08,0-.13,0-.05,0-.09,0-.11,0v-.02s0-.02,0-.02h.03s.08-.05.13-.08c.07-.03.36-.12.36-.12h-.14s.15,0,.15,0c0,.03-.29.12-.36.15-.03.01-.06.03-.09.04h.04c.05,0,.11,0,.13,0,.05,0,.26.03.26.03,0,.03-.28.08-.32.08-.03,0-.06.02-.07.03h.29s-.17.06-.17.06c.05,0,.13.03.15.04.04.01.13.07.14.08-.1.01-.28-.02-.32-.02,0,0-.01,0-.02,0,.01,0,.03.01.04.01.04.02.05.05.06.05h-.16c.05.01.12.06.14.07.04.01.07.04.07.05h-.01s-.02,0-.04,0h-.19s.2.12.2.12c-.08,0-.2,0-.23-.01.02.01.08.06.09.08.02.03.05.08.05.08-.02.02-.11,0-.15-.02-.05-.02-.12-.03-.12-.03l.12.08h-.19s.11.1.11.1l-.12-.02s.04.03.04.05c0,0-.02.18-.07.18-.03-.02-.04-.05-.05-.09,0-.02-.01-.05-.03-.07-.02-.03-.05-.05-.05-.05h0s-.02-.01-.05-.02c.01,0,.02.02.03.02.04.03.06.05.08.06h-.23c.2.06.19.07.19.09-.04.01-.23,0-.46-.02-.31-.02-.7-.05-.74-.05-.03,0-.17.14-.27.23-.1.09-.16.16-.19.17-.03.01-.08.06-.12.1-.07.06-.13.13-.18.13-.07,0-.15.05-.15.05h0ZM12.08,10.08s.12-.05.18-.1c.02-.02.05-.04.07-.06,0,0-.02.01-.03.01-.03.01-.08.02-.13.02-.03,0-.06,0-.08,0-.06.01-.25.05-.25.05,0,0,0,0,0,0,0,0,0-.01.02-.02.11-.09.23-.16.25-.16.01,0,.04.01.08.03.03,0,.06.03.06.03,0-.02-.08-.16-.1-.16-.03,0-.15.06-.2.09l-.04.02s.23-.39.28-.39c.03,0,.17.07.23.1-.1-.06-.18-.15-.2-.16-.02,0-.15.09-.24.16h0s.04-.05.06-.08l.24-.28-.21.17.02-.12s-.07.09-.1.1c-.04-.05.11-.25.13-.26.01,0,.06-.01.12-.02-.02,0-.04,0-.06,0-.03,0-.12.05-.17.09h0s0-.03.02-.04l.1-.16s-.11.07-.14.07c-.02-.02-.03-.03.09-.15-.03.02-.05.03-.06.04-.03,0-.04-.02,0-.1-.04.06-.13.15-.17.16-.03-.06.21-.32.25-.32.02,0,.05.01.07.03.02,0,.05.02.07.02,0-.02-.09-.12-.13-.12-.03,0-.08.05-.11.08-.03.03-.05.05-.06.05-.03-.03-.02-.06.06-.23.01-.03.03-.06.03-.07,0-.02.03-.08.05-.11-.02.02-.06.05-.07.07-.02.04-.12.25-.12.25-.03,0-.01-.13-.01-.15,0-.01,0-.16,0-.22,0,0,0,.01,0,.03-.01.06-.06.19-.06.19h0s0-.02,0-.04l-.08-.24-.07.29-.12-.21c.02.07.02.22.02.23-.03.02-.04.01-.09-.08-.01-.02-.03-.05-.03-.06l-.06-.08s.03.1.03.13c0,.05.05.15.08.23.02.05.03.08.04.1-.03.02-.04.02-.24-.25l.06.17-.06.02s-.03.03-.06.07c.02,0,.03-.02.05-.02.07.01.17.22.2.29l-.08-.03h0s-.01-.01-.01-.01l.09.04c-.08-.1-.16-.24-.2-.25h0s-.1.06-.12.08h0s0-.04.02-.06c.03-.08.08-.15.11-.15h.05l-.05-.17c.08.07.15.15.19.2,0,0,0-.02-.02-.03-.03-.08-.07-.18-.08-.24-.01-.08-.04-.21-.04-.21h0s.02.01.03.03l.1.1s.02.04.03.06c.01.02.03.06.04.07-.02-.05-.03-.25-.03-.25h0s.01.01.02.03l.12.2.07-.28.08.24s.03-.11.04-.15c.02-.07.06-.07.06-.07.01.02,0,.25,0,.27,0,0,0,.03,0,.05.02-.06.06-.14.07-.17.03-.05.11-.08.12-.09.02.02-.02.12-.03.15,0,0-.01.04-.03.07-.02.04-.05.12-.07.17,0,0,0,0,.01-.01.04-.04.09-.09.13-.09.06,0,.14.11.15.15l-.02.04s-.05-.01-.08-.02c-.02,0-.05-.02-.06-.02-.03.01-.24.23-.25.27.02-.02.12-.12.18-.19,0,.06-.01.12,0,.13,0-.02.17-.12.17-.12,0,0,0,0,0,0,0,0-.01.02-.03.04-.07.09-.15.17-.16.19,0-.02.1-.05.15-.08h0s0,.02,0,.02l-.11.17s.11-.08.14-.08c.05,0,.15.04.15.04,0,0,0,0-.01,0,0,0,0,.01-.02.01-.08.03-.14.03-.16.04-.02.02-.14.19-.14.21.02-.03.09-.1.11-.13h0s0,.03,0,.04l-.02.12.21-.16-.24.29c.06-.06.15-.11.18-.11.04.01.17.15.21.19-.12-.02-.22-.07-.23-.07-.02.01-.19.22-.25.31.09-.05.18-.09.21-.09.05,0,.12.17.12.2-.03.02-.06.01-.1,0-.02-.01-.06-.03-.06-.03-.01,0-.12.06-.21.11.05-.02.13-.03.17-.04.02,0,.06,0,.09,0,.05,0,.1,0,.12-.01.05-.02.17-.07.17-.07.02.03-.12.11-.18.17-.06.05-.18.07-.19.07h0ZM11.28,9.41l-.09-.33.11.13s0-.09-.02-.12c-.02-.06-.04-.14-.04-.15.02,0,.05.02.07.03-.02-.04-.01-.12-.01-.17.04,0,.08.1.09.12.01.02.04.06.05.08h0s-.07-.04-.08-.06c0-.02-.06-.12-.06-.12.03.07.03.17.03.18-.02.02-.02.03-.05,0,.01.02.02.05.03.08.02.06,0,.16,0,.17l-.12-.16.09.33h0Z"/><path class="cls-1" d="M10.31,11.02l-.02-.02c.05-.06.14-.16.15-.18.02-.04.03-.07.03-.07.03,0,.03.04,0,.08-.02.04-.15.18-.16.19h0Z"/><path class="cls-1" d="M10.37,11.05l-.02-.03c.11-.07.19-.26.19-.27.02.02-.05.21-.17.29h0Z"/><path class="cls-1" d="M10.58,10.97l-.02-.03s.09-.14.1-.18c.03.02-.03.16-.08.21h0Z"/><path class="cls-1" d="M10.61,11.06l-.02-.03c.21-.14.2-.42.2-.42.04.01.04.29-.19.45h0Z"/><path class="cls-1" d="M10.75,11.06l-.03-.02c.21-.23.21-.55.21-.56.03.01.03.34-.18.58h0Z"/><path class="cls-1" d="M10.82,11.1v-.03c.15-.09.16-.5.16-.55l.03-.03c0,.11,0,.51-.19.61h0Z"/><path class="cls-1" d="M11.09,10.8c0-.25-.08-.44-.08-.44.04,0,.11.18.12.44h-.04Z"/><path class="cls-1" d="M11.18,10.71h-.03c0-.28-.1-.47-.1-.47.03-.02.14.17.13.47h0Z"/><path class="cls-1" d="M11.21,10.69h-.04c.06-.63-.07-.7-.07-.7.03-.03.17.05.1.7h0Z"/><path class="cls-1" d="M11.3,10.41h-.03c.02-.27-.05-.37-.05-.37.03-.02.11.09.08.37h0Z"/><path class="cls-1" d="M11.39,10.22h-.03c.03-.2-.09-.46-.1-.46h0s.16.26.13.46h0Z"/><path class="cls-1" d="M11.4,10.6l-.02-.03c.25-.16.42-.24.49-.21-.05.02-.15.03-.47.24h0Z"/><path class="cls-1" d="M11.28,10.83l-.02-.03c.5-.35.61-.27.62-.26-.03.02-.12-.04-.6.29h0Z"/><path class="cls-1" d="M11.88,10.72s-.1-.02-.33,0v-.03c.2-.01.32,0,.35.04,0,0-.01,0-.02,0h0Z"/><path class="cls-1" d="M11.69,10.91s-.08-.03-.27-.02v-.03c.14-.01.24,0,.28.04,0,0,0,.01-.02.01h0Z"/><path class="cls-1" d="M11.56,9.97l-.03-.02c.34-.39.42-.42.42-.43,0,.03-.06.07-.4.45h0Z"/><path class="cls-1" d="M11.55,10.07l-.02-.03c.35-.23.39-.26.39-.26.02.03-.02.06-.37.29h0Z"/><path class="cls-1" d="M11.52,10.25l-.02-.02c.26-.25.37-.27.38-.27,0,.03-.11.05-.36.29h0Z"/><path class="cls-1" d="M11.51,10.36l-.02-.03c.45-.35.64-.28.64-.28,0,.03-.2-.03-.63.31h0Z"/><path class="cls-1" d="M11.45,10.47l-.02-.03c.19-.12.28-.15.34-.16l.05.02c-.09.03-.19.05-.36.17h0Z"/><path class="cls-1" d="M11.68,9.04c-.08-.41-.13-.58-.14-.58.05,0,.09.17.17.58h-.03Z"/><path class="cls-1" d="M11.73,9.05s.02-.19.02-.23c0-.03-.02-.27-.11-.4l.03-.02c.09.13.12.38.12.42,0,.04-.05.22-.05.22h0Z"/><path class="cls-1" d="M11.81,8.6s-.05-.06-.04-.26h.03c-.02.21,0,.26,0,.26h0Z"/><path class="cls-1" d="M11.8,8.83l-.03-.02c.05-.09.12-.29.12-.3.03.02-.04.21-.09.31h0Z"/><path class="cls-1" d="M11.67,9.29s.03-.08.09-.22c.06-.13.13-.31.18-.44h.03c-.05.14-.12.32-.18.45-.05.1-.08.18-.08.19l-.04.02h0Z"/><path class="cls-1" d="M11.68,9.53l-.03-.02c.26-.51.34-.58.35-.58.02.03-.07.1-.32.59h0Z"/><path class="cls-1" d="M11.69,9.61l-.03-.02c.29-.41.33-.51.33-.51.03.02-.01.12-.3.53h0Z"/><path class="cls-1" d="M11.64,9.8l-.03-.02c.33-.43.46-.48.47-.48.01.03-.12.08-.45.5h0Z"/><path class="cls-1" d="M11.44,10.02c-.04-.37-.18-.57-.19-.58.04-.01.18.19.22.57h-.03Z"/><path class="cls-1" d="M11.5,9.82s-.06-.32-.22-.57l.03-.02c.17.26.19.59.2.59h0Z"/><path class="cls-1" d="M11.53,9.67s.02-.25-.23-.66l.03-.02c.26.42.21.67.2.68h0Z"/><path class="cls-1" d="M11.58,9.8s.06-.34-.17-.77h.03c.24.43.14.76.14.77h0Z"/><path class="cls-1" d="M11.64,9.49s-.03-.16-.16-.48h.03c.13.32.13.48.13.48h0Z"/><path class="cls-1" d="M11.66,9.19s.04-.21-.33-.55l.02-.03c.39.37.31.57.31.58h0Z"/><path class="cls-1" d="M11.32,10.73s.02-.15.02-.2c0-.02,0-.05.01-.08-.02.05-.05.13-.09.22h-.03c.13-.32.15-.37.15-.38,0,0,0,0,0,0,0,0,0,.01,0,.02,0,.05-.01.17-.02.21,0,.06-.05.19-.06.2h0Z"/><path class="cls-1" d="M11.53,11.06c-.05,0-.31-.14-.55-.1v-.03c.27-.05.55.12.56.13,0,0,0,0,0,0h0Z"/><path class="cls-1" d="M11.34,11.09c-.06,0-.2-.03-.4-.04v-.03c.28.02.44.06.44.06,0,0-.02.01-.04.01h0Z"/><path class="cls-1" d="M11.63,10.99c-.07,0-.44-.14-.57-.14v-.03c.15,0,.56.17.58.18,0,0,0,0,0,0h0Z"/><path class="cls-8" d="M10.37,10.88s-.01-.04,0-.09c.02-.05.02-.14.02-.15h.03s0,.1-.02.16c-.02.05-.03.07-.04.07h0Z"/><path class="cls-14" d="M10.21,11.91c-.37-.18-.76-.69-.85-.71-.08-.02-.98.13-.97.11,0-.02.03-.16.06-.22.04-.06.15-.13.14-.13-.02,0-.25,0-.25,0,0,0-.1.12-.14.14-.04.02-.22.03-.27.06-.04.02-.12.1-.12.1,0,0-.02-.09-.02-.12,0-.02.04-.07.04-.07,0,0-.21,0-.19,0,.03,0,.03-.07.07-.11.04-.04.07-.09.13-.11s.12-.03.12-.03l-.1-.05s.1-.05.12-.05c.03,0,.13-.02.13-.02,0,0-.08-.08-.08-.12s-.07.12-.13.14c-.06.02-.17.03-.23.03s-.14.09-.14.09c0,0-.03-.09-.01-.12,0-.03.04-.05.04-.05h-.09s.02-.12.03-.13.05-.09.05-.09c0,0-.06-.05-.08-.08-.02-.03-.04-.12-.04-.12h.18s.15.05.15.05c0,0-.04-.07-.04-.09s-.03-.08-.02-.08c.02,0,.13.07.13.07,0,0-.03-.15-.08-.19-.05-.03-.27-.07-.32-.13-.04-.06-.1-.26-.12-.31-.02-.05-.07-.07-.07-.07h.14s-.02-.08-.03-.13c0-.05.02-.12.02-.12,0,0,.06.1.09.1.04,0,.09.06.09.06v-.06s.11.13.11.13c0,0,0-.09.03-.11.01-.02.06-.03.06-.03,0,0,0,.06.02.07,0,.02.05.14.05.16s-.02.29-.02.32c0,.03.1.21.1.21v-.2s-.05-.16-.05-.2c0-.04.02-.11.02-.11,0,0,.05.09.06.1.02,0,.06.1.06.1l.06-.11s-.14-.11-.16-.16c-.01-.05-.03-.16-.03-.16,0,0-.1-.05-.13-.08-.04-.03-.17-.26-.17-.26h.05s-.05-.11-.05-.16,0-.15,0-.15c0,0,.05.04.06.06,0,.02.07.03.07.03,0,0-.1-.22-.1-.31s.13-.26.13-.26l.06.11.13-.2s.06.09.06.12v.11s.09,0,.1,0c.02,0,.06.03.06.03,0,0-.06.03-.09.05-.03.02-.05.13-.08.14-.03,0-.13.08-.16.11s-.05.17-.05.17c0,0,.09.11.1.16,0,.04.01.15.01.15,0,0,.04.05.08.04.03,0,.07-.06.06-.09,0-.03-.1-.11-.11-.16,0-.04.01-.31.01-.31l.13.07s.07-.07.09-.11c.02-.04.04-.16.04-.16l.06.17s.04-.07.08-.09c.04-.02.12-.06.12-.06,0,0-.03.1-.03.11,0,.02,0,.3,0,.33-.02.03-.24.24-.25.25-.02.02-.02.14-.02.14l.16-.14s.02.07.03.12c0,.04,0,.08,0,.08,0,0,.08-.03.11-.04.03-.02.08.02.08.02,0,0-.03.07-.04.08-.02.02-.08.17-.1.2-.03.02-.18.08-.19.11-.02.03-.15.16-.18.21-.03.05-.03.15-.03.15,0,0,.05-.15.09-.18.04-.03.14-.15.14-.15l.03.12s.09-.07.13-.08c.03,0,.21-.05.21-.05,0,0-.12.1-.12.12s-.01.15-.06.19c-.04.03-.24.16-.26.16-.01,0-.03.07-.03.1,0,.02.03.05.03.05,0,0,.03-.05.06-.09.03-.03.02-.11.02-.11,0,0,.08.07.09.11,0,.04.02.2,0,.25s-.01.14,0,.16c.02.02.09.11.11.11,0,0-.11-.21-.09-.31.02-.1.09-.16.1-.21.02-.05.03-.1.03-.1,0,0,.07.09.09.12.02-.03.05-.06.08-.08.02.02.07.17.09.21.03-.04.06-.09.09-.12.03.05.08.17.07.23-.02.08-.06.14-.11.17-.05.03-.09.05-.09.05,0,0,.12.04.15.04.03,0,.08.02.08.02l-.19.06s.23.02.23,0c0-.02,0-.11-.03-.15-.03-.05-.04-.11-.04-.11,0,0,.08.02.11.02.04,0,.09,0,.09,0,0-.02-.07-.15-.05-.15s.24.2.24.16c0-.03.09-.21.09-.21,0,0,.08.15.09.17,0,.02,0,.09,0,.15s-.06.14-.06.14c0,0,.12.18.19.24.08.07.28.34.49.47.11.07.12.07.21.11l-.09.12Z"/><path class="cls-1" d="M10.22,11.92h0c-.23-.12-.47-.36-.65-.54-.09-.09-.17-.17-.2-.18-.11,0-.36.03-.58.06-.18.02-.33.05-.38.05h-.01s0-.05,0-.05c0-.05.03-.14.06-.19.03-.04.08-.08.11-.11.02,0-.21,0-.21,0,0,0-.1.12-.14.13-.02,0-.06.02-.11.02-.06,0-.13.02-.16.03-.04.02-.12.09-.12.09-.02,0-.04-.09-.04-.12,0-.02.02-.06.03-.07-.02,0-.09.01-.13.01h-.03c.09-.02.18-.03.18-.03,0,.04-.02.07-.02.08,0,.02,0,.08.01.11,0-.02.06-.08.1-.1.03-.02.09-.03.16-.04.05,0,.09-.02.11-.02.03-.01.11-.1.14-.14,0,0,.24-.01.25-.01h0s-.02.04-.02.04c-.03.02-.08.06-.11.1-.03.05-.05.13-.06.18.04.02.19,0,.36-.02.22-.03.47-.07.56-.07.07.01.14.08.24.19.17.17.4.41.63.53l.09-.12-.07-.02s-.07-.04-.14-.08c-.15-.09-.3-.26-.4-.37-.04-.05-.07-.09-.1-.1-.08-.06-.19-.24-.2-.25,0-.01.06-.09.06-.15,0-.07,0-.12-.01-.14,0-.02-.09-.17-.09-.17-.02.07-.07.18-.07.2-.03.01-.08-.02-.16-.09-.04-.03-.08-.06-.09-.06,0,0,.03.05.04.07.01.04.02.05.02.06h0s-.05.02-.05.02h-.06s-.08-.02-.1-.03c.01.01.02.05.04.09.02.04.03.12.03.16h0s-.05.02-.05.02c-.06,0-.19-.01-.19-.01h0s.01,0,.02,0l.14-.06s-.04-.01-.06-.01c-.04,0-.15-.04-.15-.04,0-.02.04-.04.09-.07.05-.03.08-.09.11-.17,0-.05-.03-.17-.06-.21-.02.03-.05.08-.08.12-.04-.06-.08-.19-.1-.21-.02.02-.04.04-.07.07-.02-.03-.07-.08-.09-.11,0,.02,0,.05-.01.08,0,.02-.02.04-.03.06-.03.04-.05.09-.07.15,0,.06.04.17.06.24.02.05.03.06.02.07-.04.01-.12-.09-.13-.11-.02-.03,0-.14,0-.17,0-.04,0-.21,0-.24,0-.02-.04-.06-.07-.09,0,.02,0,.07-.02.09-.03.03-.06.08-.06.09-.02,0-.05-.04-.05-.06s.01-.1.04-.11c.02,0,.22-.13.26-.16.04-.03.06-.15.06-.18s.08-.1.12-.13l-.2.07s-.1.05-.12.07l-.04-.12s-.09.12-.13.15c-.03.02-.08.13-.09.17-.02,0-.02-.11.01-.16.02-.03.07-.09.11-.14.03-.04.05-.06.06-.07,0-.01.05-.03.11-.06.03-.02.08-.04.09-.05,0-.01.04-.07.05-.11.02-.05.04-.08.05-.09,0-.01.03-.06.04-.08,0,0-.03,0-.05,0-.04.02-.12.04-.12.04-.02,0-.02-.05-.02-.09,0-.04-.03-.11-.03-.11l-.14.14s-.02-.14,0-.16c.16-.15.24-.23.25-.25,0,0,.01-.06,0-.31,0-.03.01-.09.03-.12-.02.02-.08.05-.11.07-.03,0-.06.06-.08.08l-.07-.16s-.02.11-.03.14c-.02.04-.09.12-.09.12l-.15-.07c0,.06,0,.27,0,.3,0,.02.03.05.06.08.03.03.05.05.05.07,0,.02,0,.04,0,.06-.02.02-.04.04-.05.05-.05,0-.08-.04-.09-.05,0,0,0-.11-.02-.15,0-.03-.07-.12-.09-.15,0-.02.02-.16.05-.18.02-.03.14-.1.16-.11,0,0,.03-.04.04-.07,0-.03.02-.06.04-.07.03-.03.09-.05.09-.05-.02,0-.05-.01-.05-.01-.02,0-.1,0-.1,0v-.12s-.04-.07-.06-.11l-.12.2-.08-.1s-.12.17-.12.25.1.3.1.3c-.03.01-.08,0-.09-.01,0,0-.03-.03-.05-.05,0,.02,0,.09,0,.13,0,.05.05.15.05.15h-.06c.06.08.15.23.18.26.03.03.13.08.13.08,0,0,.02.11.04.16.02.04.12.13.16.16l-.05.12s-.07-.09-.08-.09c-.01,0-.04-.05-.06-.08,0,.02,0,.06,0,.08,0,.02.01.06.02.1.01.04.03.07.03.1v.2s-.12-.19-.12-.21c0-.01,0-.08,0-.16,0-.07,0-.15,0-.16,0-.02-.05-.14-.06-.16,0-.02-.02-.07-.02-.08,0,.01-.03.03-.04.04,0,0-.02.06-.02.1l-.12-.13v.05s-.06-.05-.09-.05c-.03,0-.07-.06-.09-.09,0,.02-.01.07,0,.11l.03.13h-.12s.04.04.05.07l.02.05c.03.08.07.21.1.26.02.03.12.06.2.09.05.02.09.03.12.04.05.04.09.19.09.19-.07-.02-.13-.06-.15-.06.02.04.03.06.03.07,0,.01.02.06.04.09-.05,0-.13-.03-.16-.03h-.17s.03.07.04.1c.01.02.06.06.08.08,0,.01-.04.08-.05.1,0,.01-.03.09-.04.14l.08-.02s-.02.04-.03.06c0,.03.01.09.02.11,0-.02.08-.09.13-.09.06,0,.17-.02.23-.03.03,0,.07-.07.09-.1.02-.03.03-.04.04-.04.01.03.05.09.08.12-.01.02-.1.04-.13.04-.01,0-.08.03-.12.05l.1.03-.12.05c-.06.02-.1.06-.13.1-.02.02-.03.04-.03.06-.01.02-.02.04-.04.05h-.02s.02-.04.03-.06c0-.02.02-.04.04-.06.03-.04.08-.09.14-.11l.12-.03-.1-.03s.1-.07.12-.07.1-.02.12-.02c-.02,0-.07-.05-.08-.09,0,0,0,.01-.01.02-.03.04-.07.1-.11.11-.06.02-.18.04-.24.04-.04,0-.11.06-.14.09-.02-.01-.04-.1-.03-.13.01-.04.04-.06.05-.06l-.09.03s.01-.14.02-.15c.01-.02.05-.08.05-.09,0,0-.06-.04-.08-.07-.02-.03-.04-.12-.04-.12h.18s.1.01.14.03c-.02-.02-.04-.05-.04-.07l-.02-.09s.12.05.15.07c-.03-.03-.06-.14-.09-.17-.02-.01-.07-.03-.11-.04-.09-.03-.19-.05-.21-.09-.03-.05-.08-.18-.1-.26l-.02-.05s-.06-.07-.06-.07h0s.02,0,.02,0l.12-.02-.04-.12c0-.05.02-.12.02-.13.04.04.08.09.1.09.04,0,.09.05.09.06v-.05s.1.12.1.12c0-.02,0-.09.02-.1.02-.02.06-.03.06-.03.02.03.03.07.03.08,0,.01.06.14.06.17,0,.01,0,.09,0,.16,0,.07,0,.15,0,.16,0,.01.05.12.1.21l-.02-.19s0-.06-.02-.09c-.02-.04-.03-.09-.03-.11,0-.04.02-.11.02-.11.04.04.07.09.08.09.02,0,.06.08.07.1l.04-.11s-.14-.1-.16-.15c-.01-.05-.03-.15-.03-.16,0,0-.1-.04-.13-.08-.03-.03-.16-.25-.17-.27h.05s-.06-.11-.06-.16c0-.05.01-.15.01-.15h0s.07.04.08.05c0,0,.04.01.06.02-.02-.01-.11-.21-.11-.3,0-.09.13-.26.14-.27l.08.11.12-.2s.08.09.08.12v.1s.08,0,.09,0c.02,0,.05.03.07.03,0,.02-.07.04-.09.07-.01,0-.02.04-.03.06-.02.05-.03.07-.05.08-.02,0-.13.08-.16.1-.01.01-.04.11-.05.17h0s.08.11.09.15c0,.04.02.15.02.15,0,0,.03.03.05.03.02,0,.04-.02.05-.04,0-.01.01-.03.01-.04,0-.01-.03-.04-.05-.06-.03-.03-.06-.07-.07-.09,0-.04,0-.3.01-.31l.15.07s.06-.07.08-.11c.02-.04.04-.15.04-.15h0s0,.01,0,.02l.06.15s.04-.07.08-.09c.04-.02.12-.06.12-.06,0,.06-.02.11-.02.12,0,.22,0,.32,0,.34-.02.03-.13.14-.24.24-.03.03-.03.09-.03.15l.14-.15s.03.08.04.12c0,.04,0,.08,0,.08.01-.02.07-.04.1-.05.05,0,.09.01.09.01,0,.02-.02.08-.04.1,0,0-.03.05-.04.08-.02.06-.04.1-.06.12-.01.01-.05.03-.09.05-.04.02-.09.04-.1.05,0,.01-.03.04-.06.08-.04.05-.09.11-.11.14-.02.02-.02.06-.03.09.02-.05.04-.11.07-.13.04-.03.14-.15.14-.15l.04.12s.08-.07.11-.08l.21-.05c-.05.06-.11.12-.11.13,0,.02-.02.16-.07.2-.03.02-.12.08-.18.12.03.01.08.07.09.1,0,.03.01.15,0,.22,0,0,0,0,0-.01,0-.06.04-.11.07-.16.01-.02.03-.04.03-.06.01-.05.02-.1.02-.1.02,0,.09.08.1.12,0-.04.03-.06.07-.08.03.03.09.18.1.22.01-.05.05-.1.08-.13.05.04.1.17.08.23-.02.08-.07.14-.12.17-.05.03-.09.05-.09.05.04-.01.12.02.15.02.04,0,.08.03.09.03h0s0,0-.01,0l-.14.06s.12,0,.16,0c.03-.06.02-.12,0-.15-.03-.05-.04-.11-.04-.11.01-.01.09.01.12.01h.06s.01-.03,0-.05c-.03-.07-.04-.09-.03-.1.02,0,.03,0,.11.06.05.04.12.1.14.1,0-.03.07-.17.09-.2.02,0,.1.15.11.18.01.04.01.12.01.15,0,.06-.06.14-.06.15h0s.12.17.19.23c.02.02.05.06.1.1.1.11.24.28.39.37.08.05.11.06.15.08l.06.04-.09.14h0ZM8.32,10.54v.03s-.02.14,0,.15c.02.03.07.08.09.1,0,0-.01-.03-.02-.04-.03-.07-.07-.17-.07-.23h0ZM8.21,10.23s-.05.03-.06.04c-.01,0-.03.06-.03.09,0,.01.01.03.02.04,0-.02.02-.06.05-.08.02-.02.02-.06.02-.08h0Z"/><path class="cls-1" d="M7.55,10.62h-.02c.04-.06.09-.06.12-.07.02,0,.04,0,.06-.01.05-.02.14-.07.14-.07.01.02-.08.07-.13.09-.02,0-.04.01-.06.01-.04,0-.08.01-.11.05h0Z"/><path class="cls-1" d="M7.63,10.68s.1-.05.14-.07c.02,0,.04-.04.07-.08.04-.06.1-.13.16-.17v.02s-.1.11-.14.17c-.03.04-.06.07-.08.08-.04.02-.15.05-.15.05h0Z"/><path class="cls-1" d="M7.65,10.72v-.02s.14-.01.17-.04c.04-.03.09-.08.09-.08.02.02-.04.06-.08.09-.04.04-.17.04-.18.04h0Z"/><path class="cls-1" d="M7.8,11.01v-.02c.14-.01.31-.06.32-.06.01.03-.28.08-.32.08h0Z"/><path class="cls-1" d="M7.95,11.1h-.01v-.02c.16.01.32-.16.32-.16.01.02-.14.18-.31.18h0Z"/><path class="cls-1" d="M8.33,10.92c-.12,0-.25-.02-.34-.07v-.02c.21.11.67.04.67.04,0,.01-.17.04-.34.04h0Z"/><path class="cls-1" d="M8.5,10.8s.01-.05.03-.33h.02c-.01.33-.03.33-.04.33h0Z"/><path class="cls-2" d="M8.43,10.64c.01-.09.02-.12.02-.12l-.02.12Z"/><path class="cls-2" d="M8.48,10.36s0,.11,0,.11v-.11Z"/><path class="cls-1" d="M8.63,10.74h-.02c.04-.09.04-.16.04-.16.02,0,.02.08-.02.16h0Z"/><path class="cls-2" d="M8.61,10.54v.06s0-.06,0-.06Z"/><path class="cls-2" d="M8.75,10.59c-.03.08-.05.08-.05.08l.05-.08Z"/><path class="cls-1" d="M9.18,10.89s-.17-.14-.27-.19v-.02c.11.05.27.2.27.21h0Z"/><path class="cls-1" d="M9.27,10.84s-.09-.09-.17-.14v-.02c.09.05.17.15.17.16h0Z"/><path class="cls-1" d="M9.31,10.98s.06-.14-.04-.25l.02-.02c.11.12.03.27.03.27h0Z"/><path class="cls-2" d="M9.39,10.62l-.03.2.03-.2Z"/><path class="cls-1" d="M7.58,9.88s-.07-.04-.1-.08c-.02-.02-.03-.05-.03-.08,0-.02,0-.04,0-.05-.04-.05-.07-.11-.16-.13v-.02c.11.03.14.09.17.12.02.04.03.06.03.08,0,.02,0,.05.02.07.03.04.09.09.09.09,0,0,0,0,0,0h0Z"/><path class="cls-1" d="M7.76,10.02s-.05-.07-.07-.1h0l-.06-.03s-.05-.06-.07-.11c-.01-.02-.02-.04-.02-.04v-.04c0-.06,0-.15-.16-.17v-.02c.18.01.18.13.18.19,0,.03.02.05.02.07.02.03.04.09.06.1.04.01.05.01.07.04.03.04.06.1.06.11,0,0,0,0,0,0h0Z"/><path class="cls-1" d="M7.48,9.53s0-.05-.05-.1c-.05-.05-.06-.06-.06-.06v-.02s.03.01.08.07c.05.06.04.11.03.11h0Z"/><path class="cls-1" d="M7.64,9.69s-.1-.13-.05-.24h.02c-.04.12.03.24.03.24h0Z"/><path class="cls-1" d="M7.7,9.72s.05-.15-.04-.22v-.02c.12.08.04.23.04.24h0Z"/><path class="cls-2" d="M7.68,9.78v.12s0-.12,0-.12Z"/><path class="cls-2" d="M7.95,9.42c.07.03.07.12.07.12l-.07-.12Z"/><path class="cls-1" d="M8.08,10.1s-.02-.01.02-.07c.04-.06.1-.22.1-.22h.02s-.06.17-.1.23c-.04.05-.04.06-.04.06h0Z"/><path class="cls-1" d="M8.06,10.28h-.02c.06-.2.16-.24.16-.24,0,.02-.09.05-.14.24h0Z"/><path class="cls-1" d="M8.16,10.13v-.02c.16-.06.3-.27.3-.27.02.02-.12.23-.3.29h0Z"/><path class="cls-1" d="M7.56,10.5v-.02c.12-.07.16-.07.2-.07.02,0,.04,0,.06,0,.08-.02.12-.08.12-.08.01.01-.03.07-.11.1-.03,0-.05,0-.07,0-.04,0-.08,0-.2.07h0Z"/><path class="cls-1" d="M7.75,10.38s-.19-.08-.29-.06v-.02c.12-.02.29.07.3.08h0Z"/><path class="cls-1" d="M7.91,10.33s-.05-.11-.19-.12v-.02c.16.02.19.14.19.15h0Z"/><path class="cls-1" d="M8.22,10.82s-.06-.03-.31-.01v-.02c.28-.02.31.02.31.03h0Z"/><path class="cls-2" d="M8.13,10.55c0-.11,0-.13,0-.13v.13Z"/><path class="cls-1" d="M8.07,9.89h-.02c.13-.23.26-.36.26-.36.02.02-.12.15-.24.36h0Z"/><path class="cls-1" d="M8.31,9.62h-.01c.06-.06.2-.26.2-.26,0,.02-.12.21-.19.26h0Z"/><path class="cls-1" d="M8.1,9.61c0-.1,0-.16-.02-.21,0-.1-.02-.14.02-.2.03-.05.07-.09.11-.12.03-.03.06-.05.07-.08.03-.08.05-.15.05-.23,0-.1.08-.18.09-.19,0,.02-.07.09-.07.19,0,.08-.02.15-.04.2-.03.06-.05.09-.09.12-.04.04-.08.07-.11.12-.03.06-.03.09-.02.19,0,.05.01.12.02.21h-.02Z"/><path class="cls-1" d="M8.1,9.43s-.07-.19-.05-.26c0-.02.03-.04.05-.07.08-.08.21-.2.15-.44h.02c.06.24-.07.38-.15.46-.03.02-.04.04-.05.06-.02.06.03.25.03.25h0Z"/><path class="cls-1" d="M7.85,9.27s-.14-.11-.28-.21v-.02c.16.11.28.22.28.22h0Z"/><path class="cls-1" d="M7.88,9.18s-.07-.02-.11-.04c-.02,0-.05-.02-.08-.04-.03-.01-.05-.03-.06-.03v-.02s.04.01.07.03c.03.01.05.03.08.04.05.01.12.05.12.05,0,0,0,0-.01,0h0Z"/><path class="cls-1" d="M7.8,9.09s-.01-.04-.05-.09c0-.01-.03-.03-.05-.05-.05-.04-.12-.1-.13-.18h.02c0,.07.07.12.12.17.03.02.05.04.06.05.04.05.03.1.03.1h0Z"/><path class="cls-1" d="M8.03,9.05c0-.13.02-.3.02-.3.02,0,0,.18,0,.3h-.02Z"/><path class="cls-1" d="M8.13,9s.05-.15.05-.31h.02c0,.16-.06.3-.07.31h0Z"/><path class="cls-1" d="M8.03,9c-.03-.07-.03-.1-.04-.13,0-.02,0-.03,0-.05-.02-.06-.03-.08-.03-.08.02-.01.03,0,.05.07,0,.02,0,.04.01.05,0,.03.01.06.04.12h-.02Z"/><path class="cls-1" d="M7.79,8.82h-.02c0-.14.04-.21.06-.25.02-.03.03-.05.02-.08-.02-.07-.03-.11-.03-.11.02,0,.04.04.05.11,0,.03,0,.06-.02.09-.02.05-.05.11-.06.25h0Z"/><path class="cls-1" d="M7.86,8.53s.05-.12.14-.16v.02c-.08.04-.14.14-.14.14h0Z"/><path class="cls-1" d="M7.83,8.71h-.02c.05-.12.1-.2.15-.24.05-.04.12-.03.13-.03,0,.02-.07,0-.12.04-.05.04-.1.12-.15.22h0Z"/><path class="cls-2" d="M7.74,8.38c0,.07.03.15.03.15l-.03-.15Z"/><path class="cls-1" d="M7.85,8.47h-.02c.06-.12.08-.28.08-.28.02,0,0,.17-.07.28h0Z"/><path class="cls-1" d="M8.21,9.61h-.02c.02-.17.12-.38.12-.38.02.01-.08.22-.1.38h0Z"/><path class="cls-4" d="M7.78,8.8s-.03-.06-.05-.06c-.03,0-.05.03-.05.06,0,.03.03.06.05.06.03,0,.05-.03.05-.06h0Z"/><path class="cls-1" d="M7.73,8.87s-.07-.03-.07-.07c0-.08.13-.08.13,0,0,.04-.03.07-.06.07h0Z"/><path class="cls-4" d="M7.87,8.89s-.03-.06-.05-.06c-.03,0-.05.03-.05.06,0,.04.02.06.05.06.03,0,.05-.03.05-.06h0Z"/><path class="cls-1" d="M7.82,8.96s-.07-.03-.07-.07c0-.08.13-.08.13,0,0,.04-.03.07-.06.07h0Z"/><path class="cls-4" d="M8.07,9.32s-.03-.06-.05-.06-.05.03-.05.06c0,.03.02.06.05.06s.05-.03.05-.06h0Z"/><path class="cls-1" d="M8.01,9.39s-.06-.03-.06-.07c0-.08.13-.08.13,0,0,.04-.03.07-.07.07h0Z"/><path class="cls-4" d="M8.17,9.39s-.02-.06-.05-.06c-.03,0-.05.03-.05.06s.03.06.05.06c.03,0,.05-.03.05-.06h0Z"/><path class="cls-1" d="M8.12,9.46s-.06-.03-.06-.07c0-.08.13-.08.13,0,0,.04-.03.07-.06.07h0Z"/><path class="cls-4" d="M7.78,10.02s-.02-.06-.05-.06-.05.03-.05.06.02.06.05.06.05-.03.05-.06h0Z"/><path class="cls-1" d="M7.73,10.09s-.06-.04-.06-.07c0-.08.13-.08.13,0,0,.04-.03.07-.06.07h0Z"/><path class="cls-4" d="M8.04,10.15s-.02-.06-.05-.06c-.03,0-.05.02-.05.06,0,.03.03.06.05.06.03,0,.05-.03.05-.06h0Z"/><path class="cls-1" d="M7.99,10.22s-.06-.03-.06-.07c0-.08.12-.08.12,0,0,.04-.03.07-.06.07h0Z"/><path class="cls-4" d="M8.2,10.67s-.03-.06-.05-.06-.05.03-.05.06.02.06.05.06.05-.03.05-.06h0Z"/><path class="cls-1" d="M8.15,10.75s-.06-.03-.06-.07c0-.08.13-.08.13,0,0,.04-.03.07-.06.07h0Z"/><path class="cls-4" d="M8.48,10.82s-.03-.06-.05-.06c-.03,0-.05.03-.05.06s.03.06.05.06c.03,0,.05-.03.05-.06h0Z"/><path class="cls-1" d="M8.42,10.89s-.07-.03-.07-.07c0-.08.13-.08.13,0,0,.04-.03.07-.06.07h0Z"/><path class="cls-4" d="M8.62,10.81s-.03-.06-.05-.06-.05.03-.05.06.02.06.05.06.05-.03.05-.06h0Z"/><path class="cls-1" d="M8.57,10.88s-.06-.03-.06-.07c0-.08.13-.08.13,0,0,.04-.03.07-.07.07h0Z"/><path class="cls-4" d="M9.06,10.91s-.02-.06-.05-.06-.05.03-.05.06c0,.03.02.06.05.06s.05-.03.05-.06h0Z"/><path class="cls-1" d="M9,10.98s-.06-.03-.06-.07c0-.08.13-.08.13,0,0,.04-.03.07-.06.07h0Z"/><path class="cls-2" d="M12.16,11.75c-.07-.11-.11-.12-.11-.12l.11.12Z"/><path class="cls-2" d="M12.14,11.79c-.07-.11-.11-.12-.11-.12l.11.12Z"/><path class="cls-2" d="M12.11,11.82c-.07-.11-.11-.12-.11-.12l.11.12Z"/><path class="cls-2" d="M12.08,11.86c-.06-.11-.11-.12-.11-.12l.11.12Z"/><path class="cls-2" d="M12.05,11.89c-.07-.11-.11-.12-.11-.12l.11.12Z"/><path class="cls-2" d="M12.03,11.93c-.07-.11-.11-.12-.11-.12l.11.12Z"/><path class="cls-2" d="M12,11.95c-.07-.11-.11-.12-.11-.12l.11.12Z"/><path class="cls-2" d="M11.97,11.99c-.07-.11-.12-.12-.12-.12l.12.12Z"/><path class="cls-2" d="M11.94,12.02c-.06-.11-.11-.12-.11-.12l.11.12Z"/><g class="cls-32"><path class="cls-6" d="M12.09,11.66c-.16-.16-.37-.11-.45-.12-.05-.05-.17-.11-.25-.07-.08.04-.13.21-.13.24,0,.05.09.09.16.09.08,0,.24,0,.3.01.06,0,.13.1.13.1,0,0,.17-.21.24-.25h0Z"/></g><path class="cls-9" d="M11.85,11.94v-.02s-.09-.09-.13-.09c-.03,0-.09,0-.14,0-.06,0-.12,0-.15,0-.07,0-.18-.05-.18-.11,0-.03.05-.21.14-.25.08-.03.21.02.27.08h.12c.09,0,.22,0,.33.12-.08.07-.24.27-.24.27v.02h-.01ZM11.44,11.48s-.03,0-.05,0c-.07.03-.12.2-.12.22,0,.03.07.07.14.08.04,0,.09,0,.15,0,.06,0,.12,0,.15,0,.05,0,.11.06.13.09.04-.05.17-.2.23-.24-.1-.07-.22-.08-.31-.08h-.1s-.04,0-.04,0c-.04-.04-.12-.08-.19-.08h0Z"/><g class="cls-28"><path class="cls-6" d="M11.62,11.65c0-.08-.05-.12-.11-.12-.07.02-.35.14-.46.14-.09,0-.26-.09-.26-.15s.23-.14.23-.14l.16.05s.21-.1.33-.1.2.08.19.14c0,.06-.1.19-.1.18h0Z"/></g><path class="cls-9" d="M11.05,11.69s-.11-.02-.17-.06c-.03-.02-.1-.06-.1-.11,0-.07.19-.14.25-.16l.17.05s.2-.1.32-.1c.07,0,.13.02.18.07.02.03.03.06.03.09,0,.05-.09.19-.12.19-.02-.08-.05-.12-.09-.12-.04,0-.09.03-.15.05-.11.04-.25.09-.32.09h0ZM11.03,11.39c-.1.04-.21.1-.21.13,0,.01.03.05.08.08.05.03.11.05.15.05v.02-.02c.07,0,.21-.05.32-.09.06-.02.12-.04.14-.05.07,0,.12.04.12.12,0-.04.07-.13.07-.17,0-.02,0-.04-.03-.06-.03-.04-.08-.06-.15-.06-.12,0-.32.1-.32.1l-.18-.05h0Z"/><path class="cls-9" d="M11.52,11.71h-.02c-.05,0-.11-.02-.14-.02-.05,0-.07,0-.09.02-.02-.03.01-.07.04-.07.01,0,.03,0,.05,0,.04,0,.09.02.14.02.11,0,.11-.05.11-.07h.04s-.03.1-.13.1h0Z"/><path class="cls-9" d="M7.44,11.76l-.03-.02c.06-.11.12-.12.12-.13,0,.03-.03.05-.09.15h0Z"/><path class="cls-9" d="M7.46,11.8l-.03-.02c.06-.11.12-.13.12-.13,0,.03-.03.05-.09.15h0Z"/><path class="cls-9" d="M7.5,11.83l-.03-.02c.07-.11.12-.13.13-.13,0,.03-.04.04-.1.14h0Z"/><path class="cls-9" d="M7.52,11.87l-.03-.02c.07-.11.12-.13.12-.13,0,.03-.03.04-.09.14h0Z"/><path class="cls-9" d="M7.55,11.9l-.03-.02c.07-.11.12-.12.12-.13.01.03-.03.05-.09.14h0Z"/><path class="cls-9" d="M7.58,11.93l-.03-.02c.07-.11.12-.13.12-.13,0,.03-.03.05-.09.15h0Z"/><path class="cls-9" d="M7.61,11.96l-.03-.02c.07-.11.12-.12.12-.13.01.03-.03.05-.09.15h0Z"/><path class="cls-9" d="M7.63,12l-.03-.02c.07-.11.12-.13.12-.13,0,.03-.03.05-.1.15h0Z"/><path class="cls-9" d="M7.66,12.03l-.03-.02c.07-.11.12-.13.12-.13.01.03-.03.04-.09.14h0Z"/><g class="cls-27"><path class="cls-6" d="M7.5,11.66c.16-.16.37-.11.46-.12.05-.05.16-.11.25-.07.08.04.13.21.13.24,0,.05-.09.09-.16.09-.08,0-.24,0-.3.01-.05,0-.13.1-.13.1,0,0-.16-.21-.24-.25h0Z"/></g><path class="cls-9" d="M7.74,11.94v-.02s-.18-.21-.25-.25c.1-.13.23-.15.33-.15h.1c.09-.05.21-.1.29-.07.09.04.14.22.14.25,0,.06-.1.1-.18.11-.04,0-.09,0-.15,0-.06,0-.12,0-.15,0-.04,0-.1.07-.12.09v.02h-.01ZM7.82,11.56c-.09,0-.21.01-.31.11.06.02.19.16.23.21.03-.03.08-.08.13-.09.03,0,.09,0,.14,0,.06,0,.12,0,.15,0,.07,0,.14-.04.14-.08,0-.02-.05-.19-.12-.22-.07-.03-.18.02-.23.07h0s-.04,0-.04,0h-.1Z"/><g class="cls-26"><path class="cls-6" d="M7.98,11.65c0-.08.05-.12.11-.12.07.02.35.14.45.14.09,0,.26-.09.26-.15s-.24-.14-.24-.14l-.16.05s-.21-.1-.33-.1-.2.08-.19.14c0,.06.1.19.1.18h0Z"/></g><path class="cls-9" d="M8.54,11.69h0c-.07,0-.21-.06-.32-.1-.06-.02-.12-.04-.14-.05-.04,0-.09.04-.09.1-.04.02-.13-.13-.13-.18,0-.03,0-.06.03-.09.04-.04.1-.07.17-.07.13,0,.33.1.34.1l.15-.05c.07.02.26.09.26.16s-.17.17-.27.17h0ZM8.06,11.51s.1.03.16.05c.11.04.24.09.31.09v.02s0-.02,0-.02c.09,0,.23-.09.23-.14,0-.03-.12-.09-.22-.13l-.15.05s-.22-.1-.34-.1c-.06,0-.12.02-.15.06-.02.02-.03.04-.03.06,0,.05.08.16.09.17-.03-.07.03-.12.08-.12h0Z"/><path class="cls-9" d="M8.07,11.71c-.11,0-.13-.06-.13-.09h.03s.04.07.11.06c.05,0,.1-.02.14-.02.02,0,.04,0,.05,0,.03,0,.06.04.07.05-.04,0-.06,0-.07,0,0,0-.02,0-.04,0-.04,0-.09.02-.14.02h-.02Z"/><g class="cls-30"><path class="cls-6" d="M9.82,10.97c-1.1-.03-1.55.19-1.55.34,0,.15.13.27.21.27s.26-.1.25-.13c-.03-.02-.03-.04-.02-.05.02-.01.42-.09,1.12-.09s1.09.07,1.1.09c0,.03-.05.04-.09.08.16-.01.2.08.27.09.07,0,.21-.1.22-.25,0-.16-.46-.33-1.5-.35h0Z"/></g><path class="cls-9" d="M8.47,11.6s-.09-.03-.14-.07c-.05-.06-.09-.14-.09-.22,0-.17.45-.36,1.4-.36h.17c.78.02,1.33.12,1.48.28.03.03.04.06.04.09,0,.15-.14.27-.23.27h0s-.07-.02-.09-.04c-.04-.02-.08-.05-.15-.05h-.04v-.03s.03-.03.04-.04c.01,0,.03-.02.03-.03-.03-.01-.41-.08-1.08-.08s-1.08.08-1.11.09h.02s0,.06,0,.06c-.04.05-.19.12-.25.12h0ZM9.64,10.98c-.98,0-1.36.2-1.36.33,0,.07.03.14.08.19.04.04.08.06.11.06.07,0,.23-.08.23-.11-.02,0-.03-.02-.03-.03.05-.05.45-.12,1.14-.12.61,0,1.1.06,1.11.11,0,.03-.02.04-.05.06-.01,0-.03.02-.04.04.1-.03.15,0,.19.03.03.02.04.03.07.03h0c.07,0,.2-.1.2-.24,0-.02,0-.04-.03-.06-.05-.06-.32-.24-1.46-.27h-.17Z"/><polygon class="cls-3" points="8.63 11.34 8.57 11.17 8.67 11.13 8.67 11.15 8.59 11.18 8.61 11.23 8.69 11.21 8.7 11.23 8.62 11.25 8.64 11.31 8.73 11.28 8.73 11.3 8.63 11.34"/><path class="cls-3" d="M8.98,11.08h.02v.11s0,.03,0,.04c0,.01,0,.02-.02.03,0,0-.02.01-.04.01-.02,0-.03,0-.04,0,0,0-.02-.01-.02-.02,0-.01,0-.03,0-.05v-.11s0,0,0,0v.11s.02.03.02.04c0,0,.01.01.02.02,0,0,.01,0,.03,0,.01,0,.03,0,.03-.02,0,0,0-.02,0-.05v-.11Z"/><polygon class="cls-3" points="9.2 11.24 9.2 11.06 9.22 11.06 9.22 11.22 9.29 11.22 9.29 11.24 9.2 11.24"/><rect class="cls-3" x="9.33" y="11.06" width=".03" height=".19"/><path class="cls-3" d="M9.5,11.18h.02s0,.04-.02.05c0,0-.02.02-.04.02-.02,0-.03,0-.04-.01,0,0,0-.02-.02-.04,0-.02,0-.03,0-.05s0-.04,0-.05c0-.02,0-.03.02-.03.01,0,.02-.01.03-.01.01,0,.03,0,.04.02.01,0,.02.03.02.04h-.02s0-.02-.01-.02c0,0-.01,0-.02,0-.01,0-.02,0-.03,0,0,0-.01.02-.02.03,0,.01,0,.02,0,.04,0,.02,0,.03,0,.04,0,0,.01.02.02.03,0,0,.02,0,.03,0,0,0,.02,0,.03-.01,0,0,0-.02.01-.04h0Z"/><path class="cls-3" d="M10.11,11.24v-.18h.03l.04.12s0,.02,0,.02c0,0,0-.01,0-.03l.04-.12h.03v.18h-.02v-.15l-.05.15h-.02l-.05-.15v.15h-.02Z"/><rect class="cls-3" x="10.29" y="11.07" width=".03" height=".18"/><polygon class="cls-3" points="10.36 11.25 10.36 11.07 10.37 11.07 10.45 11.21 10.45 11.07 10.47 11.07 10.47 11.25 10.44 11.25 10.37 11.11 10.37 11.25 10.36 11.25"/><rect class="cls-3" x="10.51" y="11.08" width=".02" height=".17"/><path class="cls-3" d="M10.67,11.22h.02s-.02.04-.03.05c-.01,0-.03.01-.04.01-.01,0-.02,0-.04-.02,0,0-.02-.02-.02-.04,0-.02,0-.03,0-.05,0-.02,0-.04.01-.05.01-.02.02-.03.03-.03.01,0,.03,0,.04,0,.01,0,.02,0,.04.02,0,.01.02.03.02.04h-.02s0-.02-.01-.03c0,0-.01-.01-.02-.01-.02,0-.02,0-.03,0,0,0-.01.02-.02.03,0,.01-.01.03-.01.04v.04s.01.02.02.03c0,0,.02,0,.02.01.02,0,.03,0,.03,0,0,0,.02-.02.02-.04h0Z"/><polygon class="cls-3" points="10.85 11.32 10.89 11.13 10.92 11.14 10.96 11.3 10.99 11.15 11.01 11.16 10.97 11.35 10.95 11.34 10.9 11.18 10.87 11.33 10.85 11.32"/><path class="cls-3" d="M8.48,11.4l-.07-.17.06-.03s.03,0,.03,0c0,0,.02,0,.02.01,0,0,0,.01.01.02,0,.01,0,.02,0,.03,0,.01,0,.02-.02.03,0,0,.01,0,.01,0,0,0,.02,0,.03.02l.04.04h-.02s-.03-.02-.03-.02c0,0-.01-.01-.02-.02,0,0-.02,0-.02,0t-.01,0s0,0,0,0h-.02s.03.09.03.09h-.02ZM8.46,11.29l.04-.02s.01,0,.02,0c0,0,0,0,0-.02s0-.01,0-.02c0,0,0-.02-.02-.02,0,0-.01,0-.02,0l-.05.02.03.06Z"/><path class="cls-3" d="M8.76,11.3l-.04-.18h.06s.02-.01.02-.01c0,0,.02,0,.02,0,0,0,0,0,.02.02,0,0,0,.01,0,.02,0,.01,0,.03,0,.04,0,.01-.02.02-.04.03h-.04s.02.08.02.08h-.02ZM8.76,11.2h.04s.02-.02.03-.02c0,0,0-.02,0-.03,0,0,0-.01-.01-.02,0,0-.01,0-.02,0,0,0,0,0-.02,0h-.04s.01.07.01.07Z"/><path class="cls-3" d="M9.05,11.26v-.18s.04,0,.04,0c.01,0,.02,0,.03,0,0,0,.01,0,.02.02,0,0,0,.01,0,.02,0,0,0,.02,0,.02,0,0,0,.01-.01.02.01,0,.02,0,.03.01,0,0,0,.02,0,.03,0,0,0,.02,0,.02,0,0,0,.01-.01.02,0,0,0,0-.01.01,0,0-.02,0-.02,0h-.06ZM9.07,11.15h.03s.02,0,.02,0c0,0,0,0,0-.01,0,0,0,0,0-.02,0,0,0-.01,0-.02,0,0,0,0-.01,0,0,0,0,0-.02,0h-.03v.06ZM9.07,11.23h.04s0,0,.01,0c0,0,0,0,.01,0,0,0,0,0,0,0,0,0,0-.01,0-.02,0,0,0-.01,0-.02,0,0,0,0-.01,0,0,0-.02,0-.03,0h-.03v.07Z"/><path class="cls-3" d="M9.53,11.24l.06-.19h.02l.06.19h-.02l-.02-.06h-.06l-.02.06h-.02ZM9.58,11.16h.05l-.02-.05s0-.03,0-.04c0,.01,0,.02,0,.03l-.02.06Z"/><path class="cls-3" d="M9.79,11.24v-.19h.05s.02,0,.02,0c.01,0,.02,0,.03.01,0,0,.01.02.02.03,0,.01,0,.03,0,.05,0,.01,0,.03,0,.04,0,.01,0,.02-.01.03,0,0,0,.01,0,.02,0,0-.01,0-.02,0,0,0-.01,0-.02,0h-.05ZM9.81,11.22h.04s.02,0,.02,0c0,0,.01,0,.02-.01,0,0,0-.01.01-.02,0,0,0-.02,0-.04,0-.02,0-.03,0-.04,0-.01-.01-.02-.02-.02,0,0-.01,0-.02,0h-.04v.14Z"/><path class="cls-3" d="M9.95,11.15s0-.06.02-.08c.01-.02.03-.03.05-.03,0,0,.03,0,.03.01,0,0,.02.02.02.04,0,.02,0,.03,0,.05s0,.04,0,.05c0,.01-.01.02-.02.03-.01,0-.02.01-.03.01-.02,0-.02,0-.04-.01,0,0-.01-.02-.02-.04,0-.01-.01-.03-.01-.05h0ZM9.96,11.15s0,.04.02.05c0,.01.02.02.03.02,0,0,.03,0,.03-.02,0-.01,0-.03,0-.06,0-.02,0-.03,0-.04,0-.01,0-.02-.01-.03,0,0-.02-.01-.03-.01-.02,0-.02,0-.03.02,0,.01-.02.03-.02.06h0Z"/><path class="cls-3" d="M10.69,11.28l.09-.18h.02s.02.21.02.21h-.02s0-.07,0-.07h-.06s-.03.04-.03.04h-.02ZM10.75,11.21h.05s0-.04,0-.04c0-.02,0-.03,0-.04,0,.01-.01.02-.02.03l-.03.05Z"/><path class="cls-3" d="M10.98,11.35l.13-.15h.02s-.02.21-.02.21h-.02s0-.07,0-.07l-.05-.03-.04.05h-.02ZM11.06,11.3l.04.02v-.06s.01-.03.01-.04c0,.01-.01.02-.02.03l-.04.04Z"/><path class="cls-6" d="M10.32,11.51c-.18-.08-.27-.02-.27-.02v.12s.09,0,.12.02c.03.02.11.06.11.06l.04-.18Z"/><path class="cls-9" d="M10.29,11.71l-.13-.06s-.09-.01-.11-.01l-.02-.14s.15-.06.29,0l-.03.21h0ZM10.1,11.6s.05,0,.07.01l.09.05.03-.16c-.11-.01-.25,0-.25,0v.1s.03,0,.05,0h0Z"/><path class="cls-6" d="M9.27,11.52c.18-.08.28-.02.28-.02v.12s-.09,0-.12.02c-.03.01-.11.05-.11.05l-.04-.17Z"/><path class="cls-9" d="M9.3,11.71l-.04-.2c.17-.11.3-.04.3-.04v.14s-.1.02-.13.03l-.13.07h0ZM9.44,11.49s-.1.01-.16.04l.04.14.09-.05s.12-.02.12-.02v-.1s-.05,0-.1,0h0Z"/><path class="cls-6" d="M9.69,11.47v.17s.04.02.1.02c.05,0,.09-.02.09-.02v-.18s-.06-.02-.11-.02c-.04,0-.07.01-.08.02h0Z"/><path class="cls-9" d="M9.79,11.69c-.05,0-.1-.01-.11-.03v-.18s.05-.04.1-.04c.06,0,.11.02.11.02v.2s-.04.04-.1.04h0ZM9.71,11.65s.16-.01.16-.01v-.16s-.05,0-.08,0c-.07,0-.08.02-.08.02v.16h0Z"/><path class="cls-6" d="M9.89,11.66s.23.03.23-.01c0-.04,0-.11,0-.11h-.23v.12Z"/><path class="cls-9" d="M9.99,11.71h0s-.1,0-.12-.04v-.12s.25-.02.25-.02c.02.02.02.08.02.12,0,.05-.1.06-.15.06h0ZM10.1,11.54l-.22.02v.1s.21,0,.21-.01c0-.04,0-.1,0-.1h0Z"/><path class="cls-6" d="M9.89,11.47s.1-.04.16-.03c.05,0,.08.04.08.04v.16s-.06-.04-.09-.04c-.05,0-.09.02-.14.05v-.17Z"/><path class="cls-9" d="M9.87,11.67v-.2s.11-.05.16-.05c.08,0,.11.04.11.05v.17s-.08-.02-.11-.02c-.05,0-.09.02-.14.05h-.03ZM10.03,11.58s.08.02.1.05l-.02-.15s-.03-.02-.07-.02c-.06,0-.12.02-.15.03v.13c.05-.02.09-.04.14-.04h0Z"/><path class="cls-6" d="M9.69,11.66s-.23.03-.23-.01c0-.04,0-.11,0-.11h.24v.12Z"/><path class="cls-9" d="M9.59,11.71c-.05,0-.14-.01-.15-.06,0-.04,0-.11,0-.11h.25s.02.12.02.12c-.02.04-.08.05-.12.05h0ZM9.47,11.56s0,.06.01.09c0,.01.18.03.2,0v-.11l-.21.02h0Z"/><path class="cls-6" d="M9.69,11.47s-.1-.04-.16-.04c-.06,0-.08.04-.08.04v.16s.06-.04.09-.04c.05,0,.1.02.15.05v-.17Z"/><path class="cls-9" d="M9.71,11.67h-.03s-.09-.06-.14-.06h0s-.06.02-.07.03l-.04-.17s.04-.05.1-.05c.08,0,.14.03.17.03v.22h.01ZM9.54,11.58c.05,0,.09.02.13.04v-.15s-.09-.02-.13-.02c-.06,0-.08.03-.09.03l.02.13s.04-.03.06-.03h0Z"/></g></g></g></g><g id="ITALY"><g class="cls-31"><rect class="cls-15" x="4.19" y="0" width="11.19" height="19.58"/><rect class="cls-12" x="-4.99" y="0" width="11.19" height="19.58"/><rect class="cls-5" x="13.38" y="0" width="11.19" height="19.58"/></g></g></g></g></svg>