<?xml version="1.0" encoding="UTF-8"?><svg id="Capa_2" xmlns="http://www.w3.org/2000/svg" xmlns:xlink="http://www.w3.org/1999/xlink" viewBox="0 0 19.55 19.55"><defs><style>.cls-1{clip-path:url(#clippath);}.cls-2{fill:none;}.cls-2,.cls-3,.cls-4,.cls-5,.cls-6{stroke-width:0px;}.cls-3{fill:#e50027;}.cls-4{fill:#d21034;}.cls-5{fill:#fff;}.cls-6{fill:#005293;}</style><clipPath id="clippath"><circle class="cls-2" cx="9.77" cy="9.77" r="9.77" transform="translate(-.1 .1) rotate(-.58)"/></clipPath></defs><g id="_4"><g class="cls-1"><rect class="cls-3" x="-1.73" y="-.26" width="23.65" height="10.03"/><rect class="cls-6" x="-1.73" y="9.77" width="23.65" height="10.23"/><rect class="cls-5" x="-1.74" y="-.61" width="11.33" height="10.39"/><rect class="cls-5" x="9.59" y="9.77" width="11.16" height="11.39"/><polygon class="cls-6" points="5.79 6.42 6.84 5.66 5.55 5.66 5.15 4.43 4.75 5.66 3.46 5.66 4.5 6.42 4.11 7.64 5.15 6.88 6.19 7.64 5.79 6.42"/><polygon class="cls-4" points="14.12 13.94 15.17 13.18 13.88 13.18 13.48 11.95 13.08 13.18 11.79 13.18 12.84 13.94 12.44 15.16 13.48 14.4 14.52 15.16 14.12 13.94"/></g></g></svg>