<?xml version="1.0" encoding="UTF-8"?><svg id="Capa_2" xmlns="http://www.w3.org/2000/svg" xmlns:xlink="http://www.w3.org/1999/xlink" viewBox="0 0 19.58 19.58"><defs><style>.cls-1{clip-path:url(#clippath);}.cls-2{fill:none;}.cls-2,.cls-3,.cls-4,.cls-5,.cls-6,.cls-7,.cls-8,.cls-9,.cls-10{stroke-width:0px;}.cls-11{clip-path:url(#clippath-1);}.cls-12{clip-path:url(#clippath-2);}.cls-4{fill:#f8e72a;}.cls-5{fill:#2a690b;}.cls-6{fill:#3e60bd;}.cls-7{fill:#2534a4;}.cls-8{fill:#e50027;}.cls-9{fill:#fff;}.cls-10{fill:#f5cd28;}</style><clipPath id="clippath"><circle class="cls-2" cx="9.79" cy="9.79" r="9.79"/></clipPath><clipPath id="clippath-1"><rect class="cls-2" x="-6.99" y="0" width="33.56" height="19.58"/></clipPath><clipPath id="clippath-2"><rect class="cls-2" x="-6.99" y="0" width="33.56" height="19.58"/></clipPath></defs><g id="_4"><g class="cls-1"><g id="PARAGUAY"><g class="cls-11"><rect class="cls-9" x="-6.99" y="6.52" width="33.56" height="6.53"/><rect class="cls-7" x="-6.99" y="13.05" width="33.56" height="6.53"/><rect class="cls-8" x="-6.99" y="0" width="33.56" height="6.53"/><g class="cls-12"><path class="cls-9" d="m12.27,9.79c0,1.37-1.11,2.49-2.49,2.49s-2.49-1.11-2.49-2.49,1.11-2.49,2.49-2.49,2.49,1.11,2.49,2.49h0Z"/><path class="cls-3" d="m9.79,12.32c-1.39,0-2.53-1.13-2.53-2.53s1.13-2.53,2.53-2.53,2.53,1.13,2.53,2.53-1.14,2.53-2.53,2.53h0Zm0-4.97c-1.35,0-2.44,1.1-2.44,2.45s1.1,2.45,2.44,2.45,2.45-1.1,2.45-2.45-1.1-2.45-2.45-2.45h0Z"/><path class="cls-8" d="m9.79,7.66c-1.17,0-2.13.96-2.13,2.13s.96,2.13,2.13,2.13,2.13-.95,2.13-2.13-.95-2.13-2.13-2.13h0Zm0,3.73c-.88,0-1.6-.72-1.6-1.6s.72-1.6,1.6-1.6,1.6.72,1.6,1.6-.71,1.6-1.6,1.6h0Z"/><path class="cls-3" d="m9.79,11.92c-1.18,0-2.13-.96-2.13-2.13s.96-2.13,2.13-2.13,2.14.96,2.14,2.13-.96,2.13-2.14,2.13h0Zm0-4.26c-1.17,0-2.13.95-2.13,2.13s.96,2.13,2.13,2.13,2.13-.95,2.13-2.13-.96-2.13-2.13-2.13h0Zm0,3.73c-.88,0-1.6-.72-1.6-1.6s.72-1.6,1.6-1.6,1.6.72,1.6,1.6-.72,1.6-1.6,1.6h0Zm0-3.2c-.88,0-1.6.72-1.6,1.6s.72,1.6,1.6,1.6,1.6-.71,1.6-1.6-.71-1.6-1.6-1.6h0Z"/><path class="cls-5" d="m10.12,8.63s.96.41.79,1.27c-.17.85-.7.85-.91.94-.21.09-.35.23-.44.21-.08-.02-.19-.08-.19-.08,0,0,0,.14.16.17.17.03.39-.22.5-.25.11-.03.76-.1.92-.96.19-.93-.82-1.26-.82-1.29h0Z"/><path class="cls-3" d="m9.56,11.13h-.03c-.17-.03-.16-.17-.16-.17h0s.11.06.19.08c.06,0,.13-.04.21-.09.06-.04.14-.08.22-.12.04-.02.08-.03.13-.04.25-.08.64-.19.78-.9.13-.66-.42-1.06-.66-1.2l-.08-.04s-.05-.03-.05-.03.05.02.13.06h0c.56.29.8.71.7,1.22-.1.54-.4.86-.89.96-.07.02-.12.06-.19.1-.1.07-.21.16-.31.16h0Zm-.19-.17s0,.13.16.16h.03c.1,0,.21-.08.31-.15.06-.04.12-.09.15-.1.52-.11.82-.43.91-.96.1-.51-.14-.93-.7-1.22.25.14.8.54.67,1.2-.14.71-.53.82-.78.9-.05.01-.09.03-.13.04-.08.04-.16.08-.22.12-.08.05-.15.09-.2.09-.1-.02-.21-.08-.21-.08h0Z"/><path class="cls-5" d="m10.61,8.81c.02.07.02.13,0,.13-.02,0-.05-.06-.06-.12-.02-.07-.02-.13,0-.13.01,0,.05.06.06.13h0Z"/><path class="cls-3" d="m10.61,8.94s-.05-.07-.06-.13c-.02-.06-.02-.11,0-.13,0,0,0,0,0,0-.01.02-.01.07,0,.13.02.08.05.12.06.12h0s0,0,0,0c0-.02,0-.07,0-.12-.02-.06-.04-.1-.05-.12.02.02.04.07.05.12.02.06.02.11,0,.13h0Z"/><path class="cls-5" d="m10.57,8.82c.03.07.05.13.03.13-.02,0-.05-.04-.09-.11-.03-.07-.05-.12-.03-.13.01,0,.06.04.09.11h0Z"/><path class="cls-3" d="m10.6,8.95s-.06-.06-.09-.11c-.03-.06-.04-.11-.04-.13,0,0,0,0,0,0-.01.02,0,.07.03.13.03.07.07.11.08.11h0s0-.08-.03-.13c-.02-.05-.05-.09-.07-.1.03.02.05.06.07.1.03.06.04.11.04.13h-.01Z"/><path class="cls-5" d="m10.48,8.88c.07.02.12.05.12.07,0,.02-.06.02-.13,0-.07-.02-.12-.05-.12-.07,0-.02.06-.02.13,0h0Z"/><path class="cls-3" d="m10.56,8.96s-.06,0-.09-.02c-.06-.02-.12-.05-.12-.07.01,0,.02,0,.03,0-.02.03.02.05.09.07.04.01.07.02.09.02h0s.03-.01.03-.01c0-.01-.05-.04-.12-.06-.03,0-.05-.01-.07-.02.03,0,.05,0,.07.01.06.02.12.05.12.07l-.04.02h0Z"/><path class="cls-5" d="m10.49,8.85c.06.04.11.09.1.1,0,.02-.06,0-.12-.05-.06-.04-.11-.09-.1-.1,0-.01.06,0,.12.05h0Z"/><path class="cls-3" d="m10.58,8.95s-.07-.02-.11-.05c-.06-.04-.11-.09-.1-.11h.01s.02.06.09.1c.05.03.09.05.11.05h0s0,0,0,0c0-.01-.03-.06-.1-.1-.04-.03-.09-.05-.11-.05.03,0,.07.02.11.05.06.04.11.09.1.1h-.01Z"/><path class="cls-5" d="m10.53,8.83c.05.05.09.11.07.12,0,.01-.06-.02-.12-.08s-.09-.11-.07-.12c.01-.01.06.02.12.08h0Z"/><path class="cls-3" d="m10.6,8.95s-.07-.03-.11-.08c-.05-.05-.09-.11-.07-.12.03,0,.07.03.12.08.05.05.09.11.07.12h0Zm-.18-.2s.01.06.07.12c.05.05.09.08.11.08h0s0,0,0,0c0,0-.02-.06-.07-.12-.05-.05-.09-.08-.11-.08h0Z"/><path class="cls-5" d="m10.6,8.95s-.04.02-.04.02c0,0-.02-.01-.04,0-.02.01-.04.04-.05.05,0,.01,0,.02.04,0,.03-.01.04-.04.05-.05.01,0,.04-.02.05-.03,0-.01.03-.04.03-.06.01-.02.05-.04.06-.07.01-.03,0-.05,0-.04-.02,0-.04.04-.05.05,0,.02,0,.04-.01.06,0,.01-.03.05-.03.05h0Z"/><path class="cls-3" d="m10.47,9.04h-.01s.02-.05.05-.07h.04s.04-.02.05-.02l.03-.05h0s.01-.06.01-.06c.01-.02.03-.04.05-.05v.04s-.02.04-.03.05l-.03.04s-.02.03-.02.03c-.02,0-.04.02-.05.03-.02.03-.03.04-.05.04h-.03Z"/><path class="cls-5" d="m10.9,9.05c0,.11-.02.19-.04.19-.03,0-.05-.1-.05-.21,0-.11.02-.19.04-.19.03,0,.05.1.05.21h0Z"/><path class="cls-3" d="m10.86,9.23h0s-.05-.11-.05-.21c0-.09.01-.16.03-.18,0,0,0,0,0,0-.03.02-.04.1-.04.18,0,.12.02.2.05.21h0s0,0,0,0c.02-.02.03-.09.03-.18,0-.08-.01-.14-.03-.18.02.04.03.11.03.18,0,.09-.01.16-.03.18h-.01Z"/><path class="cls-5" d="m10.85,9.04c.03.11.03.2,0,.2-.02,0-.06-.09-.09-.2-.02-.11-.02-.2,0-.2.02,0,.06.09.09.2h0Z"/><path class="cls-3" d="m10.85,9.25s-.07-.1-.09-.2c-.02-.1-.02-.18,0-.2,0,0,0,0,0,0-.02.03-.02.11,0,.2.02.12.06.2.08.2h0s0,0,0,0c.01-.02.01-.1,0-.19-.02-.09-.04-.15-.06-.18.03.03.05.11.07.18.02.1.02.18,0,.2h-.01Z"/><path class="cls-5" d="m10.69,9.09c.09.06.15.13.14.15,0,.02-.08,0-.17-.06-.09-.06-.15-.13-.14-.15,0-.03.08,0,.17.06h0Z"/><path class="cls-3" d="m10.82,9.26s-.09-.03-.16-.07c-.09-.06-.15-.13-.14-.15,0,0,.01,0,.02,0-.02.03.04.09.13.15.06.04.12.07.16.07h0s.01,0,.01,0c0-.02-.05-.09-.14-.15-.04-.03-.09-.05-.12-.06.04,0,.08.03.12.06.09.06.15.13.14.16h-.02Z"/><path class="cls-5" d="m10.72,9.05c.07.09.12.17.1.19-.02.02-.08-.04-.16-.13-.07-.09-.12-.17-.1-.19.02-.02.09.04.16.13h0Z"/><path class="cls-3" d="m10.82,9.25s-.09-.05-.15-.13c-.06-.08-.12-.17-.1-.19.03,0,.1.05.16.12.06.08.12.17.1.19h-.01Zm-.24-.33s.02.1.09.19c.06.07.12.13.15.13h0s0,0,0,0c.01-.01-.02-.09-.1-.19-.06-.07-.12-.13-.15-.13h0Z"/><path class="cls-5" d="m10.79,9.04c.05.1.08.19.06.2-.02.01-.08-.06-.14-.16-.05-.1-.08-.19-.06-.2.02-.01.08.06.14.16h0Z"/><path class="cls-3" d="m10.84,9.25s-.08-.07-.13-.17c-.05-.09-.08-.19-.06-.21.02,0,.08.07.14.16.05.09.09.2.06.21h0Zm-.19-.37s0,.09.06.2c.05.1.11.16.13.16h0s0,0,0,0c.02,0,0-.09-.06-.2-.05-.09-.11-.16-.13-.16h0Z"/><path class="cls-5" d="m10.84,9.25s-.06.01-.07.01c-.01,0-.03-.03-.06-.02-.04,0-.07.03-.08.05-.01.02,0,.03.05.02.04,0,.06-.04.09-.04.02,0,.06-.01.08-.01.01-.02.05-.05.07-.07.02-.02.08-.04.11-.08.03-.03.03-.06,0-.06-.03,0-.06.03-.08.05-.02.02-.01.06-.04.08-.02.01-.06.06-.06.06h0Z"/><path class="cls-3" d="m10.65,9.32h-.03s0-.02,0-.03l.02.02h.02s.04-.02.06-.03c.05-.02.09-.03.11-.03,0-.01.03-.03.05-.05.03-.03.04-.03.06-.04.03-.01.05-.03.07-.05.01-.01.02-.03.02-.03,0,.01,0,.03-.01.04-.02.02-.05.04-.08.05-.02,0-.03.01-.04.02-.04.03-.06.05-.07.06-.02,0-.06,0-.08.02-.04.03-.06.04-.09.04h-.02Zm-.02-.03s.04-.04.07-.05h.05s.08,0,.08,0l.06-.06s.01-.02.02-.04c0-.01,0-.03.02-.04.02-.02.06-.05.08-.05,0,0,0,0,.01.01-.04,0-.08.03-.09.05,0,.01-.01.02-.01.04,0,.01,0,.03-.02.04l-.06.06s-.07.01-.07.01l-.05-.02s-.07.03-.09.05h0Z"/><path class="cls-5" d="m11.05,9.45c-.02.11-.05.18-.07.17-.02-.01-.03-.11,0-.22.02-.11.05-.19.07-.17.02,0,.03.11,0,.22h0Z"/><path class="cls-3" d="m10.98,9.62h0s-.03-.12,0-.22c.01-.09.04-.18.07-.18.03.01.03.12.02.22-.02.1-.05.18-.07.18h0Zm.06-.39s-.05.07-.07.18c-.02.11-.01.2,0,.21h0s.05-.06.07-.17c.02-.11.01-.2,0-.21h0Z"/><path class="cls-5" d="m11,9.43c0,.11-.01.2-.04.2-.02,0-.04-.1-.05-.21,0-.12.01-.2.04-.2.02,0,.04.1.05.21h0Z"/><path class="cls-3" d="m10.97,9.64h0s-.05-.11-.05-.21c0-.1,0-.18.03-.2h0s0,0,0,0c-.03.02-.04.1-.03.2,0,.12.03.21.05.21h0s.03-.1.03-.2c0-.09-.02-.16-.03-.19.02.04.03.12.03.19,0,.1,0,.18-.03.2h-.01Z"/><path class="cls-5" d="m10.85,9.45c.08.08.12.16.11.18-.01.02-.08-.02-.16-.09-.08-.07-.12-.16-.11-.18.01-.02.08.02.16.09h0Z"/><path class="cls-3" d="m10.95,9.64s-.09-.04-.15-.1c-.08-.08-.13-.16-.11-.18,0,0,.01,0,.01,0-.02.03.02.1.1.18.06.06.12.1.14.1h0s.01,0,.01,0c.01-.02-.03-.09-.11-.17-.04-.04-.09-.08-.12-.09.04.01.08.05.12.09.08.08.13.16.11.18h-.01Z"/><path class="cls-5" d="m10.88,9.41c.05.1.08.19.07.21-.02.01-.08-.05-.13-.16-.05-.1-.08-.19-.07-.21.02-.02.08.05.13.15h0Z"/><path class="cls-3" d="m10.94,9.63s-.08-.07-.13-.16c-.05-.09-.09-.19-.07-.21.04,0,.08.06.14.15.05.09.09.19.07.21h0Zm-.19-.37s0,.1.06.21c.05.09.1.16.12.16h0s0,0,0,0c.02-.01,0-.1-.07-.2-.05-.09-.1-.16-.12-.16h0Z"/><path class="cls-5" d="m10.95,9.42c.04.11.05.21.02.21-.02,0-.07-.08-.1-.19-.03-.11-.05-.21-.03-.22.02,0,.07.08.1.19h0Z"/><path class="cls-3" d="m10.97,9.64s-.07-.1-.1-.19c-.03-.1-.05-.21-.03-.22h0s.07.08.11.19c.03.1.05.21.02.22h0Zm-.12-.4s-.01.09.02.21c.04.12.08.19.1.19h0s0,0,0,0c.02,0,.01-.09-.03-.21-.04-.11-.08-.19-.1-.19h0Z"/><path class="cls-5" d="m10.96,9.63s-.06,0-.07,0c-.01,0-.02-.03-.06-.03s-.07.02-.09.03c-.01.02,0,.03.04.03.05,0,.07-.02.09-.03.02,0,.06,0,.08,0,.02-.01.06-.04.08-.05.02-.01.09-.02.12-.05.03-.03.04-.06.01-.06-.03,0-.07.02-.09.04-.02.02-.03.05-.05.07-.02.01-.07.05-.07.04h0Z"/><path class="cls-3" d="m10.88,9.64h.04s0,0,.02,0h-.06s-.03-.03-.06-.03h0s-.06.01-.08.02c.04-.04.1-.02.12,0h.04s.06,0,.07-.01c.04-.03.05-.04.06-.05,0-.01.01-.03.03-.04.02-.02.06-.04.09-.04,0,0,0,0,0,.01-.04,0-.08.01-.1.03-.01,0-.02.02-.02.04,0,.01-.01.03-.03.04l-.04.02s0,0-.01,0c0,0,.02,0,.02-.01.04-.02.05-.03.07-.04.03,0,.06-.02.08-.04.01-.01.02-.02.03-.03,0,.01,0,.03-.02.04-.02.02-.05.03-.08.04-.02,0-.03,0-.04.01-.05.03-.06.04-.08.05h-.08Z"/><path class="cls-5" d="m11.06,9.89c-.06.09-.12.15-.14.13-.02-.02.02-.11.08-.2.06-.09.12-.15.14-.13.02.02-.02.11-.08.2h0Z"/><path class="cls-3" d="m10.94,10.03h0s.02-.13.07-.21c.05-.08.1-.14.13-.14,0,0,0,0,0,0-.03,0-.08.05-.13.13-.06.1-.09.18-.08.2h0s.07-.04.12-.13c.05-.08.08-.14.08-.18,0,.04-.03.11-.08.18-.05.08-.1.14-.13.14h0Z"/><path class="cls-5" d="m11.02,9.86c-.04.11-.09.18-.11.17-.02-.01,0-.11.04-.22.04-.11.09-.18.11-.17.02.01,0,.11-.04.22h0Z"/><path class="cls-3" d="m10.92,10.03h0s0-.13.04-.22c.04-.1.08-.17.11-.17.03.02,0,.12-.03.22-.04.1-.08.17-.11.17h0Zm.14-.39s-.07.06-.11.17c-.04.11-.06.2-.04.21h0s.06-.06.1-.17c.04-.12.06-.2.04-.21h0Z"/><path class="cls-5" d="m10.88,9.81c.04.1.05.2.03.21-.02.02-.07-.05-.11-.15-.04-.1-.05-.2-.03-.21.02-.02.07.05.11.15h0Z"/><path class="cls-3" d="m10.9,10.02s-.07-.07-.1-.16c-.04-.1-.05-.2-.03-.21h0s.07.06.11.15c.04.1.05.2.03.21h0Zm-.13-.37s-.01.1.03.21c.04.1.08.15.1.15h0s0,0,0,0c.02-.01,0-.1-.03-.21-.04-.1-.08-.16-.1-.16h0Z"/><path class="cls-5" d="m10.92,9.79c.01.12,0,.21-.02.22-.02,0-.05-.08-.06-.2,0-.12,0-.21.02-.22.02,0,.05.08.06.2h0Z"/><path class="cls-3" d="m10.9,10.01s-.05-.1-.06-.2c-.01-.1,0-.21.02-.22h0s.05.1.06.2c0,.1,0,.21-.02.22h0Zm-.03-.42s-.03.09-.02.22c.01.12.04.2.05.2h0s0,0,0,0c.02,0,.03-.09.02-.22-.01-.12-.04-.19-.06-.19h0Z"/><path class="cls-5" d="m10.98,9.82c-.01.12-.04.21-.06.21-.02,0-.03-.1-.02-.21.01-.12.04-.21.06-.21.02,0,.03.1.02.22h0Z"/><path class="cls-3" d="m10.92,10.03h0s-.03-.12-.01-.22c.01-.11.04-.21.06-.21.03.03.04.12.03.22-.01.11-.04.21-.06.21h0Zm.04-.42s-.05.08-.06.2c0,.1,0,.19.01.21h0s0,0,0,0c.02,0,.05-.08.06-.21,0-.1,0-.19-.01-.21h0Z"/><path class="cls-5" d="m10.91,10.02s-.05-.02-.07-.03c0,0,0-.04-.04-.05-.03-.02-.07-.01-.09,0-.02,0-.01.03.03.05.04.02.07,0,.09.01.02,0,.06.02.07.03.02,0,.07-.01.09-.02.03,0,.09.02.13,0,.04-.01.06-.04.03-.05-.02,0-.07,0-.1,0-.03,0-.04.04-.07.04-.02,0-.08.02-.08.01h0Z"/><path class="cls-3" d="m10.91,10.03h0s-.05-.03-.07-.03c.04,0,.06.02.07.03.01,0,.04,0,.06-.01h.07s.03,0,.05,0c.04,0,.06-.02.07-.03,0,.01-.02.02-.04.03-.06,0-.07,0-.09,0h-.04s-.08,0-.09.01h0Zm0,0s-.06-.02-.07-.03c-.01-.03-.02-.04-.04-.05-.02,0-.04-.01-.05-.01h-.04s.01.04.04.05c.02.01.04.01.06.01.01,0,.02,0,.04,0-.05,0-.07,0-.09-.01-.03-.01-.04-.03-.04-.04l.05-.02s.04,0,.06.01c.02,0,.03.03.04.04.02.02.07.04.07.04,0,0,.03,0,.04,0,.05,0,.06-.02.07-.03.01,0,.02-.02.04-.02.03,0,.08,0,.1,0,0,0,0,.01,0,.01-.04-.03-.07-.02-.1-.01-.05.03-.06.04-.07.04-.06,0-.07.01-.08.01h0Z"/><path class="cls-5" d="m10.94,10.34c-.09.08-.18.12-.19.1-.01-.03.05-.11.15-.2.09-.08.18-.12.2-.1.01.03-.06.11-.15.19h0Z"/><path class="cls-3" d="m10.77,10.44h-.02s.06-.13.15-.21c.08-.06.15-.11.18-.11,0,0,0,0,0,.01-.04,0-.11.04-.18.1-.1.09-.16.17-.15.19h.01s.1-.04.18-.1c.06-.05.11-.1.13-.14-.02.04-.07.1-.13.14-.07.06-.15.11-.18.11h0Z"/><path class="cls-5" d="m10.91,10.29c-.08.1-.16.17-.18.15-.02-.02.04-.12.11-.22.08-.1.16-.17.18-.15.02.02-.03.12-.11.23h0Z"/><path class="cls-3" d="m10.74,10.44h-.01s.04-.14.11-.24c.07-.09.14-.15.17-.15,0,0,0,0,0,0h0s-.1.06-.17.15c-.08.11-.13.21-.11.22h0s.1-.06.17-.15c.06-.08.1-.15.11-.19,0,.05-.06.13-.11.2-.07.09-.14.15-.17.15h0Z"/><path class="cls-5" d="m10.76,10.18c0,.12,0,.23-.03.25-.03,0-.06-.08-.07-.21,0-.12,0-.23.03-.24.03-.01.06.08.07.21h0Z"/><path class="cls-3" d="m10.72,10.43s-.05-.09-.06-.21c0-.12,0-.24.03-.25h0s.06.11.07.21c0,.13,0,.24-.04.25h0Zm-.02-.45s-.05.11-.04.24c.01.13.04.21.06.21h0s0,0,0,0c.02,0,.04-.11.03-.24-.01-.13-.04-.21-.06-.21h0Z"/><path class="cls-5" d="m10.82,10.18c-.03.13-.07.24-.1.24-.03,0-.03-.11,0-.24.03-.13.07-.23.1-.23.03,0,.03.11,0,.24h0Z"/><path class="cls-3" d="m10.73,10.42h-.01s-.02-.13,0-.24c.02-.12.07-.24.1-.24,0,0,0,0,0,0-.02,0-.07.09-.1.23-.02.11-.02.21,0,.23h0s0,0,0,0c.02,0,.07-.09.09-.23.02-.09.02-.18.02-.21.01.04,0,.12-.01.22-.02.11-.07.24-.1.24h0Z"/><path class="cls-5" d="m10.87,10.23c-.05.13-.11.22-.14.21-.03,0,0-.12.05-.24.05-.13.11-.22.14-.21.02,0,0,.12-.05.24h0Z"/><path class="cls-3" d="m10.74,10.44h0s0-.14.05-.25c.05-.12.11-.21.14-.21.03.01,0,.14-.04.25-.05.12-.11.21-.14.21h0Zm.18-.46s-.08.08-.13.21c-.04.11-.07.21-.05.24h0s.08-.07.13-.2c.05-.13.07-.23.05-.24h0Z"/><path class="cls-5" d="m10.73,10.43s-.05-.04-.06-.05c0-.01,0-.04-.03-.07-.04-.03-.08-.04-.1-.04-.02,0-.03.02.01.06.04.04.08.03.1.05.02.02.05.05.07.06.02,0,.08.01.1.02.03,0,.09.05.15.05.04,0,.07-.02.05-.04-.03-.02-.07-.04-.1-.04-.03,0-.06.03-.1.02-.02,0-.09,0-.09-.02h0Z"/><path class="cls-3" d="m10.97,10.5h0s-.07-.02-.1-.03c-.02,0-.04-.02-.05-.02-.06-.01-.09-.02-.1-.02-.01-.02-.05-.05-.07-.06.04.02.06.04.07.06.02,0,.05,0,.07.01.04,0,.06.01.08.02.03.01.07.03.1.03h0s0,0,0,0c.02,0,.03,0,.04,0,0,.01-.03.01-.04.01h0Zm.05-.03s-.08-.05-.1-.05c-.02-.01-.03,0-.05,0-.01,0-.03.01-.04.01h-.05s-.05-.01-.05-.02c0,0-.06-.05-.06-.05,0-.03,0-.05-.03-.07-.02-.02-.05-.03-.08-.04.03,0,.06,0,.08.03.02.02.02.04.02.06.01.03.06.07.06.07,0,0,.03,0,.05,0,.02,0,.04,0,.04,0,.02,0,.04,0,.05-.01.01,0,.03-.01.04-.01.04,0,.09.02.11.04,0,0,0,.01,0,.01h0Z"/><path class="cls-5" d="m10.64,10.73c-.14.02-.24.01-.24-.02,0-.03.12-.08.25-.1.14-.02.24-.01.24.02,0,.03-.12.08-.25.1h0Z"/><path class="cls-3" d="m10.5,10.75c-.05,0-.09,0-.1-.02,0,0,0,0,0-.01.03.04.12.03.24.02.1-.02.18-.04.22-.07-.04.03-.12.06-.22.08-.05,0-.1.01-.14.01h0Zm-.07-.07s.12-.06.22-.07c.12-.02.22-.01.24,0,0,0,0,0,0,.01-.03-.04-.12-.03-.24-.01-.09.02-.18.04-.22.07h0Z"/><path class="cls-5" d="m10.63,10.67c-.13.05-.25.07-.25.04,0-.03.1-.1.23-.15.14-.05.25-.07.25-.04,0,.03-.1.1-.23.15h0Z"/><path class="cls-3" d="m10.42,10.72s-.04,0-.04-.02c0-.03.1-.1.23-.15.13-.05.25-.07.26-.04,0,.03-.1.1-.23.15-.08.03-.17.05-.21.05h0Zm.39-.21c-.07,0-.13.02-.2.04-.14.05-.24.12-.23.15h.04s.13,0,.21-.04c.14-.05.24-.12.23-.15-.02,0-.04,0-.05,0h0Z"/><path class="cls-5" d="m10.55,10.48c-.06.12-.13.22-.17.21-.03,0,0-.11.05-.24.06-.12.13-.22.16-.21.03,0,.01.11-.05.24h0Z"/><path class="cls-3" d="m10.38,10.69h0s0,0,0-.01h0s.11-.09.16-.21c.03-.07.05-.13.06-.18,0,.05-.02.11-.06.18-.06.12-.13.21-.17.21h0Zm-.01-.05s.02-.12.06-.19c.06-.12.13-.22.17-.22,0,0,0,0,0,.01h0s-.11.09-.17.21c-.04.08-.06.15-.06.19h0Z"/><path class="cls-5" d="m10.61,10.51c-.1.11-.2.19-.22.17-.02-.02.03-.12.13-.23.1-.11.2-.18.22-.17.03.02-.03.12-.13.23h0Z"/><path class="cls-3" d="m10.39,10.68h-.01s0-.01,0-.02h.01s.12-.06.21-.16c.05-.06.09-.11.12-.16-.02.05-.06.1-.11.16-.09.1-.18.17-.21.17h0Zm0-.04s.06-.12.12-.19c.09-.1.18-.17.22-.17,0,0,0,0,0,.01h0s-.13.07-.21.16c-.07.07-.12.15-.13.19h0Z"/><path class="cls-5" d="m10.62,10.59c-.12.09-.23.14-.25.12-.02-.02.06-.11.18-.2.12-.09.23-.14.25-.12.02.02-.06.12-.18.2h0Z"/><path class="cls-3" d="m10.39,10.72h-.02s0-.02,0-.02h0s.02.02.02.02c.04,0,.13-.05.23-.12.06-.05.11-.09.14-.13.02-.02.03-.04.04-.06,0,.02-.02.04-.04.06-.03.04-.08.08-.14.13-.1.07-.19.12-.23.12h0Zm-.01-.03s.09-.11.17-.18c.1-.07.19-.13.23-.13,0,0,0,0,0,0-.04.01-.14.05-.24.12-.09.07-.16.14-.18.18h0Z"/><path class="cls-5" d="m10.38,10.69s-.03-.07-.03-.09c0-.02.03-.04.01-.08-.01-.05-.05-.08-.08-.09-.02-.01-.04,0-.02.07.02.06.06.08.07.1.01.03.03.08.03.1.02.01.07.05.09.08.03.02.06.1.11.13.04.02.08.02.07-.01-.01-.03-.05-.08-.08-.1-.03-.02-.07,0-.1-.03-.02-.02-.08-.06-.08-.07h0Z"/><path class="cls-3" d="m10.62,10.92s-.03,0-.05-.02c-.03-.02-.06-.06-.08-.09-.01-.02-.02-.03-.03-.04-.05-.04-.08-.06-.09-.08,0-.03-.02-.07-.03-.1.02.04.03.08.04.09.01,0,.04.03.06.05.04.03.05.05.06.07.02.03.05.07.08.09.02.01.03.02.05.02h0s0,0,0,0h0Zm.02-.02s-.05-.09-.08-.11c-.01,0-.03-.01-.05-.02-.02,0-.04,0-.05-.02l-.04-.03s-.04-.04-.04-.04h0s-.03-.09-.03-.09c.01-.03.02-.05.01-.08-.01-.03-.03-.06-.05-.08.02.02.04.04.05.08.01.03,0,.05,0,.06,0,.03.02.1.02.11,0,0,.03.02.05.04l.04.03s.03.01.05.02c.02,0,.04,0,.05.02.03.02.07.07.08.1h0Zm-.31-.3s-.06-.07-.07-.1c0-.03,0-.06,0-.07,0,0,.01,0,.02,0-.02.01-.02.04-.01.06.01.04.03.06.05.07,0,.01.01.02.02.03h0Z"/><path class="cls-5" d="m10.23,10.95c-.14,0-.25-.03-.25-.07,0-.04.11-.07.25-.07.14,0,.25.03.25.07,0,.04-.11.07-.25.08h0Z"/><path class="cls-3" d="m10.22,10.95c-.11,0-.2-.02-.23-.05v-.02s.13.06.23.06h0s.01,0,.01,0c.14,0,.25-.03.25-.07,0-.04-.11-.06-.24-.06-.09,0-.17.01-.22.03.04-.02.12-.04.21-.04h0c.15,0,.25.03.25.07,0,.04-.11.08-.26.08h-.01Z"/><path class="cls-5" d="m10.2,10.72c-.09.11-.18.19-.21.16-.03-.03.02-.14.11-.25.09-.11.18-.19.21-.16.03.02-.02.14-.11.25h0Z"/><path class="cls-3" d="m10,10.89h-.02s.02-.14.11-.26c.08-.1.16-.17.2-.17,0,0,0,0,.01,0-.05-.01-.13.07-.21.16-.09.11-.13.22-.1.25h.01s.12-.07.2-.16c.06-.08.1-.15.11-.2,0,.05-.05.13-.11.2-.08.1-.16.17-.2.17h0Z"/><path class="cls-5" d="m10.23,10.84c-.13.06-.25.07-.26.03-.01-.04.08-.11.21-.17.13-.05.25-.07.26-.03.01.04-.08.11-.21.17h0Z"/><path class="cls-3" d="m10.03,10.9s-.05,0-.06-.02c-.01-.04.08-.11.21-.17.13-.06.25-.07.26-.03.01.04-.08.11-.21.17-.08.03-.16.05-.21.05h0Zm.36-.24s-.13.02-.21.05c-.13.05-.22.13-.21.17.01.03.13.02.26-.03.12-.05.22-.13.21-.17,0-.01-.02-.02-.05-.02h0Z"/><path class="cls-5" d="m10.3,8.65c.06.06.1.11.08.12-.02,0-.08-.03-.14-.09-.06-.06-.1-.11-.09-.12.02,0,.08.03.15.09h0Z"/><path class="cls-3" d="m10.38,8.77s-.08-.04-.14-.09c-.06-.05-.09-.1-.09-.12h0s.03.06.08.11c.06.05.11.09.14.09h0s0,0,0,0c0-.02-.02-.06-.08-.12-.04-.04-.08-.07-.11-.08.03.01.08.04.12.08.05.05.09.1.09.12h-.01Z"/><path class="cls-5" d="m10.23,8.71c.09,0,.16.03.16.05,0,.02-.06.02-.15.01-.08-.01-.16-.04-.16-.05,0-.02.06-.02.15-.01h0Z"/><path class="cls-3" d="m10.32,8.79s-.05,0-.08,0c-.08-.01-.16-.03-.16-.06.02-.04.09-.02.15-.01.08.01.16.03.16.05,0,.02-.05.02-.07.02h0Zm-.18-.08s-.06,0-.07.01c0,.02.07.04.16.06.08,0,.14,0,.15,0,0-.02-.07-.04-.16-.05-.03,0-.06,0-.08,0h0Z"/><path class="cls-5" d="m10.26,8.67c.08.04.14.09.13.1,0,.01-.08,0-.16-.05-.08-.04-.14-.09-.13-.1.01-.01.08,0,.16.05h0Z"/><path class="cls-3" d="m10.38,8.78s-.09-.02-.15-.06c-.07-.04-.13-.08-.13-.09,0,0,.01,0,.02,0,0,.03.05.06.12.1.06.03.12.05.15.05h0s0,0,0,0h0Zm0-.01s-.05-.06-.13-.1c-.04-.02-.08-.04-.11-.05.03,0,.08.02.12.04.07.04.13.08.13.1h0Z"/><path class="cls-5" d="m9.12,10.71s.21.05.39.11c.18.07.46.3.54.31.08,0,.2-.03.25-.15-.13.04-.21.09-.33.02-.04-.02-.19-.15-.34-.21-.16-.07-.47-.15-.47-.15l-.03.07Z"/><path class="cls-3" d="m10.07,11.13h-.01s-.11-.06-.2-.12c-.1-.07-.24-.16-.34-.2-.18-.06-.39-.11-.39-.11l.03-.08h0s.32.08.48.15c.1.04.19.11.26.16.04.03.07.05.08.06.09.05.16.03.26,0l.07-.02c-.05.14-.18.15-.23.15h0Zm-.94-.42s.22.05.39.11c.1.04.23.12.34.19.09.06.16.11.2.11h.01c.05,0,.18-.01.23-.14l-.07.03c-.09.03-.17.04-.26,0-.02,0-.04-.03-.09-.05-.07-.05-.16-.12-.26-.16-.15-.07-.47-.15-.47-.15l-.03.07h0Z"/><polygon class="cls-5" points="9.34 8.8 9.59 8.67 9.32 8.74 9.29 8.79 9.34 8.8"/><path class="cls-3" d="m9.35,8.8h-.06s.03-.06.03-.06l.27-.07s-.23.13-.24.13h0Zm.24-.13l-.27.07-.03.05h.06s.05-.02.24-.12h0Z"/><path class="cls-5" d="m9.58,8.86c-.09-.02-.24-.05-.33-.06.06-.07.15-.19.21-.26-.04.07-.09.16-.11.23.07.03.17.06.24.09h0Z"/><path class="cls-3" d="m9.58,8.86h-.07c-.08-.03-.19-.05-.26-.05.06-.07.15-.19.2-.27l-.03.07c-.03.05-.06.11-.08.16.04.02.1.04.16.06l.08.03h0Zm-.13-.32c-.05.08-.14.2-.2.27.07,0,.17.02.26.04h.04s-.05-.01-.05-.01c-.06-.02-.11-.04-.16-.06.01-.05.05-.11.08-.17l.04-.07h0Z"/><polygon class="cls-5" points="9.3 8.81 9.52 8.64 9.27 8.76 9.25 8.81 9.3 8.81"/><path class="cls-3" d="m9.3,8.82h-.06s.02-.06.02-.06l.25-.11s-.21.17-.21.17h0Zm.21-.17l-.25.12-.02.05h.05s.05-.04.22-.17h0Z"/><path class="cls-5" d="m9.53,8.85c-.09-.02-.24-.05-.33-.06.06-.07.15-.2.2-.27-.03.07-.09.17-.11.24.07.04.17.07.24.09h0Z"/><path class="cls-3" d="m9.53,8.86h-.08c-.09-.03-.19-.05-.26-.06.06-.07.14-.19.2-.27h0c-.05.09-.13.2-.19.27.07,0,.17.02.26.04h.04s-.05-.01-.05-.01c-.06-.02-.12-.04-.16-.06.01-.05.05-.12.08-.17l.02-.05-.02.05c-.03.06-.06.12-.08.17.04.02.1.04.16.06l.08.03h0Z"/><polygon class="cls-5" points="9.27 8.83 9.52 8.72 9.25 8.76 9.21 8.81 9.27 8.83"/><path class="cls-3" d="m9.27,8.83l-.06-.02.04-.05.27-.05c-.07.03-.25.11-.25.11h0Zm.25-.11l-.27.05-.03.04h.05s.06-.01.25-.09h0Z"/><path class="cls-5" d="m9.5,8.86c-.1,0-.24-.03-.33-.03.05-.08.12-.21.17-.3-.03.08-.07.18-.08.25.07.03.17.05.25.07h0Z"/><path class="cls-3" d="m9.5,8.86h-.08c-.08-.01-.17-.02-.24-.02h0c.08,0,.16,0,.24.01h.05s-.06,0-.06,0c-.06-.01-.12-.03-.17-.05,0-.05.03-.12.06-.18v-.04s0,.04,0,.04c-.02.06-.05.13-.06.18.04.02.1.03.16.05l.08.02h0Zm-.28-.12c.03-.07.07-.14.1-.19h0c-.03.06-.06.13-.1.19h0Z"/><polygon class="cls-5" points="9.24 8.83 9.41 8.62 9.19 8.78 9.18 8.83 9.24 8.83"/><path class="cls-3" d="m9.18,8.84v-.06s.23-.16.23-.16c-.04.06-.17.2-.17.21h-.06Zm.23-.22l-.21.17v.05s.04,0,.04,0c0,0,.02-.02.17-.21h0Z"/><path class="cls-5" d="m9.5,8.87c-.1,0-.26-.01-.36,0,.05-.09.11-.24.15-.34-.02.09-.05.2-.06.28.08.03.19.04.27.06h0Z"/><path class="cls-3" d="m9.5,8.87h-.09c-.09,0-.2,0-.27,0,.04-.09.1-.23.14-.33h0c-.04.11-.1.24-.14.33.07-.02.18,0,.27,0h.06s-.04,0-.06-.01c-.06-.01-.13-.02-.18-.04,0-.06.02-.13.04-.2v-.05s0,.05,0,.05c-.02.07-.04.14-.04.19.05.02.12.03.18.04.03,0,.06.01.09.02h0Z"/><polygon class="cls-5" points="9.21 8.88 9.41 8.68 9.16 8.82 9.14 8.88 9.21 8.88"/><path class="cls-3" d="m9.21,8.88h-.06l.02-.06.25-.14c-.08.08-.2.2-.2.2h0Zm.21-.21l-.25.15-.02.06h.06s.04-.05.21-.2h0Z"/><path class="cls-5" d="m9.46,8.88c-.11,0-.28,0-.39,0,.07-.1.17-.27.23-.37-.04.1-.1.22-.12.31.08.03.2.04.28.06h0Z"/><path class="cls-3" d="m9.06,8.89h0c.07-.11.17-.27.23-.38h0c-.06.11-.15.27-.22.37.06,0,.12,0,.2,0h.18s-.05,0-.08-.01c-.07,0-.13-.02-.19-.04.01-.06.05-.15.08-.22l.04-.08-.03.09c-.03.08-.07.16-.08.22.05.02.12.03.19.04.03,0,.07.01.09.02h-.09s-.1,0-.1,0c-.07,0-.14,0-.2,0h0Z"/><polygon class="cls-5" points="9.13 8.89 9.4 8.67 9.1 8.83 9.07 8.89 9.13 8.89"/><path class="cls-3" d="m9.06,8.89l.03-.07.3-.16c-.09.08-.26.22-.26.23h-.07Zm.33-.23l-.3.17-.03.06h.06s.03-.02.27-.23h0Z"/><path class="cls-5" d="m9.42,8.88c-.11.02-.28.03-.38.06.06-.11.13-.29.18-.4-.03.1-.07.23-.08.32.08.02.2.01.29.02h0Z"/><path class="cls-3" d="m9.03,8.95h0c.06-.11.13-.28.17-.39h0c-.04.12-.11.28-.16.38.08-.02.2-.04.29-.05h.09s-.06-.01-.1-.01c-.07,0-.14,0-.19-.01,0-.07.03-.15.05-.23l.02-.06v.07c-.04.08-.06.16-.07.23.05,0,.12,0,.19.01.03,0,.07,0,.1,0h-.09c-.1.03-.22.04-.3.07h0Z"/><polygon class="cls-5" points="9.1 8.94 9.31 8.65 9.05 8.88 9.03 8.95 9.1 8.94"/><path class="cls-3" d="m9.03,8.96v-.08s.27-.23.27-.23c-.05.08-.2.28-.2.29l-.07.02h0Zm.27-.31l-.25.24v.07s.05-.02.05-.02c0,0,.02-.03.2-.29h0Z"/><path class="cls-5" d="m9.36,8.92c-.11.01-.28.02-.39.04.06-.11.15-.28.2-.39-.03.1-.08.23-.1.32.08.02.2.02.29.03h0Z"/><path class="cls-3" d="m8.96,8.96h0c.06-.11.15-.29.2-.39l-.03.1c-.03.08-.05.16-.07.22.05,0,.12.01.19.02.04,0,.07,0,.1,0h-.09c-.1.02-.21.03-.29.05h0Zm.2-.39c-.04.11-.13.28-.19.38.08-.01.19-.02.29-.03h.09s-.07,0-.1-.01c-.07,0-.14,0-.19-.02,0-.06.04-.15.06-.22l.03-.1h0Z"/><polygon class="cls-5" points="9.06 8.97 9.33 8.74 9.03 8.9 9 8.97 9.06 8.97"/><path class="cls-3" d="m8.99,8.97l.03-.07.3-.16c-.09.08-.25.22-.26.23h-.07Zm.33-.23l-.29.16-.03.06h.06s.03-.03.26-.23h0Z"/><path class="cls-5" d="m9.33,8.93c-.11.02-.28.05-.39.09.05-.11.12-.29.16-.4-.02.1-.06.23-.06.32.08.01.2,0,.29,0h0Z"/><path class="cls-3" d="m8.93,9.02h0c.05-.11.11-.27.15-.38h0c-.04.13-.09.28-.14.38.08-.03.2-.05.29-.07l.09-.02s-.06,0-.1,0c-.07,0-.14,0-.19,0,0-.07.02-.15.04-.24v-.04s0,.04,0,.04c-.02.08-.04.17-.04.23.05,0,.12,0,.19,0,.04,0,.07,0,.1,0l-.09.02c-.1.02-.22.04-.3.07h0Z"/><polygon class="cls-5" points="9.02 8.98 9.18 8.67 8.96 8.94 8.96 9.01 9.02 8.98"/><path class="cls-3" d="m8.95,9.01v-.08s.23-.27.23-.27c-.05.11-.16.3-.16.31l-.07.03h0Zm.23-.34l-.22.27v.07s.06-.03.06-.03c0,0,.01-.03.17-.31h0Z"/><path class="cls-5" d="m9.33,8.95c-.12.03-.3.07-.41.11.04-.12.09-.33.12-.46,0,.11-.03.26-.03.36.09,0,.22-.01.32-.02h0Z"/><path class="cls-3" d="m8.91,9.06h0c.04-.13.09-.34.12-.46v.1c-.02.09-.03.19-.02.26.01,0,.03,0,.05,0,.05,0,.11,0,.16,0,.04,0,.07,0,.11,0l-.1.03c-.11.03-.23.06-.31.09h0Zm.12-.46c-.02.12-.07.33-.12.45.08-.03.21-.06.31-.09l.1-.02s-.07,0-.11.01c-.07,0-.15.01-.21,0,0-.07,0-.17.02-.26v-.1h.01Z"/><polygon class="cls-5" points="8.99 9.05 9.2 8.74 8.93 8.99 8.92 9.07 8.99 9.05"/><path class="cls-3" d="m8.91,9.07v-.08s.28-.25.28-.25c-.05.09-.2.31-.2.32l-.08.02h0Zm.28-.33l-.27.25v.07s.06-.02.06-.02c0,0,.02-.04.21-.31h0Z"/><path class="cls-5" d="m9.28,8.98c-.12.04-.3.09-.41.13.04-.13.08-.33.1-.46,0,.11-.02.26-.01.36.09,0,.22-.02.32-.03h0Z"/><path class="cls-3" d="m8.87,9.12h0c.04-.13.08-.34.1-.46v.11c0,.05-.01.11-.01.16,0-.05,0-.11,0-.16v-.11c-.01.13-.05.33-.09.45.08-.04.2-.07.3-.1l.1-.03s-.07.01-.1.02c-.07.01-.13.02-.19.02,0,0,0,0,0,0,.07,0,.13-.01.19-.02.04,0,.07-.01.11-.02l-.1.04c-.1.03-.22.07-.3.1h0Z"/><polygon class="cls-5" points="8.94 9.1 9.1 8.75 8.87 9.05 8.88 9.13 8.94 9.1"/><path class="cls-3" d="m8.87,9.13v-.08s.23-.3.23-.3c-.04.09-.15.34-.16.35l-.07.03h0Zm.23-.38l-.22.3v.07l.06-.03s.01-.04.16-.34h0Z"/><path class="cls-5" d="m9.24,9.03c-.12.03-.31.06-.42.1.05-.12.1-.32.14-.45-.01.11-.04.26-.04.36.09.01.22,0,.32,0h0Z"/><path class="cls-3" d="m8.81,9.13h0c.05-.13.1-.32.14-.45h0c-.03.13-.09.32-.13.44.08-.03.2-.05.31-.07l.1-.02s-.07,0-.11,0c-.07,0-.15.01-.21,0,0-.07.01-.17.03-.26v-.09s0,.09,0,.09c-.01.09-.03.19-.03.25.05,0,.14,0,.21,0,.04,0,.08,0,.11,0l-.1.03c-.11.02-.23.05-.31.08h0Z"/><polygon class="cls-5" points="8.91 9.13 9.17 8.86 8.86 9.06 8.83 9.13 8.91 9.13"/><path class="cls-3" d="m8.83,9.14l.03-.08.31-.2c-.07.08-.25.27-.26.27h-.08Zm.33-.28l-.31.2-.02.07h.07s.03-.04.26-.28h0Z"/><path class="cls-5" d="m9.18,9.07c-.12.02-.3.03-.41.06.06-.12.12-.32.17-.44-.02.11-.06.26-.07.36.09.02.22.02.31.02h0Z"/><path class="cls-3" d="m8.76,9.14h0c.05-.12.11-.3.16-.42h0c-.04.14-.1.31-.15.42.08-.02.2-.04.31-.05h.1s-.07,0-.11-.01c-.07,0-.15,0-.21-.02,0-.08.02-.18.04-.27v-.04s0,.05,0,.05c-.02.09-.04.19-.05.26.06.01.13.01.21.02.04,0,.07,0,.11,0l-.1.02c-.11.01-.23.03-.31.05h0Z"/><polygon class="cls-5" points="8.85 9.1 9.03 8.76 8.79 9.05 8.79 9.13 8.85 9.1"/><path class="cls-3" d="m8.78,9.13v-.08s.25-.29.25-.29c-.04.09-.17.33-.17.34l-.07.03h0Zm.25-.37l-.24.29v.07s.06-.02.06-.02c0,0,.02-.04.18-.34h0Z"/><path class="cls-5" d="m9.2,9.03c-.13.05-.33.13-.45.19.04-.15.08-.39.11-.54,0,.13-.02.3,0,.42.1,0,.24-.05.35-.07h0Z"/><path class="cls-3" d="m8.74,9.23h0c.04-.16.08-.4.11-.55v.12c0,.1-.01.22,0,.3.06,0,.15-.02.23-.04.04-.01.08-.02.12-.03l-.11.05c-.11.04-.25.1-.34.14h0Zm.11-.54c-.02.15-.06.38-.1.54.09-.05.22-.1.33-.14l.11-.04s-.07.02-.12.03c-.08.02-.17.04-.23.04-.01-.08,0-.2,0-.3v-.12h0Z"/><path class="cls-5" d="m8.83,9.2s.21-.39.21-.39l-.28.33v.09s.07-.03.07-.03Z"/><path class="cls-3" d="m8.75,9.24v-.1s.29-.33.29-.33c-.07.13-.21.38-.21.39l-.08.04h0Zm.29-.42l-.28.33v.09s.06-.03.06-.03c0,0,.02-.04.21-.38h0Z"/><path class="cls-5" d="m9.15,9.08c-.12.06-.32.14-.44.21.03-.15.06-.39.08-.54,0,.13,0,.3,0,.41.1,0,.24-.06.35-.09h0Z"/><path class="cls-3" d="m8.7,9.3h0c.03-.15.06-.39.08-.54h0c-.01.15-.05.38-.08.53.09-.05.22-.11.33-.16l.1-.05s-.08.02-.12.04c-.08.02-.16.05-.23.05-.01-.08-.01-.19-.01-.3v-.1s0,.1,0,.1c0,.11,0,.22,0,.3.06,0,.15-.03.23-.06.04-.01.08-.02.12-.03l-.1.05c-.11.05-.25.11-.34.16h0Z"/><path class="cls-5" d="m8.79,9.26s.16-.42.16-.42l-.23.37v.09s.08-.05.08-.05Z"/><path class="cls-3" d="m8.71,9.31v-.09s.23-.37.23-.37c-.05.14-.15.41-.15.42l-.08.05h0Zm.23-.47l-.23.37v.08s.08-.04.08-.04c0,0,.01-.04.16-.41h0Z"/><path class="cls-5" d="m9.09,9.12c-.12.06-.32.14-.44.22.03-.15.06-.39.08-.54,0,.13,0,.3,0,.41.1,0,.24-.06.35-.09h0Z"/><path class="cls-3" d="m8.65,9.34h0c.03-.16.06-.4.08-.54v.12c0,.1,0,.21.01.29.06,0,.15-.04.23-.06.04-.01.08-.02.12-.03l-.1.05c-.11.05-.25.11-.34.17h0Zm.08-.54c-.01.15-.04.38-.07.53.09-.05.22-.11.33-.17l.1-.05s-.07.03-.12.04c-.08.02-.16.05-.23.06-.01-.08-.01-.19-.01-.29v-.12h0Z"/><polygon class="cls-5" points="8.75 9.31 8.99 8.94 8.69 9.24 8.67 9.34 8.75 9.31"/><path class="cls-3" d="m8.67,9.34v-.09s.32-.3.32-.3c-.08.12-.23.36-.24.37l-.08.03h0Zm.32-.39l-.3.3v.09s.06-.02.06-.02c0,0,.02-.04.24-.37h0Z"/><path class="cls-5" d="m9.08,9.1c-.11.09-.29.22-.39.32,0-.15-.02-.39-.03-.53.03.12.06.29.09.39.1-.04.23-.12.33-.17h0Z"/><path class="cls-3" d="m8.69,9.42h0c0-.15-.02-.35-.03-.5h0c.02.17.03.36.03.49.08-.07.19-.16.29-.24l.09-.07s-.07.04-.11.07c-.07.04-.15.09-.21.11-.03-.07-.06-.18-.07-.28v-.04s0,.04,0,.04c.02.1.04.21.07.28.06-.02.14-.07.21-.11.04-.02.08-.05.11-.06l-.09.08c-.1.08-.22.17-.3.24h0Z"/><polygon class="cls-5" points="8.76 9.33 8.79 8.89 8.67 9.32 8.71 9.4 8.76 9.33"/><path class="cls-3" d="m8.7,9.4l-.03-.08.12-.43c0,.12-.02.43-.02.44l-.06.07h0Zm.08-.51l-.11.43.03.07.05-.06s0-.03.03-.44h0Z"/><path class="cls-5" d="m9.05,9.14c-.11.09-.29.22-.39.32,0-.15-.02-.39-.03-.53.03.12.06.29.09.39.1-.04.23-.12.33-.17h0Z"/><path class="cls-3" d="m8.66,9.46h0c0-.16-.02-.38-.03-.53h0c.02.16.03.37.03.51.07-.07.19-.16.29-.23l.1-.08s-.07.04-.11.06c-.08.04-.15.09-.22.11-.03-.07-.05-.18-.07-.28l-.02-.07.02.07c.02.1.04.2.07.27.06-.02.14-.07.21-.11.04-.02.08-.04.11-.06l-.1.08c-.1.08-.22.17-.29.24h0Z"/><polygon class="cls-5" points="8.73 9.4 8.84 8.97 8.65 9.37 8.67 9.46 8.73 9.4"/><path class="cls-3" d="m8.67,9.46l-.02-.09.2-.4c-.04.15-.11.42-.11.43l-.07.06h0Zm.18-.49l-.19.4.02.08.06-.05s0-.04.11-.43h0Z"/><path class="cls-5" d="m9.04,9.15c-.11.1-.27.26-.37.37-.02-.16-.06-.4-.09-.55.04.12.09.29.14.39.1-.05.22-.15.32-.21h0Z"/><path class="cls-3" d="m8.67,9.52h0c-.02-.16-.06-.39-.09-.54h0c.04.16.08.38.09.53.07-.08.18-.19.27-.28l.09-.09s-.07.05-.11.08c-.07.05-.15.11-.21.14-.04-.07-.08-.18-.1-.28l-.03-.08.03.08c.03.1.07.2.1.27.06-.03.14-.09.21-.14.04-.03.08-.05.11-.08l-.09.09c-.1.09-.21.2-.28.28h0Z"/><polygon class="cls-5" points="8.74 9.46 8.75 9 8.64 9.45 8.68 9.53 8.74 9.46"/><path class="cls-3" d="m8.68,9.53l-.04-.09.11-.45c0,.16-.02.45-.02.46l-.06.08h0Zm.08-.53l-.11.44.04.08.05-.07s0-.04.02-.46h0Z"/><path class="cls-5" d="m9,9.22c-.11.09-.29.23-.39.33,0-.16-.03-.4-.05-.55.03.12.06.3.1.41.1-.04.23-.13.33-.18h0Z"/><path class="cls-3" d="m8.61,9.56h0c0-.17-.03-.41-.05-.56l.03.12c.02.1.05.21.08.28.06-.03.14-.08.22-.12.04-.02.08-.05.11-.06l-.09.08c-.1.08-.22.18-.29.25h0Zm-.05-.56c.02.15.05.39.05.55.08-.08.19-.17.29-.25l.1-.08s-.07.04-.11.07c-.08.05-.16.1-.22.12-.03-.07-.06-.19-.08-.29l-.03-.12h0Z"/><path class="cls-6" d="m10.59,9.69c0,.44-.36.8-.8.8s-.8-.36-.8-.8.36-.8.8-.8.8.36.8.8h0Z"/><polygon class="cls-5" points="8.7 9.51 8.86 9.08 8.62 9.46 8.63 9.55 8.7 9.51"/><path class="cls-3" d="m8.63,9.56v-.1s.23-.38.23-.38c-.05.15-.15.42-.15.43l-.08.05h0Zm.23-.48l-.23.38v.09s.07-.04.07-.04c0,0,.01-.04.16-.43h0Z"/><path class="cls-5" d="m9,9.23c-.1.11-.26.26-.35.38-.02-.16-.06-.4-.09-.55.04.12.08.29.13.4.09-.05.21-.15.3-.22h0Z"/><path class="cls-3" d="m8.65,9.61h0c-.02-.16-.06-.38-.08-.54h0c.03.17.07.38.09.53.07-.09.17-.2.26-.29l.08-.09s-.06.06-.1.08c-.07.05-.14.11-.2.14-.04-.07-.07-.18-.1-.28l-.02-.06.03.06c.03.1.06.21.1.28.06-.03.13-.09.19-.14.04-.03.07-.06.1-.08l-.08.09c-.09.09-.2.21-.26.29h0Z"/><polygon class="cls-5" points="8.71 9.53 8.69 9.08 8.61 9.53 8.66 9.61 8.71 9.53"/><path class="cls-3" d="m8.66,9.61l-.04-.08.07-.45c0,.15.02.44.02.45l-.05.08h0Zm.03-.54l-.07.45.04.07.05-.07s0-.04-.02-.45h0Z"/><path class="cls-5" d="m8.95,9.26c-.1.11-.25.26-.33.38-.02-.16-.07-.4-.1-.55.04.12.09.3.14.4.09-.05.21-.16.29-.22h0Z"/><path class="cls-3" d="m8.61,9.65h0c-.02-.16-.07-.41-.1-.55h0c.04.15.08.38.11.54.06-.08.17-.19.25-.29l.08-.09s-.06.05-.09.08c-.07.05-.14.11-.2.14-.04-.07-.08-.18-.11-.28l-.04-.1.04.1c.03.1.07.21.1.28.06-.03.13-.09.19-.14.04-.03.07-.06.1-.08l-.08.09c-.09.1-.19.21-.26.29h0Z"/><polygon class="cls-5" points="8.68 9.58 8.73 9.12 8.6 9.55 8.63 9.64 8.68 9.58"/><path class="cls-3" d="m8.62,9.65l-.03-.1.14-.44c-.01.16-.05.45-.05.46l-.06.07h0Zm.11-.53l-.13.44.03.08.06-.06s0-.04.05-.46h0Z"/><path class="cls-5" d="m8.93,9.28c-.09.12-.23.29-.3.41-.03-.16-.1-.39-.15-.54.05.12.11.28.17.38.09-.06.19-.17.28-.25h0Z"/><path class="cls-3" d="m8.63,9.69h0c-.03-.16-.1-.39-.14-.53h0c.05.16.11.37.14.52.06-.09.15-.21.23-.31l.07-.1s-.06.06-.09.09c-.06.06-.13.12-.19.16-.05-.07-.09-.17-.13-.27l-.03-.08.04.07c.04.1.08.2.13.27.05-.04.12-.1.18-.16.03-.03.06-.06.09-.09l-.07.1c-.08.1-.17.22-.23.31h0Z"/><polygon class="cls-5" points="8.68 9.62 8.65 9.16 8.59 9.62 8.63 9.7 8.68 9.62"/><path class="cls-3" d="m8.63,9.7l-.04-.09.06-.46c.01.15.03.45.03.46l-.05.08h0Zm.01-.54l-.05.46.04.08.04-.07s0-.04-.03-.46h0Z"/><path class="cls-5" d="m8.92,9.31c-.08.12-.22.3-.29.43-.04-.16-.12-.39-.17-.53.06.11.13.28.19.37.08-.06.19-.19.27-.26h0Z"/><path class="cls-3" d="m8.63,9.74h0c-.04-.15-.11-.35-.16-.5v-.04s.04.11.04.11c.05.09.1.2.14.26.05-.04.11-.11.17-.17.03-.03.06-.06.09-.09l-.07.1c-.08.11-.16.23-.22.33h0Zm-.17-.54l.02.04c.05.14.12.35.16.49.05-.09.14-.21.21-.32l.07-.1s-.05.06-.08.1c-.06.06-.12.13-.18.17-.05-.07-.1-.17-.14-.26l-.05-.11h0Z"/><polygon class="cls-5" points="8.71 9.66 8.75 9.2 8.62 9.64 8.65 9.73 8.71 9.66"/><path class="cls-3" d="m8.65,9.73l-.03-.09.13-.44c-.01.16-.04.45-.04.46l-.06.07h0Zm.1-.53l-.13.44.03.09.05-.06s0-.04.05-.46h0Z"/><path class="cls-5" d="m8.91,9.35c-.07.13-.19.33-.25.47-.05-.15-.16-.37-.22-.51.07.1.15.26.22.34.08-.07.17-.21.24-.3h0Z"/><path class="cls-3" d="m8.66,9.82h0c-.05-.16-.15-.37-.22-.51h0c.07.14.17.35.22.5.04-.1.12-.23.18-.34l.06-.12s-.05.07-.08.11c-.05.07-.11.15-.16.2-.05-.06-.11-.15-.16-.24l-.06-.09.06.09c.05.09.11.18.16.24.05-.05.1-.13.16-.2.03-.04.05-.07.08-.1l-.06.12c-.06.12-.14.25-.18.35h0Z"/><polygon class="cls-5" points="8.69 9.7 8.56 9.26 8.61 9.73 8.67 9.79 8.69 9.7"/><path class="cls-3" d="m8.67,9.8l-.06-.07-.04-.46c.05.15.13.43.13.44l-.03.1h0Zm-.11-.54l.05.46.06.06.02-.08s-.01-.04-.13-.44h0Z"/><path class="cls-5" d="m8.9,9.4c-.08.13-.2.33-.26.46-.05-.15-.16-.37-.22-.51.07.11.16.26.23.34.08-.07.17-.21.25-.3h0Z"/><path class="cls-3" d="m8.64,9.87h0c-.05-.15-.16-.37-.22-.51l.07.1c.05.09.11.18.17.24.05-.05.1-.12.16-.19.03-.04.06-.08.09-.11l-.06.12c-.07.12-.15.25-.19.35h0Zm-.22-.51c.07.13.17.35.22.5.05-.1.12-.23.19-.34l.07-.12s-.05.07-.08.11c-.06.07-.11.15-.16.19-.06-.06-.11-.15-.17-.24l-.06-.1h0Z"/><polygon class="cls-5" points="8.7 9.78 8.65 9.32 8.61 9.78 8.65 9.86 8.7 9.78"/><path class="cls-3" d="m8.65,9.87l-.05-.08.04-.46c.02.16.05.45.05.46l-.05.09h0Zm0-.55l-.04.46.04.08.04-.08s0-.04-.05-.46h0Z"/><path class="cls-5" d="m8.91,9.44c-.08.13-.2.33-.27.46-.05-.15-.15-.37-.21-.51.07.11.15.26.22.35.08-.07.18-.21.25-.29h0Z"/><path class="cls-3" d="m8.64,9.9h0c-.05-.15-.15-.38-.21-.51h0c.07.14.16.35.21.5.05-.1.13-.24.21-.36l.06-.1s-.05.07-.08.11c-.06.07-.11.14-.17.19-.05-.06-.11-.15-.16-.24l-.06-.1.06.1c.05.09.11.18.16.24.05-.05.11-.12.16-.19.03-.04.06-.07.09-.1l-.05.1c-.07.12-.16.26-.21.36h0Z"/><polygon class="cls-5" points="8.69 9.82 8.61 9.37 8.6 9.83 8.66 9.91 8.69 9.82"/><path class="cls-3" d="m8.66,9.91l-.05-.08v-.47c.04.15.09.45.09.45l-.04.09h0Zm-.05-.54v.47l.05.07.04-.08s0-.04-.09-.45h0Z"/><path class="cls-5" d="m8.88,9.51c-.08.12-.22.31-.29.44-.04-.15-.13-.38-.19-.52.06.11.14.27.21.36.08-.06.19-.19.27-.28h0Z"/><path class="cls-3" d="m8.59,9.95h0c-.04-.15-.12-.36-.18-.51h0c.07.16.14.36.18.5.05-.1.14-.22.21-.33l.07-.1s-.05.06-.08.1c-.06.07-.12.14-.18.18-.05-.06-.11-.17-.16-.26l-.03-.05.03.05c.05.09.1.2.15.26.05-.04.12-.11.17-.18.03-.04.06-.07.09-.1l-.07.11c-.08.11-.16.24-.21.33h0Z"/><polygon class="cls-5" points="8.65 9.87 8.69 9.41 8.57 9.85 8.6 9.94 8.65 9.87"/><path class="cls-3" d="m8.6,9.94l-.03-.09.12-.44c0,.16-.03.45-.03.46l-.06.07h0Zm.09-.53l-.12.44.03.08.06-.06s0-.04.04-.46h0Z"/><path class="cls-5" d="m8.88,9.52c-.07.14-.19.34-.24.48-.06-.15-.17-.36-.24-.5.07.1.16.25.24.33.08-.08.17-.22.24-.31h0Z"/><path class="cls-3" d="m8.64,10h0c-.05-.14-.15-.34-.22-.47h0c.08.16.17.33.22.46.04-.1.11-.24.18-.35l.06-.12s-.05.07-.08.11c-.05.07-.11.15-.16.2-.06-.06-.12-.15-.17-.23l-.03-.04.03.04c.06.08.12.17.17.23.05-.05.1-.13.16-.2.03-.04.05-.07.08-.11l-.06.12c-.06.12-.14.25-.18.36h0Z"/><path class="cls-5" d="m8.64,9.91s-.14-.43-.14-.43l.06.46.06.06.03-.09Z"/><path class="cls-3" d="m8.61,10.01l-.06-.06-.06-.46c.05.14.14.42.15.43l-.03.1h0Zm-.12-.53l.06.46.06.06.02-.09s-.01-.03-.14-.43h0Z"/><path class="cls-5" d="m8.86,9.55c-.05.15-.13.37-.17.52-.08-.13-.22-.32-.31-.44.08.08.2.21.29.27.07-.09.13-.25.19-.36h0Z"/><path class="cls-3" d="m8.7,10.08h0c-.07-.12-.19-.29-.28-.41l-.03-.04.08.08c.07.07.14.15.21.19.04-.06.08-.15.12-.23.02-.05.04-.09.06-.12l-.04.12c-.05.13-.1.29-.13.4h0Zm-.31-.44l.03.03c.09.11.21.28.28.39.03-.11.08-.27.13-.4l.04-.12s-.04.08-.06.13c-.04.08-.08.17-.13.23-.07-.04-.14-.12-.21-.19l-.08-.08h0Z"/><polygon class="cls-5" points="8.77 9.95 8.61 9.52 8.68 9.98 8.74 10.04 8.77 9.95"/><path class="cls-3" d="m8.74,10.04l-.07-.06-.07-.46c.06.14.15.42.16.42l-.03.1h0Zm-.13-.52l.07.46.06.05.02-.09s-.02-.03-.16-.43h0Z"/><path class="cls-5" d="m8.86,9.6c-.05.15-.13.37-.16.52-.08-.13-.22-.32-.31-.43.09.08.2.21.29.27.06-.09.13-.25.19-.36h0Z"/><path class="cls-3" d="m8.7,10.13h0c-.08-.14-.22-.32-.31-.44l.09.08c.07.07.14.14.2.19.04-.06.08-.15.12-.24.02-.04.04-.09.06-.12l-.04.13c-.04.13-.1.29-.12.4h0Zm-.31-.44c.09.11.23.3.31.42.03-.11.08-.26.12-.39l.04-.13s-.03.08-.06.12c-.04.09-.08.17-.13.24-.06-.04-.14-.12-.21-.19l-.08-.08h0Z"/><polygon class="cls-5" points="8.77 10.02 8.57 9.62 8.68 10.06 8.75 10.11 8.77 10.02"/><path class="cls-3" d="m8.75,10.12l-.07-.05-.12-.44c.07.13.2.39.2.4v.1h-.01Zm-.19-.5l.12.44.07.04v-.09s0-.03-.19-.4h0Z"/><path class="cls-5" d="m8.84,9.63c-.03.15-.08.39-.1.54-.1-.12-.26-.28-.36-.38.1.07.22.18.32.23.05-.1.1-.27.14-.38h0Z"/><path class="cls-3" d="m8.75,10.18h0c-.08-.11-.22-.25-.33-.36l-.03-.03.09.06c.08.06.16.12.23.16.03-.07.06-.16.09-.25.02-.05.03-.09.05-.13l-.02.13c-.03.14-.06.3-.08.41h0Zm-.36-.39l.04.03c.1.1.24.24.32.35.01-.11.05-.27.08-.4l.03-.13s-.03.09-.04.13c-.03.09-.06.18-.1.25-.07-.03-.15-.1-.23-.16l-.09-.07h0Z"/><polygon class="cls-5" points="8.78 10.08 8.67 9.64 8.69 10.1 8.75 10.17 8.78 10.08"/><path class="cls-3" d="m8.75,10.17l-.06-.07-.02-.46c.04.15.11.44.11.45l-.04.09h0Zm-.08-.54l.02.46.05.06.03-.08s-.01-.04-.11-.45h0Z"/><path class="cls-5" d="m8.85,9.68c-.02.16-.05.4-.05.55-.11-.1-.28-.25-.39-.33.1.06.24.15.33.18.04-.11.08-.28.11-.4h0Z"/><path class="cls-3" d="m8.8,10.24h0c-.1-.1-.26-.24-.37-.33h0c.12.09.27.22.37.31,0-.12.02-.28.04-.42v-.13s0,.09-.02.14c-.02.09-.04.19-.07.26-.07-.02-.16-.08-.25-.13l-.04-.03.05.02c.08.05.17.1.24.13.03-.07.05-.17.07-.26.01-.05.02-.1.04-.14v.13c-.03.14-.05.31-.05.43h0Z"/><polygon class="cls-5" points="8.78 10.12 8.5 9.79 8.71 10.18 8.79 10.21 8.78 10.12"/><path class="cls-3" d="m8.8,10.21l-.08-.03-.22-.39c.1.11.28.31.29.32v.1h.01Zm-.3-.42l.22.39.07.03v-.09h0s-.02-.02-.28-.32h0Z"/><path class="cls-5" d="m8.85,9.74c-.02.16-.05.4-.05.55-.11-.11-.28-.25-.39-.34.1.06.24.15.33.19.04-.11.08-.28.11-.4h0Z"/><path class="cls-3" d="m8.8,10.29h0c-.1-.1-.26-.24-.37-.33h0c.12.1.27.22.37.32,0-.11.02-.27.04-.41l.02-.14s-.02.09-.03.14c-.02.09-.04.19-.08.26-.07-.03-.16-.08-.25-.13l-.04-.03.05.02c.08.05.17.11.24.13.03-.07.05-.17.07-.26.01-.05.02-.1.03-.14v.14c-.03.14-.05.3-.05.41h0Z"/><polygon class="cls-5" points="8.82 10.19 8.6 9.8 8.74 10.24 8.81 10.28 8.82 10.19"/><path class="cls-3" d="m8.81,10.29l-.07-.05-.14-.44c.06.1.21.38.22.39v.1h0Zm-.21-.49l.14.43.07.04v-.09s-.01-.03-.21-.39h0Z"/><path class="cls-5" d="m8.87,9.8c0,.16-.03.4-.03.55-.11-.1-.29-.23-.4-.31.1.05.24.13.34.16.04-.11.06-.28.09-.4h0Z"/><path class="cls-3" d="m8.84,10.36h0c-.1-.09-.27-.22-.38-.3h0c.12.09.28.2.38.29,0-.11.01-.28.02-.42v-.13s0,.09-.01.14c-.02.1-.04.19-.06.27-.08-.02-.17-.07-.25-.11l-.04-.02.04.02c.08.04.17.09.25.11.02-.07.04-.17.06-.26,0-.05.02-.1.03-.14v.13c-.02.14-.03.31-.03.42h0Z"/><polygon class="cls-5" points="8.84 10.26 8.58 9.92 8.77 10.32 8.85 10.36 8.84 10.26"/><path class="cls-3" d="m8.85,10.36l-.08-.03-.2-.41c.09.11.26.33.27.34v.1h0Zm-.28-.44l.2.4.07.03v-.09h0s-.02-.03-.27-.34h0Z"/><path class="cls-5" d="m8.87,9.87c-.01.16-.03.4-.03.55-.11-.1-.29-.23-.41-.31.11.05.25.13.34.16.04-.11.06-.28.09-.41h0Z"/><path class="cls-3" d="m8.84,10.43h0c-.11-.1-.29-.23-.41-.31l.1.05c.09.04.17.09.25.11.02-.07.04-.17.06-.27,0-.05.02-.09.03-.14v.13c-.01.14-.02.31-.02.43h0Zm-.41-.31c.11.08.29.21.4.3,0-.12,0-.28.02-.43v-.12s0,.09-.01.13c-.02.1-.04.2-.06.27-.07-.02-.16-.07-.25-.11l-.1-.05h0Z"/><polygon class="cls-5" points="8.87 10.32 8.68 9.91 8.78 10.36 8.85 10.41 8.87 10.32"/><path class="cls-3" d="m8.85,10.42l-.07-.06-.1-.45c.07.14.19.4.19.41l-.02.1h0Zm-.18-.51l.11.45.06.05.02-.09s-.02-.03-.19-.41h0Z"/><path class="cls-5" d="m8.87,9.92c0,.16,0,.4.03.56-.12-.08-.31-.19-.43-.25.11.04.26.1.36.12.03-.12.03-.29.05-.42h0Z"/><path class="cls-3" d="m8.9,10.48h0c-.11-.08-.29-.18-.41-.25h0c.13.07.3.16.41.24-.01-.11-.02-.27-.02-.42v-.14s0,.09-.01.15c0,.1-.02.2-.04.27-.07,0-.17-.04-.26-.08l-.05-.02h.05c.09.05.18.08.25.09.02-.07.02-.17.03-.27,0-.05,0-.1.01-.14v.14c.01.14.02.31.03.42h0Z"/><polygon class="cls-5" points="8.9 10.3 8.56 10.07 8.85 10.39 8.93 10.39 8.9 10.3"/><path class="cls-3" d="m8.93,10.4h-.09s-.29-.33-.29-.33c.1.06.34.23.35.23l.03.09h0Zm-.38-.33l.3.32h.08s-.03-.08-.03-.08h0s-.22-.15-.34-.24h0Z"/><path class="cls-5" d="m8.89,9.94c.01.16.03.4.05.55-.12-.08-.32-.17-.44-.24.11.03.26.09.36.1.02-.12.02-.29.03-.42h0Z"/><path class="cls-3" d="m8.94,10.5h0c-.11-.08-.3-.17-.42-.23h0c.14.07.31.15.42.22-.02-.12-.03-.28-.04-.42v-.12s-.01.09-.01.14c0,.1,0,.2-.02.28-.07,0-.17-.04-.26-.07h-.04s.04,0,.04,0c.09.03.19.06.26.07.01-.08.02-.18.02-.28,0-.05,0-.1,0-.14l.02.12c0,.14.02.31.04.43h0Z"/><polygon class="cls-5" points="8.94 10.39 8.65 10.06 8.87 10.46 8.95 10.49 8.94 10.39"/><path class="cls-3" d="m8.95,10.49l-.08-.03-.22-.39c.1.11.28.32.29.32v.1h.01Zm-.3-.42l.22.39.07.03v-.09h0s-.03-.02-.29-.33h0Z"/><path class="cls-5" d="m8.91,10c.02.16.04.4.08.55-.12-.07-.33-.16-.45-.21.11.03.26.07.36.08.02-.12,0-.29.01-.42h0Z"/><path class="cls-3" d="m8.99,10.55h0c-.12-.07-.31-.15-.43-.2h0c.14.06.31.13.43.2-.03-.12-.04-.29-.06-.43v-.12s-.01.09-.01.14c0,.1,0,.2,0,.28-.07,0-.17-.03-.26-.05h-.05s.05,0,.05,0c.09.02.18.05.26.05,0-.08,0-.18,0-.27,0-.05,0-.1,0-.14l.02.12c.02.15.04.32.06.43h0Z"/><polygon class="cls-5" points="9 10.45 8.65 10.2 8.94 10.53 9.02 10.54 9 10.45"/><path class="cls-3" d="m9.03,10.54h-.08s-.29-.33-.29-.33c.12.08.34.23.34.24l.03.1h0Zm-.37-.33l.29.32h.07s-.03-.09-.03-.09h0s-.19-.13-.34-.24h0Z"/><path class="cls-5" d="m8.92,10.07c.03.16.07.4.11.54-.13-.06-.33-.12-.46-.17.11.01.26.05.37.05,0-.12-.01-.29-.02-.42h0Z"/><path class="cls-3" d="m9.04,10.61h0c-.12-.06-.32-.12-.45-.16h0c.14.04.32.1.44.16-.03-.11-.06-.27-.09-.41l-.03-.13s.01.09.01.15c0,.1.01.2,0,.28-.09,0-.18-.01-.26-.03h-.05s.06,0,.06,0c.08.01.17.03.24.03.02-.08.01-.18,0-.27,0-.05,0-.1,0-.15l.03.13c.02.14.06.3.09.41h0Z"/><polygon class="cls-5" points="9.03 10.49 8.75 10.16 8.96 10.56 9.04 10.59 9.03 10.49"/><path class="cls-3" d="m9.04,10.59l-.08-.03-.21-.4c.1.11.28.33.29.33v.1h0Zm-.29-.43l.22.4.07.03v-.09h0s-.02-.02-.28-.33h0Z"/><path class="cls-5" d="m8.94,10.11c.05.15.11.39.16.53-.13-.04-.34-.08-.47-.11.11,0,.27.01.37,0,0-.12-.04-.29-.05-.42h0Z"/><path class="cls-3" d="m9.11,10.64h0c-.13-.04-.33-.08-.47-.11h0c.14.02.33.06.46.1-.04-.1-.08-.26-.12-.39l-.04-.13s.02.09.03.14c.02.09.03.19.03.27-.07.02-.17.01-.26,0h-.08s.08,0,.08,0c.09,0,.19,0,.26,0,0-.08-.02-.18-.04-.27,0-.05-.01-.1-.02-.15l.04.13c.04.14.08.29.12.4h0Z"/><polygon class="cls-5" points="9.05 10.5 8.65 10.41 9.03 10.6 9.1 10.57 9.05 10.5"/><path class="cls-3" d="m9.03,10.6l-.38-.19c.13.02.38.08.4.08l.06.08-.08.03h0Zm-.38-.19l.38.18.08-.03-.06-.07s-.38-.08-.39-.08h0Z"/><path class="cls-5" d="m8.97,10.16c.04.15.1.39.16.53-.13-.04-.34-.08-.47-.11.11,0,.27.01.37,0,0-.12-.04-.29-.05-.42h0Z"/><path class="cls-3" d="m9.13,10.69h0c-.12-.04-.32-.08-.44-.1h0c.15.03.32.06.44.1-.04-.11-.09-.27-.12-.4l-.04-.12s.02.09.03.14c.01.1.03.2.03.28-.07.02-.17.01-.26,0h-.04s.04,0,.04,0c.04,0,.09,0,.13,0h0s.09,0,.13,0c0-.08-.02-.18-.04-.28,0-.05-.01-.1-.02-.14l.04.12c.04.14.08.3.12.41h0Z"/><polygon class="cls-5" points="9.11 10.54 8.74 10.36 9.07 10.63 9.15 10.62 9.11 10.54"/><path class="cls-3" d="m9.07,10.63l-.34-.28c.1.05.37.17.38.18l.04.09h-.08Zm-.34-.28l.34.27h.08s-.04-.09-.04-.09h0s-.29-.14-.38-.18h0Z"/><path class="cls-5" d="m8.95,10.18c.07.14.18.36.27.48-.14-.01-.35,0-.48,0,.11-.02.26-.04.35-.08-.03-.12-.1-.28-.14-.4h0Z"/><path class="cls-3" d="m8.73,10.67h0s0,0,0,0h0s0,0,0,0l.1-.02c.09-.02.19-.04.25-.06-.02-.07-.06-.17-.09-.26-.02-.05-.04-.09-.05-.14l.07.11c.07.13.14.28.21.37-.14,0-.33,0-.47,0h0s-.01,0-.01,0h0Zm.21-.48s.04.09.05.13c.04.09.07.19.09.26-.07.03-.16.05-.26.07h-.07c.13,0,.33,0,.46.01-.06-.09-.14-.24-.21-.36l-.06-.11h0Z"/><polygon class="cls-5" points="9.17 10.58 8.78 10.47 9.15 10.68 9.23 10.65 9.17 10.58"/><path class="cls-3" d="m9.15,10.68h0l-.37-.21c.11.02.38.1.39.1l.06.08-.08.03h0Zm-.37-.21l.37.2.08-.02-.05-.07s-.35-.1-.39-.11h0Z"/><path class="cls-5" d="m8.99,10.24c.08.14.18.35.27.48-.14-.01-.35,0-.48,0,.11-.02.26-.05.36-.09-.03-.12-.1-.28-.14-.4h0Z"/><path class="cls-3" d="m8.78,10.73h0s0,0,0,0h0s0,0,0,0h0l.11-.02c.09-.02.18-.04.25-.06-.02-.08-.06-.17-.09-.27-.02-.04-.04-.09-.05-.13l.07.12c.07.12.14.26.2.35-.04,0-.09,0-.14,0-.11,0-.24,0-.33,0h0s0,0,0,0h0Zm.21-.49s.04.08.06.13c.04.09.08.19.09.27-.07.03-.16.05-.25.07h-.08c.13,0,.33,0,.46,0-.06-.09-.14-.23-.21-.35l-.07-.13h0Z"/><polygon class="cls-5" points="9.22 10.61 8.86 10.39 9.17 10.7 9.26 10.7 9.22 10.61"/><path class="cls-3" d="m9.26,10.7h-.09l-.32-.31c.12.07.36.21.37.21l.04.09h0Zm-.41-.31l.32.3h.08l-.04-.08h0s-.23-.14-.36-.22h0Z"/><path class="cls-5" d="m9.02,10.27c.09.13.22.33.31.45-.14,0-.35.05-.47.07.1-.04.25-.08.34-.13-.04-.12-.13-.27-.18-.38h0Z"/><path class="cls-3" d="m8.86,10.79h0s0,0,0,0h0s.1-.04.1-.04c.09-.03.18-.06.24-.1-.02-.07-.07-.16-.12-.25-.02-.05-.04-.09-.06-.13l.08.1c.08.12.17.25.24.34-.13.01-.33.05-.46.07h-.01Zm.16-.52s.04.08.07.13c.04.09.09.18.12.25-.06.04-.16.07-.25.1l-.07.03c.13-.02.32-.06.45-.06-.08-.08-.17-.22-.25-.34l-.07-.1h0Z"/><polygon class="cls-5" points="9.25 10.64 8.85 10.63 9.24 10.75 9.31 10.71 9.25 10.64"/><path class="cls-3" d="m9.25,10.75l-.39-.12s.31,0,.38,0h0c-.09,0-.38,0-.38,0l.39.11.07-.04h-.02s.02,0,.02,0l-.07.05h0Z"/><polygon class="cls-5" points="9.48 8.73 9.76 8.68 9.48 8.69 9.43 8.72 9.48 8.73"/><path class="cls-3" d="m9.48,8.73h-.05s.05-.04.05-.04h.28s-.28.04-.28.04h0Zm.28-.05h-.28s-.05.04-.05.04h.05s.06,0,.28-.04h0Z"/><path class="cls-5" d="m9.63,8.79c-.08-.02-.21-.07-.29-.08.09-.04.22-.1.3-.14-.06.04-.16.09-.2.13.05.03.13.07.19.09h0Z"/><path class="cls-3" d="m9.63,8.79l-.08-.02c-.07-.02-.15-.05-.21-.06.09-.04.22-.1.3-.14h0c-.08.04-.21.11-.3.14.06,0,.14.04.22.06h.04s-.03,0-.03,0c-.05-.02-.09-.04-.13-.06.04-.03.09-.07.14-.1l.06-.04-.06.04c-.05.03-.11.07-.14.09.03.02.08.04.12.06l.06.03h0Z"/><polygon class="cls-5" points="9.46 8.74 9.74 8.67 9.45 8.7 9.41 8.73 9.46 8.74"/><path class="cls-3" d="m9.46,8.74h-.05s.04-.04.04-.04l.29-.04s-.27.07-.27.08h0Zm.28-.08l-.29.04-.04.03h.05s.06-.01.28-.07h0Z"/><path class="cls-5" d="m9.65,8.81c-.1,0-.25-.03-.34-.03.07-.06.17-.17.23-.23-.04.06-.11.14-.14.2.06.03.17.04.24.06h0Z"/><path class="cls-3" d="m9.64,8.81h-.08c-.09-.02-.18-.03-.26-.03.07-.07.17-.17.23-.24h0c-.06.07-.16.17-.23.24.07,0,.17,0,.25.01h.05s-.05,0-.05,0c-.06-.01-.11-.02-.16-.04.02-.04.06-.09.09-.14l.04-.05-.04.06s-.07.1-.09.14c.04.01.1.03.15.04l.08.02h0Z"/><polygon class="cls-5" points="9.36 8.76 9.65 8.73 9.37 8.72 9.32 8.74 9.36 8.76"/><path class="cls-3" d="m9.36,8.76l-.04-.02.05-.03h.28s-.28.04-.29.05h0Z"/><path class="cls-5" d="m9.58,8.82c-.09-.02-.22-.05-.31-.06.08-.04.21-.11.28-.16-.06.04-.14.1-.18.14.05.03.14.05.21.07h0Z"/><path class="cls-3" d="m9.57,8.82l-.08-.02c-.08-.02-.16-.03-.23-.04.08-.05.2-.12.28-.16h0c-.08.05-.19.12-.27.16.07,0,.15.02.23.04h.04s-.03,0-.03,0c-.05-.02-.1-.03-.14-.05.03-.03.08-.07.12-.1l.05-.04-.05.04s-.09.07-.12.1c.04.01.09.03.14.05l.07.02h0Z"/><polygon class="cls-5" points="9.34 8.76 9.59 8.65 9.31 8.72 9.28 8.75 9.34 8.76"/><path class="cls-3" d="m9.34,8.76h-.06s.03-.04.03-.04l.28-.07s-.24.11-.25.11h0Zm.25-.11l-.27.08-.03.03h.05s.05-.03.25-.11h0Z"/><path class="cls-5" d="m9.57,8.86c-.07-.03-.18-.08-.26-.1.05-.05.13-.14.18-.2-.03.06-.09.13-.11.18.05.04.13.08.18.12h0Z"/><path class="cls-3" d="m9.56,8.86l-.05-.02c-.07-.03-.15-.06-.2-.08.05-.05.13-.14.18-.2h0c-.05.07-.12.15-.17.2.06.01.13.05.2.08h.02s-.03-.01-.03-.01c-.04-.03-.09-.05-.12-.08.01-.04.05-.09.07-.13l.02-.04-.02.04s-.06.09-.07.13c.03.02.08.05.12.08l.06.04h0Z"/><polygon class="cls-5" points="9.35 8.78 9.55 8.69 9.33 8.72 9.31 8.76 9.35 8.78"/><path class="cls-3" d="m9.35,8.78l-.04-.02.03-.04.21-.03c-.07.04-.19.09-.19.09h0Zm.2-.09l-.21.03-.02.04h.04s.04,0,.2-.07h0Z"/><polygon class="cls-5" points="9.19 10.61 8.78 10.61 9.19 10.71 9.26 10.67 9.19 10.61"/><path class="cls-3" d="m9.19,10.71l-.41-.1c.11,0,.39,0,.4,0l.08.06-.07.05h0Zm0-.1s-.04,0-.4,0l.41.1.07-.04-.07-.05h0Z"/><polygon class="cls-5" points="9.26 10.63 8.85 10.54 9.25 10.73 9.32 10.71 9.26 10.63"/><path class="cls-3" d="m9.25,10.73h0l-.39-.19c.14.03.4.09.41.09l.06.08-.08.03h0Zm-.4-.19l.4.19.08-.02-.06-.07h0s-.39-.09-.41-.1h0Z"/><polygon class="cls-5" points="9.33 10.66 8.92 10.64 9.33 10.76 9.4 10.72 9.33 10.66"/><path class="cls-3" d="m9.33,10.76l-.41-.12s.36.02.41.02l.07.06-.07.04h0Zm-.41-.12l.41.12.07-.04-.07-.06c-.06,0-.41-.02-.41-.02h0Z"/><path class="cls-5" d="m9.07,10.37c.11.12.27.3.38.41-.14.02-.34.08-.47.11.1-.05.25-.1.33-.16-.05-.11-.16-.25-.23-.35h0Z"/><path class="cls-3" d="m8.98,10.89h0s0,0,0,0h0l.09-.04c.09-.04.17-.08.23-.12-.04-.07-.09-.15-.15-.23-.03-.04-.06-.08-.08-.12l.09.09c.09.11.21.24.29.31-.13.03-.33.08-.46.11h-.02Zm.09-.52s.06.07.09.12c.06.08.11.16.15.24-.06.05-.15.09-.23.12l-.07.03c.13-.03.32-.08.44-.1-.09-.08-.2-.2-.3-.31l-.08-.09h0Z"/><polygon class="cls-5" points="9.39 10.68 8.98 10.55 9.36 10.77 9.44 10.76 9.39 10.68"/><path class="cls-3" d="m9.36,10.78h0l-.38-.23c.14.04.4.13.41.13l.06.08-.08.02h0Zm-.38-.23l.38.22.08-.02-.06-.07h0s-.37-.12-.41-.13h0Z"/><path class="cls-5" d="m9.11,10.4c.12.11.29.28.41.37-.13.04-.33.12-.45.17.09-.06.23-.13.3-.2-.06-.11-.19-.23-.26-.33h0Z"/><path class="cls-3" d="m9.07,10.94h0s0,0,0,0h0l.09-.06c.08-.05.16-.1.22-.15-.04-.06-.11-.14-.17-.21-.03-.04-.07-.08-.09-.11l.1.09c.1.1.22.21.31.27-.13.04-.32.12-.44.17h-.01Zm.04-.54s.06.07.1.11c.06.08.13.15.17.22-.05.05-.14.11-.22.16l-.06.04c.12-.05.3-.12.42-.16-.09-.06-.21-.17-.31-.27l-.1-.09h0Z"/><polygon class="cls-5" points="9.42 10.71 9.03 10.78 9.44 10.81 9.5 10.75 9.42 10.71"/><path class="cls-3" d="m9.44,10.81h0l-.41-.03c.1-.02.38-.08.38-.08l.08.05-.06.06h0Zm-.02-.1s-.03,0-.39.08l.41.02.06-.06-.08-.04h0Z"/><polygon class="cls-5" points="9.34 10.68 8.93 10.71 9.35 10.78 9.41 10.73 9.34 10.68"/><path class="cls-3" d="m9.35,10.79l-.42-.07c.11-.01.39-.03.4-.04l.08.05-.07.05h0Zm-.01-.1s-.04,0-.4.03l.42.07.06-.05-.08-.05h0Z"/><polygon class="cls-5" points="9.41 10.7 8.99 10.64 9.4 10.8 9.48 10.77 9.41 10.7"/><path class="cls-3" d="m9.4,10.8h0l-.41-.17s.4.06.42.06l.07.07-.08.03h0Zm-.41-.17l.41.16.07-.03-.07-.06h0s-.4-.06-.42-.07h0Z"/><path class="cls-5" d="m9.48,10.72s-.41,0-.41,0l.42.09.07-.04-.07-.06Z"/><path class="cls-3" d="m9.49,10.83l-.42-.09c.11,0,.4,0,.41-.01l.08.06-.07.05h0Zm0-.1s-.04,0-.41,0l.42.09.06-.04-.07-.05h0Z"/><path class="cls-5" d="m9.2,10.46c.12.11.29.28.41.38-.14.03-.34.1-.46.14.1-.05.24-.12.31-.18-.06-.11-.18-.24-.26-.34h0Z"/><path class="cls-3" d="m9.15,10.98h0s0,0,0,0h0l.09-.05c.08-.04.17-.09.22-.13-.04-.07-.11-.15-.17-.22-.03-.04-.06-.08-.09-.11l.1.09c.1.1.22.21.31.29-.13.03-.33.1-.45.14h0Zm.05-.52s.06.07.09.11c.06.08.13.16.17.22-.05.05-.14.09-.22.14l-.07.04c.12-.04.31-.1.43-.13-.09-.07-.21-.18-.31-.28l-.1-.09h0Z"/><polygon class="cls-5" points="9.54 10.74 9.12 10.64 9.52 10.84 9.6 10.82 9.54 10.74"/><path class="cls-3" d="m9.52,10.84l-.4-.2c.14.03.41.1.42.1l.06.08-.08.03h0Zm-.4-.2l.4.2.08-.02-.06-.07h0s-.4-.1-.42-.11h0Z"/><path class="cls-5" d="m9.24,10.48c.12.1.31.25.44.34-.13.05-.32.14-.43.2.09-.07.22-.15.29-.22-.07-.1-.2-.22-.29-.31h0Z"/><path class="cls-3" d="m9.25,11.02h0s0,0,0,0h0s.09-.06.09-.06c.08-.05.15-.11.2-.16-.05-.06-.12-.13-.19-.21-.04-.04-.07-.07-.1-.1l.11.08c.11.09.24.19.33.25-.12.05-.29.14-.41.19h-.02Zm0-.54s.07.06.1.1c.07.07.14.14.19.21-.05.05-.12.11-.2.16l-.06.05c.12-.06.29-.14.41-.19-.09-.06-.22-.16-.33-.25l-.11-.09h0Z"/><path class="cls-5" d="m9.58,10.76s-.38.1-.38.1h.41l.05-.06-.08-.04Z"/><path class="cls-3" d="m9.19,10.87h0c.1-.03.37-.1.38-.11l.09.04-.05.06h-.41Zm.38-.1s-.04.01-.36.1h.39s.05-.06.05-.06l-.08-.04h0Z"/><polygon class="cls-10" points="10.22 10.24 9.79 9.94 9.35 10.24 9.51 9.76 9.13 9.46 9.62 9.46 9.79 8.98 9.95 9.46 10.44 9.46 10.06 9.76 10.22 10.24"/><path class="cls-3" d="m10.23,10.25l-.44-.31-.43.3.16-.48-.38-.3h.49s.16-.49.16-.49l.17.48h.49s-.38.3-.38.3l.17.49h0Zm-.44-1.27l-.16.48h-.49s.38.3.38.3l-.16.48.43-.3.43.3-.16-.47.38-.3h-.49s-.17-.48-.17-.48h0Z"/><path class="cls-4" d="m11.41,10.17l.14.05.23-.04-.02.05-.12.02s-.05,0-.07,0c.01.02.03.04.05.05l.08.09-.02.05-.15-.19-.14-.05v-.04Z"/><path class="cls-4" d="m11.81,9.63v.04s-.2.02-.2.02c-.04,0-.06,0-.08,0-.02,0-.04-.02-.06-.04-.02-.02-.03-.04-.03-.07,0-.03,0-.05,0-.07.01-.02.03-.03.04-.04.02,0,.05-.02.09-.02l.2-.02v.04s-.2.02-.2.02c-.03,0-.05,0-.07.01-.01,0-.02.02-.03.03,0,.01,0,.03,0,.05,0,.03.01.05.03.06.02,0,.05.01.09,0l.2-.02Z"/><path class="cls-4" d="m11.52,9.22h.04s.03.12.03.12l-.13.03s-.04-.03-.05-.05c-.01-.02-.02-.04-.03-.06,0-.03,0-.06,0-.08.01-.03.03-.05.05-.07.03-.02.05-.03.09-.04.03,0,.06,0,.1,0,.03,0,.06.02.08.04.02.02.03.05.04.08,0,.02,0,.04,0,.06,0,.02-.01.04-.03.05-.01.01-.03.02-.05.04l-.02-.04s.03-.02.04-.03c0,0,.01-.02.02-.04,0-.01,0-.03,0-.04,0-.02,0-.03-.02-.05,0-.01-.02-.02-.03-.03,0,0-.02,0-.04-.01-.02,0-.05,0-.07,0-.03,0-.06.02-.08.03-.02.01-.03.03-.04.05,0,.02,0,.04,0,.06,0,.02,0,.04.02.05.01.02.02.03.03.03h.06s-.02-.1-.02-.1Z"/><polygon class="cls-4" points="10.04 8.1 10.1 7.75 10.14 7.76 10.09 8.07 10.24 8.1 10.23 8.14 10.04 8.1"/><polygon class="cls-4" points="9.7 8.08 9.7 7.73 9.92 7.73 9.92 7.77 9.74 7.77 9.74 7.87 9.91 7.87 9.91 7.92 9.74 7.92 9.74 8.04 9.93 8.04 9.93 8.08 9.7 8.08"/><path class="cls-4" d="m8.72,8.3l.04-.02s.03.07.02.1c0,.03-.02.06-.04.08-.03.02-.05.03-.08.04-.03,0-.05,0-.08-.02-.03-.02-.05-.04-.08-.06-.03-.03-.04-.06-.05-.08,0-.03,0-.06,0-.08,0-.03.02-.05.04-.07.02-.02.05-.03.08-.03.03,0,.05,0,.08.03l-.02.03s-.04-.02-.06-.02c-.02,0-.03,0-.05.02-.02.02-.03.03-.03.05,0,.02,0,.04,0,.06.01.02.02.04.04.06.02.02.04.04.06.05s.04.02.06.01c.02,0,.04,0,.05-.02.02-.02.03-.04.03-.06,0-.02,0-.05-.02-.07h0Z"/><polygon class="cls-4" points="8.57 8.61 8.31 8.38 8.34 8.35 8.6 8.58 8.57 8.61"/><polygon class="cls-4" points="8.4 8.81 8.12 8.6 8.14 8.57 8.39 8.75 8.49 8.63 8.52 8.66 8.4 8.81"/><path class="cls-4" d="m7.87,9.02l.02-.04.19.08s.06.03.08.04c.02.01.03.03.03.05,0,.02,0,.05,0,.08-.01.03-.03.05-.04.06-.02.01-.04.02-.06.02-.03,0-.05,0-.09-.02l-.19-.08.02-.04.19.08s.05.02.07.02c.02,0,.03,0,.04,0,.01,0,.02-.02.03-.04.01-.03.01-.05,0-.07,0-.02-.04-.04-.08-.05l-.19-.08Z"/><polygon class="cls-4" points="8.08 9.88 7.73 9.88 7.73 9.65 7.77 9.65 7.77 9.84 7.88 9.84 7.88 9.66 7.92 9.66 7.92 9.84 8.04 9.84 8.04 9.64 8.08 9.64 8.08 9.88"/><path class="cls-4" d="m9.4,8.13l-.07-.35.11-.02s.04,0,.06,0c.02,0,.04,0,.05.02.02.01.04.03.05.05.01.02.02.05.03.08,0,.02,0,.05,0,.07,0,.02,0,.04-.01.05,0,.02-.01.03-.02.04,0,0-.02.02-.03.03-.01,0-.03.01-.05.02l-.11.02Zm.03-.05h.07s.04-.02.05-.03c.01,0,.02-.01.02-.02,0-.01.01-.03.01-.05,0-.02,0-.04,0-.07,0-.04-.02-.06-.03-.08-.01-.02-.03-.03-.05-.03-.01,0-.03,0-.05,0h-.07s.05.28.05.28Z"/><path class="cls-4" d="m10.54,8.27l.16-.31.1.05s.03.02.04.03c.01,0,.02.02.03.03,0,.01,0,.02,0,.04,0,.02,0,.03-.01.05-.01.03-.03.04-.06.06-.02.01-.05,0-.09-.01l-.07-.04-.07.13-.04-.02Zm.12-.14l.07.04s.04.02.06.01c.01,0,.03-.02.04-.03,0-.01,0-.03,0-.04s0-.02-.01-.03c0,0-.02-.01-.03-.02l-.07-.04-.06.11Z"/><path class="cls-4" d="m10.72,8.36l.33-.18.03.03-.14.35-.04-.03.04-.1-.1-.09-.1.06-.03-.03Zm.17-.05l.08.07.04-.09s.02-.05.03-.07c-.02.01-.04.03-.05.04l-.1.05Z"/><path class="cls-4" d="m10.98,8.6l.28-.22.08.11s.03.04.03.06c0,.01,0,.03,0,.05,0,.02-.02.03-.03.04-.02.01-.04.02-.06.02-.02,0-.04-.01-.07-.03,0,.01,0,.02,0,.03,0,.02,0,.04-.02.06l-.04.1-.03-.04.03-.08s.01-.04.02-.05c0-.01,0-.02,0-.03,0,0,0-.01,0-.02,0,0,0-.01-.01-.02l-.03-.04-.12.09-.02-.03Zm.18-.09l.05.07s.02.03.03.03c.01,0,.02,0,.03,0,.01,0,.02,0,.03-.01.01-.01.02-.02.02-.04,0-.01,0-.03-.02-.05l-.06-.08-.09.07Z"/><path class="cls-4" d="m11.17,8.84l.37-.07.02.04-.25.28-.02-.04.08-.09-.06-.11-.11.02-.02-.04Zm.17,0l.05.09.07-.08s.04-.04.05-.06c-.02,0-.04.01-.07.02l-.11.02Z"/><path class="cls-4" d="m11.48,9.76l.34.15v.04s-.37.09-.37.09v-.05s.12-.02.12-.02v-.13s-.09-.04-.09-.04v-.04Zm.14.1v.11s.09-.02.09-.02c.03,0,.06-.01.08-.01-.02,0-.04-.01-.06-.03l-.1-.04Z"/><path class="cls-4" d="m8.14,10.2l-.34.08-.03-.14s0-.05,0-.06c0-.02.01-.03.03-.04.01-.01.03-.02.05-.03.02,0,.04,0,.07,0,.02,0,.03.03.05.06,0-.01,0-.02.01-.03.01-.01.02-.03.04-.04l.08-.07v.05s-.05.06-.05.06c-.02.02-.03.03-.04.04,0,0-.02.02-.02.03,0,0,0,.01,0,.02,0,0,0,.01,0,.02v.05s.16-.04.16-.04v.04Zm-.2,0l-.02-.09s0-.03-.02-.04c0,0-.01-.02-.03-.02-.01,0-.02,0-.03,0-.02,0-.03.01-.04.02,0,.01,0,.03,0,.05l.02.1.11-.03Z"/><path class="cls-4" d="m8.09,9.56l-.35-.03v-.12s.02-.04.02-.05c0-.02.01-.03.02-.04,0,0,.02-.02.04-.02.02,0,.03,0,.05,0,.03,0,.05.01.07.03.02.02.03.05.02.09v.08s.13.01.13.01v.04Zm-.18-.06v-.08s0-.05,0-.06c-.01-.01-.03-.02-.05-.02-.01,0-.03,0-.04,0-.01,0-.02.01-.02.02,0,0,0,.02,0,.04v.08s.12,0,.12,0Z"/><path class="cls-4" d="m8.24,9.04l-.29-.2.07-.1s.03-.03.04-.04c.01,0,.03-.01.05-.01.02,0,.03,0,.04.02.01,0,.02.02.03.03,0,.01,0,.03,0,.05.02-.01.03-.02.05-.02.02,0,.04,0,.05.02.01,0,.02.02.03.03,0,.01.01.02.01.04,0,.01,0,.03,0,.04,0,.01-.01.03-.02.04l-.07.1Zm-.15-.15l.04-.06s.02-.03.02-.04c0-.01,0-.02,0-.03,0,0-.01-.02-.02-.02,0,0-.02-.01-.03-.01-.01,0-.02,0-.03,0,0,0-.02.02-.03.04l-.03.05.09.06Zm.14.09l.04-.06s.01-.02.01-.03c0,0,0-.02,0-.03s0-.02,0-.02c0,0-.01-.02-.02-.02-.01,0-.02-.01-.03-.01-.01,0-.02,0-.03.01,0,0-.02.02-.03.04l-.04.06.1.07Z"/><path class="cls-4" d="m8.82,8.36l-.09-.36.04-.02.29.23-.04.03-.09-.07-.11.07.03.11-.04.02Zm0-.17l.09-.06-.08-.07s-.04-.04-.06-.05c0,.02.02.04.02.06l.03.11Z"/></g></g></g></g></g></svg>