<?xml version="1.0" encoding="UTF-8"?><svg id="Capa_2" xmlns="http://www.w3.org/2000/svg" xmlns:xlink="http://www.w3.org/1999/xlink" viewBox="0 0 19.58 19.58"><defs><style>.cls-1{clip-path:url(#clippath);}.cls-2{fill:none;}.cls-2,.cls-3,.cls-4,.cls-5,.cls-6{stroke-width:0px;}.cls-7{clip-path:url(#clippath-1);}.cls-3{fill:#242ea7;}.cls-4{fill:#e50027;}.cls-5{fill:#fff;}.cls-6{fill:#eed12f;}</style><clipPath id="clippath"><circle class="cls-2" cx="9.79" cy="9.79" r="9.79"/></clipPath><clipPath id="clippath-1"><rect class="cls-2" x="-6.99" width="33.56" height="19.58"/></clipPath></defs><g id="_4"><g class="cls-1"><g class="cls-7"><rect class="cls-6" x="-6.99" width="33.56" height="6.53"/><rect class="cls-3" x="-6.99" y="6.53" width="33.56" height="6.53"/><rect class="cls-4" x="-6.99" y="13.05" width="33.56" height="6.53"/><polygon class="cls-5" points="8.33 8.85 8.59 6.99 9.47 8.65 7.78 7.83 9.63 7.5 8.33 8.85"/><polygon class="cls-5" points="10.11 8.65 10.99 6.99 11.25 8.85 9.95 7.5 11.79 7.83 10.11 8.65"/><polygon class="cls-5" points="6.72 9.65 6.33 7.81 7.73 9.07 5.86 8.87 7.49 7.93 6.72 9.65"/><polygon class="cls-5" points="11.85 9.07 13.24 7.81 12.85 9.65 12.09 7.93 13.71 8.87 11.85 9.07"/><polygon class="cls-5" points="5.49 10.95 4.5 9.35 6.24 10.05 4.42 10.51 5.62 9.07 5.49 10.95"/><polygon class="cls-5" points="13.34 10.05 15.08 9.35 14.08 10.95 13.95 9.07 15.16 10.51 13.34 10.05"/><polygon class="cls-5" points="4.78 12.59 3.3 11.43 5.17 11.5 3.62 12.55 4.26 10.78 4.78 12.59"/><polygon class="cls-5" points="14.4 11.5 16.28 11.43 14.8 12.59 15.32 10.78 15.96 12.55 14.4 11.5"/></g></g></g></svg>